#N canvas 500 300 426 206 10;
#N canvas 16 35 189 176 interface 0;
#N canvas 21 119 635 378 findOS 0;
#X msg 380 193 stop;
#X obj 380 268 s \$0-timeout;
#X obj 141 337 s \$0-os;
#X obj 202 218 r \$0-uninstalled;
#X obj 141 14 r \$0-checkdone;
#X obj 380 218 delay 100;
#X msg 202 241 bang;
#X obj 141 47 t b b;
#X text 196 337 0:Mac OSX \, 1:Windows \, 2:Linux;
#X obj 141 292 change -1;
#N canvas 242 144 256 252 detectOS 0;
#X obj 65 72 gl/ext/hcs/uname;
#X obj 123 191 outlet;
#X obj 65 40 inlet;
#X obj 65 104 route Darwin Windows;
#X msg 65 138 0;
#X msg 123 139 1;
#X msg 182 139 2;
#X connect 0 0 3 0;
#X connect 2 0 0 0;
#X connect 3 0 4 0;
#X connect 3 1 5 0;
#X connect 3 2 6 0;
#X connect 4 0 1 0;
#X connect 5 0 1 0;
#X connect 6 0 1 0;
#X restore 141 89 pd detectOS;
#X obj 141 131 t f b;
#X msg 380 243 Cannot load required objects.;
#X connect 0 0 5 0;
#X connect 3 0 6 0;
#X connect 4 0 7 0;
#X connect 5 0 12 0;
#X connect 6 0 9 0;
#X connect 7 0 10 0;
#X connect 7 1 5 0;
#X connect 9 0 2 0;
#X connect 10 0 11 0;
#X connect 11 0 9 0;
#X connect 11 1 0 0;
#X connect 12 0 1 0;
#X restore 2 25 pd findOS;
#N canvas 179 93 800 665 labels 0;
#X obj 13 180 s \$0-cnvdest;
#X obj 13 127 gl/ext/zexy/list2symbol;
#X obj 197 125 gl/ext/zexy/list2symbol;
#X msg 13 152 label \$1;
#X msg 197 150 label \$1;
#X obj 197 179 s \$0-cnvspace;
#X msg 270 57 symbol empty;
#X msg 13 102 Destination Folder: \$1;
#X obj 13 21 r \$0-destpath;
#X obj 270 21 r \$0-editpatch;
#X obj 352 124 gl/ext/zexy/list2symbol;
#X msg 347 150 label \$1;
#X obj 431 78 loadbang;
#X obj 347 179 s \$0-cnvversion;
#X obj 446 180 s \$0-cnvinstall;
#X msg 446 153 label \$1 \, label_pos 16 16;
#X obj 385 21 r \$0-uninstalled;
#X obj 420 262 textfile;
#X msg 469 438 Space required: \$1;
#X msg 275 449 v \$1;
#X msg 385 53 bang;
#X obj 442 521 s \$0-checkdone;
#X obj 590 439 s \$0-space;
#X obj 439 332 route version space;
#X text 487 263 Checking installer's version for labeling;
#X obj 469 287 t b b;
#X obj 473 384 list;
#X obj 355 395 list;
#X obj 265 536 gl/ext/zexy/symbol2list .;
#X msg 265 512 symbol 1\$1;
#X obj 265 560 gl/ext/iemlib/mergefilename;
#X obj 265 585 gl/ext/zexy/symbol2list;
#X obj 353 449 s \$0-version;
#X obj 265 609 s \$0-fversion;
#X obj 604 409 del 10;
#X obj 576 356 change;
#X msg 576 379 stop;
#X msg 576 332 1;
#X obj 420 287 t b a b;
#X obj 604 523 s \$0-failed;
#X msg 420 233 read gl/updatelog.txt \, rewind \, bang;
#X msg 604 493 Cannot read "gl/updatelog.txt";
#N canvas 117 130 656 346 raise 0;
#X msg 255 170 menu_raise_pdwindow;
#X obj 255 276 gl/ext/hcs/sys_gui;
#X obj 255 28 inlet;
#X connect 0 0 1 0;
#X connect 2 0 0 0;
#X restore 649 232 pd raise;
#X obj 431 204 t b b b;
#X connect 1 0 3 0;
#X connect 2 0 4 0;
#X connect 3 0 0 0;
#X connect 4 0 5 0;
#X connect 6 0 3 0;
#X connect 6 0 4 0;
#X connect 6 0 11 0;
#X connect 6 0 15 0;
#X connect 7 0 1 0;
#X connect 8 0 7 0;
#X connect 9 0 6 0;
#X connect 10 0 11 0;
#X connect 11 0 13 0;
#X connect 12 0 43 0;
#X connect 15 0 14 0;
#X connect 16 0 20 0;
#X connect 17 0 38 0;
#X connect 17 1 25 0;
#X connect 18 0 2 0;
#X connect 19 0 10 0;
#X connect 20 0 27 0;
#X connect 23 0 27 1;
#X connect 23 1 26 1;
#X connect 25 0 21 0;
#X connect 25 1 26 0;
#X connect 25 1 27 0;
#X connect 26 0 18 0;
#X connect 26 0 22 0;
#X connect 27 0 19 0;
#X connect 27 0 29 0;
#X connect 27 0 32 0;
#X connect 28 0 30 0;
#X connect 29 0 28 0;
#X connect 30 0 31 0;
#X connect 31 0 33 0;
#X connect 34 0 41 0;
#X connect 35 0 36 0;
#X connect 36 0 34 0;
#X connect 37 0 35 0;
#X connect 38 0 17 0;
#X connect 38 1 23 0;
#X connect 38 2 37 0;
#X connect 40 0 17 0;
#X connect 41 0 39 0;
#X connect 43 0 40 0;
#X connect 43 1 34 0;
#X connect 43 2 42 0;
#X restore 2 6 pd labels;
#N canvas 46 64 448 287 failed 0;
#X obj 16 117 print Failed to install;
#X obj 16 65 r \$0-failed;
#X obj 16 145 r \$0-timeout;
#X obj 16 197 print Failed to install (timeout);
#X obj 352 212 print :;
#X msg 352 188 :;
#X obj 16 171 t a b;
#X obj 16 91 t a b;
#X connect 1 0 7 0;
#X connect 2 0 6 0;
#X connect 5 0 4 0;
#X connect 6 0 3 0;
#X connect 6 1 5 0;
#X connect 7 0 0 0;
#X connect 7 1 5 0;
#X restore 2 65 pd failed;
#N canvas 67 57 330 195 winlock 0;
#X obj 74 94 pack float symbol;
#X msg 74 119 wm resizable \$2 \$1 \$1;
#X obj 74 15 loadbang;
#X obj 74 37 t b b;
#X msg 74 62 0;
#X obj 173 72 gl/ext/hcs/window_name 2;
#X obj 74 145 gl/ext/hcs/sys_gui;
#X obj 117 67 tgl 15 0 empty empty empty 17 7 0 10 -262144 -1 -1 0
1;
#X connect 0 0 1 0;
#X connect 1 0 6 0;
#X connect 2 0 3 0;
#X connect 3 0 4 0;
#X connect 3 1 5 0;
#X connect 4 0 0 0;
#X connect 5 0 0 1;
#X connect 7 0 0 0;
#X restore 2 84 pd winlock;
#N canvas 73 106 450 300 editlock 0;
#X obj 68 92 delay 1;
#X msg 68 122 editmode 0;
#X msg 239 188 vis 1;
#X msg 68 62 bang;
#N canvas 286 238 789 579 install-btn 0;
#X obj 189 93 list split 2;
#X obj 169 120 unpack f f;
#X obj 139 143 t f f;
#X obj 156 203 &&;
#X obj 237 145 t f f;
#X obj 254 205 &&;
#X obj 203 250 &&;
#X obj 164 453 s \$0-cnvinstall;
#N canvas 236 497 450 300 rgb 0;
#X obj 270 96 t b f;
#X obj 204 154 +;
#X obj 204 179 t b f;
#X obj 204 210 +;
#X obj 149 74 * -65536;
#X obj 204 74 * -256;
#X obj 270 74 * -1;
#X obj 204 241 - 1;
#X obj 171 46 unpack f f f;
#X obj 178 19 inlet;
#X obj 206 269 outlet;
#X connect 0 0 1 0;
#X connect 0 1 1 1;
#X connect 1 0 2 0;
#X connect 2 0 3 0;
#X connect 2 1 3 1;
#X connect 3 0 7 0;
#X connect 4 0 3 0;
#X connect 5 0 1 0;
#X connect 6 0 0 0;
#X connect 7 0 10 0;
#X connect 8 0 4 0;
#X connect 8 1 5 0;
#X connect 8 2 6 0;
#X connect 9 0 8 0;
#X restore 254 379 pd rgb;
#X obj 239 402 f;
#X msg 341 354 80 216 196;
#X msg 164 429 color \$1 0;
#N canvas 236 497 450 300 rgb 0;
#X obj 270 96 t b f;
#X obj 204 154 +;
#X obj 204 179 t b f;
#X obj 204 210 +;
#X obj 149 74 * -65536;
#X obj 204 74 * -256;
#X obj 270 74 * -1;
#X obj 204 241 - 1;
#X obj 171 46 unpack f f f;
#X obj 178 19 inlet;
#X obj 206 269 outlet;
#X connect 0 0 1 0;
#X connect 0 1 1 1;
#X connect 1 0 2 0;
#X connect 2 0 3 0;
#X connect 2 1 3 1;
#X connect 3 0 7 0;
#X connect 4 0 3 0;
#X connect 5 0 1 0;
#X connect 6 0 0 0;
#X connect 7 0 10 0;
#X connect 8 0 4 0;
#X connect 8 1 5 0;
#X connect 8 2 6 0;
#X connect 9 0 8 0;
#X restore 344 377 pd rgb;
#X obj 329 405 f;
#X obj 278 326 sel 1 0;
#X msg 89 119 \$3;
#X obj 89 150 sel 1;
#X obj 132 286 f;
#X obj 277 276 change;
#X obj 189 66 route motion mouse mouseup;
#X msg 294 98 \$3;
#X obj 293 131 sel 1;
#X obj 132 310 sel 1;
#N canvas 236 497 450 300 rgb 0;
#X obj 270 96 t b f;
#X obj 204 154 +;
#X obj 204 179 t b f;
#X obj 204 210 +;
#X obj 149 74 * -65536;
#X obj 204 74 * -256;
#X obj 270 74 * -1;
#X obj 204 241 - 1;
#X obj 171 46 unpack f f f;
#X obj 178 19 inlet;
#X obj 206 269 outlet;
#X connect 0 0 1 0;
#X connect 0 1 1 1;
#X connect 1 0 2 0;
#X connect 2 0 3 0;
#X connect 2 1 3 1;
#X connect 3 0 7 0;
#X connect 4 0 3 0;
#X connect 5 0 1 0;
#X connect 6 0 0 0;
#X connect 7 0 10 0;
#X connect 8 0 4 0;
#X connect 8 1 5 0;
#X connect 8 2 6 0;
#X connect 9 0 8 0;
#X restore 193 358 pd rgb;
#X obj 122 388 f;
#X obj 122 338 t b b;
#X msg 154 362 0;
#X obj 277 301 spigot 1;
#X msg 367 274 1;
#X obj 80 383 f;
#X obj 80 411 sel 1;
#X obj 80 551 s \$0-install;
#X obj 189 8 inlet;
#X obj 293 213 t b b;
#X obj 80 511 del 100;
#X msg 257 351 60 196 186;
#X msg 196 330 40 176 176;
#X obj 441 70 r \$0-done;
#N canvas 236 497 450 300 rgb 0;
#X obj 270 96 t b f;
#X obj 204 154 +;
#X obj 204 179 t b f;
#X obj 204 210 +;
#X obj 149 74 * -65536;
#X obj 204 74 * -256;
#X obj 270 74 * -1;
#X obj 204 241 - 1;
#X obj 171 46 unpack f f f;
#X obj 178 19 inlet;
#X obj 206 269 outlet;
#X connect 0 0 1 0;
#X connect 0 1 1 1;
#X connect 1 0 2 0;
#X connect 2 0 3 0;
#X connect 2 1 3 1;
#X connect 3 0 7 0;
#X connect 4 0 3 0;
#X connect 5 0 1 0;
#X connect 6 0 0 0;
#X connect 7 0 10 0;
#X connect 8 0 4 0;
#X connect 8 1 5 0;
#X connect 8 2 6 0;
#X connect 9 0 8 0;
#X restore 420 378 pd rgb;
#X obj 405 406 f;
#X obj 507 259 t b b;
#X obj 358 191 t b b;
#X obj 358 167 loadbang;
#X obj 590 92 r \$0-failed;
#X obj 664 92 r \$0-timeout;
#X obj 553 257 t b b;
#X msg 419 356 210 225 220;
#X obj 175 172 < 250;
#X obj 139 172 > 180;
#X obj 237 173 > 152;
#X obj 273 173 < 184;
#X obj 435 115 r \$0-isinstalled;
#X msg 508 346 label Done \, label_pos 17 16;
#X msg 580 382 label Failed \, label_pos 16 16;
#X obj 189 36 spigot 1;
#X msg 405 89 0;
#X obj 435 149 sel 0 1 2;
#X msg 435 173 label Install \, label_pos 16 16;
#X msg 469 221 label Update \, label_pos 12 16;
#X msg 452 198 label Uninstall \, label_pos 7 16;
#X connect 0 0 1 0;
#X connect 1 0 2 0;
#X connect 1 1 4 0;
#X connect 2 0 48 0;
#X connect 2 1 47 0;
#X connect 3 0 6 0;
#X connect 4 0 49 0;
#X connect 4 1 50 0;
#X connect 5 0 6 1;
#X connect 6 0 17 1;
#X connect 6 0 18 0;
#X connect 8 0 9 1;
#X connect 9 0 11 0;
#X connect 10 0 12 0;
#X connect 11 0 7 0;
#X connect 12 0 13 1;
#X connect 13 0 11 0;
#X connect 14 0 9 0;
#X connect 14 1 13 0;
#X connect 15 0 16 0;
#X connect 16 0 17 0;
#X connect 17 0 22 0;
#X connect 17 0 29 1;
#X connect 18 0 27 0;
#X connect 19 0 0 0;
#X connect 19 1 15 0;
#X connect 19 2 20 0;
#X connect 20 0 21 0;
#X connect 21 0 33 0;
#X connect 22 0 25 0;
#X connect 23 0 24 1;
#X connect 24 0 11 0;
#X connect 25 0 24 0;
#X connect 25 1 26 0;
#X connect 26 0 27 1;
#X connect 27 0 14 0;
#X connect 28 0 27 1;
#X connect 29 0 30 0;
#X connect 30 0 34 0;
#X connect 32 0 54 0;
#X connect 33 0 28 0;
#X connect 33 0 18 0;
#X connect 33 1 29 0;
#X connect 34 0 31 0;
#X connect 35 0 8 0;
#X connect 36 0 23 0;
#X connect 37 0 40 0;
#X connect 37 0 55 0;
#X connect 38 0 39 1;
#X connect 39 0 11 0;
#X connect 40 0 39 0;
#X connect 40 1 52 0;
#X connect 41 0 13 0;
#X connect 41 1 36 0;
#X connect 41 1 35 0;
#X connect 41 1 10 0;
#X connect 41 1 46 0;
#X connect 42 0 41 0;
#X connect 43 0 45 0;
#X connect 43 0 55 0;
#X connect 44 0 45 0;
#X connect 44 0 55 0;
#X connect 45 0 39 0;
#X connect 45 1 53 0;
#X connect 46 0 38 0;
#X connect 47 0 3 1;
#X connect 48 0 3 0;
#X connect 49 0 5 0;
#X connect 50 0 5 1;
#X connect 51 0 56 0;
#X connect 52 0 7 0;
#X connect 53 0 7 0;
#X connect 54 0 19 0;
#X connect 55 0 54 1;
#X connect 56 0 57 0;
#X connect 56 1 59 0;
#X connect 56 2 58 0;
#X connect 57 0 7 0;
#X connect 58 0 7 0;
#X connect 59 0 7 0;
#X restore 116 63 pd install-btn;
#X obj 68 212 gl/ext/iemguts/sendcanvas 2;
#X obj 239 212 gl/ext/iemguts/sendcanvas 1;
#X obj 239 106 key;
#X obj 239 133 sel 10;
#X obj 239 160 spigot;
#X obj 304 25 loadbang;
#X obj 304 77 list split 1;
#X obj 338 104 == 0;
#X obj 68 157 spigot 1;
#X obj 284 188 s \$0-editpatch;
#X obj 68 28 gl/ext/iemguts/receivecanvas 2;
#X msg 304 52 patchlock 1;
#X connect 0 0 1 0;
#X connect 1 0 13 0;
#X connect 2 0 6 0;
#X connect 3 0 0 0;
#X connect 7 0 8 0;
#X connect 8 0 9 0;
#X connect 9 0 2 0;
#X connect 9 0 14 0;
#X connect 10 0 16 0;
#X connect 11 1 12 0;
#X connect 11 1 13 1;
#X connect 12 0 9 1;
#X connect 13 0 5 0;
#X connect 15 0 3 0;
#X connect 15 0 4 0;
#X connect 16 0 11 0;
#X restore 2 104 pd editlock;
#N canvas 173 109 391 305 install 0;
#X obj 104 65 r \$0-os;
#X obj 104 126 route 0 1 2;
#N canvas 84 161 1045 489 uninstall 0;
#X msg 636 148 : : :;
#X obj 105 14 inlet;
#X obj 73 230 s \$0-cnvdest;
#X obj 73 177 gl/ext/zexy/list2symbol;
#X obj 257 175 gl/ext/zexy/list2symbol;
#X msg 73 202 label \$1;
#X msg 257 200 label \$1;
#X obj 257 229 s \$0-cnvspace;
#X msg 73 152 Installed Folder: \$1;
#X obj 439 202 gl/ext/zexy/list2symbol;
#X msg 439 227 label \$1;
#X obj 439 256 s \$0-cnvversion;
#X obj 105 36 symbol;
#X obj 461 26 r \$0-isinstalled;
#X obj 378 85 spigot;
#X obj 378 26 r \$0-install;
#X obj 321 372 gl/ext/hcs/sys_gui;
#X obj 321 288 symbol;
#X msg 321 345 file delete -force "\$1";
#X obj 321 448 s \$0-uninstalled;
#X msg 321 397 bang;
#X msg 426 85 0;
#X obj 321 423 delay 100;
#X msg 458 385 : : :;
#X obj 458 411 print : : : :Uninstalling GemmaLib;
#X obj 321 315 t a b;
#X obj 636 180 print : : : :It seems like you have already installed
this version;
#X obj 472 116 r \$0-version;
#X obj 439 155 symbol;
#X msg 439 179 v \$1 - installation detected;
#X obj 290 92 r \$0-space;
#X msg 257 152 Space using: \$1;
#X obj 257 128 symbol;
#X obj 105 59 t a b b b a;
#X obj 461 51 == 1;
#X connect 0 0 26 0;
#X connect 1 0 12 0;
#X connect 3 0 5 0;
#X connect 4 0 6 0;
#X connect 5 0 2 0;
#X connect 6 0 7 0;
#X connect 8 0 3 0;
#X connect 9 0 10 0;
#X connect 10 0 11 0;
#X connect 12 0 33 0;
#X connect 13 0 34 0;
#X connect 14 0 17 0;
#X connect 14 0 21 0;
#X connect 15 0 14 0;
#X connect 16 0 20 0;
#X connect 17 0 25 0;
#X connect 18 0 16 0;
#X connect 20 0 22 0;
#X connect 21 0 14 1;
#X connect 22 0 19 0;
#X connect 23 0 24 0;
#X connect 25 0 18 0;
#X connect 25 1 23 0;
#X connect 27 0 28 1;
#X connect 28 0 29 0;
#X connect 29 0 9 0;
#X connect 30 0 32 1;
#X connect 31 0 4 0;
#X connect 32 0 31 0;
#X connect 33 0 8 0;
#X connect 33 1 32 0;
#X connect 33 2 28 0;
#X connect 33 3 0 0;
#X connect 33 4 17 1;
#X connect 34 0 14 1;
#X restore 151 213 pd uninstall;
#N canvas 277 53 832 779 update 0;
#X msg 476 175 : : :;
#X obj 105 7 inlet;
#X obj 105 36 symbol;
#X obj 479 14 r \$0-isinstalled;
#X obj 378 85 spigot;
#X obj 378 13 r \$0-install;
#X obj 109 688 gl/ext/hcs/sys_gui;
#X msg 426 85 0;
#X msg 339 662 : : :;
#X obj 339 688 print : : : :Updating GemmaLib;
#X msg 438 283 symbol;
#X obj 303 340 list trim;
#X obj 303 368 route /;
#X obj 303 392 route /;
#X obj 303 250 gl/ext/zexy/list2symbol;
#X obj 303 309 gl/ext/zexy/symbol2list;
#X obj 342 417 gl/ext/iemlib/mergefilename;
#X obj 479 40 == 2;
#X obj 92 266 r \$0-installedv;
#X obj 105 129 textfile;
#X msg 105 102 read gl/updatelog.txt \, rewind \, bang;
#X obj 65 296 sel s;
#X obj 476 207 print : : : :You can update to the newer version;
#X text 107 284 currently installed version;
#X obj 105 157 t b a;
#X obj 132 192 route version space <updates>;
#X obj 65 238 symbol;
#X msg 65 323 1;
#X obj 109 238 spigot;
#X obj 77 214 t a b;
#X obj 303 221 spigot;
#X msg 336 199 1;
#X msg 424 199 0;
#X obj 166 568 gl/ext/ggee/getdir;
#X msg 109 661 file copy -force "\$3/gl/\$1" "\$2/\$1";
#X obj 109 594 pack s s s;
#X obj 342 443 list prepend;
#X obj 425 443 t a;
#X obj 105 65 t b b a b;
#X obj 112 527 list split 1;
#X obj 112 500 list append;
#X obj 238 692 s \$0-done;
#X obj 187 456 t b b;
#X obj 634 620 list;
#X obj 36 720 t b b;
#X obj 109 624 t a a;
#X msg 634 647 "\$2/\$1";
#X obj 634 676 print Updated file;
#X msg 246 725 : : :;
#X obj 246 751 print : : : :Update Succeeded;
#X obj 533 386 s \$0-cnvdest;
#X obj 533 333 gl/ext/zexy/list2symbol;
#X msg 533 358 label \$1;
#X msg 533 308 Destination Folder: \$1;
#X obj 531 499 gl/ext/zexy/list2symbol;
#X msg 531 524 label \$1;
#X obj 531 547 s \$0-cnvspace;
#X obj 295 469 list;
#X obj 310 497 list length;
#X msg 531 473 Number of files to be updated: \$1;
#X connect 0 0 22 0;
#X connect 1 0 2 0;
#X connect 2 0 38 0;
#X connect 3 0 17 0;
#X connect 4 0 7 0;
#X connect 4 0 42 0;
#X connect 5 0 4 0;
#X connect 6 0 44 0;
#X connect 7 0 4 1;
#X connect 8 0 9 0;
#X connect 10 0 15 1;
#X connect 11 0 12 0;
#X connect 12 0 13 0;
#X connect 12 1 16 0;
#X connect 13 1 16 0;
#X connect 14 0 15 0;
#X connect 15 0 11 0;
#X connect 16 0 36 0;
#X connect 17 0 4 1;
#X connect 18 0 21 1;
#X connect 19 0 24 0;
#X connect 19 1 0 0;
#X connect 19 1 57 0;
#X connect 20 0 19 0;
#X connect 21 0 27 0;
#X connect 24 0 19 0;
#X connect 24 1 25 0;
#X connect 25 0 29 0;
#X connect 25 3 30 0;
#X connect 26 0 21 0;
#X connect 27 0 28 1;
#X connect 28 0 31 0;
#X connect 29 0 26 0;
#X connect 29 1 28 0;
#X connect 30 0 14 0;
#X connect 31 0 30 1;
#X connect 32 0 28 1;
#X connect 32 0 30 1;
#X connect 33 0 35 2;
#X connect 34 0 6 0;
#X connect 35 0 45 0;
#X connect 36 0 37 0;
#X connect 36 0 57 1;
#X connect 37 0 36 1;
#X connect 38 0 20 0;
#X connect 38 1 36 1;
#X connect 38 1 10 0;
#X connect 38 1 32 0;
#X connect 38 2 35 1;
#X connect 38 2 53 0;
#X connect 38 3 33 0;
#X connect 39 0 35 0;
#X connect 39 1 40 1;
#X connect 39 2 41 0;
#X connect 39 2 48 0;
#X connect 40 0 39 0;
#X connect 42 0 40 0;
#X connect 42 1 8 0;
#X connect 43 0 46 0;
#X connect 44 0 40 0;
#X connect 44 1 43 0;
#X connect 45 0 34 0;
#X connect 45 1 43 1;
#X connect 46 0 47 0;
#X connect 48 0 49 0;
#X connect 51 0 52 0;
#X connect 52 0 50 0;
#X connect 53 0 51 0;
#X connect 54 0 55 0;
#X connect 55 0 56 0;
#X connect 57 0 40 1;
#X connect 57 0 58 0;
#X connect 58 0 59 0;
#X connect 59 0 54 0;
#X restore 231 213 pd update;
#N canvas 12 44 845 789 install 0;
#X obj 184 52 sel 0 1 2;
#X msg 178 97 %AppData%;
#X msg 243 97 ~/pd-externals;
#X obj 178 182 gl/ext/hcs/folder_list;
#X obj 178 157 symbol;
#X msg 161 355 file mkdir "\$1/Pd";
#X msg 113 97 ~/Library;
#X obj 178 237 spigot;
#X obj 261 52 != 2;
#X msg 323 224 stop;
#X obj 228 237 spigot;
#X obj 261 217 == 0;
#X obj 324 301 s \$0-failed;
#X obj 178 207 t a b;
#X obj 324 248 delay 100;
#X obj 351 464 s \$0-destpath;
#X msg 351 344 "\$1/Pd";
#X msg 369 366 "\$1";
#X obj 246 259 t b a;
#X obj 351 440 symbol;
#X obj 161 328 symbol;
#X obj 178 264 t b a a;
#X obj 88 297 spigot;
#X msg 121 273 1;
#X obj 228 328 spigot;
#X msg 246 283 1;
#X msg 324 274 Cannot find the destination folder to install.;
#X obj 351 414 print Destination Folder;
#X obj 184 19 t f f b;
#X obj 468 95 r \$0-install;
#X obj 468 186 spigot;
#X obj 501 159 == 0;
#X obj 501 134 r \$0-isinstalled;
#X msg 476 215 0;
#X obj 161 383 gl/ext/hcs/sys_gui;
#X obj 161 444 gl/ext/ggee/getdir;
#X obj 161 414 t b b;
#X obj 204 531 r \$0-destpath;
#X obj 159 561 pack s s;
#X msg 159 587 file copy "\$1/gl" \$2;
#X obj 159 612 t a b;
#X msg 438 556 : : :;
#X obj 438 583 print : : : :Installing GemmaLib;
#X obj 161 531 symbol;
#X obj 161 501 delay 100;
#X obj 161 472 t b a;
#X obj 159 637 gl/ext/hcs/sys_gui;
#X obj 186 720 realtime;
#X msg 146 852 : : :;
#X obj 146 878 print : : : :Install Succeeded;
#X obj 213 851 s \$0-done;
#X obj 186 814 print Elapsed;
#X msg 186 791 \$1ms;
#X obj 186 770 int;
#X obj 186 742 t f b;
#X msg 231 691 bang;
#X obj 184 -5 inlet;
#X connect 0 0 6 0;
#X connect 0 1 1 0;
#X connect 0 2 2 0;
#X connect 1 0 4 0;
#X connect 2 0 4 0;
#X connect 3 0 13 0;
#X connect 4 0 3 0;
#X connect 5 0 34 0;
#X connect 6 0 4 0;
#X connect 7 0 21 0;
#X connect 8 0 7 1;
#X connect 8 0 11 0;
#X connect 9 0 14 0;
#X connect 10 0 18 0;
#X connect 11 0 10 1;
#X connect 13 0 7 0;
#X connect 13 0 10 0;
#X connect 13 1 9 0;
#X connect 14 0 26 0;
#X connect 16 0 19 0;
#X connect 16 0 27 0;
#X connect 17 0 19 0;
#X connect 17 0 27 0;
#X connect 18 0 25 0;
#X connect 18 1 17 0;
#X connect 19 0 15 0;
#X connect 20 0 5 0;
#X connect 21 0 23 0;
#X connect 21 1 20 1;
#X connect 21 2 16 0;
#X connect 22 0 20 0;
#X connect 23 0 22 1;
#X connect 24 0 36 0;
#X connect 25 0 24 1;
#X connect 26 0 12 0;
#X connect 28 0 0 0;
#X connect 28 1 8 0;
#X connect 28 2 14 0;
#X connect 29 0 30 0;
#X connect 30 0 22 0;
#X connect 30 0 24 0;
#X connect 30 0 33 0;
#X connect 31 0 30 1;
#X connect 32 0 31 0;
#X connect 33 0 30 1;
#X connect 34 0 36 0;
#X connect 35 0 45 0;
#X connect 36 0 35 0;
#X connect 36 1 41 0;
#X connect 37 0 38 1;
#X connect 38 0 39 0;
#X connect 39 0 40 0;
#X connect 40 0 46 0;
#X connect 40 1 47 0;
#X connect 41 0 42 0;
#X connect 43 0 38 0;
#X connect 44 0 43 0;
#X connect 45 0 44 0;
#X connect 45 1 43 1;
#X connect 46 0 55 0;
#X connect 47 0 54 0;
#X connect 48 0 49 0;
#X connect 52 0 51 0;
#X connect 53 0 52 0;
#X connect 54 0 53 0;
#X connect 54 1 50 0;
#X connect 54 1 48 0;
#X connect 55 0 47 1;
#X connect 56 0 28 0;
#X restore 83 213 pd install;
#N canvas 26 35 711 711 check_version 0;
#X obj 129 30 inlet;
#X obj 167 633 outlet;
#X obj 129 102 sel 0 1 2;
#X obj 146 227 gl/ext/hcs/folder_list;
#X obj 146 202 symbol;
#X msg 245 152 ~/pd-externals/gl;
#X msg 146 152 %AppData%/Pd/gl;
#X msg 290 227 stop;
#X obj 290 253 delay 10;
#X msg 206 519 0;
#X text 236 519 not installed;
#X obj 290 302 gl/ext/hcs/sys_gui;
#X msg 290 278 menu_clear_console;
#X msg 42 152 ~/Library/Pd/gl;
#X msg 458 417 : : :;
#X obj 458 443 print : : : :GemmaLib Installer;
#X obj 370 462 sel 0 1 2;
#X msg 387 498 Windows;
#X msg 438 498 Linux;
#X msg 332 498 Mac OS X;
#X obj 387 540 print Operating System;
#X obj 370 433 f;
#X obj 290 332 t b b;
#X obj 167 598 list append;
#X obj 166 559 t f f;
#X obj 225 634 s \$0-isinstalled;
#X msg 457 261 : : :;
#X obj 457 287 print : : : :Uninstall Succeeded;
#X obj 490 172 r \$0-uninstalled;
#X msg 490 208 1;
#X obj 457 234 spigot;
#X obj 370 380 t b b b;
#X obj 32 310 textfile;
#X obj 48 244 t a a;
#X obj 51 364 route version;
#X text 129 656 0 not installed 1.same version installed 2 previous
version installed;
#X obj 57 631 t f b;
#X text 46 407 checking currently installed version;
#X obj 32 335 t b a b;
#X obj 57 571 <;
#X obj 57 601 + 1;
#X obj 30 387 list;
#X obj 30 491 gl/ext/zexy/symbol2list .;
#X msg 30 467 symbol 1\$1;
#X obj 30 515 gl/ext/iemlib/mergefilename;
#X obj 31 538 gl/ext/zexy/symbol2list;
#X obj 152 362 r \$0-fversion;
#X obj 140 317 change;
#X msg 110 318 1;
#X obj 129 65 t f b f b;
#X msg 198 103 set 0;
#X obj -27 412 route bang;
#X text 237 363 installer version;
#X obj 30 436 t a a;
#X msg 32 285 clear \, read \$1/updatelog.txt \, rewind \, bang;
#X obj 107 467 s \$0-installedv;
#X connect 0 0 49 0;
#X connect 2 0 13 0;
#X connect 2 1 6 0;
#X connect 2 2 5 0;
#X connect 3 0 33 0;
#X connect 4 0 3 0;
#X connect 5 0 4 0;
#X connect 6 0 4 0;
#X connect 7 0 8 0;
#X connect 8 0 12 0;
#X connect 9 0 24 0;
#X connect 11 0 22 0;
#X connect 12 0 11 0;
#X connect 13 0 4 0;
#X connect 14 0 15 0;
#X connect 16 0 19 0;
#X connect 16 1 17 0;
#X connect 16 2 18 0;
#X connect 17 0 20 0;
#X connect 18 0 20 0;
#X connect 19 0 20 0;
#X connect 21 0 16 0;
#X connect 22 0 9 0;
#X connect 22 1 31 0;
#X connect 23 0 1 0;
#X connect 24 0 23 0;
#X connect 24 1 25 0;
#X connect 26 0 27 0;
#X connect 28 0 29 0;
#X connect 29 0 30 1;
#X connect 30 0 26 0;
#X connect 31 0 21 0;
#X connect 31 1 14 0;
#X connect 31 2 30 0;
#X connect 32 0 38 0;
#X connect 32 1 41 0;
#X connect 33 0 54 0;
#X connect 33 1 23 1;
#X connect 34 0 41 1;
#X connect 36 0 24 0;
#X connect 36 1 31 0;
#X connect 38 0 32 0;
#X connect 38 1 34 0;
#X connect 38 2 48 0;
#X connect 39 0 40 0;
#X connect 40 0 36 0;
#X connect 41 0 51 0;
#X connect 42 0 44 0;
#X connect 43 0 42 0;
#X connect 44 0 45 0;
#X connect 45 0 39 0;
#X connect 46 0 39 1;
#X connect 47 0 7 0;
#X connect 48 0 47 0;
#X connect 49 0 2 0;
#X connect 49 1 8 0;
#X connect 49 2 21 1;
#X connect 49 2 23 1;
#X connect 49 3 50 0;
#X connect 50 0 47 0;
#X connect 51 1 53 0;
#X connect 53 0 43 0;
#X connect 53 1 55 0;
#X connect 54 0 32 0;
#X restore 104 95 pd check_version;
#X connect 0 0 5 0;
#X connect 1 0 4 0;
#X connect 1 1 2 0;
#X connect 1 2 3 0;
#X connect 5 0 1 0;
#X restore 2 45 pd install;
#N canvas 172 83 586 377 LICENSE-GPL 0;
#X text 57 88 This program is free software: you can redistribute it
and/or modify it under the terms of the GNU General Public License
as published by the Free Software Foundation \, either version 3 of
the License \, or (at your option) any later version.;
#X text 58 168 This program is distributed in the hope that it will
be useful \, but WITHOUT ANY WARRANTY \; without even the implied warranty
of MERCHANTABILITY or FITNESS FOR A PARTICULAR PURPOSE. See the GNU
General Public License for more details.;
#X text 57 261 You should have received a copy of the GNU General Public
License along with this program. If not \, see <http://www.gnu.org/licenses/>.
;
#X text 60 325 See the file LICENSE.txt for the full license text.
;
#X text 61 54 Copyright (C) 2016 \, Iceblink Digital \, Inc.;
#X restore 2 124 pd LICENSE-GPL;
#X coords 0 0 1 1 1 1 2 0 0;
#X restore 109 20 pd interface;
#X obj 14 15 cnv 15 398 26 empty empty GemmaLib 4 15 1 22 -138934 -66577
0;
#X obj 14 42 cnv 15 398 16 empty \$0-cnvversion empty 8 9 1 11 -85426
-66577 0;
#X obj 14 141 cnv 15 398 50 empty empty empty 111 18 1 18 -249727 -66577
0;
#X obj 179 151 cnv 15 70 30 empty \$0-cnvinstall empty 16 16 1 14 -85426
-262144 0;
#X obj 14 59 cnv 15 398 40 empty \$0-cnvdest empty 6 20 1 12 -228856
-66577 0;
#X obj 14 100 cnv 15 398 40 empty \$0-cnvspace empty 6 20 1 12 -216373
-66577 0;
#X coords 0 0 1 1 85 60 0;
