#N canvas 647 68 577 439 10;
#X obj 150 75 gl/ext/ggee/getdir;
#X obj 150 131 list split 1;
#X obj 123 158 sel s;
#X obj 150 103 gl/ext/zexy/symbol2list /gl/abs/p.display;
#X obj 123 48 t a b;
#X obj 123 18 r \$1-saveddir;
#X msg 123 189 1;
#X msg 150 189 0;
#X obj 140 256 s \$1-isproject;
#X obj 123 378 gl/ext/iemguts/canvasdelete 1;
#X obj 323 301 gl/ext/iemguts/canvasselect 1;
#X obj 323 250 gl/ext/iemguts/canvasindex;
#X msg 323 275 select \$1;
#X obj 123 222 t b f b b;
#X obj 309 378 gl/ext/iemguts/sendcanvas 1;
#X msg 309 353 key 1 Left 0 \, key 0 Left 0;
#X connect 0 0 3 0;
#X connect 1 0 2 1;
#X connect 2 0 6 0;
#X connect 2 1 7 0;
#X connect 3 0 1 0;
#X connect 4 0 2 0;
#X connect 4 1 0 0;
#X connect 5 0 4 0;
#X connect 6 0 13 0;
#X connect 7 0 13 0;
#X connect 11 0 12 0;
#X connect 12 0 10 0;
#X connect 13 0 9 0;
#X connect 13 1 8 0;
#X connect 13 2 15 0;
#X connect 13 3 11 0;
#X connect 15 0 14 0;
