#N canvas 0 23 843 713 10;
#X obj 338 483 gl/ext/iemguts/sendcanvas;
#X obj 498 487 r \$1-g.sugd;
#X obj 338 22 r \$1-g.sugc;
#X obj 338 368 pack f \$2 \$3 s s f \$4;
#X msg 420 337 symbol;
#X obj 469 337 * 0.5;
#X obj 357 288 pack \$1 f;
#X msg 357 311 symbol \$1-g.sugr\$2;
#X obj 338 217 *;
#X obj 338 247 t f b b;
#X obj 338 90 until;
#X obj 338 132 f;
#X obj 364 132 + 1;
#X msg 378 90 0;
#X obj 648 227 *;
#X obj 648 252 - \$5;
#X msg 603 334 coords 0 -1 1 1 \$1 \$2 2 0 0;
#X msg 628 673 coords 0 -1 1 1 10000 10000 0 0 0;
#X obj 338 340 + 1;
#X obj 603 252 f \$2;
#X obj 603 303 pack f f;
#X obj 648 277 + 2;
#X obj 338 173 t f f;
#X msg 338 405 obj 1 \$1 cnv 1 \$2 \$3 empty \$4 \$5 2 \$6 0 \$7 0
0 0;
#X obj 187 662 gl/ext/iemguts/canvasposition;
#X obj 187 556 t l b;
#X obj 244 606 del 30;
#X obj 244 633 gl/ext/iemguts/canvasdelete 1;
#X msg 461 674 coords 0 -1 1 1 1 1 2 0 0;
#X obj 187 528 r \$1-d.auto.xy;
#X obj 302 528 r \$1-g.sug.xy;
#X obj 388 547 r \$1-searchmode;
#X obj 388 570 == 0;
#X obj 400 181 + \$5;
#X obj 400 132 f \$4;
#X obj 400 156 + 8;
#X obj 338 54 t f b b;
#X obj 482 599 sel 0;
#X obj 482 624 t b b;
#X obj 635 98 r \$1-g.sugv;
#X obj 603 277 + 2;
#X obj 187 595 spigot;
#X obj 302 606 spigot 1;
#X obj 505 22 loadbang;
#X obj 498 514 t b b;
#X obj 155 595 list;
#X obj 562 22 r \$1-g.sugdel;
#X obj 635 124 t b f b;
#X connect 1 0 44 0;
#X connect 2 0 36 0;
#X connect 3 0 23 0;
#X connect 4 0 3 4;
#X connect 5 0 3 5;
#X connect 6 0 7 0;
#X connect 7 0 3 3;
#X connect 8 0 9 0;
#X connect 9 0 18 0;
#X connect 9 1 6 0;
#X connect 9 2 4 0;
#X connect 10 0 11 0;
#X connect 11 0 12 0;
#X connect 11 0 22 0;
#X connect 12 0 11 1;
#X connect 13 0 11 1;
#X connect 14 0 15 0;
#X connect 15 0 21 0;
#X connect 16 0 0 0;
#X connect 17 0 0 0;
#X connect 18 0 3 0;
#X connect 19 0 40 0;
#X connect 20 0 16 0;
#X connect 21 0 20 1;
#X connect 22 0 8 0;
#X connect 22 1 6 1;
#X connect 23 0 0 0;
#X connect 25 0 41 0;
#X connect 25 0 45 1;
#X connect 25 1 26 0;
#X connect 26 0 27 0;
#X connect 28 0 0 0;
#X connect 29 0 25 0;
#X connect 30 0 42 0;
#X connect 31 0 32 0;
#X connect 31 0 37 0;
#X connect 31 0 42 1;
#X connect 32 0 41 1;
#X connect 33 0 8 1;
#X connect 33 0 14 1;
#X connect 34 0 35 0;
#X connect 35 0 33 0;
#X connect 35 0 5 0;
#X connect 36 0 10 0;
#X connect 36 1 13 0;
#X connect 36 2 34 0;
#X connect 37 0 38 0;
#X connect 38 0 28 0;
#X connect 38 1 17 0;
#X connect 39 0 47 0;
#X connect 40 0 20 0;
#X connect 41 0 24 0;
#X connect 42 0 24 0;
#X connect 43 0 27 0;
#X connect 44 0 45 0;
#X connect 44 1 38 0;
#X connect 45 0 24 0;
#X connect 46 0 27 0;
#X connect 47 0 19 0;
#X connect 47 1 14 0;
#X connect 47 2 17 0;
#X coords 0 -1 1 1 1 1 2 0 0;
