#N canvas 544 295 522 473 10;
#X obj 142 53 gl/ext/iemguts/canvasposition;
#X obj 142 254 gl/ext/iemguts/sendcanvas 1;
#X obj 142 83 unpack f f;
#X obj 142 194 pack f f f;
#X obj 170 161 - 1;
#X msg 142 224 editmode 1 \, mouse \$1 \$2 1 0 \, mouseup \$1 \$3 1
\, key 1 Left 0;
#X obj 90 100 f;
#X obj 48 194 f;
#X obj 48 280 t b b;
#X obj 75 161 f;
#X obj 48 136 t b b;
#X obj 48 254 change;
#X msg 90 224 set \$1;
#X obj 90 194 + 10;
#X obj 48 305 f;
#X obj 75 305 + 1;
#X obj 33 331 f;
#X obj 11 305 del 1;
#X obj 33 353 - 1;
#X msg 104 61 0;
#X obj 33 434 gl/ext/iemguts/canvasdelete 1;
#X obj 48 36 t b b b;
#X obj 33 376 t b f;
#X obj 48 11 r \$1-d.auto.getobjw;
#X obj 60 410 s \$1-d.auto.objw;
#X connect 0 0 2 0;
#X connect 2 0 6 1;
#X connect 2 0 7 1;
#X connect 2 1 4 0;
#X connect 2 1 3 2;
#X connect 3 0 5 0;
#X connect 4 0 3 1;
#X connect 5 0 1 0;
#X connect 6 0 9 1;
#X connect 6 0 13 0;
#X connect 7 0 11 0;
#X connect 8 0 14 0;
#X connect 8 0 17 0;
#X connect 8 0 10 0;
#X connect 8 1 0 0;
#X connect 9 0 3 0;
#X connect 10 0 7 0;
#X connect 10 1 9 0;
#X connect 11 0 8 0;
#X connect 12 0 11 0;
#X connect 13 0 12 0;
#X connect 14 0 15 0;
#X connect 14 0 16 1;
#X connect 15 0 14 1;
#X connect 16 0 18 0;
#X connect 17 0 16 0;
#X connect 18 0 22 0;
#X connect 19 0 14 1;
#X connect 21 0 10 0;
#X connect 21 1 6 0;
#X connect 21 2 0 0;
#X connect 21 2 19 0;
#X connect 22 0 20 0;
#X connect 22 1 24 0;
#X connect 23 0 21 0;
