#N canvas 0 22 495 310 10;
#X obj 5 38 sel 0;
#X msg 5 99 stop;
#X obj 59 183 pack f f;
#X obj 123 158 f;
#X obj 123 183 pack f f;
#X obj 123 279 outlet~;
#X obj 188 183 pack f f;
#X msg 59 99 clear;
#X obj 32 67 t f b;
#X msg 163 212 0 10;
#X obj 59 131 pipe 11;
#X obj 156 99 + 12;
#N canvas 278 207 190 411 curve_line~ 0;
#X obj 25 22 inlet;
#X obj 25 355 line~;
#X obj 25 383 outlet~;
#X obj 25 55 unpack f f;
#X obj 82 297 f;
#X obj 113 296 +;
#X obj 25 328 pack f f;
#X obj 101 271 * 2;
#X obj 82 103 t b f b;
#X obj 82 79 / 2;
#X obj 132 185 del;
#X msg 132 161 stop;
#X obj 114 241 del;
#X obj 82 240 bang;
#X msg 132 210 stop;
#X obj 116 22 inlet;
#X obj 101 161 / 1;
#X obj 73 22 inlet;
#X connect 0 0 3 0;
#X connect 1 0 2 0;
#X connect 3 0 6 0;
#X connect 3 1 9 0;
#X connect 4 0 5 0;
#X connect 4 0 6 1;
#X connect 5 0 4 1;
#X connect 6 0 1 0;
#X connect 7 0 4 1;
#X connect 8 0 10 0;
#X connect 8 0 13 0;
#X connect 8 1 10 1;
#X connect 8 1 16 0;
#X connect 8 2 11 0;
#X connect 8 2 14 0;
#X connect 9 0 8 0;
#X connect 10 0 14 0;
#X connect 11 0 10 0;
#X connect 12 0 13 0;
#X connect 12 0 6 0;
#X connect 13 0 12 0;
#X connect 13 0 4 0;
#X connect 14 0 12 0;
#X connect 15 0 16 1;
#X connect 16 0 7 0;
#X connect 16 0 5 1;
#X connect 16 0 12 1;
#X connect 17 0 6 0;
#X restore 123 240 pd curve_line~;
#X obj 5 8 inlet trig;
#X obj 104 8 inlet a;
#X obj 168 8 inlet d;
#X obj 231 8 inlet s;
#X obj 292 8 inlet r;
#X obj 352 8 inlet curve;
#X obj 123 131 del 12;
#X obj 231 38 clip 0 1;
#X obj 216 131 *;
#X obj 352 38 clip 1 10;
#X obj 292 38 loadbang;
#X obj 319 97 float \$1;
#X obj 292 68 t b b;
#X obj 292 166 unpack f f f f;
#X text 291 120 default adsr;
#X msg 292 136 20 500 0 500;
#N canvas 172 83 586 377 LICENSE-GPL 0;
#X text 57 88 This program is free software: you can redistribute it
and/or modify it under the terms of the GNU General Public License
as published by the Free Software Foundation \, either version 3 of
the License \, or (at your option) any later version.;
#X text 58 168 This program is distributed in the hope that it will
be useful \, but WITHOUT ANY WARRANTY \; without even the implied warranty
of MERCHANTABILITY or FITNESS FOR A PARTICULAR PURPOSE. See the GNU
General Public License for more details.;
#X text 57 261 You should have received a copy of the GNU General Public
License along with this program. If not \, see <http://www.gnu.org/licenses/>.
;
#X text 60 325 See the file LICENSE.txt for the full license text.
;
#X text 61 54 Copyright (C) 2016 \, Iceblink Digital \, Inc.;
#X restore 294 240 pd LICENSE-GPL;
#X connect 0 0 1 0;
#X connect 0 0 6 0;
#X connect 0 1 8 0;
#X connect 1 0 19 0;
#X connect 2 0 12 0;
#X connect 3 0 4 0;
#X connect 4 0 12 0;
#X connect 6 0 12 0;
#X connect 7 0 10 0;
#X connect 8 0 10 0;
#X connect 8 0 21 0;
#X connect 8 1 9 0;
#X connect 8 1 7 0;
#X connect 8 1 19 0;
#X connect 9 0 12 1;
#X connect 10 0 2 0;
#X connect 11 0 19 1;
#X connect 12 0 5 0;
#X connect 13 0 0 0;
#X connect 14 0 2 1;
#X connect 14 0 11 0;
#X connect 15 0 4 1;
#X connect 16 0 20 0;
#X connect 17 0 6 1;
#X connect 18 0 22 0;
#X connect 19 0 3 0;
#X connect 20 0 21 1;
#X connect 21 0 3 1;
#X connect 22 0 12 2;
#X connect 23 0 25 0;
#X connect 24 0 22 0;
#X connect 25 0 28 0;
#X connect 25 1 24 0;
#X connect 26 0 2 1;
#X connect 26 0 11 0;
#X connect 26 1 4 1;
#X connect 26 2 20 0;
#X connect 26 3 6 1;
#X connect 28 0 26 0;
