#N canvas 0 22 575 725 10;
#X obj 10 671 cnv 15 552 42 empty empty empty 20 12 0 14 -228856 -66577
0;
#X obj 10 10 cnv 15 552 26 empty empty a.adsrc~ 3 12 0 18 -138934 -1
0;
#X obj 10 386 cnv 3 550 3 empty empty inlets 8 12 0 13 -228856 -1 0
;
#X obj 10 558 cnv 3 550 3 empty empty outlets 8 12 0 13 -228856 -1
0;
#X obj 10 595 cnv 3 550 3 empty empty arguments 8 12 0 13 -228856 -1
0;
#X obj 10 642 cnv 3 550 3 empty empty more_info 8 12 0 13 -228856 -1
0;
#X obj 88 395 cnv 17 3 17 empty empty 0 5 9 0 16 -228856 -162280 0
;
#X obj 88 567 cnv 17 3 17 empty empty 0 5 9 0 16 -228856 -162280 0
;
#X obj 88 423 cnv 17 3 17 empty empty 1 5 9 0 16 -228856 -162280 0
;
#X obj 88 450 cnv 17 3 17 empty empty 2 5 9 0 16 -228856 -162280 0
;
#X text 108 566 signal;
#X text 323 693 published under the GNU Public License;
#X text 323 673 copyright by Iceblink Digital \, Inc.;
#X obj 10 37 cnv 15 552 16 empty empty empty 3 12 0 18 -85426 -1 0
;
#X obj 78 365 dac~;
#X obj 88 477 cnv 17 3 17 empty empty 3 5 9 0 16 -228856 -162280 0
;
#X obj 88 504 cnv 17 3 17 empty empty 4 5 9 0 16 -228856 -162280 0
;
#X obj 88 531 cnv 17 3 17 empty empty 5 5 9 0 16 -228856 -162280 0
;
#X text 108 394 float;
#X text 108 422 float;
#X text 108 449 float;
#X text 108 476 float;
#X text 108 503 float;
#X text 108 530 float;
#X text 178 394 - trigger/release envelope generator.;
#X text 177 530 - envelope curve amount. (range: 1(linear) ~ 10);
#X text 407 394 (range: 0(release) ~ 1);
#X text 177 503 - release time in ms. (sustain level -> silence);
#X text 177 476 - sustain level. (range: 0 ~ 1(trigger level));
#X text 177 449 - decay time in ms. (trigger level -> sustain level)
;
#X text 177 422 - attack time in ms. (silence -> trigger level);
#X text 178 566 - the generated signal. (0 ~ 1);
#X text 90 618 1) float;
#X text 178 618 - initialize curve amount. (range: 1(linear) ~ 10)
;
#X text 21 37 adsr envelope generator with curve amount option;
#X obj 83 306 *~;
#X obj 83 333 *~ 0.1;
#X obj 83 268 osc~ 440;
#X obj 108 74 tgl 15 0 empty empty trigger/release 17 7 0 10 -262144
-1 -1 0 1;
#X obj 108 110 sel 1;
#X obj 108 181 f 1;
#X obj 156 110 hsl 128 15 0.1 1 0 0 empty \$0-t trigger_level(velocity)
-2 -8 0 10 -262144 -1 -1 12700 1;
#X floatatom 108 232 5 0 0 0 - - -, f 5;
#X floatatom 163 232 5 0 0 0 - - -, f 5;
#X obj 163 144 vsl 15 80 0 1000 0 0 empty \$0-a a 4 -9 0 10 -262144
-1 -1 1580 1;
#X floatatom 203 232 5 0 0 0 - - -, f 5;
#X obj 203 144 vsl 15 80 0 1000 0 0 empty \$0-d d 4 -9 0 10 -262144
-1 -1 3160 1;
#X floatatom 243 232 5 0 0 0 - - -, f 5;
#X obj 243 144 vsl 15 80 0 1 0 0 empty \$0-s s 4 -9 0 10 -262144 -1
-1 3950 1;
#X floatatom 283 232 5 0 0 0 - - -, f 5;
#X obj 283 144 vsl 15 80 0 1000 0 0 empty \$0-r r 4 -9 0 10 -262144
-1 -1 6320 1;
#N canvas 82 380 173 195 init 0;
#X obj 52 21 loadbang;
#X obj 107 21 r \$0-init;
#X msg 52 91 \; \$1-t 1 \; \$1-a 200 \; \$1-d 400 \; \$1-s 0.5 \; \$1-r
800 \; \$1-c 5 \;;
#X obj 52 65 f \$0;
#X connect 0 0 3 0;
#X connect 1 0 3 0;
#X connect 3 0 2 0;
#X restore 516 80 pd init;
#X floatatom 323 232 5 0 0 0 - - -, f 5;
#X obj 326 110 hsl 127 15 1 10 0 0 empty \$0-c curve_amount -2 -8 0
10 -262144 -1 -1 5600 1;
#X obj 499 80 bng 17 250 50 0 \$0-init empty empty 17 7 0 10 -262144
-1 -1;
#N canvas 421 424 496 395 graph 0;
#X obj 200 244 metro 1;
#X obj 200 266 f;
#X obj 227 266 + 1;
#X msg 200 222 1;
#X obj 200 290 t f f;
#X obj 227 313 < 2000;
#X obj 227 335 sel 1;
#X obj 82 304 snapshot~;
#X obj 270 244 metro 1;
#X obj 270 266 f;
#X obj 297 266 + 1;
#X msg 270 222 1;
#X obj 270 290 t f f;
#X obj 297 313 < 2000;
#X obj 297 335 sel 1;
#X obj -42 23 inlet trigger;
#X obj 82 25 inlet~;
#X obj 244 27 inlet d;
#X obj 184 26 inlet a;
#X obj 303 27 inlet r;
#X obj 204 89 +;
#X obj 230 67 t b f;
#X msg 189 137 resize \$1;
#X obj 189 112 f;
#X obj 31 82 t b b;
#X msg 308 137 resize \$1;
#X obj 288 106 f;
#X obj -11 348 spigot;
#X obj 141 347 spigot;
#X obj 174 327 == 0;
#X msg 317 106 const 0;
#X obj -42 80 t b b b;
#X obj 308 161 s \$0-release;
#X obj 141 369 tabwrite \$0-release;
#X obj 189 161 s \$0-attack/decay;
#X obj -11 370 tabwrite \$0-attack/decay;
#X msg 16 149 0;
#X obj -42 46 sel 0;
#X connect 0 0 1 0;
#X connect 0 0 7 0;
#X connect 1 0 2 0;
#X connect 1 0 4 0;
#X connect 2 0 1 1;
#X connect 3 0 0 0;
#X connect 4 0 35 1;
#X connect 4 1 5 0;
#X connect 5 0 6 0;
#X connect 6 1 0 0;
#X connect 6 1 1 1;
#X connect 7 0 27 0;
#X connect 7 0 28 0;
#X connect 8 0 9 0;
#X connect 8 0 7 0;
#X connect 9 0 10 0;
#X connect 9 0 12 0;
#X connect 10 0 9 1;
#X connect 11 0 8 0;
#X connect 12 0 33 1;
#X connect 12 1 13 0;
#X connect 13 0 14 0;
#X connect 14 1 8 0;
#X connect 14 1 9 1;
#X connect 15 0 27 1;
#X connect 15 0 29 0;
#X connect 15 0 37 0;
#X connect 16 0 7 0;
#X connect 17 0 21 0;
#X connect 18 0 20 0;
#X connect 19 0 26 1;
#X connect 20 0 23 1;
#X connect 21 0 20 0;
#X connect 21 1 20 1;
#X connect 22 0 34 0;
#X connect 23 0 22 0;
#X connect 23 0 5 1;
#X connect 24 0 11 0;
#X connect 24 1 26 0;
#X connect 24 1 36 0;
#X connect 25 0 32 0;
#X connect 26 0 25 0;
#X connect 26 0 13 1;
#X connect 27 0 35 0;
#X connect 28 0 33 0;
#X connect 29 0 28 1;
#X connect 30 0 32 0;
#X connect 30 0 34 0;
#X connect 31 0 3 0;
#X connect 31 1 23 0;
#X connect 31 2 30 0;
#X connect 31 2 36 0;
#X connect 36 0 1 1;
#X connect 36 0 9 1;
#X connect 37 0 24 0;
#X connect 37 1 31 0;
#X restore 137 365 pd graph;
#N canvas 0 22 450 278 (subpatch) 0;
#X array \$0-attack/decay 600 float 4;
#X coords 0 1 599 0 100 60 1 0 0;
#X restore 319 295 graph;
#N canvas 0 22 450 278 (subpatch) 0;
#X array \$0-release 800 float 0;
#X coords 0 1 799 0 100 60 1 0 0;
#X restore 419 295 graph;
#N canvas 4 23 229 259 d.dspstate 0;
#X obj 82 26 r pd;
#X obj 82 52 route dsp;
#X msg 101 138 1;
#X obj 51 169 sig~;
#X obj 51 193 snapshot~;
#X obj 82 109 t b b b;
#X msg 130 138 set 0;
#X obj 51 138 del 10;
#X obj 19 1 cnv 15 40 18 empty empty dsp 9 9 1 15 -233017 -66577 0
;
#X obj 0 0 tgl 20 0 \$0-d.dspstate-s \$0-d.dspstate-r empty 17 7 0
10 -228856 -1 -1 0 1;
#X msg 51 223 set \$1;
#X obj 0 79 s pd;
#X msg 0 52 dsp \$1;
#X obj 128 26 loadbang;
#X connect 0 0 1 0;
#X connect 1 0 5 0;
#X connect 2 0 3 0;
#X connect 3 0 4 0;
#X connect 4 0 10 0;
#X connect 5 0 7 0;
#X connect 5 1 2 0;
#X connect 5 2 6 0;
#X connect 6 0 4 0;
#X connect 7 0 4 0;
#X connect 9 0 12 0;
#X connect 10 0 9 0;
#X connect 12 0 11 0;
#X connect 13 0 5 0;
#X coords 0 -1 1 1 60 20 2 0 0;
#X restore 502 57 pd d.dspstate;
#X obj 148 268 a.adsrc~ 5;
#X text 17 673 tags: #audio \, #modulation \, #envelope \, #adsr;
#X connect 35 0 36 0;
#X connect 36 0 14 0;
#X connect 36 0 14 1;
#X connect 37 0 35 0;
#X connect 38 0 39 0;
#X connect 39 0 40 0;
#X connect 39 1 42 0;
#X connect 40 0 42 0;
#X connect 41 0 40 1;
#X connect 42 0 55 0;
#X connect 42 0 59 0;
#X connect 43 0 55 2;
#X connect 43 0 59 1;
#X connect 44 0 43 0;
#X connect 45 0 55 3;
#X connect 45 0 59 2;
#X connect 46 0 45 0;
#X connect 47 0 59 3;
#X connect 48 0 47 0;
#X connect 49 0 55 4;
#X connect 49 0 59 4;
#X connect 50 0 49 0;
#X connect 52 0 59 5;
#X connect 53 0 52 0;
#X connect 59 0 35 1;
#X connect 59 0 55 1;
