#N canvas 0 22 375 579 10;
#X obj -30 62 samplerate~;
#X obj -30 39 loadbang;
#X obj -23 238 +~ 1;
#X obj -75 262 *~ -2;
#X obj -75 289 /~;
#X obj -75 315 *~ -1;
#X obj -192 161 sig~ 1;
#X obj -48 238 -~;
#X obj -38 288 /~;
#X obj -75 342 *~;
#X obj -75 366 +~;
#X obj -165 467 *~ 0.5;
#X obj -75 413 sqrt~;
#X obj -75 391 abs~;
#X obj -75 439 *~ 0.5;
#X obj -207 495 cpole~;
#X obj -207 523 cpole~;
#X obj -75 467 *~ -1;
#X obj -207 439 czero~;
#X obj -207 467 czero~;
#X obj -192 366 /~;
#X obj -207 391 *~;
#X obj -192 315 -~;
#X obj -192 342 *~ 0.5;
#X obj -185 413 sig~ -1;
#X obj -38 315 *~ -4;
#X obj -75 134 /~ 44100;
#X obj -75 161 cos~;
#X obj -33 161 -~ 0.25;
#X obj -33 183 cos~;
#X obj -75 15 inlet~ cutoff;
#X obj -75 110 clip~ 20 22050;
#X obj 6 86 * 0.5;
#X obj -207 15 inlet~;
#X obj -207 551 outlet~;
#X obj 48 15 inlet~ resonance;
#X obj 48 86 clip~ 0 1;
#X obj 48 135 +~ 100;
#X obj 48 161 dbtorms~;
#X obj -33 214 /~;
#X obj 48 110 *~ 25;
#N canvas 172 83 586 377 LICENSE-GPL 0;
#X text 57 88 This program is free software: you can redistribute it
and/or modify it under the terms of the GNU General Public License
as published by the Free Software Foundation \, either version 3 of
the License \, or (at your option) any later version.;
#X text 58 168 This program is distributed in the hope that it will
be useful \, but WITHOUT ANY WARRANTY \; without even the implied warranty
of MERCHANTABILITY or FITNESS FOR A PARTICULAR PURPOSE. See the GNU
General Public License for more details.;
#X text 57 261 You should have received a copy of the GNU General Public
License along with this program. If not \, see <http://www.gnu.org/licenses/>.
;
#X text 60 325 See the file LICENSE.txt for the full license text.
;
#X text 61 54 Copyright (C) 2016 \, Iceblink Digital \, Inc.;
#X restore -6 519 pd LICENSE-GPL;
#X connect 0 0 26 1;
#X connect 0 0 32 0;
#X connect 1 0 0 0;
#X connect 2 0 4 1;
#X connect 2 0 8 1;
#X connect 2 0 20 1;
#X connect 3 0 4 0;
#X connect 4 0 5 0;
#X connect 5 0 9 0;
#X connect 5 0 9 1;
#X connect 5 0 11 0;
#X connect 6 0 7 0;
#X connect 6 0 22 0;
#X connect 7 0 8 0;
#X connect 8 0 25 0;
#X connect 9 0 10 0;
#X connect 10 0 13 0;
#X connect 11 0 15 2;
#X connect 11 0 16 2;
#X connect 12 0 14 0;
#X connect 13 0 12 0;
#X connect 14 0 15 3;
#X connect 14 0 17 0;
#X connect 15 0 16 0;
#X connect 15 1 16 1;
#X connect 16 0 34 0;
#X connect 17 0 16 3;
#X connect 18 0 19 0;
#X connect 18 1 19 1;
#X connect 19 0 15 0;
#X connect 19 1 15 1;
#X connect 20 0 21 1;
#X connect 21 0 18 0;
#X connect 22 0 23 0;
#X connect 23 0 20 0;
#X connect 24 0 18 2;
#X connect 24 0 19 2;
#X connect 25 0 10 1;
#X connect 26 0 27 0;
#X connect 26 0 28 0;
#X connect 27 0 3 0;
#X connect 27 0 22 1;
#X connect 28 0 29 0;
#X connect 29 0 39 0;
#X connect 30 0 31 0;
#X connect 31 0 26 0;
#X connect 32 0 31 2;
#X connect 33 0 21 0;
#X connect 35 0 36 0;
#X connect 36 0 40 0;
#X connect 37 0 38 0;
#X connect 38 0 39 1;
#X connect 39 0 2 0;
#X connect 39 0 7 1;
#X connect 40 0 37 0;
