#N canvas 0 22 680 462 10;
#N canvas 647 22 291 799 \$0-lookup-tables-saw 0;
#X restore 439 316 pd \$0-lookup-tables-saw;
#N canvas 647 22 291 799 \$0-lookup-tables-triangle 0;
#X restore 439 296 pd \$0-lookup-tables-triangle;
#N canvas 647 22 291 799 \$0-lookup-tables-square 0;
#X restore 439 336 pd \$0-lookup-tables-square;
#X obj 351 55 loadbang;
#X obj 8 -7 inlet~ freq;
#X obj 217 -7 inlet phase;
#X obj 304 -7 inlet waveform;
#X obj 96 -7 inlet~ pulsewidth;
#N canvas 237 255 450 300 sine 0;
#X obj 163 124 osc~;
#X obj 184 101 + 0.75;
#X obj 115 40 inlet~;
#X obj 184 40 inlet;
#X obj 163 187 outlet~;
#X obj 293 39 inlet;
#X obj 293 101 == 0;
#X obj 293 124 switch~;
#X connect 0 0 4 0;
#X connect 1 0 0 1;
#X connect 2 0 0 0;
#X connect 3 0 1 0;
#X connect 5 0 6 0;
#X connect 6 0 7 0;
#X restore 8 267 pd sine;
#N canvas 0 22 736 638 triangle 0;
#N canvas 314 100 514 407 number_of_harmonics_allowed 0;
#X obj 135 68 / 2;
#X obj 15 151 /;
#X obj 15 174 int;
#X obj 135 44 samplerate~;
#X obj 15 241 * 0.5;
#X obj 15 261 int;
#X obj 15 282 * 2;
#X obj 15 221 - 1;
#X obj 15 305 + 1;
#X obj 15 328 change;
#X obj 15 199 change;
#X obj 15 98 t b f;
#X text 241 49 sr / 2 = nyquist frequency;
#X obj 15 353 outlet;
#X obj 14 18 inlet~;
#X obj 15 121 f;
#X obj 135 21 loadbang;
#X text 119 216 harmonics never should exceed the nyquist frequency
;
#X obj 15 49 snapshot~;
#X obj 78 21 bang~;
#X obj 15 72 change;
#X connect 0 0 15 1;
#X connect 1 0 2 0;
#X connect 2 0 10 0;
#X connect 3 0 0 0;
#X connect 4 0 5 0;
#X connect 5 0 6 0;
#X connect 6 0 8 0;
#X connect 7 0 4 0;
#X connect 8 0 9 0;
#X connect 9 0 13 0;
#X connect 10 0 7 0;
#X connect 11 0 15 0;
#X connect 11 1 1 1;
#X connect 14 0 18 0;
#X connect 15 0 1 0;
#X connect 16 0 3 0;
#X connect 18 0 20 0;
#X connect 19 0 18 0;
#X connect 20 0 11 0;
#X restore 161 113 pd number_of_harmonics_allowed;
#X obj 40 33 inlet~;
#X obj 39 463 outlet~;
#X obj 177 192 * 2;
#X obj 322 360 snapshot~;
#X obj 161 143 t f f f;
#X obj 218 273 == 0;
#X obj 218 377 f;
#X obj 218 356 sel 1;
#X obj 270 302 change;
#X obj 322 334 sel 1;
#X text 33 494 number of harmononics;
#X text 32 512 without exceeding nyquist;
#X text 31 531 at given frequeny:;
#X text 251 520 best method:;
#X obj 559 178 inlet;
#X text 565 150 phase;
#X text 375 332 sync phase \, when switching dsp on;
#X text 199 221 switch to raw square \, when number of allowed harmonics
exceeds num_of_tables*2;
#X msg 408 69 get_num_of_tables;
#X obj 408 132 route num_of_tables;
#X obj 408 20 loadbang;
#X obj 40 272 phasor~;
#X text 196 81 get the number of tables ->;
#X text 227 496 |;
#X text 227 505 |;
#X text 227 514 |;
#X text 227 523 |;
#X text 227 533 |;
#X text 227 542 |;
#X text 227 551 |;
#X text 227 560 |;
#X text 227 567 |;
#X text 227 576 |;
#X text 227 585 |;
#X text 227 594 |;
#X text 227 604 |;
#X text 25 541 __________________________________________________;
#X text 25 575 __________________________________________________;
#X obj 161 223 >;
#X text 40 596 n > num_of_tables*2;
#X text 32 565 0 < n < num_of_tables*2;
#X obj 408 91 s BLTRIANGLE;
#X obj 408 111 r BLTRIANGLE;
#N canvas 499 174 200 210 raw_triangle 0;
#X obj 19 13 inlet~;
#X obj 18 159 outlet~;
#X obj 102 18 inlet;
#X obj 102 43 switch~;
#X obj 43 41 *~ -1;
#X obj 43 63 +~ 1;
#X obj 19 86 min~;
#X obj 18 110 *~ 4;
#X obj 18 136 -~ 1;
#X connect 0 0 6 0;
#X connect 0 0 4 0;
#X connect 2 0 3 0;
#X connect 4 0 5 0;
#X connect 5 0 6 1;
#X connect 6 0 7 0;
#X connect 7 0 8 0;
#X connect 8 0 1 0;
#X restore 40 411 pd raw_triangle;
#N canvas 0 22 448 226 bandlimited_triangle 0;
#X obj 16 31 inlet~;
#X obj 71 33 inlet;
#X obj 261 34 inlet;
#X obj 17 192 outlet~;
#X msg 71 96 set \$1;
#X obj 261 124 switch~;
#X obj 347 36 inlet;
#X text 69 14 choose table;
#X text 346 17 set phase;
#X text 256 14 switch dsp;
#X obj 71 71 makefilename BLTRIANGLE%d;
#X obj 17 134 tabosc4~;
#X connect 0 0 11 0;
#X connect 1 0 10 0;
#X connect 2 0 5 0;
#X connect 4 0 11 0;
#X connect 6 0 11 1;
#X connect 10 0 4 0;
#X connect 11 0 3 0;
#X restore 166 412 pd bandlimited_triangle;
#X text 246 563 bandlimited triangle;
#X text 245 595 raw triangle;
#X obj 84 247 + 0.25;
#X obj 322 385 + 0.75;
#X obj 408 45 del 0;
#X obj 647 93 inlet;
#X obj 647 178 switch~;
#X obj 647 155 == 1;
#X connect 0 0 5 0;
#X connect 1 0 45 0;
#X connect 1 0 0 0;
#X connect 1 0 22 0;
#X connect 3 0 39 1;
#X connect 4 0 49 0;
#X connect 5 0 39 0;
#X connect 5 1 7 1;
#X connect 6 0 8 0;
#X connect 6 0 9 0;
#X connect 7 0 45 1;
#X connect 8 0 7 0;
#X connect 9 0 10 0;
#X connect 9 0 45 2;
#X connect 10 0 4 0;
#X connect 15 0 45 3;
#X connect 15 0 48 0;
#X connect 19 0 42 0;
#X connect 20 0 3 0;
#X connect 21 0 50 0;
#X connect 22 0 44 0;
#X connect 22 0 4 0;
#X connect 39 0 44 1;
#X connect 39 0 6 0;
#X connect 43 0 20 0;
#X connect 44 0 2 0;
#X connect 45 0 2 0;
#X connect 48 0 22 1;
#X connect 49 0 45 3;
#X connect 50 0 19 0;
#X connect 51 0 53 0;
#X connect 53 0 52 0;
#X restore 66 267 pd triangle;
#N canvas 0 22 698 632 saw 0;
#N canvas 314 100 498 265 number_of_harmonics_allowed 0;
#X obj 135 68 / 2;
#X obj 15 151 /;
#X obj 135 44 samplerate~;
#X obj 15 98 t b f;
#X text 241 49 sr / 2 = nyquist frequency;
#X obj 15 229 outlet;
#X obj 14 18 inlet~;
#X obj 15 121 f;
#X obj 135 21 loadbang;
#X text 104 209 harmonics never should exceed the nyquist frequency
;
#X obj 15 49 snapshot~;
#X obj 78 21 bang~;
#X obj 15 72 change;
#X obj 15 177 int;
#X obj 15 200 change;
#X connect 0 0 7 1;
#X connect 1 0 13 0;
#X connect 2 0 0 0;
#X connect 3 0 7 0;
#X connect 3 1 1 1;
#X connect 6 0 10 0;
#X connect 7 0 1 0;
#X connect 8 0 2 0;
#X connect 10 0 12 0;
#X connect 11 0 10 0;
#X connect 12 0 3 0;
#X connect 13 0 14 0;
#X connect 14 0 5 0;
#X restore 161 113 pd number_of_harmonics_allowed;
#X obj 40 33 inlet~;
#X obj 39 456 outlet~;
#X obj 287 374 snapshot~;
#X obj 206 273 == 0;
#X obj 206 377 f;
#X obj 206 356 sel 1;
#X obj 246 320 change;
#X obj 287 348 sel 1;
#X text 33 494 number of harmononics;
#X text 32 512 without exceeding nyquist;
#X text 31 531 at given frequeny:;
#X text 251 520 best method:;
#X obj 559 178 inlet;
#X text 565 150 phase;
#X text 340 346 sync phase \, when switching dsp on;
#X msg 408 69 get_num_of_tables;
#X obj 408 132 route num_of_tables;
#X obj 408 23 loadbang;
#X obj 40 272 phasor~;
#X text 196 81 get the number of tables ->;
#X text 227 496 |;
#X text 227 505 |;
#X text 227 514 |;
#X text 227 523 |;
#X text 227 533 |;
#X text 227 542 |;
#X text 227 551 |;
#X text 227 560 |;
#X text 227 567 |;
#X text 227 576 |;
#X text 227 585 |;
#X text 227 594 |;
#X text 227 604 |;
#X text 25 541 __________________________________________________;
#X text 25 575 __________________________________________________;
#X obj 161 223 >;
#X obj 408 91 s BLSAW;
#X obj 408 111 r BLSAW;
#X text 246 563 bandlimited saw;
#X text 245 595 raw saw;
#X obj 161 143 t f f;
#X text 199 221 switch to raw saw \, when number of allowed harmonics
exceeds num_of_tables;
#X text 32 565 0 < n <= num_of_tables;
#X text 40 596 n > num_of_tables;
#N canvas 0 22 448 226 bandlimited_saw 0;
#X obj 16 31 inlet~;
#X obj 71 33 inlet;
#X obj 261 34 inlet;
#X obj 17 192 outlet~;
#X msg 71 96 set \$1;
#X obj 261 124 switch~;
#X obj 347 36 inlet;
#X text 69 14 choose table;
#X text 346 17 set phase;
#X text 256 14 switch dsp;
#X obj 71 71 makefilename BLSAW%d;
#X obj 17 134 tabosc4~;
#X connect 0 0 11 0;
#X connect 1 0 10 0;
#X connect 2 0 5 0;
#X connect 4 0 11 0;
#X connect 6 0 11 1;
#X connect 10 0 4 0;
#X connect 11 0 3 0;
#X restore 166 405 pd bandlimited_saw;
#N canvas 438 301 207 227 raw_saw 0;
#X obj 6 16 inlet~;
#X obj 7 156 outlet~;
#X obj 118 21 inlet;
#X obj 118 46 switch~;
#X obj 7 66 *~ -2;
#X obj 7 92 +~ 1;
#X connect 0 0 4 0;
#X connect 2 0 3 0;
#X connect 4 0 5 0;
#X connect 5 0 1 0;
#X restore 40 401 pd raw_saw;
#X obj 408 46 del 0;
#X obj 631 93 inlet;
#X obj 631 178 switch~;
#X obj 631 155 == 2;
#X connect 0 0 41 0;
#X connect 1 0 45 0;
#X connect 1 0 0 0;
#X connect 1 0 19 0;
#X connect 3 0 45 3;
#X connect 4 0 6 0;
#X connect 4 0 7 0;
#X connect 5 0 45 1;
#X connect 6 0 5 0;
#X connect 7 0 8 0;
#X connect 7 0 45 2;
#X connect 8 0 3 0;
#X connect 13 0 45 3;
#X connect 13 0 19 1;
#X connect 16 0 37 0;
#X connect 17 0 36 1;
#X connect 18 0 47 0;
#X connect 19 0 3 0;
#X connect 19 0 46 0;
#X connect 36 0 4 0;
#X connect 36 0 46 1;
#X connect 38 0 17 0;
#X connect 41 0 36 0;
#X connect 41 1 5 1;
#X connect 45 0 2 0;
#X connect 46 0 2 0;
#X connect 47 0 16 0;
#X connect 48 0 50 0;
#X connect 50 0 49 0;
#X restore 146 267 pd saw;
#N canvas 0 22 668 649 square 0;
#N canvas 314 100 514 407 number_of_harmonics_allowed 0;
#X obj 135 68 / 2;
#X obj 15 151 /;
#X obj 15 174 int;
#X obj 135 44 samplerate~;
#X obj 15 241 * 0.5;
#X obj 15 261 int;
#X obj 15 282 * 2;
#X obj 15 221 - 1;
#X obj 15 305 + 1;
#X obj 15 328 change;
#X obj 15 199 change;
#X obj 15 98 t b f;
#X text 241 49 sr / 2 = nyquist frequency;
#X obj 15 353 outlet;
#X obj 14 18 inlet~;
#X obj 15 121 f;
#X obj 135 21 loadbang;
#X text 119 216 harmonics never should exceed the nyquist frequency
;
#X obj 15 49 snapshot~;
#X obj 78 21 bang~;
#X obj 15 72 change;
#X connect 0 0 15 1;
#X connect 1 0 2 0;
#X connect 2 0 10 0;
#X connect 3 0 0 0;
#X connect 4 0 5 0;
#X connect 5 0 6 0;
#X connect 6 0 8 0;
#X connect 7 0 4 0;
#X connect 8 0 9 0;
#X connect 9 0 13 0;
#X connect 10 0 7 0;
#X connect 11 0 15 0;
#X connect 11 1 1 1;
#X connect 14 0 18 0;
#X connect 15 0 1 0;
#X connect 16 0 3 0;
#X connect 18 0 20 0;
#X connect 19 0 18 0;
#X connect 20 0 11 0;
#X restore 150 113 pd number_of_harmonics_allowed;
#N canvas 499 174 190 222 raw_square 0;
#X obj 19 13 inlet~;
#X obj 19 180 outlet~;
#X obj 102 18 inlet;
#X obj 102 43 switch~;
#X obj 19 122 -~;
#X obj 19 48 -~ 0.5;
#X obj 18 76 wrap~;
#X obj 18 99 -~ 0.5;
#X obj 19 148 *~ 2;
#X connect 0 0 5 0;
#X connect 2 0 3 0;
#X connect 4 0 8 0;
#X connect 5 0 6 0;
#X connect 5 0 4 1;
#X connect 6 0 7 0;
#X connect 7 0 4 0;
#X connect 8 0 1 0;
#X restore 29 404 pd raw_square;
#N canvas 0 22 448 226 bandlimited_square 0;
#X obj 16 31 inlet~;
#X obj 71 33 inlet;
#X obj 261 34 inlet;
#X obj 17 192 outlet~;
#X msg 71 96 set \$1;
#X obj 261 124 switch~;
#X obj 347 36 inlet;
#X text 69 14 choose table;
#X text 346 17 set phase;
#X text 256 14 switch dsp;
#X obj 71 71 makefilename BLSQUARE%d;
#X obj 17 134 tabosc4~;
#X connect 0 0 11 0;
#X connect 1 0 10 0;
#X connect 2 0 5 0;
#X connect 4 0 11 0;
#X connect 6 0 11 1;
#X connect 10 0 4 0;
#X connect 11 0 3 0;
#X restore 155 405 pd bandlimited_square;
#X obj 166 192 * 2;
#X obj 297 374 snapshot~;
#X obj 150 143 t f f f;
#X obj 202 273 == 0;
#X obj 202 377 f;
#X obj 202 356 sel 1;
#X obj 249 319 change;
#X obj 297 348 sel 1;
#X obj 548 178 inlet;
#X text 550 151 phase;
#X text 350 346 sync phase \, when switching dsp on;
#X text 188 221 switch to raw square \, when number of allowed harmonics
exceeds num_of_tables*2;
#X msg 397 69 get_num_of_tables;
#X obj 397 91 s BLSQUARE;
#X obj 397 111 r BLSQUARE;
#X obj 397 132 route num_of_tables;
#X obj 397 11 loadbang;
#X obj 29 272 phasor~;
#X text 185 81 get the number of tables ->;
#X obj 150 223 >;
#X obj 30 7 inlet~;
#X obj 28 456 outlet~;
#X text 33 494 number of harmononics;
#X text 32 512 without exceeding nyquist;
#X text 31 531 at given frequeny:;
#X text 251 520 best method:;
#X text 245 595 raw square;
#X text 246 563 bandlimited square;
#X text 227 496 |;
#X text 227 505 |;
#X text 227 514 |;
#X text 227 523 |;
#X text 227 533 |;
#X text 227 542 |;
#X text 227 551 |;
#X text 227 560 |;
#X text 227 567 |;
#X text 227 576 |;
#X text 227 585 |;
#X text 227 594 |;
#X text 227 604 |;
#X text 25 541 __________________________________________________;
#X text 25 575 __________________________________________________;
#X text 40 596 n > num_of_tables*2;
#X text 32 565 0 < n < num_of_tables*2;
#X obj 397 42 del 0;
#X obj 607 93 inlet;
#X obj 607 178 switch~;
#X obj 607 155 == 3;
#X connect 0 0 5 0;
#X connect 1 0 24 0;
#X connect 2 0 24 0;
#X connect 3 0 22 1;
#X connect 4 0 2 3;
#X connect 5 0 22 0;
#X connect 5 1 7 1;
#X connect 6 0 8 0;
#X connect 6 0 9 0;
#X connect 7 0 2 1;
#X connect 8 0 7 0;
#X connect 9 0 10 0;
#X connect 9 0 2 2;
#X connect 10 0 4 0;
#X connect 11 0 2 3;
#X connect 11 0 20 1;
#X connect 15 0 16 0;
#X connect 17 0 18 0;
#X connect 18 0 3 0;
#X connect 19 0 48 0;
#X connect 20 0 1 0;
#X connect 20 0 4 0;
#X connect 22 0 1 1;
#X connect 22 0 6 0;
#X connect 23 0 20 0;
#X connect 23 0 0 0;
#X connect 23 0 2 0;
#X connect 48 0 15 0;
#X connect 49 0 51 0;
#X connect 51 0 50 0;
#X restore 198 267 pd square;
#N canvas 439 101 695 651 pulse 0;
#N canvas 314 100 498 265 number_of_harmonics_allowed 0;
#X obj 135 68 / 2;
#X obj 15 151 /;
#X obj 135 44 samplerate~;
#X obj 15 98 t b f;
#X text 241 49 sr / 2 = nyquist frequency;
#X obj 15 229 outlet;
#X obj 14 18 inlet~;
#X obj 15 121 f;
#X obj 135 21 loadbang;
#X text 104 209 harmonics never should exceed the nyquist frequency
;
#X obj 15 49 snapshot~;
#X obj 78 21 bang~;
#X obj 15 72 change;
#X obj 15 177 int;
#X obj 15 200 change;
#X connect 0 0 7 1;
#X connect 1 0 13 0;
#X connect 2 0 0 0;
#X connect 3 0 7 0;
#X connect 3 1 1 1;
#X connect 6 0 10 0;
#X connect 7 0 1 0;
#X connect 8 0 2 0;
#X connect 10 0 12 0;
#X connect 11 0 10 0;
#X connect 12 0 3 0;
#X connect 13 0 14 0;
#X connect 14 0 5 0;
#X restore 161 113 pd number_of_harmonics_allowed;
#X obj 18 -131 inlet~;
#X obj 40 482 outlet~;
#X obj 345 366 snapshot~;
#X obj 206 273 == 0;
#X obj 206 377 f;
#X obj 206 356 sel 1;
#X obj 340 273 change;
#X obj 356 302 sel 1;
#X obj 554 -124 inlet;
#X text 340 346 sync phase \, when switching dsp on;
#X msg 408 69 get_num_of_tables;
#X obj 408 132 route num_of_tables;
#X obj 408 23 loadbang;
#X obj 40 272 phasor~;
#X text 196 92 get the number of tables ->;
#X obj 161 223 >;
#X obj 408 91 s BLSAW;
#X obj 408 111 r BLSAW;
#X obj 161 143 t f f;
#X obj 408 46 del 0;
#X obj 233 27 +~;
#X obj 233 53 +~ 1;
#X obj 233 73 wrap~;
#X obj 408 366 snapshot~;
#X obj 248 -26 sig~ 1;
#X obj 248 0 -~;
#X obj 333 -16 env~;
#X obj 333 8 change;
#X obj 333 32 bang;
#X obj 554 -99 t b f;
#X obj 476 261 snapshot~;
#X obj 476 287 +;
#X obj 238 -96 *~ 0.4;
#X text 597 -126 phase;
#N canvas 438 301 207 227 raw_pulse 0;
#X obj 6 17 inlet~;
#X obj 6 156 outlet~;
#X obj 129 21 inlet;
#X obj 129 46 switch~;
#X obj 6 84 *~ -2;
#X obj 6 110 +~ 1;
#X obj 6 51 expr~ $v1>$v2;
#X obj 81 18 inlet~;
#X connect 0 0 6 0;
#X connect 2 0 3 0;
#X connect 4 0 5 0;
#X connect 5 0 1 0;
#X connect 6 0 4 0;
#X connect 7 0 6 1;
#X restore 40 401 pd raw_pulse;
#N canvas 0 22 578 282 bandlimited_pulse 0;
#X obj 16 31 inlet~;
#X obj 126 34 inlet;
#X obj 261 34 inlet;
#X obj 48 236 outlet~;
#X msg 126 87 set \$1;
#X obj 261 124 switch~;
#X obj 347 36 inlet;
#X text 126 15 choose table;
#X text 346 17 set phase;
#X text 256 14 switch dsp;
#X obj 126 62 makefilename BLSAW%d;
#X obj 17 134 tabosc4~;
#X obj 90 134 tabosc4~;
#X obj 48 163 -~;
#X obj 467 36 inlet~;
#X obj 405 35 inlet;
#X text 404 16 set phase;
#X obj 153 187 *~ 2;
#X obj 153 160 -~ 0.5;
#X obj 48 204 +~;
#X connect 0 0 11 0;
#X connect 0 0 12 0;
#X connect 1 0 10 0;
#X connect 2 0 5 0;
#X connect 4 0 11 0;
#X connect 4 0 12 0;
#X connect 6 0 11 1;
#X connect 10 0 4 0;
#X connect 11 0 13 0;
#X connect 12 0 13 1;
#X connect 13 0 19 0;
#X connect 14 0 18 0;
#X connect 15 0 12 1;
#X connect 17 0 19 1;
#X connect 18 0 17 0;
#X connect 19 0 3 0;
#X restore 185 400 pd bandlimited_pulse;
#X obj 238 -63 +~ 0.5;
#X obj 238 -129 inlet~;
#X text 285 -128 pulse width (50% ~ 90%);
#X text 199 221 switch to raw pulse \, when number of allowed harmonics
exceeds num_of_tables;
#X obj 642 -122 inlet;
#X obj 642 -37 switch~;
#X obj 642 -60 == 4;
#X connect 0 0 19 0;
#X connect 1 0 36 0;
#X connect 1 0 0 0;
#X connect 1 0 14 0;
#X connect 3 0 36 3;
#X connect 4 0 6 0;
#X connect 4 0 7 0;
#X connect 5 0 36 1;
#X connect 6 0 5 0;
#X connect 7 0 8 0;
#X connect 7 0 36 2;
#X connect 8 0 3 0;
#X connect 8 0 24 0;
#X connect 9 0 30 0;
#X connect 11 0 17 0;
#X connect 12 0 16 1;
#X connect 13 0 20 0;
#X connect 14 0 3 0;
#X connect 14 0 35 0;
#X connect 14 0 21 0;
#X connect 16 0 4 0;
#X connect 16 0 35 2;
#X connect 18 0 12 0;
#X connect 19 0 16 0;
#X connect 19 1 5 1;
#X connect 20 0 11 0;
#X connect 21 0 22 0;
#X connect 22 0 23 0;
#X connect 23 0 24 0;
#X connect 24 0 36 4;
#X connect 25 0 26 0;
#X connect 26 0 21 1;
#X connect 26 0 31 0;
#X connect 27 0 28 0;
#X connect 28 0 29 0;
#X connect 29 0 24 0;
#X connect 30 0 31 0;
#X connect 30 1 14 1;
#X connect 30 1 36 3;
#X connect 30 1 32 1;
#X connect 31 0 32 0;
#X connect 32 0 36 4;
#X connect 33 0 37 0;
#X connect 35 0 2 0;
#X connect 36 0 2 0;
#X connect 37 0 35 1;
#X connect 37 0 36 5;
#X connect 37 0 26 1;
#X connect 37 0 27 0;
#X connect 38 0 33 0;
#X connect 41 0 43 0;
#X connect 43 0 42 0;
#X restore 268 267 pd pulse;
#N canvas 237 255 450 300 noise 0;
#X obj 163 157 outlet~;
#X obj 263 94 inlet;
#X obj 263 157 switch~;
#X obj 163 94 noise~;
#X obj 263 134 == 5;
#X connect 1 0 4 0;
#X connect 3 0 0 0;
#X connect 4 0 2 0;
#X restore 332 267 pd noise;
#X obj 156 423 outlet~;
#X obj 304 86 sel sine triangle saw square pulse noise;
#X msg 304 116 0;
#X msg 343 116 1;
#X msg 383 116 2;
#X msg 422 116 3;
#X msg 462 116 4;
#X msg 501 116 5;
#X obj 405 171 t f;
#X text 436 425 published under the GNU Public License;
#X text 436 385 Tags: #Audio \, #Oscillator;
#X text 436 405 copyright by Roman Haefeli;
#X obj 304 55 symbol;
#N canvas 169 33 537 620 singleton-communication 0;
#X obj 127 22 loadbang;
#X obj 171 100 + 1;
#X obj 16 96 spigot;
#X obj 149 153 == 1;
#X obj 127 47 t b b b;
#X obj 270 225 \$1;
#X obj 127 184 t b b;
#X msg 270 246 newdollar1 \$1;
#X obj 125 396 > \$1;
#X obj 134 419 sel 1;
#X obj 134 441 f;
#X text 189 397 if new is bigger \, use new number_of_tables;
#X obj 134 373 t f f f;
#X obj 178 502 - \$1;
#X obj 178 526 moses 1;
#X obj 222 549 s \$0-create_additional_tables;
#X obj 127 214 f;
#X obj 127 240 sel 1;
#X obj 127 264 s \$0-create_tables;
#X obj 18 348 route get_num_of_tables newdollar1;
#X obj 18 423 \$1;
#X msg 18 461 num_of_tables \$1;
#X obj 171 77 value BLSAW.instance;
#X obj 149 131 value BLSAW.instance;
#X obj 270 267 s BLSAW;
#X obj 16 69 r BLSAW;
#X obj 16 120 s \$0-BLSAW;
#X obj 18 319 r \$0-BLSAW;
#X obj 18 488 s BLSAW;
#X connect 0 0 4 0;
#X connect 1 0 23 0;
#X connect 2 0 26 0;
#X connect 3 0 2 1;
#X connect 3 0 16 1;
#X connect 4 0 6 0;
#X connect 4 1 23 0;
#X connect 4 2 22 0;
#X connect 5 0 7 0;
#X connect 6 0 16 0;
#X connect 6 1 5 0;
#X connect 7 0 24 0;
#X connect 8 0 9 0;
#X connect 9 0 10 0;
#X connect 10 0 8 1;
#X connect 10 0 13 1;
#X connect 10 0 20 1;
#X connect 12 0 8 0;
#X connect 12 1 10 1;
#X connect 12 2 13 0;
#X connect 13 0 14 0;
#X connect 14 1 15 0;
#X connect 16 0 17 0;
#X connect 17 0 18 0;
#X connect 19 0 20 0;
#X connect 19 1 12 0;
#X connect 20 0 21 0;
#X connect 21 0 28 0;
#X connect 22 0 1 0;
#X connect 23 0 3 0;
#X connect 25 0 2 0;
#X connect 27 0 19 0;
#X restore 439 253 pd singleton-communication;
#N canvas 169 33 537 620 singleton-communication 0;
#X obj 127 22 loadbang;
#X obj 171 100 + 1;
#X obj 16 96 spigot;
#X obj 149 153 == 1;
#X obj 127 47 t b b b;
#X obj 270 225 \$1;
#X obj 127 184 t b b;
#X msg 270 246 newdollar1 \$1;
#X obj 125 396 > \$1;
#X obj 134 419 sel 1;
#X obj 134 441 f;
#X text 189 397 if new is bigger \, use new number_of_tables;
#X obj 134 373 t f f f;
#X obj 178 502 - \$1;
#X obj 178 526 moses 1;
#X obj 222 549 s \$0-create_additional_tables;
#X obj 127 214 f;
#X obj 127 240 sel 1;
#X obj 127 264 s \$0-create_tables;
#X obj 18 348 route get_num_of_tables newdollar1;
#X obj 18 423 \$1;
#X msg 18 461 num_of_tables \$1;
#X obj 171 77 value BLTRIANGLE.instance;
#X obj 149 131 value BLTRIANGLE.instance;
#X obj 270 267 s BLTRIANGLE;
#X obj 16 69 r BLTRIANGLE;
#X obj 16 120 s \$0-BLTRIANGLE;
#X obj 18 319 r \$0-BLTRIANGLE;
#X obj 18 488 s BLTRIANGLE;
#X connect 0 0 4 0;
#X connect 1 0 23 0;
#X connect 2 0 26 0;
#X connect 3 0 2 1;
#X connect 3 0 16 1;
#X connect 4 0 6 0;
#X connect 4 1 23 0;
#X connect 4 2 22 0;
#X connect 5 0 7 0;
#X connect 6 0 16 0;
#X connect 6 1 5 0;
#X connect 7 0 24 0;
#X connect 8 0 9 0;
#X connect 9 0 10 0;
#X connect 10 0 8 1;
#X connect 10 0 13 1;
#X connect 10 0 20 1;
#X connect 12 0 8 0;
#X connect 12 1 10 1;
#X connect 12 2 13 0;
#X connect 13 0 14 0;
#X connect 14 1 15 0;
#X connect 16 0 17 0;
#X connect 17 0 18 0;
#X connect 19 0 20 0;
#X connect 19 1 12 0;
#X connect 20 0 21 0;
#X connect 21 0 28 0;
#X connect 22 0 1 0;
#X connect 23 0 3 0;
#X connect 25 0 2 0;
#X connect 27 0 19 0;
#X restore 439 232 pd singleton-communication;
#N canvas 169 33 537 620 singleton-communication 0;
#X obj 16 69 r BLSQUARE;
#X obj 127 22 loadbang;
#X obj 171 77 value BLSQUARE.instance;
#X obj 171 100 + 1;
#X obj 149 131 value BLSQUARE.instance;
#X obj 16 96 spigot;
#X obj 149 153 == 1;
#X obj 16 120 s \$0-BLSQUARE;
#X obj 18 319 r \$0-BLSQUARE;
#X obj 127 47 t b b b;
#X obj 270 225 \$1;
#X obj 127 184 t b b;
#X msg 270 246 newdollar1 \$1;
#X obj 270 267 s BLSQUARE;
#X obj 125 396 > \$1;
#X obj 134 419 sel 1;
#X obj 134 441 f;
#X text 189 397 if new is bigger \, use new number_of_tables;
#X obj 134 373 t f f f;
#X obj 178 502 - \$1;
#X obj 178 526 moses 1;
#X obj 222 549 s \$0-create_additional_tables;
#X obj 127 214 f;
#X obj 127 240 sel 1;
#X obj 127 264 s \$0-create_tables;
#X obj 18 348 route get_num_of_tables newdollar1;
#X obj 18 423 \$1;
#X msg 18 461 num_of_tables \$1;
#X obj 18 488 s BLSQUARE;
#X connect 0 0 5 0;
#X connect 1 0 9 0;
#X connect 2 0 3 0;
#X connect 3 0 4 0;
#X connect 4 0 6 0;
#X connect 5 0 7 0;
#X connect 6 0 5 1;
#X connect 6 0 22 1;
#X connect 8 0 25 0;
#X connect 9 0 11 0;
#X connect 9 1 4 0;
#X connect 9 2 2 0;
#X connect 10 0 12 0;
#X connect 11 0 22 0;
#X connect 11 1 10 0;
#X connect 12 0 13 0;
#X connect 14 0 15 0;
#X connect 15 0 16 0;
#X connect 16 0 14 1;
#X connect 16 0 19 1;
#X connect 16 0 26 1;
#X connect 18 0 14 0;
#X connect 18 1 16 1;
#X connect 18 2 19 0;
#X connect 19 0 20 0;
#X connect 20 1 21 0;
#X connect 22 0 23 0;
#X connect 23 0 24 0;
#X connect 25 0 26 0;
#X connect 25 1 18 0;
#X connect 26 0 27 0;
#X connect 27 0 28 0;
#X restore 439 274 pd singleton-communication;
#N canvas 555 327 605 504 lookup-table-creation 0;
#X obj 15 195 until;
#X obj 15 217 f;
#X obj 50 217 + 1;
#X obj 58 195 1;
#X obj 15 238 * 2;
#X obj 15 260 - 1;
#X obj 80 345 pack f s;
#X obj 15 105 t f b b;
#X msg 136 270 clear;
#X obj 80 317 * 10;
#X obj 15 282 t b f f;
#X obj 15 407 f;
#X obj 15 474 send;
#X msg 80 374 obj 10 \$1 table \$2 515;
#X text 131 231 occur. ( 1 \, 3 \, 5 \, 7 \, etc.);
#X text 282 374 create the necessary tables;
#X text 238 439 fill each table with the appropriate sinesum \,;
#X text 237 457 respectively the appropriate number of harmonics.;
#X obj 131 318 makefilename BLTRIANGLE%d;
#N canvas 535 94 364 553 bandlimited_triangle_sinesum 0;
#X obj 43 67 until;
#X obj 21 38 t b f b;
#X obj 84 67 1;
#X obj 43 99 f 1;
#X obj 43 415 list prepend;
#X obj 142 416 list;
#X obj 21 444 list;
#X obj 21 489 list trim;
#X obj 21 16 inlet;
#X obj 21 511 outlet;
#X obj 21 467 list prepend sinesum 512;
#X obj 191 274 b;
#X obj 83 99 + 1;
#X obj 43 175 sel 0 1;
#X obj 43 200 0;
#X obj 70 201 f;
#X obj 43 125 t f f;
#X obj 43 151 mod 2;
#X obj 100 245 mod 4;
#X obj 70 222 t f f;
#X obj 100 267 sel 3;
#X obj 136 290 b;
#X obj 100 290 -1;
#X obj 136 312 1;
#X obj 70 323 pow -2;
#X obj 70 349 *;
#X obj 70 376 * 0.810571;
#X text 163 375 = 8 / (pi^2);
#X connect 0 0 3 0;
#X connect 1 0 6 0;
#X connect 1 1 0 0;
#X connect 1 2 2 0;
#X connect 1 2 11 0;
#X connect 2 0 3 1;
#X connect 3 0 12 0;
#X connect 3 0 16 0;
#X connect 4 0 5 0;
#X connect 4 0 6 1;
#X connect 5 0 4 1;
#X connect 6 0 10 0;
#X connect 7 0 9 0;
#X connect 8 0 1 0;
#X connect 10 0 7 0;
#X connect 11 0 6 1;
#X connect 11 0 4 1;
#X connect 12 0 3 1;
#X connect 13 0 14 0;
#X connect 13 1 15 0;
#X connect 14 0 4 0;
#X connect 15 0 19 0;
#X connect 16 0 17 0;
#X connect 16 1 15 1;
#X connect 17 0 13 0;
#X connect 18 0 20 0;
#X connect 19 0 24 0;
#X connect 19 1 18 0;
#X connect 20 0 22 0;
#X connect 20 1 21 0;
#X connect 21 0 23 0;
#X connect 22 0 25 1;
#X connect 23 0 25 1;
#X connect 24 0 25 0;
#X connect 25 0 26 0;
#X connect 26 0 4 0;
#X restore 15 442 pd bandlimited_triangle_sinesum;
#X text 131 214 for synthesizing a triangle only odd numbered of harmonics
;
#X obj 15 16 r \$0-create_tables;
#X obj 15 59 \$1;
#X obj 122 142 r \$0-create_additional_tables;
#X obj 80 410 s pd-\$0-lookup-tables-triangle;
#X connect 0 0 1 0;
#X connect 1 0 2 0;
#X connect 1 0 4 0;
#X connect 2 0 1 1;
#X connect 3 0 1 1;
#X connect 4 0 5 0;
#X connect 5 0 10 0;
#X connect 6 0 13 0;
#X connect 7 0 0 0;
#X connect 7 1 3 0;
#X connect 7 2 8 0;
#X connect 8 0 24 0;
#X connect 9 0 6 0;
#X connect 10 0 11 0;
#X connect 10 1 9 0;
#X connect 10 2 11 1;
#X connect 10 2 18 0;
#X connect 11 0 19 0;
#X connect 13 0 24 0;
#X connect 18 0 6 1;
#X connect 18 0 12 1;
#X connect 19 0 12 0;
#X connect 21 0 22 0;
#X connect 22 0 7 0;
#X connect 23 0 0 0;
#X restore 439 171 pd lookup-table-creation;
#N canvas 555 327 605 504 lookup-table-creation 0;
#X obj 15 195 until;
#X obj 15 217 f;
#X obj 50 217 + 1;
#X obj 58 195 1;
#X obj 80 345 pack f s;
#X obj 15 125 t f b b;
#X msg 136 270 clear;
#X obj 15 248 t b f f;
#X obj 15 407 f;
#X obj 15 474 send;
#X msg 80 374 obj 10 \$1 table \$2 515;
#X text 282 374 create the necessary tables;
#X text 238 439 fill each table with the appropriate sinesum \,;
#X text 237 457 respectively the appropriate number of harmonics.;
#X obj 131 318 makefilename BLSAW%d;
#N canvas 535 94 218 342 bandlimited_saw_sinesum 0;
#X obj 43 67 until;
#X obj 21 38 t b f b;
#X obj 84 67 1;
#X obj 43 99 f 1;
#X obj 84 99 + 1;
#X obj 43 194 list prepend;
#X obj 154 195 list;
#X obj 21 233 list;
#X obj 135 129 b;
#X obj 21 278 list trim;
#X obj 21 16 inlet;
#X obj 21 300 outlet;
#X obj 21 256 list prepend sinesum 512;
#X obj 43 143 pow -1;
#X obj 43 167 * 0.63662;
#X text 120 167 = 2 / pi;
#X connect 0 0 3 0;
#X connect 1 0 7 0;
#X connect 1 1 0 0;
#X connect 1 2 2 0;
#X connect 1 2 8 0;
#X connect 2 0 3 1;
#X connect 3 0 4 0;
#X connect 3 0 13 0;
#X connect 4 0 3 1;
#X connect 5 0 6 0;
#X connect 5 0 7 1;
#X connect 6 0 5 1;
#X connect 7 0 12 0;
#X connect 8 0 7 1;
#X connect 8 0 5 1;
#X connect 9 0 11 0;
#X connect 10 0 1 0;
#X connect 12 0 9 0;
#X connect 13 0 14 0;
#X connect 14 0 5 0;
#X restore 15 442 pd bandlimited_saw_sinesum;
#X obj 80 317 * 20;
#X obj 80 396 s pd-\$0-lookup-tables-saw;
#X obj 138 123 r \$0-create_additional_tables;
#X obj 15 28 r \$0-create_tables;
#X obj 15 66 \$1;
#X connect 0 0 1 0;
#X connect 1 0 2 0;
#X connect 1 0 7 0;
#X connect 2 0 1 1;
#X connect 3 0 1 1;
#X connect 4 0 10 0;
#X connect 5 0 0 0;
#X connect 5 1 3 0;
#X connect 5 2 6 0;
#X connect 6 0 17 0;
#X connect 7 0 8 0;
#X connect 7 1 16 0;
#X connect 7 2 8 1;
#X connect 7 2 14 0;
#X connect 8 0 15 0;
#X connect 10 0 17 0;
#X connect 14 0 4 1;
#X connect 14 0 9 1;
#X connect 15 0 9 0;
#X connect 16 0 4 0;
#X connect 18 0 0 0;
#X connect 19 0 20 0;
#X connect 20 0 5 0;
#X restore 439 191 pd lookup-table-creation;
#N canvas 555 327 605 504 lookup-table-creation 0;
#N canvas 535 94 265 461 bandlimited_square_sinesum 0;
#X obj 43 67 until;
#X obj 21 38 t b f b;
#X obj 84 67 1;
#X obj 43 99 f 1;
#X obj 84 99 + 1;
#X obj 43 125 t f f;
#X obj 43 153 % 2;
#X obj 43 176 sel 0 1;
#X obj 43 203 0;
#X obj 69 203 f;
#X obj 69 227 t b f;
#X obj 69 249 pack 1 f;
#X obj 69 274 /;
#X obj 43 334 list prepend;
#X obj 142 335 list;
#X obj 21 363 list;
#X obj 154 252 b;
#X obj 21 408 list trim;
#X obj 21 16 inlet;
#X obj 21 430 outlet;
#X obj 21 386 list prepend sinesum 512;
#X obj 69 299 * 1.27324;
#X text 145 298 = 4 / pi;
#X connect 0 0 3 0;
#X connect 1 0 15 0;
#X connect 1 1 0 0;
#X connect 1 2 2 0;
#X connect 1 2 16 0;
#X connect 2 0 3 1;
#X connect 3 0 4 0;
#X connect 3 0 5 0;
#X connect 4 0 3 1;
#X connect 5 0 6 0;
#X connect 5 1 9 1;
#X connect 6 0 7 0;
#X connect 7 0 8 0;
#X connect 7 1 9 0;
#X connect 8 0 13 0;
#X connect 9 0 10 0;
#X connect 10 0 11 0;
#X connect 10 1 11 1;
#X connect 11 0 12 0;
#X connect 12 0 21 0;
#X connect 13 0 14 0;
#X connect 13 0 15 1;
#X connect 14 0 13 1;
#X connect 15 0 20 0;
#X connect 16 0 15 1;
#X connect 16 0 13 1;
#X connect 17 0 19 0;
#X connect 18 0 1 0;
#X connect 20 0 17 0;
#X connect 21 0 13 0;
#X restore 15 442 pd bandlimited_square_sinesum;
#X obj 15 195 until;
#X obj 15 217 f;
#X obj 50 217 + 1;
#X obj 58 195 1;
#X obj 15 238 * 2;
#X obj 15 260 - 1;
#X obj 80 345 pack f s;
#X obj 15 100 t f b b;
#X msg 136 270 clear;
#X obj 80 317 * 10;
#X obj 15 282 t b f f;
#X obj 15 407 f;
#X obj 15 474 send;
#X msg 80 374 obj 10 \$1 table \$2 515;
#X obj 131 318 makefilename BLSQUARE%d;
#X text 131 214 for synthesizing a square only odd numbers of harmonics
;
#X text 131 231 occur. ( 1 \, 3 \, 5 \, 7 \, etc.);
#X text 282 374 create the necessary tables;
#X text 238 439 fill each table with the appropriate sinesum \,;
#X text 237 457 respectively the appropriate number of harmonics.;
#X obj 138 123 r \$0-create_additional_tables;
#X obj 15 33 r \$0-create_tables;
#X obj 15 66 \$1;
#X obj 80 396 s pd-\$0-lookup-tables-square;
#X connect 0 0 13 0;
#X connect 1 0 2 0;
#X connect 2 0 3 0;
#X connect 2 0 5 0;
#X connect 3 0 2 1;
#X connect 4 0 2 1;
#X connect 5 0 6 0;
#X connect 6 0 11 0;
#X connect 7 0 14 0;
#X connect 8 0 1 0;
#X connect 8 1 4 0;
#X connect 8 2 9 0;
#X connect 9 0 24 0;
#X connect 10 0 7 0;
#X connect 11 0 12 0;
#X connect 11 1 10 0;
#X connect 11 2 12 1;
#X connect 11 2 15 0;
#X connect 12 0 0 0;
#X connect 14 0 24 0;
#X connect 15 0 7 1;
#X connect 15 0 13 1;
#X connect 21 0 1 0;
#X connect 22 0 23 0;
#X connect 23 0 8 0;
#X restore 439 211 pd lookup-table-creation;
#X connect 3 0 16 0;
#X connect 4 0 8 0;
#X connect 4 0 9 0;
#X connect 4 0 10 0;
#X connect 4 0 11 0;
#X connect 4 0 12 0;
#X connect 5 0 8 1;
#X connect 5 0 9 1;
#X connect 5 0 10 1;
#X connect 5 0 11 1;
#X connect 5 0 12 2;
#X connect 6 0 26 0;
#X connect 7 0 12 1;
#X connect 8 0 14 0;
#X connect 9 0 14 0;
#X connect 10 0 14 0;
#X connect 11 0 14 0;
#X connect 12 0 14 0;
#X connect 13 0 14 0;
#X connect 15 0 16 0;
#X connect 15 1 17 0;
#X connect 15 2 18 0;
#X connect 15 3 19 0;
#X connect 15 4 20 0;
#X connect 15 5 21 0;
#X connect 16 0 22 0;
#X connect 17 0 22 0;
#X connect 18 0 22 0;
#X connect 19 0 22 0;
#X connect 20 0 22 0;
#X connect 21 0 22 0;
#X connect 22 0 8 2;
#X connect 22 0 9 2;
#X connect 22 0 10 2;
#X connect 22 0 11 2;
#X connect 22 0 12 3;
#X connect 22 0 13 0;
#X connect 26 0 15 0;
