#N canvas 0 22 574 824 10;
#X obj 10 768 cnv 15 552 42 empty empty empty 20 12 0 14 -228856 -66577
0;
#X obj 10 10 cnv 15 552 26 empty empty a.wavsampler1~ 3 12 0 18 -138934
-1 0;
#X obj 10 386 cnv 3 550 3 empty empty inlets 8 12 0 13 -228856 -1 0
;
#X obj 10 596 cnv 3 550 3 empty empty outlets 8 12 0 13 -228856 -1
0;
#X obj 10 678 cnv 3 550 3 empty empty arguments 8 12 0 13 -228856 -1
0;
#X obj 10 739 cnv 3 550 3 empty empty more_info 8 12 0 13 -228856 -1
0;
#X obj 88 395 cnv 17 3 17 empty empty 0 5 9 0 16 -228856 -162280 0
;
#X obj 88 605 cnv 17 3 17 empty empty 0 5 9 0 16 -228856 -162280 0
;
#X text 108 604 signal;
#X text 323 790 published under the GNU Public License;
#X obj 10 37 cnv 15 552 16 empty empty empty 3 12 0 18 -85426 -1 0
;
#X obj 208 365 dac~;
#X text 323 770 copyright by Iceblink Digital \, Inc.;
#X obj 208 337 *~ 0.5;
#X floatatom 290 365 7 0 0 0 - - -, f 7;
#X msg 82 169 5000;
#X msg 82 64 bang;
#X msg 82 127 1000 2700;
#X msg 82 106 stop;
#X text 108 394 bang;
#X text 108 438 stop;
#X text 108 460 list;
#X text 108 482 float;
#X text 177 438 - stop playback.;
#X obj 88 629 cnv 17 3 17 empty empty 1 5 9 0 16 -228856 -162280 0
;
#X text 108 628 float;
#X text 90 698 1) symbol;
#X text 156 106 stop playback.;
#X text 108 541 load;
#X text 358 237 mono wav file;
#X text 178 394 - play a wav file from beginning to end.;
#X text 178 698 - the name(or relative path) of the wav file to load.
;
#X text 190 716 *file name(or path) should not contain any space.;
#X text 358 216 stereo wav file;
#X text 234 287 *file name(or path) should not contain any space.;
#X text 59 366 load a stereo wav file.;
#X text 55 333 *only the left channel;
#X text 61 350 will be used if you;
#X msg 82 148 2700 1000;
#X msg 82 85 reverse;
#X msg 11 238 speed 1;
#X msg 11 215 speed 2;
#X obj 373 337 bng 15 250 50 0 empty empty empty 17 7 0 10 -262144
-1 -1;
#X msg 11 261 speed 0.5;
#X text 10 195 playback speed;
#X text 75 215 2x faster;
#X text 75 238 original;
#X text 75 260 2x slower;
#X text 21 37 advanced wav file player with mono output;
#X text 390 335 -> end of playback. (bang);
#X text 335 364 -> total length of the wav file. (ms);
#X text 108 416 reverse;
#X text 178 416 - play a wav file from backwards.;
#X text 108 505 speed;
#X text 178 628 - total length of the loaded wav file. (ms);
#X obj 88 653 cnv 17 3 17 empty empty 2 5 9 0 16 -228856 -162280 0
;
#X text 108 652 bang;
#X text 190 522 playback speed in realtime. (original speed x float)
;
#X text 178 652 - outputs bang after finishing the playback.;
#N canvas 4 23 229 259 d.dspstate 0;
#X obj 82 26 r pd;
#X obj 82 52 route dsp;
#X msg 101 138 1;
#X obj 51 169 sig~;
#X obj 51 193 snapshot~;
#X obj 82 109 t b b b;
#X msg 130 138 set 0;
#X obj 51 138 del 10;
#X obj 19 1 cnv 15 40 18 empty empty dsp 9 9 1 15 -233017 -66577 0
;
#X obj 0 0 tgl 20 0 \$0-d.dspstate-s \$0-d.dspstate-r empty 17 7 0
10 -228856 -1 -1 0 1;
#X msg 51 223 set \$1;
#X obj 0 79 s pd;
#X msg 0 52 dsp \$1;
#X obj 128 26 loadbang;
#X connect 0 0 1 0;
#X connect 1 0 5 0;
#X connect 2 0 3 0;
#X connect 3 0 4 0;
#X connect 4 0 10 0;
#X connect 5 0 7 0;
#X connect 5 1 2 0;
#X connect 5 2 6 0;
#X connect 6 0 4 0;
#X connect 7 0 4 0;
#X connect 9 0 12 0;
#X connect 10 0 9 0;
#X connect 12 0 11 0;
#X connect 13 0 5 0;
#X coords 0 -1 1 1 60 20 2 0 0;
#X restore 502 57 pd d.dspstate;
#X text 230 272 (e.g to load "/audio/bell.wav" \, send "load bell")
;
#X msg 208 216 load example/drumloop;
#X msg 226 238 load example/vocal;
#X obj 208 305 a.wavsampler1~ example/vocal;
#X text 205 195 load a new wav file from 'gl/audio/example' folder.
;
#X text 230 257 you should use relative path from 'audio' folder.;
#X text 17 770 tags: #audio \, #sampler \, #wav;
#X text 156 167 play a wav file from 5000ms to end.;
#X text 177 505 - a "speed" message \, followed by a float \, changes
the;
#X text 177 541 - a "load" message \, followed by the name(or relative
path);
#X text 189 558 of a wav file without ".wav" \, permits you to load
the file.;
#X text 178 604 - the outcoming audio signal. (left channel);
#X text 187 574 *file name(or path) should not contain any space.;
#X text 156 64 play a wav file from beginning to end.;
#X text 156 85 play a wav file backwards.;
#X text 156 126 play a certain time range(1000ms ~ 2700ms) in the wav
file.;
#X text 156 147 play a certain time range(1000ms ~ 2700ms) backwards.
;
#X text 177 460 - play a certain time range(from \, to) in a wav file.
(ms);
#X text 177 482 - play a wav file from certain time to the end. (ms)
;
#X connect 13 0 11 0;
#X connect 13 0 11 1;
#X connect 15 0 63 0;
#X connect 16 0 63 0;
#X connect 17 0 63 0;
#X connect 18 0 63 0;
#X connect 38 0 63 0;
#X connect 39 0 63 0;
#X connect 40 0 63 0;
#X connect 41 0 63 0;
#X connect 43 0 63 0;
#X connect 61 0 63 0;
#X connect 62 0 63 0;
#X connect 63 0 13 0;
#X connect 63 1 14 0;
#X connect 63 2 42 0;
