#N canvas 0 22 540 649 10;
#X obj 20 605 outlet~;
#X obj 278 21 loadbang;
#X obj 278 239 soundfiler;
#X obj 346 239 table \$0-left;
#X obj 278 264 / 44.1;
#X obj 20 21 inlet;
#X obj 54 311 * 44.1;
#X obj 126 311 * 44.1;
#X obj 278 605 outlet;
#X obj 401 124 samplerate~;
#X obj 401 148 * 0.001;
#X obj 278 124 list append \$1 \$0;
#X obj 278 148 route 0;
#X obj 278 78 t b a;
#X obj 20 240 unpack f f;
#X obj 278 49 t b b;
#X obj 20 209 pack f f;
#X obj 126 488 - 2;
#X obj 71 393 * 1;
#X obj 344 341 /;
#X obj 344 316 swap 44100;
#X obj 54 488 max 1;
#X msg 20 133 0;
#X obj 20 575 tabread4~ \$0-left;
#X msg 344 264 load \$1;
#X obj 317 171 t a a;
#X obj 71 341 -;
#X obj 126 275 t f f;
#X obj 178 341 max 0.0001;
#X obj 71 365 abs;
#X obj 352 488 delay;
#X obj 305 100 list append \$0;
#X obj 99 449 switch~;
#X msg 37 423 1;
#X msg 99 423 0;
#X obj 59 156 f;
#X msg 59 179 \$1 0;
#X obj 20 49 route bang reverse stop load speed float;
#X msg 59 133 bang;
#X obj 178 488 / 1;
#N canvas 346 391 311 368 rtline~ 0;
#X obj 177 162 f;
#X obj 111 63 f;
#X obj 110 267 pack f f;
#X obj 111 87 t f f;
#N canvas 752 223 271 475 rescale 0;
#X obj 82 11 inlet;
#X obj 197 11 inlet;
#X obj 82 50 t f f;
#X obj 161 80 -;
#X obj 178 114 > 0;
#X obj 150 162 sel 0 1;
#X obj 182 193 f;
#X obj 150 193 f;
#X obj 8 11 inlet;
#X obj 109 252 -;
#X obj 109 290 /;
#X obj 161 252 abs;
#X obj 109 336 list prepend;
#X obj 109 438 outlet;
#X msg 134 394 1 \$1;
#X obj 134 416 -;
#X obj 109 363 route 0 1;
#X connect 0 0 2 0;
#X connect 1 0 3 1;
#X connect 1 0 6 1;
#X connect 2 0 3 0;
#X connect 2 1 7 1;
#X connect 3 0 4 0;
#X connect 3 0 11 0;
#X connect 4 0 5 0;
#X connect 4 0 12 1;
#X connect 5 0 7 0;
#X connect 5 1 6 0;
#X connect 6 0 9 1;
#X connect 7 0 9 1;
#X connect 8 0 9 0;
#X connect 9 0 10 0;
#X connect 10 0 12 0;
#X connect 11 0 10 1;
#X connect 12 0 16 0;
#X connect 14 0 15 0;
#X connect 15 0 13 0;
#X connect 16 0 13 0;
#X connect 16 1 14 0;
#X restore 110 191 pd rescale;
#X obj 110 217 *;
#X obj 110 241 t b f;
#X obj 204 87 t b f f;
#X obj 155 241 f;
#X obj 94 8 inlet from;
#X obj 167 8 inlet to;
#X obj 228 8 inlet time;
#X obj 14 46 t b b;
#X obj 14 8 inlet start;
#X obj 110 295 line~;
#X obj 110 162 snapshot~;
#X obj 110 336 outlet~;
#X obj 198 336 outlet timeleft;
#X connect 0 0 4 2;
#X connect 0 0 14 0;
#X connect 1 0 3 0;
#X connect 2 0 14 0;
#X connect 3 0 2 0;
#X connect 3 1 4 1;
#X connect 4 0 5 0;
#X connect 5 0 6 0;
#X connect 6 0 2 0;
#X connect 6 1 2 1;
#X connect 6 1 17 0;
#X connect 7 0 15 0;
#X connect 7 1 5 1;
#X connect 7 2 8 1;
#X connect 8 0 2 1;
#X connect 8 0 17 0;
#X connect 9 0 0 1;
#X connect 10 0 1 1;
#X connect 11 0 7 0;
#X connect 12 0 1 0;
#X connect 12 1 0 0;
#X connect 12 1 8 0;
#X connect 13 0 12 0;
#X connect 14 0 15 0;
#X connect 14 0 16 0;
#X connect 15 0 4 0;
#X restore 20 530 pd rtline~;
#X obj 178 365 t b f;
#X obj 352 605 outlet;
#X msg 352 465 stop;
#X obj 77 553 spigot;
#X obj 20 275 t b b f f;
#X obj 278 393 * 1;
#X obj 378 341 change;
#X msg 342 426 set \$1-left;
#X msg 422 426 set \$1-right;
#X obj 378 394 route 1 2;
#X obj 378 368 pack 0 \$0;
#X obj 431 239 table \$0-right;
#X obj 130 605 outlet~;
#X obj 130 575 tabread4~ \$0-right;
#X obj 344 290 gl/p.wavdata;
#N canvas 172 83 586 377 LICENSE-GPL 0;
#X text 57 88 This program is free software: you can redistribute it
and/or modify it under the terms of the GNU General Public License
as published by the Free Software Foundation \, either version 3 of
the License \, or (at your option) any later version.;
#X text 58 168 This program is distributed in the hope that it will
be useful \, but WITHOUT ANY WARRANTY \; without even the implied warranty
of MERCHANTABILITY or FITNESS FOR A PARTICULAR PURPOSE. See the GNU
General Public License for more details.;
#X text 57 261 You should have received a copy of the GNU General Public
License along with this program. If not \, see <http://www.gnu.org/licenses/>.
;
#X text 60 325 See the file LICENSE.txt for the full license text.
;
#X text 61 54 Copyright (C) 2016 \, Iceblink Digital \, Inc.;
#X restore 414 488 pd LICENSE-GPL;
#X msg 278 213 read -resize audio/\$1.wav \$2-left \$2-right;
#X connect 1 0 15 0;
#X connect 2 0 4 0;
#X connect 4 0 16 1;
#X connect 4 0 35 1;
#X connect 4 0 46 0;
#X connect 5 0 37 0;
#X connect 6 0 21 0;
#X connect 7 0 17 0;
#X connect 9 0 10 0;
#X connect 9 0 20 1;
#X connect 10 0 4 1;
#X connect 10 0 7 1;
#X connect 10 0 6 1;
#X connect 11 0 12 0;
#X connect 12 1 25 0;
#X connect 13 0 11 0;
#X connect 13 1 31 0;
#X connect 14 0 45 0;
#X connect 14 1 27 0;
#X connect 15 0 11 0;
#X connect 15 1 9 0;
#X connect 16 0 14 0;
#X connect 17 0 40 2;
#X connect 18 0 39 0;
#X connect 19 0 18 1;
#X connect 19 0 46 1;
#X connect 20 0 19 0;
#X connect 20 1 19 1;
#X connect 21 0 40 1;
#X connect 22 0 16 0;
#X connect 23 0 0 0;
#X connect 24 0 55 0;
#X connect 25 0 57 0;
#X connect 25 1 24 0;
#X connect 26 0 29 0;
#X connect 27 0 7 0;
#X connect 27 1 26 1;
#X connect 28 0 41 0;
#X connect 29 0 18 0;
#X connect 30 0 34 0;
#X connect 30 0 42 0;
#X connect 31 0 11 1;
#X connect 33 0 32 0;
#X connect 33 0 44 1;
#X connect 34 0 32 0;
#X connect 34 0 44 1;
#X connect 35 0 36 0;
#X connect 36 0 14 0;
#X connect 37 0 22 0;
#X connect 37 1 38 0;
#X connect 37 2 43 0;
#X connect 37 2 34 0;
#X connect 37 3 13 0;
#X connect 37 4 28 0;
#X connect 37 5 16 0;
#X connect 37 6 14 0;
#X connect 38 0 35 0;
#X connect 39 0 40 3;
#X connect 40 0 23 0;
#X connect 40 0 54 0;
#X connect 40 1 44 0;
#X connect 41 0 39 0;
#X connect 41 1 39 1;
#X connect 43 0 30 0;
#X connect 44 0 30 0;
#X connect 45 0 40 0;
#X connect 45 1 33 0;
#X connect 45 2 6 0;
#X connect 45 3 26 0;
#X connect 46 0 8 0;
#X connect 47 0 51 0;
#X connect 48 0 54 0;
#X connect 49 0 54 0;
#X connect 50 0 48 0;
#X connect 50 1 49 0;
#X connect 51 0 50 0;
#X connect 54 0 53 0;
#X connect 55 0 20 0;
#X connect 55 1 47 0;
#X connect 57 0 2 0;
