#N canvas 0 22 1074 617 10;
#X obj 204 -6 spigot 1;
#X obj 524 -76 loadbang;
#N canvas 74 35 989 783 type2list 0;
#X obj 522 191 == 0;
#X msg 430 192 add2 \$1 \, bang;
#X obj 618 381 list split;
#X obj 629 285 list length;
#X obj 629 317 - 1;
#X obj 423 278 list;
#X obj 618 421 list prepend set;
#X obj 618 446 list trim;
#N canvas 566 295 450 300 stepper 0;
#X msg 167 94 1;
#X msg 114 94 -1;
#X obj 141 157 +;
#X obj 171 157 f;
#X obj 114 68 inlet;
#X obj 167 69 inlet;
#X obj 234 69 inlet;
#X obj 141 221 outlet;
#X connect 0 0 2 0;
#X connect 1 0 2 0;
#X connect 2 0 3 0;
#X connect 2 0 7 0;
#X connect 3 0 2 1;
#X connect 4 0 1 0;
#X connect 5 0 0 0;
#X connect 6 0 3 0;
#X restore 256 329 pd stepper;
#X obj 182 378 moses 0;
#X msg 182 448 0;
#X obj 182 426 del;
#X msg 195 66 space;
#X msg 241 66 back;
#X obj 425 32 sel Left Right Up Down;
#X obj 381 328 list length;
#X obj 488 165 t b a;
#X obj 431 411 max 0;
#X obj 321 198 t b b;
#X obj 107 219 t b b;
#X obj 251 408 moses;
#X obj 286 458 del;
#X obj 286 482 f;
#X obj 278 384 + 1;
#X obj 249 433 t f;
#X obj 330 482 f;
#X obj 197 520 sel;
#N canvas 525 248 281 500 list-insert 0;
#X obj 24 30 inlet;
#X obj 110 30 inlet;
#X obj 199 30 inlet;
#X obj 41 140 list;
#X obj 24 468 outlet;
#X obj 24 288 list;
#X obj 24 220 list prepend;
#X obj 211 220 > 0;
#X obj 142 323 route 0 1;
#X obj 142 288 list prepend;
#X obj 142 354 list prepend;
#X obj 223 354 list;
#X obj 24 55 t a b b a;
#X obj 110 220 t a b;
#X obj 24 354 spigot 1;
#X msg 69 323 1;
#X msg 100 323 0;
#X obj 41 166 list split;
#X connect 0 0 12 0;
#X connect 1 0 7 0;
#X connect 1 0 17 1;
#X connect 2 0 3 1;
#X connect 3 0 17 0;
#X connect 5 0 14 0;
#X connect 6 0 5 0;
#X connect 7 0 9 1;
#X connect 8 0 10 0;
#X connect 8 1 11 0;
#X connect 9 0 8 0;
#X connect 10 0 4 0;
#X connect 11 0 4 0;
#X connect 12 0 6 0;
#X connect 12 1 3 0;
#X connect 12 2 15 0;
#X connect 12 2 5 1;
#X connect 12 2 6 1;
#X connect 12 3 10 1;
#X connect 12 3 11 1;
#X connect 13 0 9 0;
#X connect 13 1 16 0;
#X connect 14 0 4 0;
#X connect 15 0 14 1;
#X connect 16 0 14 1;
#X connect 17 0 6 1;
#X connect 17 1 5 1;
#X connect 17 2 13 0;
#X restore 303 679 pd list-insert;
#X obj 303 707 list prepend set;
#X obj 303 731 list trim;
#X obj 224 654 spigot;
#X msg 257 577 0;
#X obj 299 574 t b f;
#X msg 278 606 1;
#X obj 303 755 t b a;
#X obj 468 221 spigot 1;
#X obj 407 252 spigot 1;
#X obj 428 638 spigot;
#X obj 561 651 - 1;
#X obj 534 626 sel 0;
#X obj 440 700 list;
#X obj 527 659 f;
#X obj 279 162 sel space back enter;
#N canvas 280 189 680 472 list-delete 0;
#X obj 247 60 inlet;
#X obj 161 61 inlet;
#X obj 189 195 list split 1;
#X obj 161 233 list;
#X obj 161 262 outlet;
#X obj 161 159 list split;
#X connect 0 0 5 1;
#X connect 1 0 5 0;
#X connect 2 1 3 1;
#X connect 3 0 4 0;
#X connect 5 0 3 0;
#X connect 5 1 2 0;
#X connect 5 2 4 0;
#X restore 440 729 pd list-delete;
#X obj 542 598 + 2;
#X obj 529 258 t b a a;
#X obj 730 421 route bang;
#X obj 648 79 makefilename %c;
#X msg 648 54 92;
#X obj 204 223 symbol;
#X obj 280 66 makefilename %c;
#X obj 248 108 symbol;
#X msg 182 401 bang;
#X msg 286 432 bang;
#X msg 132 64 set;
#X obj 765 693 outlet;
#X obj 648 28 r \$0-loadbang1;
#X obj 132 23 inlet obj;
#X obj 172 -58 inlet keyfloat;
#X obj 425 -53 inlet keysymbol;
#X obj 648 105 s \$0-backslash;
#X obj 231 196 r \$0-backslash;
#X obj 794 247 s \$0-g.sugd;
#X obj 152 168 == 0;
#X obj 107 195 spigot 1;
#X obj 40 269 spigot;
#X obj 40 329 s \$0-forceargm;
#X obj 326 -58 r \$0-autotype;
#X obj 31 24 r \$0-resettype;
#X obj 217 -4 t f b;
#X obj 152 142 r \$0-fileexista;
#X obj 49 142 r \$0-fileexist;
#X obj 257 631 t f;
#X obj 40 482 s \$0-searchdone;
#X obj 40 429 t b b;
#X obj 67 523 spigot;
#X obj 67 559 s \$0-enterargm;
#X msg 576 485;
#X obj 217 28 sel 32 8 10;
#X obj 172 -28 sel 92 9;
#X connect 0 0 36 1;
#X connect 1 0 35 0;
#X connect 2 0 6 0;
#X connect 2 0 46 0;
#X connect 3 0 4 0;
#X connect 4 0 2 1;
#X connect 4 0 17 0;
#X connect 5 0 45 0;
#X connect 6 0 7 0;
#X connect 7 0 77 0;
#X connect 8 0 9 0;
#X connect 9 0 52 0;
#X connect 9 1 20 0;
#X connect 10 0 8 2;
#X connect 11 0 10 0;
#X connect 12 0 51 0;
#X connect 13 0 51 0;
#X connect 14 0 8 0;
#X connect 14 1 8 1;
#X connect 14 2 10 0;
#X connect 14 2 24 0;
#X connect 14 3 25 0;
#X connect 14 3 22 0;
#X connect 15 0 17 0;
#X connect 16 0 8 1;
#X connect 16 1 1 0;
#X connect 16 1 30 0;
#X connect 17 0 22 1;
#X connect 17 0 23 0;
#X connect 17 0 25 1;
#X connect 17 0 26 1;
#X connect 17 0 44 0;
#X connect 18 0 8 0;
#X connect 18 1 36 0;
#X connect 18 1 37 0;
#X connect 19 0 8 1;
#X connect 19 1 49 0;
#X connect 20 0 24 0;
#X connect 20 1 53 0;
#X connect 21 0 22 0;
#X connect 22 0 8 2;
#X connect 23 0 20 1;
#X connect 24 0 26 0;
#X connect 25 0 24 0;
#X connect 26 0 31 0;
#X connect 26 1 32 0;
#X connect 27 0 28 0;
#X connect 28 0 29 0;
#X connect 29 0 34 0;
#X connect 30 0 27 0;
#X connect 31 0 72 0;
#X connect 32 0 33 0;
#X connect 32 1 27 1;
#X connect 32 1 39 0;
#X connect 33 0 72 0;
#X connect 34 0 77 0;
#X connect 34 1 77 0;
#X connect 35 0 77 0;
#X connect 36 0 5 0;
#X connect 37 0 40 0;
#X connect 38 0 43 1;
#X connect 39 0 41 0;
#X connect 39 1 38 0;
#X connect 40 0 43 0;
#X connect 41 0 43 1;
#X connect 42 0 64 0;
#X connect 42 0 65 0;
#X connect 42 1 18 0;
#X connect 42 3 16 0;
#X connect 43 0 28 0;
#X connect 44 0 41 1;
#X connect 45 0 77 0;
#X connect 45 1 2 0;
#X connect 45 2 3 0;
#X connect 46 0 55 0;
#X connect 47 0 60 0;
#X connect 48 0 47 0;
#X connect 49 0 1 0;
#X connect 49 0 30 0;
#X connect 50 0 42 0;
#X connect 51 0 42 0;
#X connect 52 0 11 0;
#X connect 53 0 21 0;
#X connect 54 0 77 0;
#X connect 56 0 48 0;
#X connect 57 0 54 0;
#X connect 57 0 31 0;
#X connect 58 0 79 0;
#X connect 59 0 14 0;
#X connect 61 0 49 1;
#X connect 63 0 64 1;
#X connect 64 0 19 0;
#X connect 65 0 66 0;
#X connect 67 0 78 0;
#X connect 68 0 54 0;
#X connect 68 0 31 0;
#X connect 69 0 78 0;
#X connect 69 1 62 0;
#X connect 70 0 63 0;
#X connect 70 0 65 1;
#X connect 70 0 75 1;
#X connect 71 0 63 0;
#X connect 71 0 65 1;
#X connect 71 0 75 1;
#X connect 72 0 30 1;
#X connect 72 0 37 1;
#X connect 72 0 0 0;
#X connect 74 0 73 0;
#X connect 74 1 75 0;
#X connect 75 0 76 0;
#X connect 77 0 5 1;
#X connect 77 0 15 0;
#X connect 77 0 27 2;
#X connect 77 0 40 1;
#X connect 77 0 55 0;
#X connect 78 0 12 0;
#X connect 78 1 13 0;
#X connect 78 2 74 0;
#X connect 78 3 50 0;
#X connect 79 1 12 0;
#X connect 79 1 62 0;
#X connect 79 2 69 0;
#X restore 182 238 pd type2list;
#X obj 280 113 route 1;
#X obj 280 147 list split 1;
#X obj 280 171 route float;
#X obj 343 200 spigot 1;
#X obj 388 176 == 0;
#X obj 249 -32 r \$0-rcgate;
#X obj 575 11 s \$0-loadbang1;
#X obj 555 33 s \$0-loadbang2;
#X obj 539 53 s \$0-loadbang3;
#X obj 524 73 s \$0-loadbang4;
#X obj 796 65 r \$0-sendcanvas;
#X obj 64 278 s \$0-getpos;
#X obj 388 151 r \$0-fileexist;
#N canvas 222 23 763 792 chunkfinder 0;
#X obj 251 164 list split 1;
#X obj 251 81 until;
#X obj 251 119 list append;
#X obj 281 288 t l;
#X obj 198 289 list prepend;
#X obj 171 315 list;
#X obj 171 339 gl/ext/iemlib/mergefilename;
#X obj 171 229 sel s;
#X obj 171 254 t b b;
#X obj 277 48 t b b a a;
#X obj 363 70 list length;
#X obj 363 93 != 0;
#X obj 439 360 spigot;
#X obj 455 111 sel 0;
#X text 487 135 Typed length n;
#X obj 482 162 *;
#X obj 489 199 +;
#X text 519 201 obj x coordinate;
#X text 507 163 Typed width coordinate (n*fontwidth);
#X obj 439 408 t b b;
#X obj 497 111 r \$0-fontwidth;
#X obj 489 232 s \$0-typedx;
#X obj 594 111 r \$0-objx;
#X obj 455 266 s \$0-notype;
#X obj 344 165 s \$0-typedlist;
#X obj 480 318 t b b b;
#X obj 637 489 s \$0-typereset;
#X obj 277 3 inlet typedlist;
#X obj 408 491 outlet postread;
#X obj 515 491 outlet readtext;
#X obj 125 515 outlet firstchunk;
#X obj 223 200 r \$0-backslash;
#X obj 171 383 t a b;
#X obj 198 409 f;
#X obj 213 383 r \$0-fileexist;
#X obj 125 445 spigot;
#X obj 263 506 list;
#X obj 80 473 sel pd;
#X obj 263 532 gl/ext/iemlib/mergefilename;
#X obj 263 557 gl/ext/zexy/symbol2list;
#X obj 230 644 symbol;
#X text 277 644 find out subpatch name;
#X msg 113 548 symbol;
#X obj 230 679 sel s;
#X obj 397 562 r \$0-loadbang1;
#X msg 397 588 symbol;
#X obj 113 581 r \$0-searchdone;
#X obj 113 606 del 2;
#X obj 263 618 list split 1;
#X obj 215 445 r \$0-searchmode;
#X obj 215 469 sel 1;
#X obj 257 699 t b a;
#X obj 363 405 <= 2;
#X obj 363 431 sel 1;
#X obj 263 581 route float;
#X msg 284 722 \; pd-\$1 obj 0 0 gl/d.auto \; d.auto.no.error 0 \;
pd-\$1 loadbang;
#X obj 531 267 s \$0-g.sugd;
#X connect 0 0 7 0;
#X connect 0 1 2 1;
#X connect 0 1 36 1;
#X connect 0 2 25 0;
#X connect 1 0 2 0;
#X connect 2 0 0 0;
#X connect 3 0 4 1;
#X connect 4 0 3 0;
#X connect 4 0 5 1;
#X connect 5 0 6 0;
#X connect 6 0 32 0;
#X connect 7 0 8 0;
#X connect 7 1 4 0;
#X connect 8 0 1 1;
#X connect 8 1 5 0;
#X connect 9 0 1 0;
#X connect 9 1 4 1;
#X connect 9 1 5 1;
#X connect 9 2 2 1;
#X connect 9 2 24 0;
#X connect 9 3 10 0;
#X connect 10 0 11 0;
#X connect 10 0 13 0;
#X connect 10 0 52 0;
#X connect 11 0 12 1;
#X connect 12 0 19 0;
#X connect 13 0 23 0;
#X connect 13 0 56 0;
#X connect 13 1 15 0;
#X connect 15 0 16 0;
#X connect 16 0 21 0;
#X connect 19 0 28 0;
#X connect 19 1 29 0;
#X connect 20 0 15 1;
#X connect 22 0 16 1;
#X connect 25 0 12 0;
#X connect 25 1 26 0;
#X connect 25 2 1 1;
#X connect 27 0 9 0;
#X connect 31 0 7 1;
#X connect 31 0 39 1;
#X connect 32 0 35 0;
#X connect 32 1 33 0;
#X connect 33 0 35 1;
#X connect 34 0 33 1;
#X connect 35 0 37 0;
#X connect 35 0 30 0;
#X connect 36 0 38 0;
#X connect 37 0 36 0;
#X connect 37 1 42 0;
#X connect 38 0 39 0;
#X connect 39 0 54 0;
#X connect 40 0 43 0;
#X connect 42 0 40 1;
#X connect 43 1 51 0;
#X connect 44 0 45 0;
#X connect 45 0 43 1;
#X connect 46 0 47 0;
#X connect 47 0 40 0;
#X connect 48 0 40 1;
#X connect 49 0 50 0;
#X connect 50 0 42 0;
#X connect 51 0 42 0;
#X connect 51 1 55 0;
#X connect 52 0 53 0;
#X connect 53 0 42 0;
#X connect 54 0 42 0;
#X connect 54 1 48 0;
#X restore 182 308 pd chunkfinder;
#N canvas 64 23 1033 851 readtextfiles 0;
#X text 392 179 TYPED;
#N canvas 282 536 450 300 maxhold 0;
#X obj 199 170 max;
#X obj 167 126 >=;
#X obj 216 148 spigot;
#X obj 182 100 t f f f f;
#X obj 184 191 f;
#X obj 167 148 sel 0;
#X obj 182 73 inlet;
#X obj 184 248 outlet;
#X obj 184 217 change;
#X obj 276 71 inlet;
#X msg 276 104 set 0;
#X msg 248 104 0;
#X connect 0 0 4 1;
#X connect 1 0 2 1;
#X connect 1 0 5 0;
#X connect 2 0 0 1;
#X connect 3 0 1 1;
#X connect 3 1 0 0;
#X connect 3 2 2 0;
#X connect 3 3 1 0;
#X connect 4 0 8 0;
#X connect 5 0 4 0;
#X connect 6 0 3 0;
#X connect 8 0 7 0;
#X connect 9 0 10 0;
#X connect 9 0 11 0;
#X connect 10 0 8 0;
#X connect 11 0 1 1;
#X connect 11 0 0 1;
#X restore 198 672 pd maxhold;
#X obj 214 620 f;
#X obj 240 620 + 1;
#X obj 198 644 f;
#X msg 329 135 symbol;
#X obj 361 176 list;
#X obj 402 222 list length;
#X obj 228 288 spigot;
#X obj 282 224 list length;
#X obj 228 196 t a a;
#X obj 282 256 >=;
#X obj 352 540 list split 1;
#X obj 352 495 list append;
#X obj 228 428 list split 1;
#X obj 228 393 list append;
#X obj 228 358 until;
#X obj 191 578 sel s;
#X msg 275 614 bang;
#X obj 304 657 symbol;
#X msg 350 383 0;
#X msg 198 700 0;
#X msg 553 426 1;
#X obj 180 502 gl/ext/zexy/list2symbol;
#X obj 291 566 gl/ext/zexy/list2symbol;
#X msg 289 501 symbol;
#X obj 228 458 t a b b;
#X obj 228 132 t a a b b;
#X msg 422 617 1;
#X msg 510 597 0;
#X obj 465 639 change;
#X obj 304 774 list append;
#X text 511 639 find out if at least 1 file is searched;
#X obj 331 718 f;
#X obj 360 719 + 1;
#X msg 370 671 0;
#X obj 228 321 t b a;
#X obj 330 109 r \$0-loadbang1;
#X obj 553 452 s \$0-textgate;
#X obj 465 667 s \$0-fileexist;
#X obj 382 149 r \$0-typedlist;
#X obj 370 644 r \$0-typereset;
#X obj 510 568 r \$0-typereset;
#N canvas 230 23 859 844 textfile_reader 0;
#X obj 116 -45 gl/ext/hcs/folder_list;
#X obj 116 -16 gl/ext/iemlib/splitfilename /;
#X obj 116 -74 makefilename %s/*.txt;
#X obj 287 123 gl/ext/iemlib/splitfilename .;
#X obj 278 371 spigot;
#X obj 162 415 textfile;
#X obj 278 415 textfile;
#X msg 358 -203 clear;
#X obj 278 308 list trim;
#X obj 278 282 list prepend add symbol;
#X obj 162 371 spigot;
#X obj 162 448 t b a;
#X obj 161 479 spigot;
#X obj 275 441 t b a;
#X obj 274 478 spigot;
#X obj 567 -317 list prepend;
#X msg 567 -344 rewind \, bang;
#X obj 116 -378 t b b;
#X obj 116 -317 unpack s f;
#X obj 195 343 == 1;
#X obj 311 343 == 2;
#X obj 116 -406 r \$0-loadbang4;
#X obj 609 -375 t b f;
#X obj 609 -406 inlet read;
#X obj 406 347 r \$0-textgate;
#X obj 223 516 outlet files;
#X obj 143 -256 gl/ext/iemlib/splitfilename /;
#X obj 116 -285 t a a;
#X obj 272 -230 sel obj lib;
#X msg 272 -203 0;
#X msg 303 -203 1;
#X obj 116 -186 list prepend;
#X obj 116 -159 route 0 1;
#X obj 404 -43 gl/ext/hcs/folder_list;
#X obj 404 -8 gl/ext/iemlib/splitfilename /;
#X obj 404 -80 makefilename %s/*;
#X obj 404 -111 t a a;
#X obj 491 42 list prepend;
#X obj 491 68 gl/ext/iemlib/mergefilename /;
#X obj 491 94 makefilename %s/*.txt;
#X obj 491 119 gl/ext/hcs/folder_list;
#X obj 491 16 t a a;
#X obj 491 144 gl/ext/iemlib/splitfilename /;
#X obj 620 168 list prepend;
#X obj 620 191 gl/ext/iemlib/mergefilename /;
#N canvas 525 263 665 420 transform 0;
#X obj 105 24 inlet;
#X obj 266 309 symbol;
#X obj 266 352 outlet;
#X obj 105 99 gl/ext/iemlib/splitfilename .;
#X obj 105 62 symbol;
#X msg -15 236 -;
#X obj 105 134 sel 01minus 02minust 03notequal 04multiply 05multiplyt
06divide 07dividet 08and 09logand 10modulus 11plus 12plust 13rightg
14lefts 15rightge 16equal 17leftg 18leftge 19rights 20or 21logor;
#X msg 498 236 >=;
#X msg 528 236 >>;
#X msg 560 236 |;
#X msg 590 236 ||;
#X msg 16 236 -~;
#X msg 47 236 !=;
#X msg 75 236 *;
#X msg 107 236 *~;
#X msg 138 236 /;
#X msg 168 236 /~;
#X msg 197 236 &;
#X msg 226 236 &&;
#X msg 256 236 %;
#X msg 287 236 +;
#X msg 317 236 +~;
#X msg 347 236 <;
#X msg 378 236 <<;
#X msg 408 236 <=;
#X msg 440 236 ==;
#X msg 470 236 >;
#X connect 0 0 4 0;
#X connect 1 0 2 0;
#X connect 3 0 6 0;
#X connect 4 0 3 0;
#X connect 5 0 1 0;
#X connect 6 0 5 0;
#X connect 6 1 11 0;
#X connect 6 2 12 0;
#X connect 6 3 13 0;
#X connect 6 4 14 0;
#X connect 6 5 15 0;
#X connect 6 6 16 0;
#X connect 6 7 17 0;
#X connect 6 8 18 0;
#X connect 6 9 19 0;
#X connect 6 10 20 0;
#X connect 6 11 21 0;
#X connect 6 12 22 0;
#X connect 6 13 23 0;
#X connect 6 14 24 0;
#X connect 6 15 25 0;
#X connect 6 16 26 0;
#X connect 6 17 7 0;
#X connect 6 18 8 0;
#X connect 6 19 9 0;
#X connect 6 20 10 0;
#X connect 7 0 1 0;
#X connect 8 0 1 0;
#X connect 9 0 1 0;
#X connect 10 0 1 0;
#X connect 11 0 1 0;
#X connect 12 0 1 0;
#X connect 13 0 1 0;
#X connect 14 0 1 0;
#X connect 15 0 1 0;
#X connect 16 0 1 0;
#X connect 17 0 1 0;
#X connect 18 0 1 0;
#X connect 19 0 1 0;
#X connect 20 0 1 0;
#X connect 21 0 1 0;
#X connect 22 0 1 0;
#X connect 23 0 1 0;
#X connect 24 0 1 0;
#X connect 25 0 1 0;
#X connect 26 0 1 0;
#X restore 203 94 pd transform;
#X obj 287 94 symbol;
#X obj 203 12 gl/ext/zexy/symbol2list;
#X obj 203 40 list trim;
#X obj 116 -104 symbol;
#X obj 404 -142 symbol;
#X obj 203 68 route zzzz;
#X obj 287 177 route symbol list;
#X obj 393 228 list split 1;
#X msg 393 251 \$1~;
#X obj 287 151 gl/ext/zexy/symbol2list 000t;
#X obj 336 206 route bang;
#X msg 336 227 bang~;
#X obj 567 -291 route 1 2;
#X msg 116 -347 abs/d.auto/obj 1 \, abs/d.auto/lib 2;
#X connect 0 0 1 0;
#X connect 1 1 47 0;
#X connect 2 0 0 0;
#X connect 3 0 55 0;
#X connect 4 0 6 0;
#X connect 5 0 11 0;
#X connect 6 0 13 0;
#X connect 7 0 5 0;
#X connect 7 0 6 0;
#X connect 8 0 4 0;
#X connect 8 0 10 0;
#X connect 9 0 8 0;
#X connect 10 0 5 0;
#X connect 11 0 12 0;
#X connect 11 1 25 0;
#X connect 12 0 5 0;
#X connect 13 0 14 0;
#X connect 13 1 25 0;
#X connect 14 0 6 0;
#X connect 15 0 58 0;
#X connect 16 0 15 0;
#X connect 17 0 59 0;
#X connect 17 1 7 0;
#X connect 18 0 27 0;
#X connect 18 1 19 0;
#X connect 18 1 20 0;
#X connect 19 0 10 1;
#X connect 20 0 4 1;
#X connect 21 0 17 0;
#X connect 22 0 16 0;
#X connect 22 1 15 1;
#X connect 23 0 22 0;
#X connect 24 0 12 1;
#X connect 24 0 14 1;
#X connect 26 1 28 0;
#X connect 27 0 31 0;
#X connect 27 1 26 0;
#X connect 28 0 29 0;
#X connect 28 1 30 0;
#X connect 29 0 31 1;
#X connect 30 0 31 1;
#X connect 31 0 32 0;
#X connect 32 0 49 0;
#X connect 32 1 50 0;
#X connect 33 0 34 0;
#X connect 34 1 41 0;
#X connect 35 0 33 0;
#X connect 36 0 35 0;
#X connect 36 1 37 1;
#X connect 37 0 38 0;
#X connect 38 0 39 0;
#X connect 39 0 40 0;
#X connect 40 0 42 0;
#X connect 41 0 37 0;
#X connect 41 1 43 1;
#X connect 42 1 43 0;
#X connect 43 0 44 0;
#X connect 44 0 3 0;
#X connect 45 0 9 0;
#X connect 46 0 3 0;
#X connect 47 0 48 0;
#X connect 48 0 51 0;
#X connect 49 0 2 0;
#X connect 50 0 36 0;
#X connect 51 0 45 0;
#X connect 51 1 46 0;
#X connect 52 0 9 0;
#X connect 52 1 56 0;
#X connect 53 0 54 0;
#X connect 54 0 9 0;
#X connect 55 0 52 0;
#X connect 56 0 57 0;
#X connect 56 1 53 0;
#X connect 57 0 9 0;
#X connect 58 0 5 0;
#X connect 58 1 6 0;
#X connect 59 0 18 0;
#X restore 228 83 pd textfile_reader;
#X obj 298 37 t f f b;
#X obj 331 746 s \$0-filenum;
#X obj 298 -17 inlet readtext;
#X obj 304 803 outlet filename/kind;
#X obj 304 694 t a b;
#X obj 421 565 t b b;
#X obj 367 424 t b b;
#X obj 228 168 gl/ext/zexy/symbol2list;
#X msg 298 13 1 \, 2;
#X obj 255 718 sel list;
#X msg 255 746 symbol llll;
#X connect 1 0 21 0;
#X connect 2 0 3 0;
#X connect 2 0 4 1;
#X connect 3 0 2 1;
#X connect 4 0 1 0;
#X connect 5 0 51 1;
#X connect 6 0 7 0;
#X connect 6 0 13 1;
#X connect 7 0 11 1;
#X connect 8 0 36 0;
#X connect 9 0 11 0;
#X connect 10 0 8 0;
#X connect 10 1 9 0;
#X connect 11 0 8 1;
#X connect 12 0 24 0;
#X connect 12 1 13 1;
#X connect 12 2 49 0;
#X connect 13 0 12 0;
#X connect 14 0 26 0;
#X connect 14 1 15 1;
#X connect 14 2 50 0;
#X connect 15 0 14 0;
#X connect 16 0 15 0;
#X connect 17 1 18 0;
#X connect 18 0 16 1;
#X connect 18 0 4 0;
#X connect 19 0 48 0;
#X connect 20 0 2 1;
#X connect 21 0 38 0;
#X connect 22 0 38 0;
#X connect 23 0 17 0;
#X connect 24 0 17 1;
#X connect 25 0 17 1;
#X connect 26 0 23 0;
#X connect 26 1 13 0;
#X connect 26 1 2 0;
#X connect 26 2 25 0;
#X connect 27 0 51 0;
#X connect 27 1 19 1;
#X connect 27 2 6 0;
#X connect 27 3 20 0;
#X connect 28 0 30 0;
#X connect 29 0 30 0;
#X connect 30 0 39 0;
#X connect 31 0 47 0;
#X connect 33 0 34 0;
#X connect 33 0 45 0;
#X connect 34 0 33 1;
#X connect 35 0 33 1;
#X connect 36 0 16 0;
#X connect 36 1 15 1;
#X connect 37 0 5 0;
#X connect 40 0 6 1;
#X connect 41 0 35 0;
#X connect 42 0 29 0;
#X connect 43 0 27 0;
#X connect 44 0 43 0;
#X connect 44 1 31 1;
#X connect 44 2 22 0;
#X connect 44 2 1 1;
#X connect 46 0 52 0;
#X connect 48 0 53 0;
#X connect 48 1 33 0;
#X connect 49 0 19 0;
#X connect 49 1 28 0;
#X connect 50 0 19 0;
#X connect 50 0 16 1;
#X connect 50 1 28 0;
#X connect 51 0 10 0;
#X connect 52 0 44 0;
#X connect 53 0 54 0;
#X connect 53 1 31 0;
#X connect 54 0 31 0;
#X restore 263 351 pd readtextfiles;
#X obj 423 202 spigot 0;
#X msg 42 150 bang;
#X obj 31 187 s \$0-g.sugd;
#X obj 111 187 s \$0-g.descd;
#X obj 287 238 r \$0-argmgate;
#X obj 182 275 spigot 1;
#X msg 25 72 1;
#X obj 280 82 spigot;
#X obj 313 2 r \$0-searchmode;
#X obj 25 98 s \$0-searchmode;
#X obj 425 235 r \$0-searchdone;
#X obj 231 82 spigot;
#X obj 425 261 t b b;
#X msg 501 322 mouse -100000 -100000 1 0 \, mouseup -100000 -100000
1;
#X msg 398 300 0;
#X obj 398 351 s \$0-searchmode;
#X obj 501 351 s \$0-sendcanvas;
#X obj 204 -59 gl/ext/iemguts/receivecanvas 1;
#X obj 796 93 gl/ext/iemguts/sendcanvas 1;
#X obj 556 122 t b b;
#X obj 787 160 - 1;
#X obj 634 139 gl/ext/iemguts/canvasindex;
#X obj 556 181 gl/ext/iemguts/canvasobjectposition 1 0;
#X obj 556 213 unpack f f;
#X obj 556 249 s \$0-objx;
#X obj 617 249 s \$0-objy;
#X obj 793 211 +;
#X obj 819 186 * 0.5;
#X obj 819 155 r \$0-fontsize;
#X obj 793 240 s \$0-objfy;
#X obj 793 125 r \$0-objy;
#X obj 556 93 r \$0-getpos;
#X obj 430 387 s \$0-g.sugd;
#X obj 510 387 s \$0-g.descd;
#X obj 501 300 del 1;
#X obj 430 300 del 2;
#X obj 408 131 r \$0-fileexista;
#X obj 440 82 list;
#X obj 440 55 r \$0-getmotion;
#X obj 440 106 s \$0-motion;
#N canvas 3 23 1155 838 sugboxhandler 0;
#N canvas 566 295 450 300 stepper 0;
#X msg 167 94 1;
#X msg 114 94 -1;
#X obj 141 157 +;
#X obj 171 157 f;
#X obj 114 68 inlet;
#X obj 167 69 inlet;
#X obj 234 69 inlet;
#X obj 141 221 outlet;
#X connect 0 0 2 0;
#X connect 1 0 2 0;
#X connect 2 0 3 0;
#X connect 2 0 7 0;
#X connect 3 0 2 1;
#X connect 4 0 1 0;
#X connect 5 0 0 0;
#X connect 6 0 3 0;
#X connect 6 0 7 0;
#X restore 213 129 pd stepper;
#X obj 139 178 moses 0;
#X msg 139 248 0;
#X obj 139 226 del;
#X obj 243 258 del;
#X obj 243 282 f;
#X msg 139 201 bang;
#X msg 243 232 bang;
#X obj 194 208 moses 1;
#X obj 678 12 t l;
#X obj 592 12 list prepend;
#X obj 213 87 t b b;
#X obj 282 87 t b b;
#X msg 353 87 0;
#X obj 436 87 t b b;
#X obj 353 109 t f f;
#X obj 180 314 t f f;
#X text 79 331 SELECTED FILE NUM;
#N canvas 566 295 450 300 stepper 0;
#X msg 167 94 1;
#X msg 114 94 -1;
#X obj 141 157 +;
#X obj 171 157 f;
#X obj 114 68 inlet;
#X obj 167 69 inlet;
#X obj 234 69 inlet;
#X obj 141 221 outlet;
#X connect 0 0 2 0;
#X connect 1 0 2 0;
#X connect 2 0 3 0;
#X connect 2 0 7 0;
#X connect 3 0 2 1;
#X connect 4 0 1 0;
#X connect 5 0 0 0;
#X connect 6 0 3 0;
#X connect 6 0 7 0;
#X restore 372 301 pd stepper;
#X obj 312 350 moses 0;
#X msg 312 420 0;
#X obj 312 398 del;
#X obj 416 430 del;
#X obj 414 453 f;
#X msg 312 373 bang;
#X msg 416 404 bang;
#X obj 367 380 moses 1;
#X obj 448 433 - 1;
#X obj 303 539 -;
#X obj 318 501 t f f;
#X text 346 521 BAR LOCATION;
#X obj 757 401 f;
#X obj 786 400 + 1;
#X obj 757 333 f;
#X obj 757 366 until;
#X obj 799 497 -;
#X text 827 500 SEND LABEL (0~MAX);
#X text 326 542 STARTING FILENUM;
#X obj 542 157 moses 10;
#X obj 587 205 f;
#X msg 587 181 bang;
#X obj 557 242 t f;
#X text 221 61 UP;
#X text 268 63 DOWN;
#X text 345 66 LEFT;
#X text 433 68 RIGHT;
#X obj 911 70 sel Up Down Left Right;
#X obj 89 412 list;
#X obj 96 374 t b f;
#X obj 708 535 unpack s f;
#X obj 822 569 sel;
#X msg 847 598 0;
#X obj 765 627 +;
#N canvas 237 132 556 441 colors 0;
#X obj 97 -1347 inlet;
#X obj 195 -939 outlet;
#X obj 312 -939 outlet;
#X obj 80 -1246 t b b;
#X obj 195 -966 change;
#X obj 312 -967 change;
#X obj 445 -1306 inlet;
#X msg 445 -1241 set 0;
#X obj 195 -1246 t b b;
#N canvas 15 207 606 448 unseltc 0;
#X obj 249 385 outlet;
#X obj 301 284 +;
#X obj 286 309 +;
#X obj 249 361 f;
#X obj 209 172 * -65536;
#X obj 286 173 * -256;
#X obj 364 173 * -1;
#X obj 286 334 - 1;
#X obj 119 100 inlet;
#X obj 252 142 unpack f f f;
#X obj 252 103 inlet;
#X connect 1 0 2 1;
#X connect 2 0 7 0;
#X connect 3 0 0 0;
#X connect 4 0 2 0;
#X connect 5 0 1 0;
#X connect 6 0 1 1;
#X connect 7 0 3 1;
#X connect 8 0 3 0;
#X connect 9 0 4 0;
#X connect 9 1 5 0;
#X connect 9 2 6 0;
#X connect 10 0 9 0;
#X restore 312 -1054 pd unseltc;
#N canvas 15 207 606 448 seltc 0;
#X obj 249 385 outlet;
#X obj 301 284 +;
#X obj 286 309 +;
#X obj 249 361 f;
#X obj 209 172 * -65536;
#X obj 286 173 * -256;
#X obj 364 173 * -1;
#X obj 286 334 - 1;
#X obj 119 100 inlet;
#X obj 252 142 unpack f f f;
#X obj 252 103 inlet;
#X connect 1 0 2 1;
#X connect 2 0 7 0;
#X connect 3 0 0 0;
#X connect 4 0 2 0;
#X connect 5 0 1 0;
#X connect 6 0 1 1;
#X connect 7 0 3 1;
#X connect 8 0 3 0;
#X connect 9 0 4 0;
#X connect 9 1 5 0;
#X connect 9 2 6 0;
#X connect 10 0 9 0;
#X restore 379 -1054 pd seltc;
#X obj 97 -1308 sel 1 2 3 4;
#X obj 455 -1118 r \$0-seltc;
#X obj 412 -1143 r \$0-unseltc;
#X obj 227 -1308 r \$0-unselbgc;
#X obj 314 -1308 r \$0-selbgc;
#N canvas 15 207 606 448 unselbgc 0;
#X obj 249 385 outlet;
#X obj 301 284 +;
#X obj 286 309 +;
#X obj 249 361 f;
#X obj 209 172 * -65536;
#X obj 286 173 * -256;
#X obj 364 173 * -1;
#X obj 286 334 - 1;
#X obj 119 100 inlet;
#X obj 252 142 unpack f f f;
#X obj 252 103 inlet;
#X connect 1 0 2 1;
#X connect 2 0 7 0;
#X connect 3 0 0 0;
#X connect 4 0 2 0;
#X connect 5 0 1 0;
#X connect 6 0 1 1;
#X connect 7 0 3 1;
#X connect 8 0 3 0;
#X connect 9 0 4 0;
#X connect 9 1 5 0;
#X connect 9 2 6 0;
#X connect 10 0 9 0;
#X restore 80 -1122 pd unselbgc;
#N canvas 15 207 606 448 selbgc 0;
#X obj 249 385 outlet;
#X obj 301 284 +;
#X obj 286 309 +;
#X obj 249 361 f;
#X obj 209 172 * -65536;
#X obj 286 173 * -256;
#X obj 364 173 * -1;
#X obj 286 334 - 1;
#X obj 119 100 inlet;
#X obj 252 142 unpack f f f;
#X obj 252 103 inlet;
#X connect 1 0 2 1;
#X connect 2 0 7 0;
#X connect 3 0 0 0;
#X connect 4 0 2 0;
#X connect 5 0 1 0;
#X connect 6 0 1 1;
#X connect 7 0 3 1;
#X connect 8 0 3 0;
#X connect 9 0 4 0;
#X connect 9 1 5 0;
#X connect 9 2 6 0;
#X connect 10 0 9 0;
#X restore 195 -1122 pd selbgc;
#X connect 0 0 11 0;
#X connect 3 0 16 0;
#X connect 3 1 9 0;
#X connect 4 0 1 0;
#X connect 5 0 2 0;
#X connect 6 0 7 0;
#X connect 7 0 4 0;
#X connect 7 0 5 0;
#X connect 8 0 17 0;
#X connect 8 1 10 0;
#X connect 9 0 5 0;
#X connect 10 0 5 0;
#X connect 11 0 3 0;
#X connect 11 1 3 0;
#X connect 11 2 8 0;
#X connect 11 3 8 0;
#X connect 12 0 10 1;
#X connect 13 0 9 1;
#X connect 14 0 16 1;
#X connect 15 0 17 1;
#X connect 16 0 4 0;
#X connect 17 0 4 0;
#X restore 749 658 pd colors;
#X obj 108 21 spigot;
#N canvas 243 173 1203 523 retype_and_drag 0;
#X msg 925 -1617 0;
#X msg 7 -1608 1;
#X msg 633 -1461 key 1 8 0 \, key 0 8 0;
#X obj 479 -1489 list split 1;
#X obj 479 -1556 until;
#X obj 479 -1524 list append;
#X obj 479 -1588 t b l;
#X msg 559 -1489 bang;
#X obj 479 -1462 gl/ext/tof/to_ascii_code;
#X msg 479 -1437 key 1 \$1 0 \, key 0 \$1 0;
#X obj 777 -1507 pack f f;
#X obj 777 -1530 f;
#X msg 654 -1847 symbol;
#X obj 561 -1819 gl/ext/zexy/symbol2list;
#X text 597 -1789 GET SELECTED item's Filename as a list;
#X obj 561 -1846 symbol;
#X obj 32 -1410 s \$0-rcgate;
#X obj 654 -1876 r \$0-loadbang1;
#X obj 131 -1548 r \$0-typedx;
#X obj 161 -1516 r \$0-objfy;
#X obj 822 -1534 r \$0-objfy;
#X obj 686 -1393 s \$0-sendcanvas;
#X obj 792 -1559 r \$0-objx;
#X obj 648 -1508 r \$0-notype;
#X obj 561 -1876 inlet;
#X obj 319 -1648 s \$0-getmotion;
#X obj 319 -1622 r \$0-motion;
#X obj 561 -1763 t b b b a b b b;
#X obj 116 -1518 f;
#X obj 116 -1483 pack f f;
#X msg 116 -1450 mouse \$1 \$2 1 1 \, mouseup \$1 \$2 1 \, mouse \$1
\$2 1 1 \, mouseup \$1 \$2 1;
#X msg 777 -1475 key 1 Down 0 \, key 0 Down 0 \, mouse \$1 \$2 1 1
\, mouseup \$1 \$2 1 \, mouse \$1 \$2 1 1 \, mouseup \$1 \$2 1;
#X msg 319 -1588 motion \$1 \$2 0;
#X connect 0 0 16 0;
#X connect 1 0 16 0;
#X connect 2 0 21 0;
#X connect 3 0 8 0;
#X connect 3 1 5 1;
#X connect 3 2 7 0;
#X connect 4 0 5 0;
#X connect 5 0 3 0;
#X connect 6 0 4 0;
#X connect 6 1 5 1;
#X connect 7 0 4 1;
#X connect 8 0 9 0;
#X connect 9 0 21 0;
#X connect 10 0 31 0;
#X connect 11 0 10 0;
#X connect 12 0 13 1;
#X connect 13 0 27 0;
#X connect 15 0 13 0;
#X connect 17 0 12 0;
#X connect 18 0 28 1;
#X connect 19 0 29 1;
#X connect 20 0 10 1;
#X connect 22 0 11 1;
#X connect 23 0 2 0;
#X connect 24 0 15 0;
#X connect 26 0 32 0;
#X connect 27 0 1 0;
#X connect 27 1 25 0;
#X connect 27 2 28 0;
#X connect 27 3 6 0;
#X connect 27 4 2 0;
#X connect 27 5 11 0;
#X connect 27 6 0 0;
#X connect 28 0 29 0;
#X connect 29 0 30 0;
#X connect 30 0 21 0;
#X connect 31 0 21 0;
#X connect 32 0 21 0;
#X restore 78 694 pd retype_and_drag;
#X obj 141 -11 r \$0-fileexist;
#X obj 661 -18 r \$0-typereset;
#X obj 592 -48 inlet filename/kind;
#X obj 911 33 inlet keysymbol;
#X obj 108 -47 inlet postread;
#X obj 812 198 f;
#X obj 930 297 +;
#X obj 827 160 r \$0-objx;
#X obj 889 160 r \$0-objy;
#X text 848 538 \$0 \, WIDTH \, HEIGHT \, FONTSIZE \, YOFFSET (PER
CANVAS);
#X obj 992 180 r \$0-yoffset;
#X obj 950 271 +;
#X obj 950 218 + 8;
#X msg 708 733 \; \$5-g.sugr\$4 label \$1 \, color \$2 \$3;
#X obj 708 705 pack s f f f \$0;
#X obj 353 38 t b b b;
#X obj 392 66 f;
#X obj 407 8 r \$0-filenum;
#X obj 269 258 - 1;
#X obj 407 38 + 1;
#X obj 800 630 r \$0-typereset;
#N canvas 86 244 563 452 list-nth2 0;
#X obj 124 381 outlet;
#X obj 56 42 inlet;
#X obj 310 49 inlet;
#X obj 310 121 + 1;
#X msg 124 217;
#X msg 310 174 set \, adddollar \$1 \, adddollar \$2;
#X obj 310 145 pack f f;
#X obj 310 78 * 2;
#X obj 310 99 t f f;
#X obj 350 121 + 2;
#X msg 57 282 list float 1;
#X msg 140 282 list symbol 1;
#X msg 229 282 list bang 1;
#X obj 124 245 route float symbol bang llll;
#X msg 306 282 list list 1;
#X connect 1 0 4 0;
#X connect 2 0 7 0;
#X connect 3 0 6 0;
#X connect 4 0 13 0;
#X connect 5 0 4 0;
#X connect 6 0 5 0;
#X connect 7 0 8 0;
#X connect 8 0 3 0;
#X connect 8 1 9 0;
#X connect 9 0 6 1;
#X connect 10 0 0 0;
#X connect 11 0 0 0;
#X connect 12 0 0 0;
#X connect 13 0 10 0;
#X connect 13 1 11 0;
#X connect 13 2 12 0;
#X connect 13 3 14 0;
#X connect 13 4 0 0;
#X connect 14 0 0 0;
#X restore 89 480 pd list-nth2;
#X obj 89 510 unpack s f;
#X obj 243 708 pack s s;
#X obj 288 685 symbol;
#X msg 243 736 read \$2/\$1.txt \, rewind \, bang;
#N canvas 3 23 852 832 descriptionmsg 0;
#X obj 67 85 textfile;
#X obj 87 227 t b a;
#X obj 87 201 spigot;
#X msg 114 170 0;
#X msg 183 193 1;
#X obj 87 116 t a a;
#X obj 47 17 inlet readdesc;
#X obj 172 29 inlet continue4args;
#X obj 114 144 route <args>;
#X obj 18 144 route <desc>;
#X msg 18 168 bang;
#N canvas 356 23 875 771 linebreaker 0;
#X msg 360 64 symbol;
#X obj 265 144 list length;
#X obj 196 236 list split 1;
#X obj 196 210 list append;
#X obj 109 433 gl/ext/tof/to_ascii_code;
#X obj 296 691 gl/ext/iemlib/mergefilename;
#X obj 196 147 spigot;
#X obj 265 177 != 0;
#X obj 503 345 sel 0;
#X obj 296 718 symbol;
#X msg 503 371 symbol;
#X obj 213 331 list length;
#X obj 109 505 sel 32;
#X msg 142 481 32;
#X obj 109 458 t f b;
#X obj 169 567 list;
#X msg 152 364 set \, adddollar \$1;
#X msg 109 385 \$36;
#X obj 109 408 t a a;
#X obj 169 606 list append;
#X obj 308 365 != 0;
#X obj 85 363 spigot;
#X obj 297 550 list split 1;
#X obj 347 511 - 1;
#X obj 275 519 list;
#X obj 142 533 t b b;
#X obj 169 630 t a a;
#X obj 85 291 t a a;
#X obj 426 405 list;
#X obj 308 395 sel 0;
#X obj 485 547 gl/ext/tof/to_ascii_code;
#X obj 485 619 sel 32;
#X msg 518 595 32;
#X obj 485 572 t f b;
#X msg 485 519 \$1;
#X msg 484 641 1;
#X msg 518 639 0;
#X obj 426 665 list split 1;
#X obj 480 408 list length;
#X obj 426 480 t a a;
#X obj 426 429 t a a;
#X obj 426 455 spigot;
#X obj 480 430 != 0;
#X obj 109 605 t b b;
#X obj 308 656 list;
#X obj 308 457 t b b;
#X obj 109 643 list;
#X obj 196 176 until;
#X obj 196 304 t a a;
#X obj 269 258 t b a;
#X obj 360 37 r \$0-loadbang1;
#X obj 343 144 r \$0-maxletters;
#X obj 196 118 t b a a;
#X obj 296 746 outlet;
#X obj 195 37 route /;
#X msg 195 64 symbol;
#X obj 195 10 inlet;
#X obj 241 64 gl/ext/zexy/list2symbol;
#X obj 195 97 gl/ext/zexy/symbol2list;
#X connect 0 0 58 1;
#X connect 1 0 7 0;
#X connect 1 0 8 0;
#X connect 2 0 48 0;
#X connect 2 1 19 1;
#X connect 2 1 28 1;
#X connect 2 2 49 0;
#X connect 3 0 2 0;
#X connect 4 0 14 0;
#X connect 5 0 9 0;
#X connect 6 0 47 0;
#X connect 7 0 6 1;
#X connect 8 0 10 0;
#X connect 9 0 53 0;
#X connect 10 0 9 0;
#X connect 11 0 20 0;
#X connect 11 0 23 0;
#X connect 11 0 16 0;
#X connect 12 0 43 0;
#X connect 12 1 25 0;
#X connect 13 0 12 1;
#X connect 14 0 12 0;
#X connect 14 1 13 0;
#X connect 15 0 19 0;
#X connect 16 0 17 0;
#X connect 17 0 18 0;
#X connect 18 0 4 0;
#X connect 18 1 15 1;
#X connect 19 0 26 0;
#X connect 20 0 21 1;
#X connect 20 0 29 0;
#X connect 21 0 17 0;
#X connect 22 0 27 0;
#X connect 23 0 22 1;
#X connect 24 0 22 0;
#X connect 25 0 24 0;
#X connect 25 1 15 0;
#X connect 26 0 19 1;
#X connect 26 1 3 1;
#X connect 27 0 21 0;
#X connect 27 1 11 0;
#X connect 27 1 24 1;
#X connect 27 1 46 1;
#X connect 28 0 40 0;
#X connect 29 0 45 0;
#X connect 30 0 33 0;
#X connect 31 0 35 0;
#X connect 31 1 36 0;
#X connect 32 0 31 1;
#X connect 33 0 31 0;
#X connect 33 1 32 0;
#X connect 34 0 30 0;
#X connect 35 0 37 1;
#X connect 36 0 37 1;
#X connect 37 1 3 1;
#X connect 38 0 42 0;
#X connect 39 0 37 0;
#X connect 39 1 34 0;
#X connect 40 0 41 0;
#X connect 40 1 38 0;
#X connect 41 0 39 0;
#X connect 42 0 41 1;
#X connect 43 0 46 0;
#X connect 43 1 19 0;
#X connect 44 0 5 0;
#X connect 45 0 44 0;
#X connect 45 1 28 0;
#X connect 46 0 5 0;
#X connect 47 0 3 0;
#X connect 48 0 27 0;
#X connect 48 1 44 1;
#X connect 49 0 47 1;
#X connect 49 1 5 0;
#X connect 50 0 0 0;
#X connect 51 0 2 1;
#X connect 52 0 6 0;
#X connect 52 1 3 1;
#X connect 52 2 1 0;
#X connect 54 0 55 0;
#X connect 54 1 57 0;
#X connect 55 0 58 0;
#X connect 56 0 54 0;
#X connect 57 0 58 0;
#X connect 58 0 52 0;
#X restore 114 258 pd linebreaker;
#X obj 223 457 t l;
#X obj 141 457 list prepend;
#X obj 131 85 route bang;
#X obj 61 316 + 1;
#X obj 47 43 t a a a;
#X obj -9 84 route bang;
#X obj 172 53 t b b b;
#X obj 17 344 f;
#X obj 114 288 t b a;
#X msg 56 291 1;
#X obj 32 316 f 1;
#X obj 17 436 until;
#X obj 428 418 f;
#X obj 443 380 r \$0-objx;
#X obj 498 227 r \$0-descy;
#X obj 17 398 t f b f;
#X obj 17 555 f;
#X obj 45 555 + 1;
#X msg 36 530 0;
#X obj 17 588 t b f;
#X msg 17 793 \; \$5-g.descr\$4 label \$1 \, color \$2 \$3;
#X obj 283 138 r \$0-typereset;
#X obj 283 191 s \$0-g.descd;
#X obj 17 637 list append;
#X obj 17 665 list split 1;
#X obj 558 269 f;
#X obj 573 227 r \$0-argmy;
#X obj 483 269 f;
#X obj 183 169 t b;
#X obj 332 538 s \$0-g.descv;
#X obj 332 510 f;
#X obj 17 765 pack s f f f \$0;
#X obj 332 349 t b b;
#X obj 546 538 s \$0-g.desc.xy;
#X obj 546 510 pack f f;
#X obj 17 371 min 6;
#X obj 44 344 r \$0-maxdescrow;
#N canvas 15 207 606 448 descbgc 0;
#X obj 249 385 outlet;
#X obj 301 284 +;
#X obj 286 309 +;
#X obj 249 361 f;
#X obj 209 172 * -65536;
#X obj 286 173 * -256;
#X obj 364 173 * -1;
#X obj 286 334 - 1;
#X obj 119 100 inlet;
#X obj 252 142 unpack f f f;
#X obj 252 103 inlet;
#X connect 1 0 2 1;
#X connect 2 0 7 0;
#X connect 3 0 0 0;
#X connect 4 0 2 0;
#X connect 5 0 1 0;
#X connect 6 0 1 1;
#X connect 7 0 3 1;
#X connect 8 0 3 0;
#X connect 9 0 4 0;
#X connect 9 1 5 0;
#X connect 9 2 6 0;
#X connect 10 0 9 0;
#X restore 38 724 pd descbgc;
#X obj 95 697 r \$0-descbgc;
#N canvas 15 207 606 448 desctc 0;
#X obj 249 385 outlet;
#X obj 301 284 +;
#X obj 286 309 +;
#X obj 249 361 f;
#X obj 209 172 * -65536;
#X obj 286 173 * -256;
#X obj 364 173 * -1;
#X obj 286 334 - 1;
#X obj 119 100 inlet;
#X obj 252 142 unpack f f f;
#X obj 252 103 inlet;
#X connect 1 0 2 1;
#X connect 2 0 7 0;
#X connect 3 0 0 0;
#X connect 4 0 2 0;
#X connect 5 0 1 0;
#X connect 6 0 1 1;
#X connect 7 0 3 1;
#X connect 8 0 3 0;
#X connect 9 0 4 0;
#X connect 9 1 5 0;
#X connect 9 2 6 0;
#X connect 10 0 9 0;
#X restore 123 724 pd desctc;
#X obj 174 697 r \$0-desctc;
#X connect 0 0 5 0;
#X connect 1 0 0 0;
#X connect 1 1 11 0;
#X connect 2 0 1 0;
#X connect 3 0 2 1;
#X connect 4 0 2 1;
#X connect 5 0 9 0;
#X connect 5 1 8 0;
#X connect 6 0 16 0;
#X connect 7 0 18 0;
#X connect 8 0 3 0;
#X connect 8 1 40 0;
#X connect 9 0 10 0;
#X connect 9 1 2 0;
#X connect 10 0 0 0;
#X connect 11 0 20 0;
#X connect 12 0 13 1;
#X connect 13 0 12 0;
#X connect 13 0 35 1;
#X connect 14 0 13 1;
#X connect 14 0 21 0;
#X connect 14 0 34 0;
#X connect 14 0 39 0;
#X connect 15 0 22 1;
#X connect 16 0 17 0;
#X connect 16 1 0 0;
#X connect 16 2 14 0;
#X connect 17 0 19 0;
#X connect 18 0 19 0;
#X connect 18 1 0 0;
#X connect 18 2 13 1;
#X connect 18 2 21 0;
#X connect 18 2 34 0;
#X connect 18 2 37 0;
#X connect 19 0 47 0;
#X connect 20 0 22 0;
#X connect 20 1 13 0;
#X connect 21 0 22 1;
#X connect 22 0 15 0;
#X connect 22 0 19 1;
#X connect 23 0 28 0;
#X connect 24 0 46 0;
#X connect 25 0 24 1;
#X connect 26 0 39 1;
#X connect 27 0 23 0;
#X connect 27 1 30 0;
#X connect 27 1 44 0;
#X connect 27 1 49 0;
#X connect 27 1 51 0;
#X connect 27 2 42 1;
#X connect 28 0 29 0;
#X connect 28 0 31 0;
#X connect 29 0 28 1;
#X connect 30 0 28 1;
#X connect 31 0 35 0;
#X connect 31 1 43 3;
#X connect 33 0 34 0;
#X connect 35 0 36 0;
#X connect 36 0 43 0;
#X connect 36 1 35 1;
#X connect 37 0 46 1;
#X connect 38 0 37 1;
#X connect 39 0 46 1;
#X connect 40 0 4 0;
#X connect 42 0 41 0;
#X connect 43 0 32 0;
#X connect 44 0 42 0;
#X connect 44 1 24 0;
#X connect 46 0 45 0;
#X connect 47 0 27 0;
#X connect 48 0 47 1;
#X connect 49 0 43 1;
#X connect 50 0 49 1;
#X connect 51 0 43 2;
#X connect 52 0 51 1;
#X restore 243 763 pd descriptionmsg;
#X obj 557 339 *;
#X obj 557 400 +;
#X obj 557 441 s \$0-descy;
#X obj 950 136 r \$0-fontsize;
#X obj 557 302 + 1;
#X obj 1 -47 inlet firstchunk;
#X obj 444 538 r \$0-forceargm;
#X obj 444 607 symbol;
#X obj 757 430 t b f;
#X obj 708 462 list;
#N canvas 102 123 1203 523 retype_and_space 0;
#X obj 529 -1513 list split 1;
#X obj 529 -1580 until;
#X obj 529 -1548 list append;
#X obj 529 -1612 t b l;
#X msg 617 -1512 bang;
#X obj 529 -1486 gl/ext/tof/to_ascii_code;
#X msg 654 -1847 symbol;
#X obj 561 -1819 gl/ext/zexy/symbol2list;
#X text 597 -1789 GET SELECTED item's Filename as a list;
#X obj 654 -1876 r \$0-loadbang1;
#X obj 555 -1388 s \$0-sendcanvas;
#X obj 561 -1876 inlet;
#X msg 1000 -1540 0;
#X msg 107 -1608 1;
#X obj 66 -1407 s \$0-rcgate;
#X msg 600 -1611 0;
#X msg 431 -1611 1;
#X obj 262 -1421 s \$0-autotype;
#X msg 555 -1426 key 1 \$1 0 \, key 0 \$1 0;
#X msg 263 -1582 32;
#X obj 676 -1492 s \$0-resettype;
#X msg 344 -1563 0;
#X msg 400 -1428 key 1 \$1 0 \, key 0 \$1 0;
#X obj 697 -1574 s \$0-argmgate;
#X obj 344 -1539 s \$0-fileexista;
#X obj 792 -1506 pack f f;
#X obj 792 -1529 f;
#X obj 837 -1533 r \$0-objfy;
#X obj 807 -1558 r \$0-objx;
#X obj 561 -1763 t b b b b a b b b b;
#X msg 792 -1474 key 1 Down 0 \, key 0 Down 0 \, mouse \$1 \$2 1 1
\, mouseup \$1 \$2 1 \, mouse \$1 \$2 1 1 \, mouseup \$1 \$2 1 \, key
1 8 0 \, key 0 8 0;
#X connect 0 0 5 0;
#X connect 0 1 2 1;
#X connect 0 2 4 0;
#X connect 1 0 2 0;
#X connect 2 0 0 0;
#X connect 3 0 1 0;
#X connect 3 1 2 1;
#X connect 4 0 1 1;
#X connect 5 0 17 0;
#X connect 5 0 18 0;
#X connect 6 0 7 1;
#X connect 7 0 29 0;
#X connect 9 0 6 0;
#X connect 11 0 7 0;
#X connect 12 0 14 0;
#X connect 13 0 14 0;
#X connect 15 0 23 0;
#X connect 16 0 23 0;
#X connect 18 0 10 0;
#X connect 19 0 17 0;
#X connect 19 0 22 0;
#X connect 21 0 24 0;
#X connect 22 0 10 0;
#X connect 25 0 30 0;
#X connect 26 0 25 0;
#X connect 27 0 25 1;
#X connect 28 0 26 1;
#X connect 29 0 13 0;
#X connect 29 1 19 0;
#X connect 29 2 21 0;
#X connect 29 3 16 0;
#X connect 29 4 3 0;
#X connect 29 5 15 0;
#X connect 29 6 20 0;
#X connect 29 7 26 0;
#X connect 29 8 12 0;
#X connect 30 0 10 0;
#X restore 444 633 pd retype_and_space;
#X obj 452 698 change;
#X msg 452 724 bang;
#X msg 452 670 1;
#X obj 89 560 t a a b;
#X msg 412 670 set 0;
#X obj 958 458 s \$0-argmy;
#X obj 78 663 symbol;
#X obj 78 603 t b a;
#X obj 78 633 del;
#X obj 444 571 del;
#X obj 765 297 t b f f;
#N canvas 156 217 563 452 list-nth2 0;
#X obj 124 381 outlet;
#X obj 56 42 inlet;
#X obj 310 49 inlet;
#X obj 310 121 + 1;
#X msg 124 217;
#X msg 310 174 set \, adddollar \$1 \, adddollar \$2;
#X obj 310 145 pack f f;
#X obj 310 78 * 2;
#X obj 310 99 t f f;
#X obj 350 121 + 2;
#X msg 57 282 list float 1;
#X msg 140 282 list symbol 1;
#X msg 228 282 list bang 1;
#X obj 124 245 route float symbol bang llll;
#X msg 305 282 list list 1;
#X connect 1 0 4 0;
#X connect 2 0 7 0;
#X connect 3 0 6 0;
#X connect 4 0 13 0;
#X connect 5 0 4 0;
#X connect 6 0 5 0;
#X connect 7 0 8 0;
#X connect 8 0 3 0;
#X connect 8 1 9 0;
#X connect 9 0 6 1;
#X connect 10 0 0 0;
#X connect 11 0 0 0;
#X connect 12 0 0 0;
#X connect 13 0 10 0;
#X connect 13 1 11 0;
#X connect 13 2 12 0;
#X connect 13 3 14 0;
#X connect 13 4 0 0;
#X connect 14 0 0 0;
#X restore 708 496 pd list-nth2;
#X obj 574 607 symbol;
#X obj 574 571 del;
#N canvas 102 123 1203 523 retype_and_done 0;
#X obj 529 -1513 list split 1;
#X obj 529 -1580 until;
#X obj 529 -1548 list append;
#X obj 529 -1612 t b l;
#X msg 617 -1512 bang;
#X obj 529 -1486 gl/ext/tof/to_ascii_code;
#X msg 654 -1847 symbol;
#X obj 561 -1819 gl/ext/zexy/symbol2list;
#X text 597 -1789 GET SELECTED item's Filename as a list;
#X obj 654 -1876 r \$0-loadbang1;
#X obj 572 -1388 s \$0-sendcanvas;
#X obj 561 -1876 inlet;
#X msg 1010 -1595 0;
#X msg 107 -1608 1;
#X obj 107 -1405 s \$0-rcgate;
#X msg 600 -1611 0;
#X msg 431 -1611 1;
#X msg 552 -1438 key 1 \$1 0 \, key 0 \$1 0;
#X obj 676 -1492 s \$0-resettype;
#X msg 344 -1563 0;
#X obj 697 -1574 s \$0-argmgate;
#X obj 344 -1539 s \$0-fileexista;
#X obj 788 -1493 pack f f;
#X obj 788 -1516 f;
#X obj 833 -1520 r \$0-objfy;
#X obj 803 -1545 r \$0-objx;
#X obj 561 -1763 t b b b b a b b b b;
#X msg 788 -1461 key 1 Down 0 \, key 0 Down 0 \, mouse \$1 \$2 1 1
\, mouseup \$1 \$2 1 \, mouse \$1 \$2 1 1 \, mouseup \$1 \$2 1 \, key
1 8 0 \, key 0 8 0;
#X connect 0 0 5 0;
#X connect 0 1 2 1;
#X connect 0 2 4 0;
#X connect 1 0 2 0;
#X connect 2 0 0 0;
#X connect 3 0 1 0;
#X connect 3 1 2 1;
#X connect 4 0 1 1;
#X connect 5 0 17 0;
#X connect 6 0 7 1;
#X connect 7 0 26 0;
#X connect 9 0 6 0;
#X connect 11 0 7 0;
#X connect 12 0 14 0;
#X connect 13 0 14 0;
#X connect 15 0 20 0;
#X connect 16 0 20 0;
#X connect 17 0 10 0;
#X connect 19 0 21 0;
#X connect 22 0 27 0;
#X connect 23 0 22 0;
#X connect 24 0 22 1;
#X connect 25 0 23 1;
#X connect 26 0 13 0;
#X connect 26 2 19 0;
#X connect 26 3 16 0;
#X connect 26 4 3 0;
#X connect 26 5 15 0;
#X connect 26 6 18 0;
#X connect 26 7 23 0;
#X connect 26 8 12 0;
#X connect 27 0 10 0;
#X restore 574 633 pd retype_and_done;
#X obj 574 538 r \$0-enterargm;
#N canvas 198 133 1078 490 transform 0;
#X obj 356 18 inlet;
#X obj 460 263 gl/ext/zexy/list2symbol;
#X obj 460 421 outlet;
#X msg -5 136 01minus;
#X obj 356 49 sel - -~ != * *~ / /~ & && % + +~ < << <= == > >= >>
| ||;
#X msg 109 136 03notequal;
#X msg 49 136 02minust;
#X msg 179 136 04multiply;
#X msg 249 136 05multiplyt;
#X msg 325 136 06divide;
#X msg 385 136 07dividet;
#X msg 449 136 08and;
#X msg 489 136 09logand;
#X msg 548 136 10modulus;
#X msg 611 136 11plus;
#X msg 658 136 12plust;
#X msg 712 136 13rightg;
#X msg 769 136 14lefts;
#X msg 822 136 15rightge;
#X msg 888 136 16equal;
#X msg 940 136 17leftg;
#X msg 993 136 18leftge;
#X msg 1053 136 19rights;
#X msg 1114 136 20or;
#X msg 1150 136 21logor;
#X obj 460 226 list prepend zzzz;
#X obj 588 263 route symbol list;
#X obj 658 322 list split 1;
#X obj 588 225 gl/ext/zexy/symbol2list ~;
#X obj 658 376 gl/ext/iemlib/mergefilename;
#X obj 658 349 list append 000t;
#X msg 555 322 symbol bang000t;
#X obj 601 296 route bang;
#X connect 0 0 4 0;
#X connect 1 0 2 0;
#X connect 3 0 25 0;
#X connect 4 0 3 0;
#X connect 4 1 6 0;
#X connect 4 2 5 0;
#X connect 4 3 7 0;
#X connect 4 4 8 0;
#X connect 4 5 9 0;
#X connect 4 6 10 0;
#X connect 4 7 11 0;
#X connect 4 8 12 0;
#X connect 4 9 13 0;
#X connect 4 10 14 0;
#X connect 4 11 15 0;
#X connect 4 12 16 0;
#X connect 4 13 17 0;
#X connect 4 14 18 0;
#X connect 4 15 19 0;
#X connect 4 16 20 0;
#X connect 4 17 21 0;
#X connect 4 18 22 0;
#X connect 4 19 23 0;
#X connect 4 20 24 0;
#X connect 4 21 28 0;
#X connect 5 0 25 0;
#X connect 6 0 25 0;
#X connect 7 0 25 0;
#X connect 8 0 25 0;
#X connect 9 0 25 0;
#X connect 10 0 25 0;
#X connect 11 0 25 0;
#X connect 12 0 25 0;
#X connect 13 0 25 0;
#X connect 14 0 25 0;
#X connect 15 0 25 0;
#X connect 16 0 25 0;
#X connect 17 0 25 0;
#X connect 18 0 25 0;
#X connect 19 0 25 0;
#X connect 20 0 25 0;
#X connect 21 0 25 0;
#X connect 22 0 25 0;
#X connect 23 0 25 0;
#X connect 24 0 25 0;
#X connect 25 0 1 0;
#X connect 26 0 2 0;
#X connect 26 1 32 0;
#X connect 27 0 30 0;
#X connect 28 0 26 0;
#X connect 29 0 2 0;
#X connect 30 0 29 0;
#X connect 31 0 2 0;
#X connect 32 0 31 0;
#X connect 32 1 27 0;
#X restore 151 663 pd transform;
#X msg 623 606 symbol;
#X msg 494 606 symbol;
#X obj 563 489 r \$0-searchmode;
#X obj 563 510 sel 1;
#X obj 950 160 + 0;
#X obj 1036 136 r \$0-sizeoffset;
#X obj 935 320 - 0;
#X msg 812 598 2;
#X text 875 599 2: Selected / 0: Unselected;
#X obj 272 608 sel 1 2;
#X obj 705 205 s \$0-g.sugv;
#X obj 705 177 f;
#X obj 705 150 t b b;
#X obj 930 350 pack f f;
#X obj 930 380 s \$0-g.sug.xy;
#X obj 629 41 r \$0-maxobjrow;
#X obj 629 97 max 1;
#X obj 670 97 > 0;
#X obj 705 128 spigot 1;
#X obj 765 274 spigot 1;
#X obj 196 539 r \$0-maxdescrow;
#X obj 196 564 > 0;
#X obj 151 636 spigot 1;
#X obj 452 746 spigot 1;
#X msg 272 635 abs/d.auto/obj;
#X msg 291 656 abs/d.auto/lib;
#X connect 0 0 1 0;
#X connect 1 0 6 0;
#X connect 1 1 8 0;
#X connect 2 0 0 2;
#X connect 3 0 2 0;
#X connect 4 0 5 0;
#X connect 5 0 0 2;
#X connect 6 0 3 0;
#X connect 7 0 4 0;
#X connect 8 0 16 0;
#X connect 8 1 7 0;
#X connect 9 0 10 1;
#X connect 10 0 9 0;
#X connect 10 0 47 1;
#X connect 10 0 92 1;
#X connect 11 0 0 0;
#X connect 11 1 18 0;
#X connect 12 0 0 1;
#X connect 12 1 18 1;
#X connect 13 0 15 0;
#X connect 14 0 5 0;
#X connect 14 1 23 0;
#X connect 15 0 0 2;
#X connect 15 1 18 2;
#X connect 16 0 48 0;
#X connect 16 1 28 0;
#X connect 18 0 19 0;
#X connect 19 0 24 0;
#X connect 19 1 26 0;
#X connect 20 0 18 2;
#X connect 21 0 20 0;
#X connect 22 0 23 0;
#X connect 23 0 18 2;
#X connect 24 0 21 0;
#X connect 25 0 22 0;
#X connect 26 0 29 0;
#X connect 26 1 25 0;
#X connect 27 0 23 1;
#X connect 28 0 130 0;
#X connect 29 0 28 1;
#X connect 29 1 50 1;
#X connect 31 0 32 0;
#X connect 31 0 91 0;
#X connect 32 0 31 1;
#X connect 33 0 34 0;
#X connect 34 0 31 0;
#X connect 35 0 50 0;
#X connect 35 0 70 3;
#X connect 38 0 41 0;
#X connect 38 1 40 0;
#X connect 39 0 41 0;
#X connect 40 0 39 0;
#X connect 41 0 26 1;
#X connect 41 0 27 0;
#X connect 41 0 33 1;
#X connect 41 0 87 0;
#X connect 41 0 122 1;
#X connect 46 0 11 0;
#X connect 46 1 12 0;
#X connect 46 2 13 0;
#X connect 46 3 14 0;
#X connect 47 0 77 0;
#X connect 48 0 47 0;
#X connect 48 1 77 1;
#X connect 49 0 70 0;
#X connect 49 1 52 0;
#X connect 50 0 118 0;
#X connect 50 1 51 0;
#X connect 51 0 52 1;
#X connect 52 0 53 0;
#X connect 53 0 70 1;
#X connect 53 1 70 2;
#X connect 54 0 71 0;
#X connect 56 0 54 1;
#X connect 57 0 10 1;
#X connect 58 0 10 0;
#X connect 59 0 46 0;
#X connect 60 0 54 0;
#X connect 61 0 124 0;
#X connect 62 0 117 0;
#X connect 63 0 61 1;
#X connect 64 0 62 0;
#X connect 64 0 84 1;
#X connect 66 0 67 1;
#X connect 67 0 62 1;
#X connect 67 0 83 1;
#X connect 68 0 67 0;
#X connect 70 0 69 0;
#X connect 71 0 13 0;
#X connect 71 1 129 0;
#X connect 71 2 72 0;
#X connect 72 0 8 1;
#X connect 72 0 74 0;
#X connect 72 0 38 0;
#X connect 73 0 75 0;
#X connect 74 0 5 1;
#X connect 75 0 72 1;
#X connect 76 0 53 1;
#X connect 77 0 78 0;
#X connect 78 0 97 0;
#X connect 78 1 120 0;
#X connect 79 0 81 0;
#X connect 80 0 79 1;
#X connect 81 0 82 0;
#X connect 83 0 84 0;
#X connect 84 0 85 0;
#X connect 86 0 115 0;
#X connect 87 0 83 0;
#X connect 88 0 96 0;
#X connect 89 0 103 0;
#X connect 90 0 93 0;
#X connect 90 0 112 0;
#X connect 91 0 92 0;
#X connect 91 1 35 0;
#X connect 91 1 105 1;
#X connect 92 0 105 0;
#X connect 94 0 95 0;
#X connect 95 0 134 0;
#X connect 96 0 94 0;
#X connect 97 0 133 0;
#X connect 97 1 101 0;
#X connect 97 1 90 1;
#X connect 97 1 106 1;
#X connect 97 2 98 0;
#X connect 98 0 94 0;
#X connect 100 0 55 0;
#X connect 101 0 102 0;
#X connect 101 1 100 1;
#X connect 102 0 100 0;
#X connect 103 0 90 0;
#X connect 104 0 33 0;
#X connect 104 1 31 1;
#X connect 104 2 35 1;
#X connect 105 0 49 0;
#X connect 106 0 108 0;
#X connect 106 0 111 0;
#X connect 107 0 106 0;
#X connect 109 0 107 0;
#X connect 110 0 79 0;
#X connect 111 0 106 1;
#X connect 112 0 90 1;
#X connect 113 0 114 0;
#X connect 114 0 112 0;
#X connect 114 0 111 0;
#X connect 115 0 68 0;
#X connect 116 0 115 1;
#X connect 116 0 117 1;
#X connect 117 0 99 0;
#X connect 117 0 124 1;
#X connect 118 0 52 1;
#X connect 120 0 135 0;
#X connect 120 1 136 0;
#X connect 122 0 121 0;
#X connect 123 0 122 0;
#X connect 123 1 61 0;
#X connect 124 0 125 0;
#X connect 126 0 127 0;
#X connect 126 0 128 0;
#X connect 127 0 38 1;
#X connect 127 0 39 1;
#X connect 128 0 87 1;
#X connect 128 0 129 1;
#X connect 128 0 130 1;
#X connect 129 0 123 0;
#X connect 130 0 104 0;
#X connect 131 0 132 0;
#X connect 132 0 133 1;
#X connect 132 0 134 1;
#X connect 133 0 110 0;
#X connect 134 0 82 1;
#X connect 135 0 80 0;
#X connect 136 0 80 0;
#X restore 182 387 pd sugboxhandler;
#X obj 86 387 s \$0-fileexist;
#X msg 86 362 0;
#X obj 171 147 s \$0-searchdone;
#X obj 231 112 t b b;
#X obj 501 278 spigot 1;
#X msg 523 254 0;
#X msg 475 284 1;
#N canvas 281 95 491 490 onlyone 0;
#X obj 23 -15 inlet;
#X obj 78 364 gl/ext/iemguts/canvasdelete 2;
#X obj 15 390 outlet;
#X msg 97 338 [d.auto] already exists on this canvas;
#X obj 199 156 gl/ext/hcs/canvas_name 2;
#X obj 23 139 spigot;
#X msg 56 116 1;
#X obj 122 217 sel s;
#X obj 149 270 del 10;
#X msg 149 245 bang;
#X obj 78 280 spigot 1;
#X msg 149 296 0;
#X obj 78 307 t b b b;
#X msg 178 296 stop;
#X msg 23 191 symbol;
#X obj 199 191 spigot;
#X obj 199 222 t b a b;
#X obj 154 116 spigot 1;
#X msg 238 243 0;
#X msg 199 243 1;
#X obj 287 29 gl/ext/tof/getdollarzero root;
#X obj 23 12 t b b b b;
#X obj 305 85 s \$0-dollarzeroroot;
#X obj 218 268 gl/ext/iemlib/iem_s;
#X obj 23 89 gl/ext/iemlib/iem_r;
#X obj 154 89 gl/ext/iemlib/iem_r;
#X msg 109 46 set \$1-d.auto.check;
#X msg 287 55 set \$1-d.auto.name;
#X obj 40 68 gl/ext/iemlib/iem_s;
#X obj 97 390 spigot 1;
#X obj 301 268 r d.auto.no.error;
#X obj 97 420 gl/ext/iemguts/canvaserror 1;
#X connect 0 0 21 0;
#X connect 3 0 29 0;
#X connect 4 0 7 1;
#X connect 4 0 15 0;
#X connect 5 0 4 0;
#X connect 6 0 5 1;
#X connect 6 0 15 1;
#X connect 7 0 10 0;
#X connect 7 1 9 0;
#X connect 8 0 2 0;
#X connect 8 0 11 0;
#X connect 9 0 8 0;
#X connect 10 0 12 0;
#X connect 11 0 10 1;
#X connect 12 0 1 0;
#X connect 12 1 3 0;
#X connect 12 2 11 0;
#X connect 12 2 13 0;
#X connect 13 0 8 0;
#X connect 14 0 7 0;
#X connect 15 0 16 0;
#X connect 16 0 19 0;
#X connect 16 1 23 0;
#X connect 16 2 18 0;
#X connect 17 0 7 0;
#X connect 18 0 17 1;
#X connect 19 0 17 1;
#X connect 20 0 27 0;
#X connect 20 0 26 0;
#X connect 20 0 22 0;
#X connect 21 0 6 0;
#X connect 21 0 14 0;
#X connect 21 1 28 0;
#X connect 21 2 4 0;
#X connect 21 3 20 0;
#X connect 24 0 5 0;
#X connect 25 0 17 0;
#X connect 26 0 24 0;
#X connect 26 0 28 1;
#X connect 27 0 23 1;
#X connect 27 0 25 0;
#X connect 29 0 31 0;
#X connect 30 0 29 1;
#X restore 524 -51 pd onlyone;
#N canvas 47 23 1119 686 property_loader 0;
#X msg 190 198 symbol;
#X obj 97 249 list trim;
#X obj 97 283 route /;
#X obj 97 307 route /;
#X obj 70 111 textfile;
#X obj 70 136 t b a;
#X obj 70 57 t b b;
#X obj 97 165 gl/ext/zexy/list2symbol;
#X obj 97 224 gl/ext/zexy/symbol2list;
#X obj 136 334 gl/ext/iemlib/mergefilename;
#X obj 136 361 gl/ext/zexy/symbol2list;
#X obj 136 387 list trim;
#X obj 190 567 s \$0-maxobjrow;
#X obj 629 327 r \$0-loadbang2;
#X obj 376 567 s \$0-yoffset;
#X obj 6 513 r \$0-loadbang3;
#X obj 454 567 s \$0-maxletters;
#X obj 93 567 s \$0-sizeoffset;
#X obj 70 32 r \$0-loadbang1;
#X obj 706 567 s \$0-unseltc;
#X obj 784 567 s \$0-seltc;
#X obj 550 567 s \$0-unselbgc;
#X obj 634 567 s \$0-selbgc;
#X obj 490 542 list 240 240 252;
#X obj 600 542 list 208 208 236;
#X obj 706 542 list 0 0 0;
#X obj 776 542 list 255 255 255;
#X obj 117 626 s \$0-sendcanvas;
#X msg 117 601 font \$1 100 1;
#X obj 359 35 inlet;
#X obj 6 626 gl/ext/iemlib/iem_s;
#X obj 280 567 s \$0-maxdescrow;
#X obj 190 541 i 6;
#X obj 280 541 i 6;
#X obj 454 542 i 40;
#X obj 376 541 i 2;
#X obj 93 541 i 0;
#X obj 6 541 i 10;
#X obj 136 414 route fontsize sizeoffset maxobjrow maxdescrow yoffset
maxletters unselbgc selbgc unseltc seltc descbgc desctc;
#X obj 879 542 list 255 255 255;
#X obj 879 567 s \$0-descbgc;
#X obj 982 567 s \$0-desctc;
#X obj 982 542 list 0 0 0;
#X msg 70 84 read abs/d.auto/property.txt \, rewind \, bang;
#X connect 0 0 8 1;
#X connect 1 0 2 0;
#X connect 2 0 3 0;
#X connect 2 1 9 0;
#X connect 3 1 9 0;
#X connect 4 0 5 0;
#X connect 5 0 4 0;
#X connect 5 1 7 0;
#X connect 6 0 43 0;
#X connect 6 1 0 0;
#X connect 7 0 8 0;
#X connect 8 0 1 0;
#X connect 9 0 10 0;
#X connect 10 0 11 0;
#X connect 11 0 38 0;
#X connect 13 0 23 0;
#X connect 13 0 24 0;
#X connect 13 0 25 0;
#X connect 13 0 26 0;
#X connect 13 0 32 0;
#X connect 13 0 33 0;
#X connect 13 0 34 0;
#X connect 13 0 35 0;
#X connect 13 0 36 0;
#X connect 13 0 39 0;
#X connect 13 0 42 0;
#X connect 15 0 37 0;
#X connect 18 0 6 0;
#X connect 23 0 21 0;
#X connect 24 0 22 0;
#X connect 25 0 19 0;
#X connect 26 0 20 0;
#X connect 28 0 27 0;
#X connect 29 0 30 1;
#X connect 32 0 12 0;
#X connect 33 0 31 0;
#X connect 34 0 16 0;
#X connect 35 0 14 0;
#X connect 36 0 17 0;
#X connect 37 0 28 0;
#X connect 37 0 30 0;
#X connect 38 0 37 1;
#X connect 38 1 36 1;
#X connect 38 2 32 1;
#X connect 38 3 33 1;
#X connect 38 4 35 1;
#X connect 38 5 34 1;
#X connect 38 6 23 1;
#X connect 38 7 24 1;
#X connect 38 8 25 1;
#X connect 38 9 26 1;
#X connect 38 10 39 1;
#X connect 38 11 42 1;
#X connect 39 0 40 0;
#X connect 42 0 41 0;
#X connect 43 0 4 0;
#X restore 711 40 pd property_loader;
#X obj 350 82 list split 1;
#X obj 680 272 s \$0-fontsize;
#N canvas 509 299 711 373 fontwidth 0;
#X obj 191 109 s \$0-sendcanvas;
#X obj 72 221 s \$0-fontwidth;
#X obj 72 197 i;
#X obj 72 -101 inlet;
#X obj 72 -60 change;
#X obj 72 150 change;
#X msg 72 -37 bang;
#X obj 18 221 outlet;
#X msg 390 80 key 1 8 0 \, key 0 8 0 \, undo \, key 1 8 0 \, key 0
8 0;
#X obj 72 -12 del 1;
#X obj 72 11 t b b b b;
#X obj 18 197 del 1.5;
#X msg 207 197 set 1;
#X text 137 9 Delete the empty objectbox \, measure \, then re-create(outlet)
;
#X text 249 198 No need to re-measure fontwidth once it is set(global)
;
#X obj 318 -101 inlet;
#X obj 142 -101 inlet;
#X obj 212 -101 inlet;
#X obj 159 58 f;
#X obj 441 -101 inlet;
#X obj 441 -77 gl/ext/zexy/symbol2list;
#X obj 552 -29 gl/ext/zexy/symbol2list;
#X msg 645 -53 symbol;
#X obj 552 0 list length;
#X obj 571 -84 t a b;
#X obj 72 174 / 15;
#X obj 318 -77 gl/ext/iemlib/iem_r;
#X obj 207 221 gl/ext/iemlib/iem_s;
#X obj 72 124 gl/ext/iemlib/iem_r;
#X obj 31 80 gl/ext/iemlib/iem_s;
#X obj 552 28 + 16;
#X msg 159 80 obj -10000 -10000 gl/abs/d.auto/w \$1;
#X connect 2 0 1 0;
#X connect 3 0 4 0;
#X connect 4 0 6 0;
#X connect 5 0 25 0;
#X connect 6 0 9 0;
#X connect 8 0 0 0;
#X connect 9 0 10 0;
#X connect 10 0 11 0;
#X connect 10 1 29 0;
#X connect 10 2 18 0;
#X connect 10 3 8 0;
#X connect 11 0 7 0;
#X connect 12 0 27 0;
#X connect 15 0 26 0;
#X connect 15 0 27 1;
#X connect 16 0 29 1;
#X connect 17 0 28 0;
#X connect 18 0 31 0;
#X connect 19 0 20 0;
#X connect 19 0 24 0;
#X connect 20 0 18 1;
#X connect 21 0 23 0;
#X connect 22 0 21 1;
#X connect 23 0 30 0;
#X connect 24 0 21 0;
#X connect 24 1 22 0;
#X connect 25 0 2 0;
#X connect 26 0 4 0;
#X connect 28 0 5 0;
#X connect 28 0 12 0;
#X connect 30 0 25 1;
#X connect 31 0 0 0;
#X restore 652 108 pd fontwidth;
#X msg 652 75 1;
#X obj 695 384 list;
#X obj 677 429 route bang;
#X obj 677 462 list;
#X msg 350 412 set 0;
#X text 392 414 Need to re-measure fontwidth;
#X obj 721 -68 r \$0-dollarzeroroot;
#X obj 350 113 gl/ext/iemlib/iem_s;
#X obj 350 444 gl/ext/iemlib/iem_s;
#X obj 680 249 gl/ext/iemlib/iem_r;
#X msg 711 -40 set \$1-d.auto.fontsize;
#X msg 721 -19 set \$1-d.auto.change;
#X msg 729 1 set \$1-d.auto.getobjw;
#X msg 738 21 set \$1-d.auto.objw;
#X msg 828 322 key 1 9 0 \, key 0 9 0;
#X obj 828 298 del 1;
#X msg 828 275 bang;
#X obj 117 19 == 0;
#X obj 72 42 spigot 1;
#X obj 123 66 route 1;
#X obj 123 90 list split 1;
#X obj 123 113 route float;
#X obj 123 137 sel 10;
#X obj 810 391 list split 2;
#X obj 808 418 unpack f f;
#X obj 810 443 + 3;
#X obj 857 441 + 3;
#X obj 808 465 pack f f;
#X obj 679 406 list;
#X obj 652 357 t b b;
#X msg 605 499 motion \$1 \$2 0 \, key 1 Left 0 \, key 0 Left 0 \,
obj 0 \, key 1 9 0 \, key 0 9 0;
#X obj 612 412 t b b;
#X obj 612 389 del 10;
#X obj 64 249 del 1;
#X obj 17 221 t b b b b;
#X text 98 250 initpos;
#X obj 204 25 route obj mouse key motion font mouseup setbounds;
#N canvas 49 150 1233 661 create_sugbox_descbox 0;
#X obj 305 335 s \$0-sendcanvas;
#X msg 305 288 obj \$1 \$2 gl/abs/d.auto/sugbox \$3 \$4 \$5 \$6 \$7
;
#X obj 465 60 r \$0-yoffset;
#X obj 360 -95 *;
#X obj 375 -122 r \$0-maxletters;
#X obj 255 -163 r \$0-fontwidth;
#X obj 371 169 + 8;
#X obj 393 31 r \$0-fontsize;
#X obj 393 55 + 0;
#X obj 480 32 r \$0-sizeoffset;
#X obj 305 259 pack f f \$0 f f f f;
#X text 321 310 obj x y sugbox \$3:\$0 \$4:w \$5:h \$6:fontsize \$7:yoffset
;
#X text 466 -24 d.auto selfpos;
#X obj 318 -26 gl/ext/iemguts/canvasposition 1;
#X obj 36 101 gl/ext/iemguts/canvasposition 1;
#X msg 36 47 1;
#X text 68 49 realtime track;
#X obj 36 74 metro 20;
#X obj 36 135 s \$0-d.auto.xy;
#X obj 174 281 s \$0-g.sugc;
#X obj 189 192 r \$0-maxobjrow;
#X obj 275 137 list;
#X obj 277 167 unpack f f;
#X obj 445 -93 s \$0-g.sugdel;
#X obj 255 -135 t b b b b f b;
#X obj 802 334 s \$0-sendcanvas;
#X obj 876 128 r \$0-fontsize;
#X msg 802 287 obj \$1 \$2 gl/abs/d.auto/descbox \$3 \$4 \$5 \$6 \$7
;
#X obj 876 176 + 4;
#X obj 541 -93 s \$0-g.descdel;
#X obj 647 274 s \$0-g.descc;
#X obj 802 258 pack f f \$0 f f f 1;
#X obj 662 190 r \$0-maxdescrow;
#X obj 174 218 i 6;
#X obj 647 216 i 6;
#X obj 215 219 > 0;
#X obj 689 215 > 0;
#X obj 170 242 spigot 1;
#X obj 644 241 spigot 1;
#X connect 1 0 0 0;
#X connect 2 0 10 6;
#X connect 3 0 10 3;
#X connect 3 0 31 3;
#X connect 4 0 3 1;
#X connect 5 0 24 0;
#X connect 6 0 10 4;
#X connect 7 0 8 0;
#X connect 8 0 6 0;
#X connect 8 0 10 5;
#X connect 9 0 8 1;
#X connect 10 0 1 0;
#X connect 13 0 21 1;
#X connect 14 0 18 0;
#X connect 15 0 17 0;
#X connect 17 0 14 0;
#X connect 20 0 33 1;
#X connect 20 0 35 0;
#X connect 21 0 22 0;
#X connect 22 0 37 0;
#X connect 22 0 38 0;
#X connect 22 1 10 1;
#X connect 22 1 31 1;
#X connect 24 0 15 0;
#X connect 24 1 33 0;
#X connect 24 1 34 0;
#X connect 24 2 21 0;
#X connect 24 3 13 0;
#X connect 24 4 3 0;
#X connect 24 5 23 0;
#X connect 24 5 29 0;
#X connect 26 0 28 0;
#X connect 26 0 31 5;
#X connect 27 0 25 0;
#X connect 28 0 31 4;
#X connect 31 0 27 0;
#X connect 32 0 34 1;
#X connect 32 0 36 0;
#X connect 33 0 19 0;
#X connect 34 0 30 0;
#X connect 35 0 37 1;
#X connect 36 0 38 1;
#X connect 37 0 10 0;
#X connect 38 0 31 0;
#X restore 341 -32 pd create_sugbox_descbox;
#X obj 524 -27 t b b b b;
#N canvas 172 83 586 377 LICENSE-GPL 0;
#X text 57 88 This program is free software: you can redistribute it
and/or modify it under the terms of the GNU General Public License
as published by the Free Software Foundation \, either version 3 of
the License \, or (at your option) any later version.;
#X text 58 168 This program is distributed in the hope that it will
be useful \, but WITHOUT ANY WARRANTY \; without even the implied warranty
of MERCHANTABILITY or FITNESS FOR A PARTICULAR PURPOSE. See the GNU
General Public License for more details.;
#X text 57 261 You should have received a copy of the GNU General Public
License along with this program. If not \, see <http://www.gnu.org/licenses/>.
;
#X text 60 325 See the file LICENSE.txt for the full license text.
;
#X text 61 54 Copyright (C) 2016 \, Iceblink Digital \, Inc.;
#X restore 954 -65 pd LICENSE-GPL;
#X connect 0 0 107 0;
#X connect 1 0 66 0;
#X connect 2 0 23 0;
#X connect 3 0 4 0;
#X connect 4 0 5 0;
#X connect 5 0 2 1;
#X connect 5 1 6 0;
#X connect 5 1 18 0;
#X connect 6 0 2 2;
#X connect 7 0 6 1;
#X connect 8 0 0 1;
#X connect 13 0 36 0;
#X connect 15 0 7 0;
#X connect 15 0 18 1;
#X connect 16 0 58 0;
#X connect 16 1 58 1;
#X connect 16 2 17 0;
#X connect 17 0 58 2;
#X connect 18 0 58 3;
#X connect 19 0 20 0;
#X connect 19 0 21 0;
#X connect 19 0 2 0;
#X connect 19 0 72 0;
#X connect 19 0 105 0;
#X connect 22 0 23 1;
#X connect 23 0 16 0;
#X connect 24 0 27 0;
#X connect 25 0 3 0;
#X connect 26 0 25 1;
#X connect 26 0 29 1;
#X connect 26 0 88 0;
#X connect 28 0 30 0;
#X connect 29 0 62 0;
#X connect 30 0 32 0;
#X connect 30 0 53 0;
#X connect 30 0 65 0;
#X connect 30 0 2 0;
#X connect 30 1 63 0;
#X connect 31 0 34 0;
#X connect 32 0 33 0;
#X connect 35 0 0 0;
#X connect 37 0 40 0;
#X connect 37 1 39 0;
#X connect 38 0 40 1;
#X connect 39 1 38 0;
#X connect 40 0 41 0;
#X connect 40 0 55 1;
#X connect 40 0 74 1;
#X connect 41 0 42 0;
#X connect 41 1 43 0;
#X connect 44 0 47 0;
#X connect 45 0 44 1;
#X connect 46 0 45 0;
#X connect 48 0 44 0;
#X connect 49 0 37 0;
#X connect 52 0 31 0;
#X connect 53 0 50 0;
#X connect 53 0 51 0;
#X connect 54 0 7 0;
#X connect 54 0 18 1;
#X connect 55 0 57 0;
#X connect 56 0 55 0;
#X connect 60 0 59 0;
#X connect 62 0 61 0;
#X connect 62 1 64 0;
#X connect 63 0 52 0;
#X connect 64 0 63 1;
#X connect 65 0 63 1;
#X connect 66 0 109 0;
#X connect 68 0 75 0;
#X connect 68 0 78 0;
#X connect 70 0 100 0;
#X connect 71 0 70 0;
#X connect 72 0 99 1;
#X connect 73 0 74 0;
#X connect 73 1 94 0;
#X connect 74 0 101 0;
#X connect 75 0 79 0;
#X connect 77 0 81 0;
#X connect 77 0 82 0;
#X connect 77 0 83 0;
#X connect 77 0 84 0;
#X connect 77 0 70 4;
#X connect 80 0 69 0;
#X connect 81 0 67 0;
#X connect 81 0 78 1;
#X connect 81 0 80 0;
#X connect 82 0 70 3;
#X connect 82 0 79 1;
#X connect 83 0 70 1;
#X connect 84 0 70 2;
#X connect 85 0 34 0;
#X connect 86 0 85 0;
#X connect 87 0 86 0;
#X connect 88 0 89 1;
#X connect 89 0 90 0;
#X connect 90 0 91 0;
#X connect 91 0 92 0;
#X connect 92 0 93 0;
#X connect 93 0 52 0;
#X connect 94 0 95 0;
#X connect 95 0 96 0;
#X connect 95 1 97 0;
#X connect 96 0 98 0;
#X connect 97 0 98 1;
#X connect 98 0 101 0;
#X connect 99 0 73 0;
#X connect 100 0 103 0;
#X connect 100 1 99 0;
#X connect 101 0 34 0;
#X connect 102 0 24 0;
#X connect 102 1 37 0;
#X connect 103 0 102 0;
#X connect 104 0 14 0;
#X connect 105 0 103 0;
#X connect 105 1 71 0;
#X connect 105 2 104 0;
#X connect 105 3 86 0;
#X connect 107 0 19 0;
#X connect 107 0 60 0;
#X connect 107 1 29 0;
#X connect 107 2 25 0;
#X connect 107 2 89 0;
#X connect 107 3 55 1;
#X connect 107 3 72 1;
#X connect 107 4 68 0;
#X connect 107 7 62 0;
#X connect 107 7 87 0;
#X connect 109 0 12 0;
#X connect 109 1 11 0;
#X connect 109 2 10 0;
#X connect 109 3 9 0;
