#N canvas 0 22 430 622 10;
#X obj 49 122 t b b;
#X obj 49 145 list append \$1 \$2 \$3 \$4 \$5 \$6 \$7 \$8 \$9 \$10
\$11 \$12 \$13 \$14 \$15 \$16 \$17 \$18 \$19 \$20 \$21 \$22 \$23 \$24
\$25 \$26 \$27 \$28 \$29 \$30;
#X msg 49 194 \$1 \$2 \, \$3 \$4 \, \$5 \$6 \, \$7 \$8 \, \$9 \$10
\, \$11 \$12 \, \$13 \$14 \, \$15 \$16 \, \$17 \$18 \, \$19 \$20 \,
\$21 \$22 \, \$23 \$24 \, \$25 \$26 \, \$27 \$28 \, \$29 \$30;
#X obj 104 276 t b;
#X obj 49 13 inlet property;
#X obj 22 101 t b b;
#X msg 191 381 w \$1;
#X msg 229 381 h \$1;
#X obj 288 350 f;
#X obj 322 351 f;
#X obj 48 593 outlet;
#X msg 48 534 1;
#X msg 93 534 0;
#X obj 191 322 f;
#X obj 229 322 f;
#X obj 191 353 -;
#X obj 229 352 -;
#X obj 48 563 spigot 1;
#X msg 48 508 bang;
#X msg 93 507 bang;
#X obj 49 245 route x y p reset o w h s;
#X msg 106 322 v \$1;
#N canvas 8 290 450 300 primitives 0;
#X obj 140 109 inlet;
#X obj 145 277 outlet;
#X obj 196 279 outlet;
#X obj 247 279 outlet;
#X obj 156 152 p.rectangle;
#X connect 0 0 4 0;
#X connect 4 0 1 0;
#X connect 4 1 2 0;
#X connect 4 2 3 0;
#X restore 48 478 pd primitives;
#X obj 22 33 r g.dimension;
#X obj 22 58 spigot 1;
#X msg 77 58 0;
#X obj 109 33 r g.newdimension;
#X obj 22 80 route 1;
#X obj 109 80 sel 1;
#X obj 109 58 r g.zloadbang;
#X msg 48 448 x \$1;
#X msg 85 448 y \$1;
#N canvas 284 221 460 444 p 0;
#X obj 55 193 textfile;
#X obj 124 193 symbol;
#X obj 55 103 t b a;
#X obj 192 280 textfile;
#X obj 55 365 list append 0 0 0 0 0 0 0 0 0 0 0 0 0 0 0 0 0 0 0 0 0
0 0 0 0 0 0 0 0 0;
#X obj 192 308 list split 1;
#X obj 55 406 outlet;
#X obj 11 10 inlet;
#X obj 55 10 inlet;
#X obj 55 225 route symbol;
#X msg 124 252 bang;
#X obj 11 43 t b b;
#X obj 55 132 symbol;
#X msg 55 162 read \$1 \, rewind \, bang;
#X msg 192 252 read \$1 \, rewind \, bang;
#X obj 192 225 symbol;
#X msg 225 115 symbol text/g.button.txt;
#X connect 0 0 9 0;
#X connect 1 0 9 1;
#X connect 2 0 12 0;
#X connect 2 1 1 0;
#X connect 3 0 5 0;
#X connect 4 0 6 0;
#X connect 5 1 4 0;
#X connect 7 0 11 0;
#X connect 8 0 2 0;
#X connect 9 0 4 0;
#X connect 9 1 10 0;
#X connect 10 0 0 0;
#X connect 11 0 15 0;
#X connect 11 1 16 0;
#X connect 12 0 13 0;
#X connect 13 0 0 0;
#X connect 14 0 3 0;
#X connect 15 0 14 0;
#X connect 16 0 12 1;
#X connect 16 0 15 1;
#X restore 64 276 pd p;
#X obj 0 0 cnv 20 20 20 \$0-xypos \$0-getpos pos 2 10 0 10 -228856
-66577 0;
#X obj 48 422 p.pos g.button \$0;
#X obj 196 276 route v f l d;
#X connect 0 0 1 0;
#X connect 0 1 32 0;
#X connect 1 0 2 0;
#X connect 2 0 20 0;
#X connect 3 0 0 0;
#X connect 4 0 20 0;
#X connect 5 0 25 0;
#X connect 5 0 34 0;
#X connect 5 1 0 0;
#X connect 6 0 22 0;
#X connect 7 0 22 0;
#X connect 8 0 6 0;
#X connect 9 0 7 0;
#X connect 11 0 17 0;
#X connect 12 0 17 0;
#X connect 13 0 8 1;
#X connect 13 0 15 0;
#X connect 14 0 9 1;
#X connect 14 0 16 0;
#X connect 15 0 6 0;
#X connect 16 0 7 0;
#X connect 17 0 10 0;
#X connect 18 0 13 0;
#X connect 18 0 14 0;
#X connect 18 0 11 0;
#X connect 19 0 8 0;
#X connect 19 0 9 0;
#X connect 19 0 12 0;
#X connect 20 0 34 1;
#X connect 20 1 34 2;
#X connect 20 2 32 1;
#X connect 20 3 3 0;
#X connect 20 4 15 1;
#X connect 20 4 16 1;
#X connect 20 5 13 1;
#X connect 20 5 6 0;
#X connect 20 6 14 1;
#X connect 20 6 7 0;
#X connect 20 7 13 1;
#X connect 20 7 14 1;
#X connect 20 7 6 0;
#X connect 20 7 7 0;
#X connect 20 8 35 0;
#X connect 21 0 22 0;
#X connect 22 0 18 0;
#X connect 22 2 19 0;
#X connect 23 0 24 0;
#X connect 24 0 27 0;
#X connect 25 0 24 1;
#X connect 26 0 24 1;
#X connect 27 0 5 0;
#X connect 28 0 1 0;
#X connect 29 0 28 0;
#X connect 30 0 22 0;
#X connect 31 0 22 0;
#X connect 32 0 2 0;
#X connect 34 0 30 0;
#X connect 34 1 31 0;
#X connect 35 0 17 1;
#X connect 35 0 21 0;
#X connect 35 4 22 0;
