#N canvas 0 22 545 757 10;
#X obj 99 112 t b b;
#X obj 99 135 list append \$1 \$2 \$3 \$4 \$5 \$6 \$7 \$8 \$9 \$10
\$11 \$12 \$13 \$14 \$15 \$16 \$17 \$18 \$19 \$20 \$21 \$22 \$23 \$24
\$25 \$26 \$27 \$28 \$29 \$30;
#X msg 99 184 \$1 \$2 \, \$3 \$4 \, \$5 \$6 \, \$7 \$8 \, \$9 \$10
\, \$11 \$12 \, \$13 \$14 \, \$15 \$16 \, \$17 \$18 \, \$19 \$20 \,
\$21 \$22 \, \$23 \$24 \, \$25 \$26 \, \$27 \$28 \, \$29 \$30;
#X obj 151 265 t b;
#X obj 98 4 inlet property;
#X obj 72 92 t b b;
#X obj 150 723 outlet;
#X obj 186 265 t b f;
#X msg 264 393 w \$1;
#X msg 300 393 h \$1;
#X msg 221 441 w \$1;
#X msg 257 441 h \$1;
#X obj 435 476 -;
#X msg 435 550 x \$1;
#X msg 492 477 y \$1;
#X obj 447 369 / 2;
#X obj 450 405 -;
#X obj 475 345 / 2;
#X msg 143 553 \$1;
#X obj 128 577 -;
#X msg 121 527 \$1;
#X obj 435 526 +;
#X obj 50 684 +;
#X obj 38 564 f;
#X obj 422 429 * 2;
#X obj 112 619 clip;
#X obj 5 638 *;
#X obj 435 498 t b f;
#X obj 189 325 -;
#X obj 5 615 clip 0 1;
#X msg 181 501 set -1;
#X obj 150 670 / 1;
#X obj 111 642 t f f f;
#X obj 5 661 -;
#X obj 38 587 t f f;
#X obj 60 499 spigot 1;
#X obj 121 502 spigot 1;
#X obj 60 524 t l b b;
#X obj 150 697 change -1;
#X obj 420 369 f;
#X obj 420 344 t b f;
#N canvas 95 359 450 300 primitives 0;
#X obj 140 109 inlet;
#X obj 145 277 outlet;
#X obj 196 279 outlet;
#X obj 247 279 outlet;
#X obj 300 108 inlet;
#X obj 165 218 p.rectangle;
#X obj 253 218 p.rectangle f 0;
#X connect 0 0 6 0;
#X connect 4 0 5 0;
#X connect 6 0 1 0;
#X connect 6 1 2 0;
#X connect 6 2 3 0;
#X restore 98 471 pd primitives;
#X msg 158 351 v \$1;
#X obj 475 369 t b b f;
#X obj 72 24 r g.dimension;
#X obj 72 49 spigot 1;
#X msg 127 49 0;
#X obj 159 24 r g.newdimension;
#X obj 72 71 route 1;
#X obj 475 405 del 1;
#X obj 159 71 sel 1;
#X obj 159 49 r g.zloadbang;
#X msg 98 441 x \$1;
#X msg 138 441 y \$1;
#N canvas 284 221 460 444 p 0;
#X obj 55 193 textfile;
#X obj 124 193 symbol;
#X obj 55 103 t b a;
#X obj 192 280 textfile;
#X obj 55 365 list append 0 0 0 0 0 0 0 0 0 0 0 0 0 0 0 0 0 0 0 0 0
0 0 0 0 0 0 0 0 0;
#X obj 192 308 list split 1;
#X obj 55 406 outlet;
#X obj 11 10 inlet;
#X obj 55 10 inlet;
#X obj 55 225 route symbol;
#X msg 124 252 bang;
#X obj 11 43 t b b;
#X obj 55 132 symbol;
#X msg 55 162 read \$1 \, rewind \, bang;
#X msg 192 252 read \$1 \, rewind \, bang;
#X obj 192 225 symbol;
#X msg 225 115 symbol text/g.hslider.txt;
#X connect 0 0 9 0;
#X connect 1 0 9 1;
#X connect 2 0 12 0;
#X connect 2 1 1 0;
#X connect 3 0 5 0;
#X connect 4 0 6 0;
#X connect 5 1 4 0;
#X connect 7 0 11 0;
#X connect 8 0 2 0;
#X connect 9 0 4 0;
#X connect 9 1 10 0;
#X connect 10 0 0 0;
#X connect 11 0 15 0;
#X connect 11 1 16 0;
#X connect 12 0 13 0;
#X connect 13 0 0 0;
#X connect 14 0 3 0;
#X connect 15 0 14 0;
#X connect 16 0 12 1;
#X connect 16 0 15 1;
#X restore 112 265 pd p;
#X obj 0 0 cnv 20 20 20 \$0-xypos \$0-getpos pos 2 10 0 10 -228856
-66577 0;
#X obj 98 412 p.pos g.hslider \$0;
#X obj 245 265 route v s f d;
#X obj 98 238 route x y p reset i o w h;
#X connect 0 0 1 0;
#X connect 0 1 54 0;
#X connect 1 0 2 0;
#X connect 2 0 58 0;
#X connect 3 0 0 0;
#X connect 4 0 58 0;
#X connect 5 0 46 0;
#X connect 5 0 56 0;
#X connect 5 1 0 0;
#X connect 7 0 28 0;
#X connect 7 1 28 1;
#X connect 8 0 41 0;
#X connect 9 0 41 0;
#X connect 10 0 41 1;
#X connect 11 0 41 1;
#X connect 12 0 27 0;
#X connect 13 0 41 1;
#X connect 14 0 41 1;
#X connect 15 0 16 0;
#X connect 16 0 12 1;
#X connect 16 0 24 0;
#X connect 17 0 43 0;
#X connect 18 0 19 1;
#X connect 19 0 22 0;
#X connect 20 0 19 0;
#X connect 21 0 13 0;
#X connect 22 0 25 0;
#X connect 23 0 34 0;
#X connect 24 0 25 2;
#X connect 24 0 26 1;
#X connect 24 0 31 1;
#X connect 25 0 32 0;
#X connect 26 0 33 0;
#X connect 27 0 21 0;
#X connect 27 1 21 1;
#X connect 28 0 11 0;
#X connect 28 0 10 0;
#X connect 29 0 26 0;
#X connect 30 0 38 0;
#X connect 31 0 38 0;
#X connect 32 0 21 0;
#X connect 32 1 23 1;
#X connect 32 2 31 0;
#X connect 33 0 22 0;
#X connect 34 0 33 1;
#X connect 34 1 22 1;
#X connect 35 0 37 0;
#X connect 36 0 20 0;
#X connect 37 0 18 0;
#X connect 37 1 31 0;
#X connect 37 2 23 0;
#X connect 38 0 6 0;
#X connect 38 0 39 1;
#X connect 39 0 29 0;
#X connect 40 0 39 0;
#X connect 40 1 15 0;
#X connect 41 0 35 0;
#X connect 41 1 36 0;
#X connect 41 2 30 0;
#X connect 42 0 41 0;
#X connect 42 0 41 1;
#X connect 43 0 49 0;
#X connect 43 1 16 0;
#X connect 43 2 16 1;
#X connect 44 0 45 0;
#X connect 45 0 48 0;
#X connect 46 0 45 1;
#X connect 47 0 45 1;
#X connect 48 0 5 0;
#X connect 49 0 39 0;
#X connect 50 0 1 0;
#X connect 51 0 50 0;
#X connect 52 0 41 0;
#X connect 53 0 41 0;
#X connect 54 0 2 0;
#X connect 56 0 52 0;
#X connect 56 0 12 0;
#X connect 56 1 14 0;
#X connect 56 1 53 0;
#X connect 57 0 35 1;
#X connect 57 0 36 1;
#X connect 57 0 42 0;
#X connect 57 4 41 0;
#X connect 57 4 41 1;
#X connect 58 0 56 1;
#X connect 58 1 56 2;
#X connect 58 2 54 1;
#X connect 58 3 3 0;
#X connect 58 4 29 0;
#X connect 58 5 7 0;
#X connect 58 6 8 0;
#X connect 58 6 40 0;
#X connect 58 7 9 0;
#X connect 58 7 17 0;
#X connect 58 7 28 0;
#X connect 58 8 57 0;
