#N canvas 0 22 453 750 10;
#X obj 59 142 t b b;
#X obj 59 165 list append \$1 \$2 \$3 \$4 \$5 \$6 \$7 \$8 \$9 \$10
\$11 \$12 \$13 \$14 \$15 \$16 \$17 \$18 \$19 \$20 \$21 \$22 \$23 \$24
\$25 \$26 \$27 \$28 \$29 \$30;
#X msg 59 214 \$1 \$2 \, \$3 \$4 \, \$5 \$6 \, \$7 \$8 \, \$9 \$10
\, \$11 \$12 \, \$13 \$14 \, \$15 \$16 \, \$17 \$18 \, \$19 \$20 \,
\$21 \$22 \, \$23 \$24 \, \$25 \$26 \, \$27 \$28 \, \$29 \$30;
#X obj 113 293 t b;
#X obj 58 27 inlet property;
#X obj 32 121 t b b;
#X obj 6 530 spigot 1;
#X obj 80 530 spigot 1;
#X msg 6 574 \$2;
#X msg 80 552 \$2;
#X obj 80 623 -;
#X msg 113 391 s \$1;
#X obj 227 338 / 2;
#X obj 278 530 *;
#X obj 278 504 cos;
#X msg 278 609 x \$1;
#X msg 146 391 s \$1;
#X obj 333 530 *;
#X obj 333 504 sin;
#X msg 333 609 y \$1;
#X obj 305 477 + 2.3562;
#X obj 305 381 /;
#X obj 80 645 * -1;
#X obj 371 337 * 3.14159;
#X obj 227 388 -;
#X obj 45 575 f;
#X obj 80 667 +;
#X obj 80 690 clip;
#X obj 278 583 +;
#X obj 333 583 +;
#X obj 80 713 sel 0;
#X obj 95 602 f;
#X obj 80 581 t f f;
#X obj 152 622 sel;
#X obj 152 679 f;
#X msg 45 650 0;
#X obj 152 704 +;
#X obj 152 650 f;
#X msg 122 650 0;
#X obj 286 556 t b f;
#X obj 346 557 t b f;
#X obj 305 708 outlet;
#X obj 135 558 *;
#X obj 305 454 * 4.7124;
#X obj 305 428 clip 0 1;
#X obj 305 405 change -1;
#X msg 142 531 set -1;
#X obj 6 552 t l b;
#X obj 253 338 / 2;
#X obj 227 412 -;
#X obj 344 309 t b f;
#X obj 382 455 f;
#X obj 283 339 t b b f;
#X obj 58 268 route x y p reset i s t o;
#N canvas 11 360 450 300 primitives 0;
#X obj 140 109 inlet;
#X obj 145 277 outlet;
#X obj 196 279 outlet;
#X obj 247 279 outlet;
#X obj 300 108 inlet;
#X obj -14 14 p.circle;
#X obj 0 0 p.circle f 0;
#X connect 0 0 6 0;
#X connect 4 0 5 0;
#X connect 6 0 1 0;
#X connect 6 1 2 0;
#X connect 6 2 3 0;
#X restore 58 501 pd primitives;
#X msg 182 391 v \$1;
#X obj 253 359 t b b f;
#X obj 32 49 r g.dimension;
#X obj 32 74 spigot 1;
#X msg 87 74 0;
#X obj 119 49 r g.newdimension;
#X obj 32 96 route 1;
#X obj 119 96 sel 1;
#X obj 119 74 r g.zloadbang;
#X msg 58 471 x \$1;
#X msg 98 471 y \$1;
#N canvas 284 221 460 444 p 0;
#X obj 55 193 textfile;
#X obj 124 193 symbol;
#X obj 55 103 t b a;
#X obj 192 280 textfile;
#X obj 55 365 list append 0 0 0 0 0 0 0 0 0 0 0 0 0 0 0 0 0 0 0 0 0
0 0 0 0 0 0 0 0 0;
#X obj 192 308 list split 1;
#X obj 55 406 outlet;
#X obj 11 10 inlet;
#X obj 55 10 inlet;
#X obj 55 225 route symbol;
#X msg 124 252 bang;
#X obj 11 43 t b b;
#X obj 55 132 symbol;
#X msg 55 162 read \$1 \, rewind \, bang;
#X msg 192 252 read \$1 \, rewind \, bang;
#X obj 192 225 symbol;
#X msg 225 115 symbol text/g.knob.txt;
#X connect 0 0 9 0;
#X connect 1 0 9 1;
#X connect 2 0 12 0;
#X connect 2 1 1 0;
#X connect 3 0 5 0;
#X connect 4 0 6 0;
#X connect 5 1 4 0;
#X connect 7 0 11 0;
#X connect 8 0 2 0;
#X connect 9 0 4 0;
#X connect 9 1 10 0;
#X connect 10 0 0 0;
#X connect 11 0 15 0;
#X connect 11 1 16 0;
#X connect 12 0 13 0;
#X connect 13 0 0 0;
#X connect 14 0 3 0;
#X connect 15 0 14 0;
#X connect 16 0 12 1;
#X connect 16 0 15 1;
#X restore 73 293 pd p;
#X obj 0 0 cnv 20 20 20 \$0-xypos \$0-getpos pos 2 10 0 10 -228856
-66577 0;
#X obj 58 442 p.pos g.knob \$0;
#X obj 205 293 route v w h f;
#X connect 0 0 1 0;
#X connect 0 1 66 0;
#X connect 1 0 2 0;
#X connect 2 0 53 0;
#X connect 3 0 0 0;
#X connect 4 0 53 0;
#X connect 5 0 59 0;
#X connect 5 0 68 0;
#X connect 5 1 0 0;
#X connect 6 0 47 0;
#X connect 7 0 9 0;
#X connect 8 0 10 1;
#X connect 9 0 32 0;
#X connect 10 0 22 0;
#X connect 11 0 54 0;
#X connect 12 0 24 0;
#X connect 13 0 28 0;
#X connect 14 0 13 0;
#X connect 15 0 54 1;
#X connect 16 0 54 1;
#X connect 17 0 29 0;
#X connect 18 0 17 0;
#X connect 19 0 54 1;
#X connect 20 0 14 0;
#X connect 20 0 18 0;
#X connect 21 0 45 0;
#X connect 22 0 26 0;
#X connect 23 0 21 1;
#X connect 23 0 27 2;
#X connect 23 0 33 1;
#X connect 23 0 36 1;
#X connect 23 0 37 1;
#X connect 23 0 42 1;
#X connect 24 0 49 0;
#X connect 25 0 26 1;
#X connect 25 0 21 0;
#X connect 26 0 27 0;
#X connect 27 0 25 1;
#X connect 27 0 21 0;
#X connect 27 0 30 0;
#X connect 27 0 33 0;
#X connect 28 0 15 0;
#X connect 29 0 19 0;
#X connect 30 0 31 0;
#X connect 30 0 35 0;
#X connect 31 0 10 1;
#X connect 32 0 10 0;
#X connect 32 1 31 1;
#X connect 32 1 34 1;
#X connect 33 0 34 0;
#X connect 33 0 37 0;
#X connect 33 0 38 0;
#X connect 34 0 36 0;
#X connect 35 0 25 1;
#X connect 35 0 26 1;
#X connect 36 0 10 1;
#X connect 37 0 25 1;
#X connect 38 0 26 1;
#X connect 39 0 28 0;
#X connect 39 1 28 1;
#X connect 40 0 29 0;
#X connect 40 1 29 1;
#X connect 42 0 25 1;
#X connect 43 0 20 0;
#X connect 44 0 43 0;
#X connect 44 0 41 0;
#X connect 44 0 51 1;
#X connect 45 0 44 0;
#X connect 46 0 45 0;
#X connect 47 0 8 0;
#X connect 47 1 25 0;
#X connect 48 0 56 0;
#X connect 49 0 13 1;
#X connect 49 0 17 1;
#X connect 50 0 43 0;
#X connect 50 0 51 0;
#X connect 50 1 23 0;
#X connect 50 1 12 0;
#X connect 51 0 42 0;
#X connect 52 0 13 0;
#X connect 52 0 17 0;
#X connect 52 1 49 0;
#X connect 52 2 49 1;
#X connect 53 0 68 1;
#X connect 53 1 68 2;
#X connect 53 2 66 1;
#X connect 53 3 3 0;
#X connect 53 4 42 0;
#X connect 53 4 45 0;
#X connect 53 5 11 0;
#X connect 53 5 50 0;
#X connect 53 6 16 0;
#X connect 53 6 48 0;
#X connect 53 7 52 0;
#X connect 53 8 69 0;
#X connect 54 0 6 0;
#X connect 54 1 7 0;
#X connect 54 2 46 0;
#X connect 55 0 54 0;
#X connect 55 0 54 1;
#X connect 56 0 13 0;
#X connect 56 0 17 0;
#X connect 56 1 24 0;
#X connect 56 2 24 1;
#X connect 57 0 58 0;
#X connect 58 0 61 0;
#X connect 59 0 58 1;
#X connect 60 0 58 1;
#X connect 61 0 5 0;
#X connect 62 0 1 0;
#X connect 63 0 62 0;
#X connect 64 0 54 0;
#X connect 65 0 54 0;
#X connect 66 0 2 0;
#X connect 68 0 64 0;
#X connect 68 0 39 0;
#X connect 68 1 40 0;
#X connect 68 1 65 0;
#X connect 69 0 6 1;
#X connect 69 0 7 1;
#X connect 69 0 55 0;
#X connect 69 4 54 0;
#X connect 69 4 54 1;
