#N canvas 1 23 453 750 10;
#X obj 59 142 t b b;
#X obj 59 165 list append \$1 \$2 \$3 \$4 \$5 \$6 \$7 \$8 \$9 \$10
\$11 \$12 \$13 \$14 \$15 \$16 \$17 \$18 \$19 \$20 \$21 \$22 \$23 \$24
\$25 \$26 \$27 \$28 \$29 \$30;
#X msg 59 214 \$1 \$2 \, \$3 \$4 \, \$5 \$6 \, \$7 \$8 \, \$9 \$10
\, \$11 \$12 \, \$13 \$14 \, \$15 \$16 \, \$17 \$18 \, \$19 \$20 \,
\$21 \$22 \, \$23 \$24 \, \$25 \$26 \, \$27 \$28 \, \$29 \$30;
#X obj 111 293 t b;
#X obj 58 27 inlet property;
#X obj 32 121 t b b;
#N canvas 5 460 450 300 primitives 0;
#X obj 140 109 inlet;
#X obj 140 237 outlet;
#X obj 191 237 outlet;
#X obj 242 237 outlet;
#X obj 0 0 p.image;
#X connect 0 0 4 0;
#X connect 4 0 1 0;
#X connect 4 1 2 0;
#X connect 4 2 3 0;
#X restore 32 571 pd primitives;
#X obj 32 49 r g.dimension;
#X obj 32 74 spigot 1;
#X msg 87 74 0;
#X obj 119 49 r g.newdimension;
#X obj 32 96 route 1;
#X obj 119 96 sel 1;
#X obj 119 74 r g.zloadbang;
#X msg 32 351 x \$1;
#X msg 70 352 y \$1;
#N canvas 284 221 460 444 p 0;
#X obj 55 193 textfile;
#X obj 124 193 symbol;
#X obj 55 103 t b a;
#X obj 192 280 textfile;
#X obj 55 365 list append 0 0 0 0 0 0 0 0 0 0 0 0 0 0 0 0 0 0 0 0 0
0 0 0 0 0 0 0 0 0;
#X obj 192 308 list split 1;
#X obj 55 406 outlet;
#X obj 11 10 inlet;
#X obj 55 10 inlet;
#X obj 55 225 route symbol;
#X msg 124 252 bang;
#X obj 11 43 t b b;
#X obj 55 132 symbol;
#X msg 55 162 read \$1 \, rewind \, bang;
#X msg 192 252 read \$1 \, rewind \, bang;
#X obj 192 225 symbol;
#X msg 225 115 symbol text/g.knobman.txt;
#X connect 0 0 9 0;
#X connect 1 0 9 1;
#X connect 2 0 12 0;
#X connect 2 1 1 0;
#X connect 3 0 5 0;
#X connect 4 0 6 0;
#X connect 5 1 4 0;
#X connect 7 0 11 0;
#X connect 8 0 2 0;
#X connect 9 0 4 0;
#X connect 9 1 10 0;
#X connect 10 0 0 0;
#X connect 11 0 15 0;
#X connect 11 1 16 0;
#X connect 12 0 13 0;
#X connect 13 0 0 0;
#X connect 14 0 3 0;
#X connect 15 0 14 0;
#X connect 16 0 12 1;
#X connect 16 0 15 1;
#X restore 72 293 pd p;
#X obj 0 0 cnv 20 20 20 \$0-xypos \$0-getpos pos 2 10 0 10 -228856
-66577 0;
#X obj 217 293 route v w h f;
#X obj 32 322 p.pos g.knobman \$0;
#X msg 69 623 \$2;
#X msg 32 623 \$2;
#X obj 32 716 -;
#X obj 32 685 swap;
#X obj 32 747 +;
#X obj 107 747 f;
#X obj 107 623 bang;
#X obj 32 806 clip 0 1;
#X obj 63 685 t b b f;
#X obj 63 716 f 0;
#X obj 181 685 f;
#X msg 82 546 s \$1;
#X obj 32 475 moses 10;
#X obj 32 431 int;
#X obj 32 453 + 1;
#X obj 47 386 - 1;
#X obj 32 409 *;
#X msg 32 499 symbol _0\$1;
#X msg 109 499 symbol _\$1;
#X obj 32 524 pack s s;
#X msg 32 546 l \$2\$1;
#X obj 32 832 outlet;
#X obj 58 268 route x y p reset i s n t l;
#X obj 32 595 spigot 1;
#X obj 87 595 spigot 1;
#X msg 118 546 v \$1;
#X obj 63 662 f;
#X obj 63 431 symbol;
#X obj 63 453 t b s;
#X obj 32 778 / 200;
#X obj 154 747 * 200;
#X connect 0 0 1 0;
#X connect 0 1 16 0;
#X connect 1 0 2 0;
#X connect 2 0 42 0;
#X connect 3 0 0 0;
#X connect 4 0 42 0;
#X connect 5 0 9 0;
#X connect 5 0 19 0;
#X connect 5 1 0 0;
#X connect 6 0 43 0;
#X connect 6 1 44 0;
#X connect 6 2 26 0;
#X connect 7 0 8 0;
#X connect 8 0 11 0;
#X connect 9 0 8 1;
#X connect 10 0 8 1;
#X connect 11 0 5 0;
#X connect 12 0 1 0;
#X connect 13 0 12 0;
#X connect 14 0 6 0;
#X connect 15 0 6 0;
#X connect 16 0 2 0;
#X connect 18 0 45 0;
#X connect 18 0 43 1;
#X connect 18 0 44 1;
#X connect 18 4 6 0;
#X connect 19 0 14 0;
#X connect 19 1 15 0;
#X connect 20 0 23 0;
#X connect 21 0 23 1;
#X connect 22 0 24 0;
#X connect 23 0 22 0;
#X connect 23 1 22 1;
#X connect 24 0 49 0;
#X connect 25 0 24 1;
#X connect 26 0 25 0;
#X connect 27 0 36 0;
#X connect 27 0 41 0;
#X connect 27 0 46 1;
#X connect 27 0 50 0;
#X connect 28 0 29 0;
#X connect 28 1 25 0;
#X connect 28 2 27 0;
#X connect 29 0 24 0;
#X connect 30 0 49 1;
#X connect 30 0 50 1;
#X connect 31 0 6 0;
#X connect 32 0 37 0;
#X connect 32 1 38 0;
#X connect 33 0 34 0;
#X connect 34 0 32 0;
#X connect 35 0 36 1;
#X connect 36 0 33 0;
#X connect 37 0 39 0;
#X connect 38 0 39 0;
#X connect 39 0 40 0;
#X connect 40 0 6 0;
#X connect 42 0 19 1;
#X connect 42 1 19 2;
#X connect 42 2 16 1;
#X connect 42 3 3 0;
#X connect 42 4 46 0;
#X connect 42 5 31 0;
#X connect 42 6 35 0;
#X connect 42 7 30 0;
#X connect 42 8 47 0;
#X connect 42 9 18 0;
#X connect 43 0 21 0;
#X connect 44 0 20 0;
#X connect 45 0 6 0;
#X connect 46 0 28 0;
#X connect 47 0 48 0;
#X connect 48 0 46 0;
#X connect 48 1 39 1;
#X connect 49 0 27 0;
#X connect 50 0 25 1;
