#N canvas 0 22 473 692 10;
#X obj 89 132 t b b;
#X obj 89 155 list append \$1 \$2 \$3 \$4 \$5 \$6 \$7 \$8 \$9 \$10
\$11 \$12 \$13 \$14 \$15 \$16 \$17 \$18 \$19 \$20 \$21 \$22 \$23 \$24
\$25 \$26 \$27 \$28 \$29 \$30;
#X msg 89 204 \$1 \$2 \, \$3 \$4 \, \$5 \$6 \, \$7 \$8 \, \$9 \$10
\, \$11 \$12 \, \$13 \$14 \, \$15 \$16 \, \$17 \$18 \, \$19 \$20 \,
\$21 \$22 \, \$23 \$24 \, \$25 \$26 \, \$27 \$28 \, \$29 \$30;
#X obj 141 287 t b;
#X obj 88 22 inlet property;
#X obj 61 110 t b b;
#X obj 88 653 outlet;
#X obj 176 287 t b f;
#X msg 6 470 w \$1;
#X msg 42 470 h \$1;
#X msg 186 469 w \$1;
#X msg 222 469 h \$1;
#X obj 61 581 tgl 15 0 empty empty empty 17 7 0 10 -262144 -1 -1 0
1;
#X msg 261 468 v \$1;
#X obj 88 564 t b;
#X obj 61 629 t f f;
#X obj 186 371 -;
#X obj 222 371 -;
#X obj 61 606 change -1;
#X obj 261 371 f;
#X obj 261 340 sel 1;
#X msg 149 376 v \$1;
#X obj 290 432 spigot 1;
#X obj 88 537 spigot 1;
#N canvas 23 344 450 300 primitives 0;
#X obj 140 109 inlet;
#X obj 145 277 outlet;
#X obj 196 279 outlet;
#X obj 247 279 outlet;
#X obj 300 108 inlet;
#X obj 223 0 p.rectangle v 0;
#X obj 223 170 p.rectangle f 0;
#X connect 0 0 6 0;
#X connect 4 0 5 0;
#X connect 6 0 1 0;
#X connect 6 1 2 0;
#X connect 6 2 3 0;
#X restore 88 511 pd primitives;
#X obj 247 287 route v f d;
#X obj 88 258 route x y p reset i o w h s;
#X obj 61 42 r g.dimension;
#X obj 61 67 spigot 1;
#X msg 116 67 0;
#X obj 148 42 r g.newdimension;
#X obj 61 89 route 1;
#X obj 148 89 sel 1;
#X obj 148 67 r g.zloadbang;
#X msg 88 470 x \$1;
#X msg 128 470 y \$1;
#N canvas 284 221 460 444 p 0;
#X obj 55 193 textfile;
#X obj 124 193 symbol;
#X obj 55 103 t b a;
#X obj 192 280 textfile;
#X obj 55 365 list append 0 0 0 0 0 0 0 0 0 0 0 0 0 0 0 0 0 0 0 0 0
0 0 0 0 0 0 0 0 0;
#X obj 192 308 list split 1;
#X obj 55 406 outlet;
#X obj 11 10 inlet;
#X obj 55 10 inlet;
#X obj 55 225 route symbol;
#X msg 124 252 bang;
#X obj 11 43 t b b;
#X obj 55 132 symbol;
#X msg 55 162 read \$1 \, rewind \, bang;
#X msg 192 252 read \$1 \, rewind \, bang;
#X obj 192 225 symbol;
#X msg 225 115 symbol text/g.toggle.txt;
#X connect 0 0 9 0;
#X connect 1 0 9 1;
#X connect 2 0 12 0;
#X connect 2 1 1 0;
#X connect 3 0 5 0;
#X connect 4 0 6 0;
#X connect 5 1 4 0;
#X connect 7 0 11 0;
#X connect 8 0 2 0;
#X connect 9 0 4 0;
#X connect 9 1 10 0;
#X connect 10 0 0 0;
#X connect 11 0 15 0;
#X connect 11 1 16 0;
#X connect 12 0 13 0;
#X connect 13 0 0 0;
#X connect 14 0 3 0;
#X connect 15 0 14 0;
#X connect 16 0 12 1;
#X connect 16 0 15 1;
#X restore 102 287 pd p;
#X obj 0 0 cnv 20 20 20 \$0-xypos \$0-getpos pos 2 10 0 10 -228856
-66577 0;
#X obj 88 432 p.pos g.toggle \$0;
#X connect 0 0 1 0;
#X connect 0 1 36 0;
#X connect 1 0 2 0;
#X connect 2 0 26 0;
#X connect 3 0 0 0;
#X connect 4 0 26 0;
#X connect 5 0 29 0;
#X connect 5 0 38 0;
#X connect 5 1 0 0;
#X connect 7 0 16 0;
#X connect 7 0 17 0;
#X connect 7 1 16 1;
#X connect 7 1 17 1;
#X connect 8 0 24 0;
#X connect 9 0 24 0;
#X connect 10 0 24 1;
#X connect 11 0 24 1;
#X connect 12 0 18 0;
#X connect 13 0 24 1;
#X connect 14 0 12 0;
#X connect 15 0 19 1;
#X connect 15 0 22 0;
#X connect 15 1 6 0;
#X connect 16 0 10 0;
#X connect 17 0 11 0;
#X connect 18 0 15 0;
#X connect 19 0 13 0;
#X connect 20 0 19 0;
#X connect 20 1 13 0;
#X connect 21 0 24 0;
#X connect 22 0 13 0;
#X connect 23 0 14 0;
#X connect 24 0 23 0;
#X connect 25 0 22 1;
#X connect 25 0 20 0;
#X connect 25 0 21 0;
#X connect 25 0 23 1;
#X connect 25 3 24 0;
#X connect 25 3 24 1;
#X connect 26 0 38 1;
#X connect 26 1 38 2;
#X connect 26 2 36 1;
#X connect 26 3 3 0;
#X connect 26 4 12 0;
#X connect 26 4 19 1;
#X connect 26 5 7 0;
#X connect 26 6 8 0;
#X connect 26 6 16 0;
#X connect 26 7 9 0;
#X connect 26 7 17 0;
#X connect 26 8 8 0;
#X connect 26 8 9 0;
#X connect 26 8 16 0;
#X connect 26 8 17 0;
#X connect 26 9 25 0;
#X connect 27 0 28 0;
#X connect 28 0 31 0;
#X connect 29 0 28 1;
#X connect 30 0 28 1;
#X connect 31 0 5 0;
#X connect 32 0 1 0;
#X connect 33 0 32 0;
#X connect 34 0 24 0;
#X connect 34 0 24 1;
#X connect 35 0 24 0;
#X connect 35 0 24 1;
#X connect 36 0 2 0;
#X connect 38 0 34 0;
#X connect 38 1 35 0;
