#N canvas 0 22 634 793 10;
#X obj 59 132 t b b;
#X obj 59 155 list append \$1 \$2 \$3 \$4 \$5 \$6 \$7 \$8 \$9 \$10
\$11 \$12 \$13 \$14 \$15 \$16 \$17 \$18 \$19 \$20 \$21 \$22 \$23 \$24
\$25 \$26 \$27 \$28 \$29 \$30;
#X msg 59 204 \$1 \$2 \, \$3 \$4 \, \$5 \$6 \, \$7 \$8 \, \$9 \$10
\, \$11 \$12 \, \$13 \$14 \, \$15 \$16 \, \$17 \$18 \, \$19 \$20 \,
\$21 \$22 \, \$23 \$24 \, \$25 \$26 \, \$27 \$28 \, \$29 \$30;
#X obj 113 284 t b;
#X obj 59 21 inlet property;
#X obj 32 110 t b b;
#X obj 20 539 spigot 1;
#X obj 80 540 spigot 1;
#X msg 197 358 s \$1;
#X obj 349 532 -;
#X msg 125 359 w \$1;
#X msg 161 358 h \$1;
#X msg 350 658 x \$1;
#X obj 364 506 / 2;
#X obj 421 507 / 2;
#X msg 407 658 y \$1;
#X obj 406 533 +;
#X obj 350 567 +;
#X obj 418 468 t b f;
#X obj 407 567 -;
#X obj 418 445 / 2;
#X obj 350 627 +;
#X obj 407 628 +;
#X obj 512 430 -;
#X obj 565 434 -;
#X obj 497 459 *;
#X obj 550 459 *;
#X obj 550 484 * -1;
#X obj 80 569 spigot;
#X msg 148 549 1;
#X msg 145 570 0;
#X obj 365 599 t b f;
#X obj 427 598 t b f;
#X obj 20 567 t l b;
#X obj 20 631 -;
#X obj 20 598 unpack f f;
#X obj 77 631 -;
#X obj 77 664 clip;
#X obj 20 663 clip;
#X obj 134 646 * -1;
#X obj 550 375 clip 0 1;
#X obj 497 375 clip 0 1;
#X obj 20 687 /;
#X obj 77 689 /;
#X obj 20 753 outlet x;
#X obj 80 753 outlet y;
#X obj 20 723 change -1;
#X obj 80 723 change -1;
#X msg 138 596 set -1;
#X obj 59 255 route x y p reset t w h s ix iy;
#X obj 242 284 route v f d;
#X obj 179 753 f;
#X obj 206 753 f;
#X obj 353 320 t b f;
#X obj 501 330 t b f;
#X obj 541 330 t b b f;
#N canvas 90 309 542 452 primitives 0;
#X obj 140 109 inlet;
#X obj 145 277 outlet;
#X obj 196 279 outlet;
#X obj 247 279 outlet;
#X obj 300 108 inlet;
#X obj -66 66 p.circle;
#X obj 0 0 p.rectangle f 0;
#X connect 0 0 6 0;
#X connect 4 0 5 0;
#X connect 6 0 1 0;
#X connect 6 1 2 0;
#X connect 6 2 3 0;
#X restore 58 506 pd primitives;
#X msg 233 358 v \$1;
#X obj 32 42 r g.dimension;
#X obj 32 67 spigot 1;
#X msg 87 67 0;
#X obj 119 42 r g.newdimension;
#X obj 32 89 route 1;
#X obj 119 89 sel 1;
#X obj 119 67 r g.zloadbang;
#X msg 58 471 x \$1;
#X msg 98 471 y \$1;
#N canvas 284 221 460 444 p 0;
#X obj 55 193 textfile;
#X obj 124 193 symbol;
#X obj 55 103 t b a;
#X obj 192 280 textfile;
#X obj 55 365 list append 0 0 0 0 0 0 0 0 0 0 0 0 0 0 0 0 0 0 0 0 0
0 0 0 0 0 0 0 0 0;
#X obj 192 308 list split 1;
#X obj 55 406 outlet;
#X obj 11 10 inlet;
#X obj 55 10 inlet;
#X obj 55 225 route symbol;
#X msg 124 252 bang;
#X obj 11 43 t b b;
#X obj 55 132 symbol;
#X msg 55 162 read \$1 \, rewind \, bang;
#X msg 192 252 read \$1 \, rewind \, bang;
#X obj 192 225 symbol;
#X msg 225 115 symbol text/g.xypad.txt;
#X connect 0 0 9 0;
#X connect 1 0 9 1;
#X connect 2 0 12 0;
#X connect 2 1 1 0;
#X connect 3 0 5 0;
#X connect 4 0 6 0;
#X connect 5 1 4 0;
#X connect 7 0 11 0;
#X connect 8 0 2 0;
#X connect 9 0 4 0;
#X connect 9 1 10 0;
#X connect 10 0 0 0;
#X connect 11 0 15 0;
#X connect 11 1 16 0;
#X connect 12 0 13 0;
#X connect 13 0 0 0;
#X connect 14 0 3 0;
#X connect 15 0 14 0;
#X connect 16 0 12 1;
#X connect 16 0 15 1;
#X restore 74 283 pd p;
#X obj 0 0 cnv 20 20 20 \$0-xypos \$0-getpos pos 2 10 0 10 -228856
-66577 0;
#X obj 58 432 p.pos g.xypad \$0;
#X connect 0 0 1 0;
#X connect 0 1 67 0;
#X connect 1 0 2 0;
#X connect 2 0 49 0;
#X connect 3 0 0 0;
#X connect 4 0 49 0;
#X connect 5 0 60 0;
#X connect 5 0 69 0;
#X connect 5 1 0 0;
#X connect 6 0 33 0;
#X connect 7 0 28 0;
#X connect 8 0 56 1;
#X connect 9 0 17 0;
#X connect 10 0 56 0;
#X connect 11 0 56 0;
#X connect 12 0 56 1;
#X connect 13 0 9 1;
#X connect 14 0 16 1;
#X connect 15 0 56 1;
#X connect 16 0 19 0;
#X connect 17 0 21 0;
#X connect 17 0 34 1;
#X connect 18 0 17 0;
#X connect 18 0 19 0;
#X connect 18 1 17 1;
#X connect 18 1 19 1;
#X connect 19 0 22 0;
#X connect 19 0 36 1;
#X connect 20 0 18 0;
#X connect 21 0 12 0;
#X connect 22 0 15 0;
#X connect 23 0 25 1;
#X connect 23 0 38 2;
#X connect 23 0 42 1;
#X connect 24 0 26 1;
#X connect 24 0 39 0;
#X connect 25 0 31 0;
#X connect 26 0 27 0;
#X connect 27 0 32 0;
#X connect 28 0 35 0;
#X connect 29 0 28 1;
#X connect 30 0 28 1;
#X connect 31 0 21 0;
#X connect 31 1 21 1;
#X connect 32 0 22 0;
#X connect 32 1 22 1;
#X connect 33 0 35 0;
#X connect 33 1 29 0;
#X connect 34 0 38 0;
#X connect 35 0 34 0;
#X connect 35 1 36 0;
#X connect 36 0 37 0;
#X connect 37 0 32 0;
#X connect 37 0 43 0;
#X connect 38 0 31 0;
#X connect 38 0 42 0;
#X connect 39 0 37 1;
#X connect 39 0 43 1;
#X connect 40 0 26 0;
#X connect 40 0 47 0;
#X connect 41 0 25 0;
#X connect 41 0 46 0;
#X connect 42 0 46 0;
#X connect 43 0 47 0;
#X connect 46 0 44 0;
#X connect 46 0 51 1;
#X connect 47 0 45 0;
#X connect 47 0 52 1;
#X connect 48 0 46 0;
#X connect 48 0 47 0;
#X connect 49 0 69 1;
#X connect 49 1 69 2;
#X connect 49 2 67 1;
#X connect 49 3 3 0;
#X connect 49 4 8 0;
#X connect 49 4 20 0;
#X connect 49 4 55 0;
#X connect 49 5 10 0;
#X connect 49 5 13 0;
#X connect 49 5 53 0;
#X connect 49 6 11 0;
#X connect 49 6 14 0;
#X connect 49 6 54 0;
#X connect 49 7 10 0;
#X connect 49 7 11 0;
#X connect 49 7 13 0;
#X connect 49 7 14 0;
#X connect 49 7 53 0;
#X connect 49 7 54 0;
#X connect 49 8 41 0;
#X connect 49 9 40 0;
#X connect 49 10 50 0;
#X connect 50 0 6 1;
#X connect 50 0 7 1;
#X connect 50 0 57 0;
#X connect 50 3 56 0;
#X connect 50 3 56 1;
#X connect 51 0 41 0;
#X connect 52 0 40 0;
#X connect 53 0 51 0;
#X connect 53 0 52 0;
#X connect 53 1 23 0;
#X connect 54 0 51 0;
#X connect 54 0 52 0;
#X connect 54 1 24 0;
#X connect 55 0 51 0;
#X connect 55 0 52 0;
#X connect 55 1 24 0;
#X connect 55 1 23 0;
#X connect 55 2 24 1;
#X connect 55 2 23 1;
#X connect 56 0 6 0;
#X connect 56 1 7 0;
#X connect 56 2 30 0;
#X connect 56 2 48 0;
#X connect 57 0 56 0;
#X connect 57 0 56 1;
#X connect 58 0 59 0;
#X connect 59 0 62 0;
#X connect 60 0 59 1;
#X connect 61 0 59 1;
#X connect 62 0 5 0;
#X connect 63 0 1 0;
#X connect 64 0 63 0;
#X connect 65 0 56 0;
#X connect 66 0 56 0;
#X connect 67 0 2 0;
#X connect 69 0 65 0;
#X connect 69 0 9 0;
#X connect 69 1 16 0;
#X connect 69 1 66 0;
