#N canvas 3 23 736 525 10;
#X obj 117 -5 gl/ext/gem/load;
#X obj 62 -5 loadbang;
#X obj 411 203 list split 1;
#X msg 98 351 dimen \$1 \$2;
#X msg 375 351 destroy;
#X msg 319 351 FSAA \$1;
#X msg 431 351 create \, 1;
#X obj 37 278 list;
#X obj 13 17 inlet;
#X msg 256 351 title \$1;
#X obj 256 327 symbol;
#X obj 372 182 route 0;
#X msg 93 107 \$1 \$2 \, \$3 \$4 \, \$5 \$6 \, \$7 \$8 \, \$9 \$10
\, \$11 \$12 \, \$13 \$14 \, \$15 \$16 \, \$17 \$18 \, \$19 \$20;
#X obj 93 67 list append \$1 \$2 \$3 \$4 \$5 \$6 \$7 \$8 \$9 \$10 \$11
\$12 \$13 \$14 \$15 \$16 \$17 \$18 \$19 \$20;
#N canvas 158 42 511 567 colorRGB 0;
#X msg 179 337 color \$1 \$2 \$3;
#X obj 179 311 pack f f f;
#X obj 179 285 / 255;
#X obj 218 285 / 255;
#X obj 257 285 / 255;
#X obj 179 258 unpack f f f;
#X obj 179 83 route list;
#X obj 179 362 outlet gemwin;
#X obj 95 28 inlet color;
#X obj 179 28 inlet R;
#X obj 234 28 inlet G;
#X obj 285 28 inlet B;
#X obj 20 29 inlet bang;
#X obj 236 172 textfile;
#X obj 305 188 symbol;
#X obj 236 210 route symbol;
#X obj 236 121 t b a;
#X msg 305 233 bang;
#X msg 236 148 read text/color.txt \, rewind \, bang;
#X obj 91 337 pack f f f;
#X obj 91 311 f;
#X obj 316 483 gl/ext/tof/getdollarzero root;
#X msg 289 411 1;
#X obj 289 434 change;
#X obj 289 388 r help.file.mode;
#X msg 316 507 set \$1-help.file.bgc;
#X obj 289 458 t b b;
#X obj 91 531 gl/ext/iemlib/iem_s \$0-help.file.bgc.i;
#X connect 0 0 7 0;
#X connect 1 0 0 0;
#X connect 2 0 1 0;
#X connect 3 0 1 1;
#X connect 4 0 1 2;
#X connect 5 0 2 0;
#X connect 5 0 20 1;
#X connect 5 1 3 0;
#X connect 5 1 19 1;
#X connect 5 2 4 0;
#X connect 5 2 19 2;
#X connect 6 0 5 0;
#X connect 6 1 16 0;
#X connect 8 0 6 0;
#X connect 9 0 2 0;
#X connect 9 0 20 1;
#X connect 10 0 3 0;
#X connect 10 0 19 1;
#X connect 11 0 4 0;
#X connect 11 0 19 2;
#X connect 12 0 1 0;
#X connect 12 0 20 0;
#X connect 13 0 15 0;
#X connect 14 0 15 1;
#X connect 15 0 5 0;
#X connect 15 1 17 0;
#X connect 16 0 18 0;
#X connect 16 1 14 0;
#X connect 17 0 13 0;
#X connect 18 0 13 0;
#X connect 19 0 27 0;
#X connect 20 0 19 0;
#X connect 21 0 25 0;
#X connect 22 0 23 0;
#X connect 23 0 26 0;
#X connect 24 0 22 0;
#X connect 25 0 27 1;
#X connect 26 0 20 0;
#X connect 26 1 21 0;
#X restore 177 351 pd colorRGB;
#X obj 280 182 t f;
#X obj 255 182 t f;
#X obj 230 182 t a;
#X obj 205 182 t f;
#X obj 180 182 t f;
#X obj 155 182 t f;
#X obj 131 182 t a;
#X obj 37 255 r g.getdimension;
#X obj 37 472 s g.dimension;
#N canvas 782 343 604 334 touches 0;
#X obj 77 -23 gemmouse;
#X obj 127 144 spigot;
#X obj 171 144 spigot;
#X obj 58 144 f;
#X obj 85 144 f;
#X obj 133 28 sel 1;
#X obj 58 112 t b b;
#X obj 18 271 s g.touchdown.x;
#X obj 114 271 s g.touchdown.y;
#X obj 210 271 s g.touchmoved.x;
#X obj 313 271 s g.touchmoved.y;
#X obj 220 145 f;
#X obj 247 145 f;
#X obj 220 113 t b b;
#X obj 416 271 s g.touchup.x;
#X obj 501 271 s g.touchup.y;
#X obj 99 3 t f f f b;
#X msg 178 27 0;
#X obj 178 51 s g.touch.id;
#X obj 495 158 r g.scaleratio;
#X obj 58 175 / 1;
#X obj 85 175 / 1;
#X obj 127 175 / 1;
#X obj 171 175 / 1;
#X obj 220 175 / 1;
#X obj 247 175 / 1;
#X connect 0 0 1 0;
#X connect 0 0 3 1;
#X connect 0 0 11 1;
#X connect 0 1 2 0;
#X connect 0 1 4 1;
#X connect 0 1 12 1;
#X connect 0 2 16 0;
#X connect 1 0 22 0;
#X connect 2 0 23 0;
#X connect 3 0 20 0;
#X connect 4 0 21 0;
#X connect 5 0 6 0;
#X connect 5 1 13 0;
#X connect 6 0 3 0;
#X connect 6 1 4 0;
#X connect 11 0 24 0;
#X connect 12 0 25 0;
#X connect 13 0 11 0;
#X connect 13 1 12 0;
#X connect 16 0 1 1;
#X connect 16 1 2 1;
#X connect 16 2 5 0;
#X connect 16 3 17 0;
#X connect 17 0 18 0;
#X connect 19 0 20 1;
#X connect 19 0 21 1;
#X connect 19 0 22 1;
#X connect 19 0 23 1;
#X connect 19 0 24 1;
#X connect 19 0 25 1;
#X connect 20 0 7 0;
#X connect 21 0 8 0;
#X connect 22 0 9 0;
#X connect 23 0 10 0;
#X connect 24 0 14 0;
#X connect 25 0 15 0;
#X restore 575 268 pd touches;
#X obj 256 385 gemwin 60;
#X obj 431 327 spigot 1;
#X obj 13 40 t b a;
#N canvas 216 216 625 131 touchscreen 0;
#X obj 49 82 outlet touchdown;
#X obj 230 82 outlet touchmoved;
#X obj 441 82 outlet touchup;
#X obj 24 19 r g.touchdown.x;
#X obj 122 19 r g.touchdown.y;
#X obj 221 19 r g.touchmoved.x;
#X obj 323 19 r g.touchmoved.y;
#X obj 425 19 r g.touchup.x;
#X obj 509 19 r g.touchup.y;
#X obj 49 57 pack f f;
#X obj 230 58 pack f f;
#X obj 441 58 pack f f;
#X connect 3 0 9 0;
#X connect 4 0 9 1;
#X connect 5 0 10 0;
#X connect 6 0 10 1;
#X connect 7 0 11 0;
#X connect 8 0 11 1;
#X connect 9 0 0 0;
#X connect 10 0 1 0;
#X connect 11 0 2 0;
#X restore 256 428 pd touchscreen;
#X obj 194 472 outlet touchdown;
#X obj 296 472 outlet touchmoved;
#X obj 404 472 outlet touchup;
#X obj 37 428 f;
#X obj 66 428 + 1;
#X msg 64 385 0;
#X msg 37 385 10;
#X obj 37 406 until;
#X obj 37 450 list append;
#X msg 147 278 1;
#X obj 147 302 change;
#X obj 147 327 s g.newdimension;
#X msg 104 278 set 0;
#N canvas 43 77 624 474 d 0;
#X obj 128 20 inlet;
#X msg 179 108 The device '\$1' does not exist;
#X obj 179 132 print Error;
#X obj 233 19 inlet;
#X obj 128 186 list prepend;
#X obj 128 207 route 0 1;
#X obj 166 233 swap;
#X obj 93 233 unpack f f;
#X obj 146 157 list;
#X obj 233 49 t b f;
#X obj 308 19 inlet;
#X obj 160 378 *;
#X obj 210 378 *;
#X obj 160 427 outlet;
#X obj 249 187 / 100;
#X obj 249 214 t b b f;
#X obj 502 327 outlet;
#X obj 382 327 outlet;
#X obj 382 214 sel 0 1;
#X msg 382 252 symbol Landscape;
#X msg 401 275 symbol Portrait;
#X msg 502 252 symbol iPad;
#X msg 514 275 symbol iPhone;
#X obj 288 427 outlet;
#X obj 160 402 pack f f;
#X obj 65 427 outlet;
#X obj 65 402 pack f f;
#X obj 93 260 t f f;
#X obj 130 260 t f f;
#X obj 166 260 t f f;
#X obj 203 260 t f f;
#X obj 260 76 != 0;
#N canvas 243 275 450 300 device 0;
#X obj 87 24 inlet;
#X obj 87 215 outlet;
#X obj 87 59 symbol;
#X msg 87 137 1024 768;
#X msg 202 137 568 320;
#X obj 87 93 sel ipad IPAD iPad iphone IPHONE iPhone;
#X obj 202 215 outlet;
#X obj 318 215 outlet;
#X connect 0 0 2 0;
#X connect 2 0 5 0;
#X connect 3 0 1 0;
#X connect 4 0 6 0;
#X connect 5 0 3 0;
#X connect 5 1 3 0;
#X connect 5 2 3 0;
#X connect 5 3 4 0;
#X connect 5 4 4 0;
#X connect 5 5 4 0;
#X connect 5 6 7 0;
#X restore 128 49 pd device;
#X connect 0 0 32 0;
#X connect 1 0 2 0;
#X connect 3 0 9 0;
#X connect 4 0 5 0;
#X connect 5 0 7 0;
#X connect 5 1 6 0;
#X connect 6 0 29 0;
#X connect 6 1 30 0;
#X connect 7 0 27 0;
#X connect 7 1 28 0;
#X connect 8 0 4 0;
#X connect 9 0 8 0;
#X connect 9 1 31 0;
#X connect 10 0 14 0;
#X connect 11 0 24 0;
#X connect 12 0 24 1;
#X connect 14 0 15 0;
#X connect 15 0 11 0;
#X connect 15 1 12 0;
#X connect 15 2 11 1;
#X connect 15 2 12 1;
#X connect 15 2 23 0;
#X connect 18 0 19 0;
#X connect 18 1 20 0;
#X connect 19 0 17 0;
#X connect 20 0 17 0;
#X connect 21 0 16 0;
#X connect 22 0 16 0;
#X connect 24 0 13 0;
#X connect 26 0 25 0;
#X connect 27 0 26 0;
#X connect 27 1 11 0;
#X connect 28 0 26 1;
#X connect 28 1 12 0;
#X connect 29 0 26 0;
#X connect 29 1 11 0;
#X connect 30 0 26 1;
#X connect 30 1 12 0;
#X connect 31 0 4 1;
#X connect 31 0 18 0;
#X connect 32 0 21 0;
#X connect 32 0 4 0;
#X connect 32 0 8 1;
#X connect 32 1 4 0;
#X connect 32 1 8 1;
#X connect 32 1 22 0;
#X connect 32 2 1 0;
#X restore 76 182 pd d o s;
#N canvas 95 225 682 334 print 0;
#X obj 571 15 inlet;
#X obj 538 239 symbol;
#X obj 20 14 inlet;
#X obj 461 15 inlet;
#X obj 428 239 symbol;
#X obj 223 15 inlet;
#X obj 339 15 inlet;
#X msg 428 271 \$1;
#X obj 428 299 print Orientation;
#X obj 538 299 print Device;
#X obj 318 299 print Resolution;
#X msg 538 271 \$1;
#X obj 113 15 inlet;
#X obj 113 163 sel 0;
#X obj 80 299 print Rotation Lock;
#X obj 80 239 symbol;
#X msg 113 187 symbol Off;
#X msg 140 207 symbol On;
#X msg 80 271 \$1;
#X msg 318 271 \$1 x \$2 pixels;
#X msg 208 271 \$1% of original;
#X obj 208 239 f;
#X obj 223 207 * 100;
#X obj 318 239 list;
#X obj 20 38 t b b b b b;
#X obj 208 299 print Ratio;
#X obj 620 15 inlet;
#X obj 620 146 t b f;
#X connect 0 0 1 1;
#X connect 1 0 11 0;
#X connect 2 0 24 0;
#X connect 3 0 4 1;
#X connect 4 0 7 0;
#X connect 5 0 22 0;
#X connect 6 0 23 1;
#X connect 7 0 8 0;
#X connect 11 0 9 0;
#X connect 12 0 13 0;
#X connect 13 0 16 0;
#X connect 13 1 17 0;
#X connect 15 0 18 0;
#X connect 16 0 15 1;
#X connect 17 0 15 1;
#X connect 18 0 14 0;
#X connect 19 0 10 0;
#X connect 20 0 25 0;
#X connect 21 0 20 0;
#X connect 22 0 21 1;
#X connect 23 0 19 0;
#X connect 24 0 15 0;
#X connect 24 1 21 0;
#X connect 24 2 23 0;
#X connect 24 3 4 0;
#X connect 24 4 1 0;
#X connect 26 0 27 0;
#X connect 27 0 15 0;
#X connect 27 1 13 0;
#X restore 105 385 pd print;
#N canvas 253 214 460 444 p 0;
#X obj 55 193 textfile;
#X obj 124 193 symbol;
#X obj 55 103 t b a;
#X obj 192 280 textfile;
#X obj 192 308 list split 1;
#X obj 55 406 outlet;
#X obj 11 10 inlet;
#X obj 55 10 inlet;
#X obj 55 225 route symbol;
#X msg 124 252 bang;
#X obj 11 43 t b b;
#X obj 55 132 symbol;
#X msg 55 162 read \$1 \, rewind \, bang;
#X msg 192 252 read \$1 \, rewind \, bang;
#X obj 192 225 symbol;
#X obj 55 365 list append 0 0 0 0 0 0 0 0 0 0 0 0 0 0 0 0 0 0 0 0;
#X msg 225 115 symbol text/p.display.txt;
#X connect 0 0 8 0;
#X connect 1 0 8 1;
#X connect 2 0 11 0;
#X connect 2 1 1 0;
#X connect 3 0 4 0;
#X connect 4 1 15 0;
#X connect 6 0 10 0;
#X connect 7 0 2 0;
#X connect 8 0 15 0;
#X connect 8 1 9 0;
#X connect 9 0 0 0;
#X connect 10 0 14 0;
#X connect 10 1 16 0;
#X connect 11 0 12 0;
#X connect 12 0 0 0;
#X connect 13 0 3 0;
#X connect 14 0 13 0;
#X connect 15 0 5 0;
#X connect 16 0 11 1;
#X connect 16 0 14 1;
#X restore 305 182 pd p;
#X obj 37 351 t b b l b;
#X obj 146 428 s g.scaleratio;
#X obj 146 406 f 1;
#N canvas 26 36 656 556 back 0;
#X obj 179 140 gemhead 101;
#N canvas 524 236 623 517 translate 0;
#X obj 68 48 inlet gemlist;
#X obj 270 427 outlet gemlist;
#X obj 295 370 /;
#X obj 339 272 t b f;
#X obj 359 157 unpack f f;
#X obj 360 204 / 2;
#X obj 339 228 swap;
#X obj 339 251 -;
#X obj 295 174 t f f;
#X msg 295 345 8 \$1;
#X obj 308 228 -;
#X obj 323 205 / 2;
#X obj 270 396 translate;
#X obj 321 305 pack f f 0;
#X obj 243 115 -;
#X obj 454 48 inlet offest;
#X obj 243 48 inlet original;
#X obj 359 48 inlet dimen;
#X obj 300 115 f;
#X obj 243 77 t f b;
#X obj 228 145 *;
#X obj 285 145 *;
#X obj 162 48 inlet scale;
#X connect 0 0 12 0;
#X connect 2 0 12 1;
#X connect 3 0 13 0;
#X connect 3 1 13 1;
#X connect 4 0 11 0;
#X connect 4 1 8 0;
#X connect 5 0 6 1;
#X connect 6 0 7 0;
#X connect 6 1 7 1;
#X connect 7 0 3 0;
#X connect 8 0 9 0;
#X connect 8 1 5 0;
#X connect 9 0 2 0;
#X connect 10 0 13 0;
#X connect 11 0 10 1;
#X connect 12 0 1 0;
#X connect 13 0 12 2;
#X connect 14 0 20 1;
#X connect 15 0 14 1;
#X connect 15 0 18 1;
#X connect 16 0 19 0;
#X connect 17 0 4 0;
#X connect 18 0 21 1;
#X connect 19 0 14 0;
#X connect 19 1 18 0;
#X connect 20 0 10 0;
#X connect 21 0 6 0;
#X connect 22 0 20 0;
#X connect 22 0 21 0;
#X restore 179 169 pd translate;
#X obj 179 195 pix_image image/gemma.png;
#N canvas 533 289 446 285 resize 0;
#X obj 218 181 pix_resize;
#X obj 37 22 inlet gemlist;
#X obj 218 216 outlet;
#X msg 218 154 dimen \$1 \$1;
#X obj 233 22 inlet size;
#X obj 218 127 *;
#X obj 144 22 inlet scale;
#X connect 0 0 2 0;
#X connect 1 0 0 0;
#X connect 3 0 0 0;
#X connect 4 0 5 1;
#X connect 5 0 3 0;
#X connect 6 0 5 0;
#X restore 179 222 pd resize;
#N canvas 372 59 529 441 colorRGBA 0;
#X obj 212 325 colorRGB;
#X obj 223 297 / 255;
#X obj 263 297 / 255;
#X obj 303 297 / 255;
#X obj 343 297 / 255;
#X obj 65 36 inlet gemlist;
#X obj 212 398 outlet gemlist;
#X obj 212 363 alpha;
#X obj 223 272 unpack f f f f;
#X obj 223 36 inlet rgba;
#X connect 0 0 7 0;
#X connect 1 0 0 1;
#X connect 2 0 0 2;
#X connect 3 0 0 3;
#X connect 4 0 0 4;
#X connect 5 0 0 0;
#X connect 7 0 6 0;
#X connect 8 0 1 0;
#X connect 8 1 2 0;
#X connect 8 2 3 0;
#X connect 8 3 4 0;
#X connect 9 0 8 0;
#X restore 179 277 pd colorRGBA;
#N canvas 244 326 565 376 rectangle 0;
#X obj 240 271 rectangle;
#X obj 48 98 inlet gemlist;
#X obj 280 98 inlet dimension;
#X obj 280 151 /;
#X msg 280 126 4 \$2;
#X obj 265 234 t f f;
#X obj 425 98 inlet size;
#X obj 265 208 *;
#X obj 265 179 *;
#X obj 165 98 inlet scale;
#X connect 1 0 0 0;
#X connect 2 0 4 0;
#X connect 3 0 8 1;
#X connect 4 0 3 0;
#X connect 5 0 0 1;
#X connect 5 1 0 2;
#X connect 6 0 7 1;
#X connect 7 0 5 0;
#X connect 8 0 7 0;
#X connect 9 0 8 0;
#X restore 179 305 pd rectangle;
#X obj 179 249 pix_texture;
#X obj 349 48 inlet dimen;
#X obj 253 48 inlet original;
#X msg 440 75 30 40;
#X obj 440 97 unpack f f;
#X text 483 75 offset \, size;
#X msg 411 447 255 255 255 200;
#X msg 178 445 255 255 255 100;
#X obj 349 70 t l l;
#N canvas 596 265 516 516 touchdown 0;
#X obj 78 176 -;
#X obj 115 177 -;
#X obj 78 197 abs;
#X obj 115 198 abs;
#X obj 78 268 &&;
#X obj 196 90 * 0.5;
#X obj 115 244 <=;
#X obj 78 244 <=;
#X obj 93 57 inlet x;
#X obj 143 57 inlet y;
#X obj 78 120 t f f;
#X obj 174 134 t f f;
#X obj 78 293 pack f f f;
#X obj 42 19 r g.touchdown.x;
#X obj 174 19 r g.touchdown.y;
#X obj 256 391 outlet;
#X obj 271 19 r g.touch.id;
#X obj 256 152 f;
#X obj 78 390 outlet;
#X obj 78 320 route 1;
#X obj 78 350 t a b;
#X obj 196 57 inlet size;
#X connect 0 0 2 0;
#X connect 1 0 3 0;
#X connect 2 0 7 0;
#X connect 3 0 6 0;
#X connect 4 0 12 0;
#X connect 5 0 7 1;
#X connect 5 0 6 1;
#X connect 6 0 4 1;
#X connect 7 0 4 0;
#X connect 8 0 0 1;
#X connect 9 0 1 1;
#X connect 10 0 0 0;
#X connect 10 1 12 1;
#X connect 11 0 1 0;
#X connect 11 1 12 2;
#X connect 12 0 19 0;
#X connect 13 0 10 0;
#X connect 14 0 11 0;
#X connect 16 0 17 1;
#X connect 17 0 15 0;
#X connect 19 0 20 0;
#X connect 20 0 18 0;
#X connect 20 1 17 0;
#X connect 21 0 5 0;
#X restore 178 401 pd touchdown;
#N canvas 593 267 409 474 touchmoved 0;
#X obj 78 176 -;
#X obj 115 177 -;
#X obj 78 197 abs;
#X obj 115 198 abs;
#X obj 78 268 &&;
#X obj 196 84 * 0.5;
#X obj 115 244 <=;
#X obj 78 244 <=;
#X obj 93 57 inlet x;
#X obj 143 57 inlet y;
#X obj 78 135 t f f;
#X obj 181 135 t f f;
#X obj 78 313 pack f f f;
#X obj 112 449 outlet;
#X obj 5 37 r g.touchmoved.x;
#X obj 181 110 r g.touchmoved.y;
#X obj 285 110 r g.touch.id;
#X obj 78 337 list prepend;
#X obj 300 57 inlet id;
#X obj 78 385 list split 1;
#X obj 78 361 route -1;
#X obj 196 57 inlet size;
#X obj 78 289 t f f;
#X obj 112 427 f;
#X msg 112 406 bang;
#X connect 0 0 2 0;
#X connect 1 0 3 0;
#X connect 2 0 7 0;
#X connect 3 0 6 0;
#X connect 4 0 22 0;
#X connect 5 0 7 1;
#X connect 5 0 6 1;
#X connect 6 0 4 1;
#X connect 7 0 4 0;
#X connect 8 0 0 1;
#X connect 9 0 1 1;
#X connect 10 0 0 0;
#X connect 10 1 12 1;
#X connect 11 0 1 0;
#X connect 11 1 12 2;
#X connect 12 0 17 0;
#X connect 14 0 10 0;
#X connect 15 0 11 0;
#X connect 16 0 17 1;
#X connect 17 0 20 0;
#X connect 18 0 20 1;
#X connect 19 1 24 0;
#X connect 20 0 19 0;
#X connect 21 0 5 0;
#X connect 22 0 12 0;
#X connect 22 1 23 1;
#X connect 23 0 13 0;
#X connect 24 0 23 0;
#X restore 292 400 pd touchmoved;
#N canvas 732 253 424 462 touchup 0;
#X obj 78 176 -;
#X obj 115 177 -;
#X obj 78 197 abs;
#X obj 115 198 abs;
#X obj 78 268 &&;
#X obj 196 83 * 0.5;
#X obj 115 244 <=;
#X obj 78 244 <=;
#X obj 93 57 inlet x;
#X obj 143 57 inlet y;
#X obj 67 113 t f f;
#X obj 164 135 t f f;
#X obj 78 293 pack f f f;
#X obj 139 424 outlet;
#X obj 8 42 r g.touchup.x;
#X obj 164 110 r g.touchup.y;
#X obj 249 110 r g.touch.id;
#X obj 78 319 list prepend;
#X obj 300 57 inlet id;
#X obj 78 367 list split 1;
#X obj 112 387 t b a;
#X obj 230 424 outlet reset-id;
#X msg 112 407 -1;
#X obj 78 343 route -1;
#X obj 196 57 inlet size;
#X connect 0 0 2 0;
#X connect 1 0 3 0;
#X connect 2 0 7 0;
#X connect 3 0 6 0;
#X connect 4 0 12 0;
#X connect 5 0 7 1;
#X connect 5 0 6 1;
#X connect 6 0 4 1;
#X connect 7 0 4 0;
#X connect 8 0 0 1;
#X connect 9 0 1 1;
#X connect 10 0 0 0;
#X connect 10 1 12 1;
#X connect 11 0 1 0;
#X connect 11 1 12 2;
#X connect 12 0 17 0;
#X connect 14 0 10 0;
#X connect 15 0 11 0;
#X connect 16 0 17 1;
#X connect 17 0 23 0;
#X connect 18 0 23 1;
#X connect 19 1 20 0;
#X connect 20 0 22 0;
#X connect 20 1 13 0;
#X connect 22 0 21 0;
#X connect 22 0 23 1;
#X connect 23 0 19 0;
#X connect 24 0 5 0;
#X restore 411 399 pd touchup;
#X obj 292 305 -;
#X obj 349 305 f;
#X obj 292 267 t f b;
#X obj 440 120 t f f;
#X obj 253 70 t l l;
#X obj 497 120 t f f f b;
#X obj 440 48 inlet set;
#X obj 76 48 r g.scaleratio;
#X obj 76 70 t f f f;
#X obj 292 447 sel 1 0;
#X obj 292 423 change;
#X obj 366 447 f;
#X msg 214 426 1;
#X msg 366 424 bang;
#X obj 366 469 sel 1;
#X obj 366 492 f;
#X obj 411 469 r g.patchid;
#X obj 366 515 s g.closepatch;
#N canvas 354 274 331 324 help 0;
#X obj 59 106 gl/ext/tof/getdollarzero root;
#X obj 59 130 t b a;
#X obj 86 297 outlet;
#X msg 59 36 1;
#X obj 59 59 change;
#X msg 59 82 bang;
#X obj 59 14 r help.file.mode;
#X msg 170 167 set \$1-help.file.exist;
#X msg 86 222 set \$1-help.file.z;
#X obj 86 273 change;
#X obj 59 192 gl/ext/iemlib/iem_s;
#X obj 86 248 gl/ext/iemlib/iem_r \$0-help.file;
#X connect 0 0 1 0;
#X connect 1 0 10 0;
#X connect 1 1 7 0;
#X connect 1 1 8 0;
#X connect 3 0 4 0;
#X connect 4 0 5 0;
#X connect 5 0 0 0;
#X connect 6 0 3 0;
#X connect 7 0 10 1;
#X connect 8 0 11 0;
#X connect 9 0 2 0;
#X connect 11 0 9 0;
#X restore 179 70 pd help;
#X msg 179 116 set \$1;
#X obj 179 93 + 100;
#X connect 0 0 1 0;
#X connect 1 0 2 0;
#X connect 2 0 3 0;
#X connect 3 0 6 0;
#X connect 4 0 5 0;
#X connect 6 0 4 0;
#X connect 7 0 14 0;
#X connect 8 0 22 0;
#X connect 9 0 10 0;
#X connect 10 0 21 0;
#X connect 10 1 23 0;
#X connect 12 0 4 1;
#X connect 13 0 4 1;
#X connect 14 0 1 3;
#X connect 14 1 5 2;
#X connect 15 0 13 0;
#X connect 15 0 30 0;
#X connect 15 1 16 3;
#X connect 15 1 17 3;
#X connect 16 0 28 0;
#X connect 17 0 12 0;
#X connect 17 0 31 0;
#X connect 17 1 16 3;
#X connect 18 0 15 0;
#X connect 18 0 16 0;
#X connect 18 0 17 0;
#X connect 19 0 15 1;
#X connect 19 0 16 1;
#X connect 19 0 17 1;
#X connect 20 0 18 0;
#X connect 20 1 19 0;
#X connect 21 0 1 4;
#X connect 21 1 18 1;
#X connect 21 1 19 1;
#X connect 22 0 1 2;
#X connect 22 1 20 0;
#X connect 23 0 3 2;
#X connect 23 1 5 3;
#X connect 23 2 15 2;
#X connect 23 2 16 2;
#X connect 23 2 17 2;
#X connect 23 3 12 0;
#X connect 24 0 9 0;
#X connect 25 0 26 0;
#X connect 26 0 1 1;
#X connect 26 1 3 1;
#X connect 26 2 5 1;
#X connect 27 0 13 0;
#X connect 27 1 12 0;
#X connect 28 0 27 0;
#X connect 28 0 29 1;
#X connect 29 0 32 0;
#X connect 30 0 29 1;
#X connect 31 0 29 0;
#X connect 32 0 33 0;
#X connect 33 0 35 0;
#X connect 34 0 33 1;
#X connect 36 0 38 0;
#X connect 37 0 0 0;
#X connect 38 0 37 0;
#X restore 94 428 pd back;
#X obj 375 287 sel 0;
#X msg 375 310 0;
#X obj 575 186 route d o s t a p;
#X obj 575 147 list;
#X msg 575 165 \$1 \$1;
#X obj 491 203 list split 1;
#X msg 497 351 1;
#X obj 336 182 t b b;
#X obj 37 302 route bang;
#N canvas 24 23 791 851 project 0;
#X obj 77 302 t a b;
#X obj 104 329 f \$0;
#X msg 104 356 obj -10000 -10000 gl/abs/p.display/project \$1;
#X obj 77 184 gl/ext/ggee/getdir 2;
#X obj 134 154 list split 1;
#X obj 77 215 sel s;
#X obj 77 154 delay 10;
#X msg 104 239 bang;
#X obj 13 384 s \$0-saveddir;
#X obj 77 272 symbol;
#X obj 105 649 gl/ext/iemlib/mergefilename /;
#X obj 105 621 list prepend;
#X obj 105 675 gl/ext/iemlib/splitfilename .;
#X obj 105 758 gl/ext/hcs/sys_gui;
#X msg 234 1218 savetofile \$2 \$1;
#X obj 234 1193 pack s s;
#X obj 105 594 t a a;
#X obj 234 1167 symbol;
#X obj 174 1296 sel s;
#X obj 174 1242 delay 10;
#X msg 201 1321 bang;
#X obj 174 1353 symbol;
#X obj 174 1378 pack s s;
#X msg 174 1404 file delete "\$1.\$2";
#X obj 174 1431 gl/ext/hcs/sys_gui;
#X obj 342 832 gl/ext/hcs/sys_gui;
#X obj 411 619 gl/ext/iemlib/splitfilename /;
#X obj 315 587 unpack s s;
#X obj 315 674 sel s;
#X obj 315 646 gl/ext/iemlib/splitfilename .;
#X obj 342 780 pack s s;
#X msg 342 806 file rename "\$2" "\$1";
#X obj 342 727 gl/ext/iemlib/mergefilename /;
#X obj 342 700 list prepend;
#X msg 369 937 savetofile \$2 \$1;
#X obj 369 910 pack s s;
#X obj 315 619 t a a;
#X obj 369 884 symbol;
#X obj 105 408 r \$0-isproject;
#X obj 174 1269 gl/ext/ggee/getdir 2;
#X obj 234 1242 s \$0-sendcanvas;
#X obj 104 384 s \$0-sendcanvas;
#X obj 369 964 s \$0-sendcanvas;
#X obj 105 562 unpack s s;
#X obj 105 504 list append;
#X obj 105 532 route 0 1;
#X obj 342 1108 gl/ext/iemlib/splitfilename /;
#X obj 174 1484 symbol;
#X obj 342 1030 symbol;
#X obj 369 990 gl/ext/iemlib/splitfilename /;
#X obj 342 1084 print :::::::;
#X obj 174 1537 print :::::::;
#X msg 174 1511 You created the new project "\$1" ::::::::;
#X msg 342 1058 The project has been renamed to "\$1" ::::::::;
#X obj 77 98 list split 2;
#X obj 441 153 gl/ext/hcs/window_name;
#X obj 441 207 sel s;
#X obj 441 179 t a a;
#X obj 441 250 f;
#X obj 441 127 t f f;
#X obj 441 103 f;
#X obj 468 103 + 1;
#X obj 441 79 until;
#X msg 478 79 0;
#X obj 441 229 t b b;
#X msg 480 361 obj 0 0 gl/abs/p.display/toplevel \$1 \$2;
#X obj 480 336 pack f \$0;
#X obj 77 26 r \$0-receivecanvas;
#X obj 441 26 inlet;
#X obj 480 388 gl/ext/iemguts/sendcanvas;
#X obj 441 297 moses 3;
#X obj 441 274 - 1;
#X obj 342 858 t b b;
#X obj 174 1141 t b b;
#X obj 77 73 route savetofile;
#X obj 77 124 t b a a;
#X obj 105 1108 gl/ext/hcs/sys_gui;
#X obj 168 982 list prepend;
#X obj 247 982 t a;
#X obj 168 905 gl/ext/hcs/folder_list;
#X obj 105 1034 list split 1;
#X obj 105 1009 list append;
#X msg 70 1108 bang;
#X obj 105 1060 pack s s;
#X msg 105 1084 file copy "\$1" "\$2/gl";
#X obj 168 956 route symbol;
#X msg 174 1457 bang;
#X msg 105 731 file mkdir "\$1/gl";
#X obj 105 702 t a a b;
#X msg 423 1030 Renaming the project ::::::::;
#X obj 342 753 t a a b;
#X msg 315 1404 Creating a new project ::::::::;
#X obj 124 835 t a a;
#X msg 171 857 symbol \$1*/;
#X msg 170 880 symbol \$1*.*;
#X msg 226 795 symbol \$1/gl/;
#X obj 124 812 symbol;
#X obj 226 772 symbol;
#X obj 105 787 t b b b;
#X obj 180 505 delay 1;
#X msg 180 529 key 1 Left 0 \, key 0 Left 0;
#X obj 180 562 s \$0-sendcanvas;
#X obj 168 930 gl/ext/zexy/symbol2list gl/ext;
#X obj 105 431 t b f b;
#X obj 105 480 f;
#X obj 197 26 inlet;
#X obj 77 50 spigot;
#X obj 315 563 spigot 1;
#X obj 447 563 spigot;
#X obj 480 539 == 0;
#X msg 447 700 menusave;
#X obj 441 54 t b b b;
#N canvas 242 144 256 252 detectWindows 0;
#X obj 65 72 gl/ext/hcs/uname;
#X obj 123 191 outlet;
#X obj 65 40 inlet;
#X obj 65 104 route Darwin Windows;
#X msg 123 139 0;
#X connect 0 0 3 0;
#X connect 2 0 0 0;
#X connect 3 1 4 0;
#X connect 4 0 1 0;
#X restore 480 510 pd detectWindows;
#X obj 105 456 delay 2;
#X obj 409 783 print :::::::;
#X obj 447 587 t b b;
#X msg 409 750 Make sure to rename the project when you upload it to
Gemma ::::::::;
#X connect 0 0 8 0;
#X connect 0 1 1 0;
#X connect 1 0 2 0;
#X connect 2 0 41 0;
#X connect 3 0 5 0;
#X connect 4 1 5 1;
#X connect 4 1 9 1;
#X connect 5 0 9 0;
#X connect 5 1 7 0;
#X connect 6 0 3 0;
#X connect 7 0 6 0;
#X connect 9 0 0 0;
#X connect 10 0 12 0;
#X connect 11 0 10 0;
#X connect 12 0 88 0;
#X connect 12 1 22 1;
#X connect 13 0 98 0;
#X connect 14 0 40 0;
#X connect 15 0 14 0;
#X connect 16 0 11 0;
#X connect 16 1 15 1;
#X connect 17 0 15 0;
#X connect 17 0 18 1;
#X connect 18 0 21 0;
#X connect 18 1 20 0;
#X connect 19 0 39 0;
#X connect 20 0 19 0;
#X connect 21 0 22 0;
#X connect 22 0 23 0;
#X connect 23 0 24 0;
#X connect 24 0 86 0;
#X connect 25 0 72 0;
#X connect 26 0 33 1;
#X connect 26 1 28 1;
#X connect 27 0 36 0;
#X connect 27 1 26 0;
#X connect 27 1 30 1;
#X connect 28 1 33 0;
#X connect 29 0 28 0;
#X connect 30 0 31 0;
#X connect 31 0 25 0;
#X connect 32 0 90 0;
#X connect 33 0 32 0;
#X connect 34 0 42 0;
#X connect 35 0 34 0;
#X connect 36 0 29 0;
#X connect 36 1 35 1;
#X connect 37 0 35 0;
#X connect 38 0 103 0;
#X connect 39 0 18 0;
#X connect 43 0 16 0;
#X connect 43 1 11 1;
#X connect 44 0 45 0;
#X connect 45 0 43 0;
#X connect 45 1 107 0;
#X connect 45 1 108 0;
#X connect 46 1 47 1;
#X connect 47 0 52 0;
#X connect 48 0 53 0;
#X connect 49 1 48 1;
#X connect 52 0 51 0;
#X connect 53 0 50 0;
#X connect 54 0 75 0;
#X connect 55 0 57 0;
#X connect 56 0 64 0;
#X connect 57 0 56 1;
#X connect 57 1 56 0;
#X connect 58 0 71 0;
#X connect 59 0 55 0;
#X connect 59 1 58 1;
#X connect 60 0 61 0;
#X connect 60 0 59 0;
#X connect 61 0 60 1;
#X connect 62 0 60 0;
#X connect 63 0 60 1;
#X connect 64 0 58 0;
#X connect 64 1 62 1;
#X connect 65 0 69 0;
#X connect 66 0 65 0;
#X connect 67 0 106 0;
#X connect 68 0 111 0;
#X connect 70 1 66 0;
#X connect 71 0 70 0;
#X connect 72 0 48 0;
#X connect 72 0 97 0;
#X connect 72 1 37 0;
#X connect 73 0 19 0;
#X connect 73 1 17 0;
#X connect 74 0 54 0;
#X connect 75 0 6 0;
#X connect 75 1 4 0;
#X connect 75 2 44 1;
#X connect 76 0 82 0;
#X connect 77 0 78 0;
#X connect 77 0 81 1;
#X connect 78 0 77 1;
#X connect 79 0 102 0;
#X connect 80 0 83 0;
#X connect 80 1 81 1;
#X connect 80 2 73 0;
#X connect 81 0 80 0;
#X connect 82 0 81 0;
#X connect 83 0 84 0;
#X connect 84 0 76 0;
#X connect 85 0 77 0;
#X connect 86 0 47 0;
#X connect 86 0 97 0;
#X connect 87 0 13 0;
#X connect 88 0 87 0;
#X connect 88 1 17 1;
#X connect 88 1 21 1;
#X connect 88 1 46 0;
#X connect 88 1 83 1;
#X connect 88 1 97 1;
#X connect 88 2 91 0;
#X connect 89 0 50 0;
#X connect 90 0 30 0;
#X connect 90 1 37 1;
#X connect 90 1 49 0;
#X connect 90 1 97 1;
#X connect 90 2 89 0;
#X connect 91 0 51 0;
#X connect 92 0 94 0;
#X connect 92 1 93 0;
#X connect 93 0 79 0;
#X connect 94 0 79 0;
#X connect 95 0 96 1;
#X connect 96 0 92 0;
#X connect 97 0 95 0;
#X connect 98 0 81 0;
#X connect 98 1 96 0;
#X connect 98 2 77 1;
#X connect 99 0 100 0;
#X connect 100 0 101 0;
#X connect 102 0 85 0;
#X connect 103 0 113 0;
#X connect 103 1 104 1;
#X connect 103 2 99 0;
#X connect 104 0 44 0;
#X connect 105 0 106 1;
#X connect 106 0 74 0;
#X connect 107 0 27 0;
#X connect 108 0 115 0;
#X connect 109 0 108 1;
#X connect 110 0 42 0;
#X connect 111 0 62 0;
#X connect 111 1 63 0;
#X connect 111 2 112 0;
#X connect 112 0 107 1;
#X connect 112 0 109 0;
#X connect 113 0 104 0;
#X connect 115 0 110 0;
#X connect 115 1 116 0;
#X connect 116 0 114 0;
#X restore 174 385 pd project;
#N canvas 131 23 378 454 onlyone 0;
#X obj 9 -22 inlet;
#X obj 87 345 gl/ext/iemguts/canvasdelete 2;
#X obj 9 401 outlet;
#X obj 9 5 gl/ext/tof/getdollarzero root;
#X msg 106 320 [p.display] already exists in this patch;
#X obj 9 127 t b a b a;
#X msg 9 35 symbol \$1-p.display;
#X obj 9 66 t a a;
#X msg 9 99 set \$1-only;
#X msg 87 99 set \$1-one;
#X obj 87 278 t b b b;
#X msg 126 299 0;
#X obj 9 316 spigot 1;
#X obj 87 253 spigot 1;
#X obj 9 341 t b b;
#X msg 36 369 0;
#X obj 43 155 gl/ext/iemlib/iem_s \$0-only.i;
#X obj 87 180 gl/ext/iemlib/iem_r \$0-only.i;
#X obj 87 204 gl/ext/iemlib/iem_s \$0-one.i;
#X obj 87 228 gl/ext/iemlib/iem_r \$0-one.i;
#X obj 106 369 gl/ext/iemguts/canvaserror 1;
#X connect 0 0 3 0;
#X connect 3 0 6 0;
#X connect 4 0 20 0;
#X connect 5 0 12 0;
#X connect 5 1 17 0;
#X connect 5 2 16 0;
#X connect 5 3 16 1;
#X connect 6 0 7 0;
#X connect 7 0 8 0;
#X connect 7 1 9 0;
#X connect 8 0 5 0;
#X connect 9 0 18 1;
#X connect 9 0 19 0;
#X connect 10 0 1 0;
#X connect 10 1 4 0;
#X connect 10 2 11 0;
#X connect 11 0 12 1;
#X connect 12 0 14 0;
#X connect 13 0 10 0;
#X connect 14 0 2 0;
#X connect 14 1 15 0;
#X connect 15 0 13 1;
#X connect 17 0 18 0;
#X connect 19 0 13 0;
#X restore 62 17 pd onlyone;
#N canvas 142 135 450 300 help 0;
#X obj 164 115 delay 100;
#X obj 164 148 outlet;
#X obj 164 83 r help.file.mode;
#X obj 218 170 value help.file.nth;
#X msg 218 148 0;
#X connect 0 0 1 0;
#X connect 0 0 4 0;
#X connect 2 0 0 0;
#X connect 4 0 3 0;
#X restore 130 17 pd help;
#X obj 62 40 t b b b b b b;
#X obj 93 147 route d o s c r g b t a l j v p reset;
#X obj 419 165 route c r g b l j v reset;
#X obj 411 268 gl/ext/iemguts/canvaserror;
#X msg 411 225 The property '\$1' does not exist;
#X msg 411 247 The property '\$1' cannot be set through the inlet;
#N canvas 172 83 586 377 LICENSE-GPL 0;
#X text 57 88 This program is free software: you can redistribute it
and/or modify it under the terms of the GNU General Public License
as published by the Free Software Foundation \, either version 3 of
the License \, or (at your option) any later version.;
#X text 58 168 This program is distributed in the hope that it will
be useful \, but WITHOUT ANY WARRANTY \; without even the implied warranty
of MERCHANTABILITY or FITNESS FOR A PARTICULAR PURPOSE. See the GNU
General Public License for more details.;
#X text 57 261 You should have received a copy of the GNU General Public
License along with this program. If not \, see <http://www.gnu.org/licenses/>.
;
#X text 60 325 See the file LICENSE.txt for the full license text.
;
#X text 61 54 Copyright (C) 2016 \, Iceblink Digital \, Inc.;
#X restore 614 19 pd LICENSE-GPL;
#X connect 1 0 59 0;
#X connect 2 0 65 0;
#X connect 3 0 25 0;
#X connect 4 0 25 0;
#X connect 5 0 25 0;
#X connect 6 0 25 0;
#X connect 7 0 57 0;
#X connect 8 0 27 0;
#X connect 9 0 25 0;
#X connect 10 0 9 0;
#X connect 11 1 2 0;
#X connect 12 0 62 0;
#X connect 13 0 12 0;
#X connect 14 0 25 0;
#X connect 15 0 49 0;
#X connect 16 0 5 0;
#X connect 17 0 10 0;
#X connect 18 0 14 4;
#X connect 19 0 14 3;
#X connect 20 0 14 2;
#X connect 21 0 14 1;
#X connect 22 0 7 0;
#X connect 26 0 6 0;
#X connect 27 0 14 0;
#X connect 27 1 63 0;
#X connect 28 0 29 0;
#X connect 28 1 30 0;
#X connect 28 2 31 0;
#X connect 32 0 33 0;
#X connect 32 0 37 0;
#X connect 33 0 32 1;
#X connect 34 0 32 1;
#X connect 35 0 36 0;
#X connect 36 0 32 0;
#X connect 37 0 23 0;
#X connect 38 0 39 0;
#X connect 39 0 40 0;
#X connect 41 0 39 0;
#X connect 42 0 43 3;
#X connect 42 0 48 0;
#X connect 42 1 7 1;
#X connect 42 1 38 0;
#X connect 42 1 48 1;
#X connect 42 2 47 1;
#X connect 42 2 43 2;
#X connect 42 3 43 4;
#X connect 42 4 43 5;
#X connect 44 0 12 0;
#X connect 45 0 35 0;
#X connect 45 0 41 0;
#X connect 45 1 34 0;
#X connect 45 2 37 1;
#X connect 45 3 47 0;
#X connect 47 0 46 0;
#X connect 49 0 50 0;
#X connect 49 0 4 0;
#X connect 49 1 6 0;
#X connect 49 1 55 0;
#X connect 50 0 26 1;
#X connect 51 0 54 0;
#X connect 51 1 54 0;
#X connect 51 2 54 0;
#X connect 51 3 54 0;
#X connect 51 4 54 0;
#X connect 51 5 54 0;
#X connect 51 6 2 0;
#X connect 52 0 53 0;
#X connect 53 0 51 0;
#X connect 54 0 66 0;
#X connect 55 0 26 1;
#X connect 56 0 61 0;
#X connect 56 1 55 0;
#X connect 57 1 3 0;
#X connect 57 1 45 0;
#X connect 59 0 61 0;
#X connect 60 0 61 0;
#X connect 61 0 26 0;
#X connect 61 0 43 0;
#X connect 61 1 14 0;
#X connect 61 1 7 0;
#X connect 61 2 13 0;
#X connect 61 3 44 0;
#X connect 61 4 4 0;
#X connect 61 4 48 2;
#X connect 61 5 58 1;
#X connect 62 0 42 0;
#X connect 62 1 42 1;
#X connect 62 2 42 2;
#X connect 62 3 21 0;
#X connect 62 4 20 0;
#X connect 62 5 19 0;
#X connect 62 6 18 0;
#X connect 62 7 17 0;
#X connect 62 8 16 0;
#X connect 62 9 43 1;
#X connect 62 10 58 0;
#X connect 62 11 15 0;
#X connect 62 12 44 1;
#X connect 62 13 56 0;
#X connect 62 14 11 0;
#X connect 63 0 21 0;
#X connect 63 1 20 0;
#X connect 63 2 19 0;
#X connect 63 3 18 0;
#X connect 63 4 43 6;
#X connect 63 5 58 0;
#X connect 63 6 15 0;
#X connect 63 7 56 0;
#X connect 63 8 52 0;
#X connect 65 0 64 0;
#X connect 66 0 64 0;
