#N canvas 0 22 755 381 10;
#X obj 49 6 list append \$1 \$2 \$3 \$4 \$5 \$6 \$7 \$8 \$9 \$10 \$11
\$12 \$13 \$14 \$15 \$16 \$17 \$18 \$19 \$20;
#X msg 49 44 \$1 \$2 \, \$3 \$4 \, \$5 \$6 \, \$7 \$8 \, \$9 \$10 \,
\$11 \$12 \, \$13 \$14 \, \$15 \$16 \, \$17 \$18 \, \$19 \$20;
#X obj 123 156 t b;
#X obj 432 129 list split 1;
#X obj 158 156 route 0 1 2 3 4 5 6 7 8 9 10;
#X obj 32 -85 loadbang;
#X obj 89 -85 r g.getfonts;
#X obj 32 196 s g.setfonts;
#X obj 170 -85 inlet;
#X obj 170 -23 t b a;
#N canvas 284 221 460 444 p 0;
#X obj 55 193 textfile;
#X obj 124 193 symbol;
#X obj 55 103 t b a;
#X obj 192 280 textfile;
#X obj 192 308 list split 1;
#X obj 55 406 outlet;
#X obj 11 10 inlet;
#X obj 55 10 inlet;
#X obj 55 225 route symbol;
#X msg 124 252 bang;
#X obj 11 43 t b b;
#X obj 55 132 symbol;
#X msg 55 162 read \$1 \, rewind \, bang;
#X msg 192 252 read \$1 \, rewind \, bang;
#X obj 192 225 symbol;
#X obj 55 365 list append 0 0 0 0 0 0 0 0 0 0 0 0 0 0 0 0 0 0 0 0;
#X msg 225 115 symbol text/p.font.txt;
#X connect 0 0 8 0;
#X connect 1 0 8 1;
#X connect 2 0 11 0;
#X connect 2 1 1 0;
#X connect 3 0 4 0;
#X connect 4 1 15 0;
#X connect 6 0 10 0;
#X connect 7 0 2 0;
#X connect 8 0 15 0;
#X connect 8 1 9 0;
#X connect 9 0 0 0;
#X connect 10 0 14 0;
#X connect 10 1 16 0;
#X connect 11 0 12 0;
#X connect 12 0 0 0;
#X connect 13 0 3 0;
#X connect 14 0 13 0;
#X connect 15 0 5 0;
#X connect 16 0 11 1;
#X connect 16 0 14 1;
#X restore 66 156 pd p;
#X obj 49 83 route 0;
#X obj 88 112 route p reset list float;
#X obj 294 129 moses 1;
#X obj 333 156 moses 11;
#N canvas 108 122 554 350 slot1 0;
#X obj 128 101 gl/ext/iemlib/splitfilename .;
#X obj 284 152 sel ttf otf;
#X obj 128 73 t a a;
#X obj 128 152 sel s;
#X msg 92 209 Missing filename extension;
#X obj 65 19 list split 1;
#X obj 65 -11 inlet;
#X msg 65 180 Missing filename;
#X obj 251 249 pack s s;
#X obj 296 228 symbol;
#X msg 315 180 otf;
#X msg 284 180 ttf;
#X obj 251 303 s g.font-P0;
#X obj 257 128 sel s;
#X obj 284 -11 inlet;
#X msg 347 180 Invalid filename extension '\$1';
#X obj 65 48 route float;
#X obj 65 73 sel 0;
#X obj 251 276 gl/ext/iemlib/mergefilename .;
#X obj 65 276 gl/ext/iemguts/canvaserror 1;
#X connect 0 0 3 0;
#X connect 0 1 13 0;
#X connect 1 0 11 0;
#X connect 1 1 10 0;
#X connect 1 2 15 0;
#X connect 1 2 9 0;
#X connect 2 0 0 0;
#X connect 2 1 3 1;
#X connect 3 0 4 0;
#X connect 3 1 8 0;
#X connect 4 0 19 0;
#X connect 5 0 16 0;
#X connect 6 0 5 0;
#X connect 7 0 19 0;
#X connect 8 0 18 0;
#X connect 9 0 8 1;
#X connect 10 0 9 0;
#X connect 11 0 9 0;
#X connect 13 1 1 0;
#X connect 14 0 13 1;
#X connect 15 0 19 0;
#X connect 16 0 17 0;
#X connect 16 1 2 0;
#X connect 17 0 7 0;
#X connect 17 1 4 0;
#X connect 18 0 12 0;
#X restore 69 249 pd slot1;
#X obj 32 -23 t b b b b;
#N canvas 108 122 554 350 slot2 0;
#X obj 128 101 gl/ext/iemlib/splitfilename .;
#X obj 284 152 sel ttf otf;
#X obj 128 73 t a a;
#X obj 128 152 sel s;
#X msg 92 209 Missing filename extension;
#X obj 65 19 list split 1;
#X obj 65 -11 inlet;
#X msg 65 180 Missing filename;
#X obj 251 249 pack s s;
#X obj 296 228 symbol;
#X msg 315 180 otf;
#X msg 284 180 ttf;
#X obj 257 128 sel s;
#X obj 284 -11 inlet;
#X msg 347 180 Invalid filename extension '\$1';
#X obj 65 48 route float;
#X obj 65 73 sel 0;
#X obj 251 276 gl/ext/iemlib/mergefilename .;
#X obj 251 303 s g.font-P1;
#X obj 65 276 gl/ext/iemguts/canvaserror 1;
#X connect 0 0 3 0;
#X connect 0 1 12 0;
#X connect 1 0 11 0;
#X connect 1 1 10 0;
#X connect 1 2 14 0;
#X connect 1 2 9 0;
#X connect 2 0 0 0;
#X connect 2 1 3 1;
#X connect 3 0 4 0;
#X connect 3 1 8 0;
#X connect 4 0 19 0;
#X connect 5 0 15 0;
#X connect 6 0 5 0;
#X connect 7 0 19 0;
#X connect 8 0 17 0;
#X connect 9 0 8 1;
#X connect 10 0 9 0;
#X connect 11 0 9 0;
#X connect 12 1 1 0;
#X connect 13 0 12 1;
#X connect 14 0 19 0;
#X connect 15 0 16 0;
#X connect 15 1 2 0;
#X connect 16 0 7 0;
#X connect 16 1 4 0;
#X connect 17 0 18 0;
#X restore 123 249 pd slot2;
#N canvas 108 122 554 350 slot3 0;
#X obj 128 101 gl/ext/iemlib/splitfilename .;
#X obj 284 152 sel ttf otf;
#X obj 128 73 t a a;
#X obj 128 152 sel s;
#X msg 92 209 Missing filename extension;
#X obj 65 19 list split 1;
#X obj 65 -11 inlet;
#X msg 65 180 Missing filename;
#X obj 251 249 pack s s;
#X obj 296 228 symbol;
#X msg 315 180 otf;
#X msg 284 180 ttf;
#X obj 257 128 sel s;
#X obj 284 -11 inlet;
#X msg 347 180 Invalid filename extension '\$1';
#X obj 65 48 route float;
#X obj 65 73 sel 0;
#X obj 251 276 gl/ext/iemlib/mergefilename .;
#X obj 251 303 s g.font-P2;
#X obj 65 276 gl/ext/iemguts/canvaserror 1;
#X connect 0 0 3 0;
#X connect 0 1 12 0;
#X connect 1 0 11 0;
#X connect 1 1 10 0;
#X connect 1 2 14 0;
#X connect 1 2 9 0;
#X connect 2 0 0 0;
#X connect 2 1 3 1;
#X connect 3 0 4 0;
#X connect 3 1 8 0;
#X connect 4 0 19 0;
#X connect 5 0 15 0;
#X connect 6 0 5 0;
#X connect 7 0 19 0;
#X connect 8 0 17 0;
#X connect 9 0 8 1;
#X connect 10 0 9 0;
#X connect 11 0 9 0;
#X connect 12 1 1 0;
#X connect 13 0 12 1;
#X connect 14 0 19 0;
#X connect 15 0 16 0;
#X connect 15 1 2 0;
#X connect 16 0 7 0;
#X connect 16 1 4 0;
#X connect 17 0 18 0;
#X restore 177 249 pd slot3;
#N canvas 108 122 554 350 slot4 0;
#X obj 128 101 gl/ext/iemlib/splitfilename .;
#X obj 284 152 sel ttf otf;
#X obj 128 73 t a a;
#X obj 128 152 sel s;
#X msg 92 209 Missing filename extension;
#X obj 65 19 list split 1;
#X obj 65 -11 inlet;
#X msg 65 180 Missing filename;
#X obj 251 249 pack s s;
#X obj 296 228 symbol;
#X msg 315 180 otf;
#X msg 284 180 ttf;
#X obj 257 128 sel s;
#X obj 284 -11 inlet;
#X msg 347 180 Invalid filename extension '\$1';
#X obj 65 48 route float;
#X obj 65 73 sel 0;
#X obj 251 276 gl/ext/iemlib/mergefilename .;
#X obj 251 303 s g.font-P3;
#X obj 65 276 gl/ext/iemguts/canvaserror 1;
#X connect 0 0 3 0;
#X connect 0 1 12 0;
#X connect 1 0 11 0;
#X connect 1 1 10 0;
#X connect 1 2 14 0;
#X connect 1 2 9 0;
#X connect 2 0 0 0;
#X connect 2 1 3 1;
#X connect 3 0 4 0;
#X connect 3 1 8 0;
#X connect 4 0 19 0;
#X connect 5 0 15 0;
#X connect 6 0 5 0;
#X connect 7 0 19 0;
#X connect 8 0 17 0;
#X connect 9 0 8 1;
#X connect 10 0 9 0;
#X connect 11 0 9 0;
#X connect 12 1 1 0;
#X connect 13 0 12 1;
#X connect 14 0 19 0;
#X connect 15 0 16 0;
#X connect 15 1 2 0;
#X connect 16 0 7 0;
#X connect 16 1 4 0;
#X connect 17 0 18 0;
#X restore 231 249 pd slot4;
#N canvas 108 122 554 350 slot5 0;
#X obj 128 101 gl/ext/iemlib/splitfilename .;
#X obj 284 152 sel ttf otf;
#X obj 128 73 t a a;
#X obj 128 152 sel s;
#X msg 92 209 Missing filename extension;
#X obj 65 19 list split 1;
#X obj 65 -11 inlet;
#X msg 65 180 Missing filename;
#X obj 251 249 pack s s;
#X obj 296 228 symbol;
#X msg 315 180 otf;
#X msg 284 180 ttf;
#X obj 257 128 sel s;
#X obj 284 -11 inlet;
#X msg 347 180 Invalid filename extension '\$1';
#X obj 65 48 route float;
#X obj 65 73 sel 0;
#X obj 251 276 gl/ext/iemlib/mergefilename .;
#X obj 251 303 s g.font-P4;
#X obj 65 276 gl/ext/iemguts/canvaserror 1;
#X connect 0 0 3 0;
#X connect 0 1 12 0;
#X connect 1 0 11 0;
#X connect 1 1 10 0;
#X connect 1 2 14 0;
#X connect 1 2 9 0;
#X connect 2 0 0 0;
#X connect 2 1 3 1;
#X connect 3 0 4 0;
#X connect 3 1 8 0;
#X connect 4 0 19 0;
#X connect 5 0 15 0;
#X connect 6 0 5 0;
#X connect 7 0 19 0;
#X connect 8 0 17 0;
#X connect 9 0 8 1;
#X connect 10 0 9 0;
#X connect 11 0 9 0;
#X connect 12 1 1 0;
#X connect 13 0 12 1;
#X connect 14 0 19 0;
#X connect 15 0 16 0;
#X connect 15 1 2 0;
#X connect 16 0 7 0;
#X connect 16 1 4 0;
#X connect 17 0 18 0;
#X restore 285 249 pd slot5;
#N canvas 108 122 554 350 slot6 0;
#X obj 128 101 gl/ext/iemlib/splitfilename .;
#X obj 284 152 sel ttf otf;
#X obj 128 73 t a a;
#X obj 128 152 sel s;
#X msg 92 209 Missing filename extension;
#X obj 65 19 list split 1;
#X obj 65 -11 inlet;
#X msg 65 180 Missing filename;
#X obj 251 249 pack s s;
#X obj 296 228 symbol;
#X msg 315 180 otf;
#X msg 284 180 ttf;
#X obj 257 128 sel s;
#X obj 284 -11 inlet;
#X msg 347 180 Invalid filename extension '\$1';
#X obj 65 48 route float;
#X obj 65 73 sel 0;
#X obj 251 276 gl/ext/iemlib/mergefilename .;
#X obj 251 303 s g.font-P5;
#X obj 65 276 gl/ext/iemguts/canvaserror 1;
#X connect 0 0 3 0;
#X connect 0 1 12 0;
#X connect 1 0 11 0;
#X connect 1 1 10 0;
#X connect 1 2 14 0;
#X connect 1 2 9 0;
#X connect 2 0 0 0;
#X connect 2 1 3 1;
#X connect 3 0 4 0;
#X connect 3 1 8 0;
#X connect 4 0 19 0;
#X connect 5 0 15 0;
#X connect 6 0 5 0;
#X connect 7 0 19 0;
#X connect 8 0 17 0;
#X connect 9 0 8 1;
#X connect 10 0 9 0;
#X connect 11 0 9 0;
#X connect 12 1 1 0;
#X connect 13 0 12 1;
#X connect 14 0 19 0;
#X connect 15 0 16 0;
#X connect 15 1 2 0;
#X connect 16 0 7 0;
#X connect 16 1 4 0;
#X connect 17 0 18 0;
#X restore 339 249 pd slot6;
#N canvas 108 122 554 350 slot7 0;
#X obj 128 101 gl/ext/iemlib/splitfilename .;
#X obj 284 152 sel ttf otf;
#X obj 128 73 t a a;
#X obj 128 152 sel s;
#X msg 92 209 Missing filename extension;
#X obj 65 19 list split 1;
#X obj 65 -11 inlet;
#X msg 65 180 Missing filename;
#X obj 251 249 pack s s;
#X obj 296 228 symbol;
#X msg 315 180 otf;
#X msg 284 180 ttf;
#X obj 257 128 sel s;
#X obj 284 -11 inlet;
#X msg 347 180 Invalid filename extension '\$1';
#X obj 65 48 route float;
#X obj 65 73 sel 0;
#X obj 251 276 gl/ext/iemlib/mergefilename .;
#X obj 251 303 s g.font-P6;
#X obj 65 276 gl/ext/iemguts/canvaserror 1;
#X connect 0 0 3 0;
#X connect 0 1 12 0;
#X connect 1 0 11 0;
#X connect 1 1 10 0;
#X connect 1 2 14 0;
#X connect 1 2 9 0;
#X connect 2 0 0 0;
#X connect 2 1 3 1;
#X connect 3 0 4 0;
#X connect 3 1 8 0;
#X connect 4 0 19 0;
#X connect 5 0 15 0;
#X connect 6 0 5 0;
#X connect 7 0 19 0;
#X connect 8 0 17 0;
#X connect 9 0 8 1;
#X connect 10 0 9 0;
#X connect 11 0 9 0;
#X connect 12 1 1 0;
#X connect 13 0 12 1;
#X connect 14 0 19 0;
#X connect 15 0 16 0;
#X connect 15 1 2 0;
#X connect 16 0 7 0;
#X connect 16 1 4 0;
#X connect 17 0 18 0;
#X restore 393 249 pd slot7;
#N canvas 108 122 554 350 slot8 0;
#X obj 128 101 gl/ext/iemlib/splitfilename .;
#X obj 284 152 sel ttf otf;
#X obj 128 73 t a a;
#X obj 128 152 sel s;
#X msg 92 209 Missing filename extension;
#X obj 65 19 list split 1;
#X obj 65 -11 inlet;
#X msg 65 180 Missing filename;
#X obj 251 249 pack s s;
#X obj 296 228 symbol;
#X msg 315 180 otf;
#X msg 284 180 ttf;
#X obj 257 128 sel s;
#X obj 284 -11 inlet;
#X msg 347 180 Invalid filename extension '\$1';
#X obj 65 48 route float;
#X obj 65 73 sel 0;
#X obj 251 276 gl/ext/iemlib/mergefilename .;
#X obj 251 303 s g.font-P7;
#X obj 65 276 gl/ext/iemguts/canvaserror 1;
#X connect 0 0 3 0;
#X connect 0 1 12 0;
#X connect 1 0 11 0;
#X connect 1 1 10 0;
#X connect 1 2 14 0;
#X connect 1 2 9 0;
#X connect 2 0 0 0;
#X connect 2 1 3 1;
#X connect 3 0 4 0;
#X connect 3 1 8 0;
#X connect 4 0 19 0;
#X connect 5 0 15 0;
#X connect 6 0 5 0;
#X connect 7 0 19 0;
#X connect 8 0 17 0;
#X connect 9 0 8 1;
#X connect 10 0 9 0;
#X connect 11 0 9 0;
#X connect 12 1 1 0;
#X connect 13 0 12 1;
#X connect 14 0 19 0;
#X connect 15 0 16 0;
#X connect 15 1 2 0;
#X connect 16 0 7 0;
#X connect 16 1 4 0;
#X connect 17 0 18 0;
#X restore 447 249 pd slot8;
#N canvas 108 122 554 350 slot9 0;
#X obj 128 101 gl/ext/iemlib/splitfilename .;
#X obj 284 152 sel ttf otf;
#X obj 128 73 t a a;
#X obj 128 152 sel s;
#X msg 92 209 Missing filename extension;
#X obj 65 19 list split 1;
#X obj 65 -11 inlet;
#X msg 65 180 Missing filename;
#X obj 251 249 pack s s;
#X obj 296 228 symbol;
#X msg 315 180 otf;
#X msg 284 180 ttf;
#X obj 257 128 sel s;
#X obj 284 -11 inlet;
#X msg 347 180 Invalid filename extension '\$1';
#X obj 65 48 route float;
#X obj 65 73 sel 0;
#X obj 251 276 gl/ext/iemlib/mergefilename .;
#X obj 251 303 s g.font-P8;
#X obj 65 276 gl/ext/iemguts/canvaserror 1;
#X connect 0 0 3 0;
#X connect 0 1 12 0;
#X connect 1 0 11 0;
#X connect 1 1 10 0;
#X connect 1 2 14 0;
#X connect 1 2 9 0;
#X connect 2 0 0 0;
#X connect 2 1 3 1;
#X connect 3 0 4 0;
#X connect 3 1 8 0;
#X connect 4 0 19 0;
#X connect 5 0 15 0;
#X connect 6 0 5 0;
#X connect 7 0 19 0;
#X connect 8 0 17 0;
#X connect 9 0 8 1;
#X connect 10 0 9 0;
#X connect 11 0 9 0;
#X connect 12 1 1 0;
#X connect 13 0 12 1;
#X connect 14 0 19 0;
#X connect 15 0 16 0;
#X connect 15 1 2 0;
#X connect 16 0 7 0;
#X connect 16 1 4 0;
#X connect 17 0 18 0;
#X restore 501 249 pd slot9;
#N canvas 108 122 554 350 slot10 0;
#X obj 128 101 gl/ext/iemlib/splitfilename .;
#X obj 284 152 sel ttf otf;
#X obj 128 73 t a a;
#X obj 128 152 sel s;
#X msg 92 209 Missing filename extension;
#X obj 65 19 list split 1;
#X obj 65 -11 inlet;
#X msg 65 180 Missing filename;
#X obj 251 249 pack s s;
#X obj 296 228 symbol;
#X msg 315 180 otf;
#X msg 284 180 ttf;
#X obj 257 128 sel s;
#X obj 284 -11 inlet;
#X msg 347 180 Invalid filename extension '\$1';
#X obj 65 48 route float;
#X obj 65 73 sel 0;
#X obj 251 276 gl/ext/iemlib/mergefilename .;
#X obj 251 303 s g.font-P9;
#X obj 65 276 gl/ext/iemguts/canvaserror 1;
#X connect 0 0 3 0;
#X connect 0 1 12 0;
#X connect 1 0 11 0;
#X connect 1 1 10 0;
#X connect 1 2 14 0;
#X connect 1 2 9 0;
#X connect 2 0 0 0;
#X connect 2 1 3 1;
#X connect 3 0 4 0;
#X connect 3 1 8 0;
#X connect 4 0 19 0;
#X connect 5 0 15 0;
#X connect 6 0 5 0;
#X connect 7 0 19 0;
#X connect 8 0 17 0;
#X connect 9 0 8 1;
#X connect 10 0 9 0;
#X connect 11 0 9 0;
#X connect 12 1 1 0;
#X connect 13 0 12 1;
#X connect 14 0 19 0;
#X connect 15 0 16 0;
#X connect 15 1 2 0;
#X connect 16 0 7 0;
#X connect 16 1 4 0;
#X connect 17 0 18 0;
#X restore 555 249 pd slot10;
#X msg 617 232 symbol;
#N canvas 131 23 378 454 onlyone 0;
#X obj 9 -22 inlet;
#X obj 87 345 gl/ext/iemguts/canvasdelete 2;
#X obj 9 401 outlet;
#X obj 9 5 gl/ext/tof/getdollarzero root;
#X obj 9 127 t b a b a;
#X obj 9 66 t a a;
#X msg 9 99 set \$1-only;
#X msg 87 99 set \$1-one;
#X obj 87 278 t b b b;
#X msg 126 299 0;
#X obj 9 316 spigot 1;
#X obj 87 253 spigot 1;
#X obj 9 341 t b b;
#X msg 36 369 0;
#X msg 9 35 symbol \$1-p.font;
#X msg 106 320 [p.font] already exists in this patch;
#X obj 43 155 gl/ext/iemlib/iem_s \$0-only.i;
#X obj 87 180 gl/ext/iemlib/iem_r \$0-only.i;
#X obj 87 204 gl/ext/iemlib/iem_s \$0-one.i;
#X obj 87 228 gl/ext/iemlib/iem_r \$0-one.i;
#X obj 106 369 gl/ext/iemguts/canvaserror 1;
#X connect 0 0 3 0;
#X connect 3 0 14 0;
#X connect 4 0 10 0;
#X connect 4 1 17 0;
#X connect 4 2 16 0;
#X connect 4 3 16 1;
#X connect 5 0 6 0;
#X connect 5 1 7 0;
#X connect 6 0 4 0;
#X connect 7 0 18 1;
#X connect 7 0 19 0;
#X connect 8 0 1 0;
#X connect 8 1 15 0;
#X connect 8 2 9 0;
#X connect 9 0 10 1;
#X connect 10 0 12 0;
#X connect 11 0 8 0;
#X connect 12 0 2 0;
#X connect 12 1 13 0;
#X connect 13 0 11 1;
#X connect 14 0 5 0;
#X connect 15 0 20 0;
#X connect 17 0 18 0;
#X connect 19 0 11 0;
#X restore 32 -55 pd onlyone;
#X obj 432 196 gl/ext/iemguts/canvaserror;
#X msg 432 151 The property '\$1' does not exist;
#X msg 432 173 Font slot number out of range;
#X msg 622 173 Missing filename;
#N canvas 172 83 586 377 LICENSE-GPL 0;
#X text 57 88 This program is free software: you can redistribute it
and/or modify it under the terms of the GNU General Public License
as published by the Free Software Foundation \, either version 3 of
the License \, or (at your option) any later version.;
#X text 58 168 This program is distributed in the hope that it will
be useful \, but WITHOUT ANY WARRANTY \; without even the implied warranty
of MERCHANTABILITY or FITNESS FOR A PARTICULAR PURPOSE. See the GNU
General Public License for more details.;
#X text 57 261 You should have received a copy of the GNU General Public
License along with this program. If not \, see <http://www.gnu.org/licenses/>.
;
#X text 60 325 See the file LICENSE.txt for the full license text.
;
#X text 61 54 Copyright (C) 2016 \, Iceblink Digital \, Inc.;
#X restore 634 -71 pd LICENSE-GPL;
#X connect 0 0 1 0;
#X connect 1 0 11 0;
#X connect 2 0 16 0;
#X connect 3 0 29 0;
#X connect 4 0 30 0;
#X connect 4 1 15 0;
#X connect 4 2 17 0;
#X connect 4 3 18 0;
#X connect 4 4 19 0;
#X connect 4 5 20 0;
#X connect 4 6 21 0;
#X connect 4 7 22 0;
#X connect 4 8 23 0;
#X connect 4 9 24 0;
#X connect 4 10 25 0;
#X connect 4 11 30 0;
#X connect 5 0 27 0;
#X connect 6 0 16 0;
#X connect 8 0 9 0;
#X connect 9 0 7 0;
#X connect 9 1 12 0;
#X connect 10 0 1 0;
#X connect 11 1 12 0;
#X connect 12 0 10 1;
#X connect 12 1 2 0;
#X connect 12 2 4 0;
#X connect 12 3 13 0;
#X connect 12 4 3 0;
#X connect 13 0 30 0;
#X connect 13 1 14 0;
#X connect 14 0 31 0;
#X connect 14 1 30 0;
#X connect 16 0 7 0;
#X connect 16 1 0 0;
#X connect 16 2 10 0;
#X connect 16 3 26 0;
#X connect 26 0 15 1;
#X connect 26 0 17 1;
#X connect 26 0 18 1;
#X connect 26 0 19 1;
#X connect 26 0 20 1;
#X connect 26 0 21 1;
#X connect 26 0 22 1;
#X connect 26 0 23 1;
#X connect 26 0 24 1;
#X connect 26 0 25 1;
#X connect 27 0 16 0;
#X connect 29 0 28 0;
#X connect 30 0 28 0;
#X connect 31 0 28 0;
