#N canvas 243 28 573 774 10;
#X obj 10 719 cnv 15 552 42 empty empty empty 20 12 0 14 -228856 -66577
0;
#X obj 10 10 cnv 15 552 26 empty empty p.label 3 12 0 18 -138934 -1
0;
#X obj 10 376 cnv 3 550 3 empty empty inlets 8 12 0 13 -228856 -1 0
;
#X obj 10 451 cnv 3 550 3 empty empty outlets 8 12 0 13 -228856 -1
0;
#X obj 10 490 cnv 3 550 3 empty empty arguments 8 12 0 13 -228856 -1
0;
#X obj 10 690 cnv 3 550 3 empty empty more_info 8 12 0 13 -228856 -1
0;
#X obj 88 384 cnv 17 3 17 empty empty 0 5 9 0 16 -228856 -162280 0
;
#X text 323 741 published under the GNU Public License;
#X text 323 721 copyright by Iceblink Digital \, Inc.;
#X obj 10 37 cnv 15 552 16 empty empty empty 3 12 0 18 -85426 -1 0
;
#N canvas 335 178 836 576 helpmode 0;
#X obj 18 96 loadbang;
#X obj 18 127 metro 50;
#X obj 18 159 s help.file.mode;
#X obj 78 376 f;
#X msg 78 281 1;
#X obj 78 304 change;
#X obj 78 326 t b b;
#X obj 105 352 value help.file.nth;
#X obj 18 512 s \$0-help.file.z;
#X obj 78 406 + 100;
#X obj 18 256 t b b;
#X obj 18 471 f;
#X msg 512 471 c \$1 \$2 \$3;
#X obj 476 352 r \$0-help.file.bgc;
#X obj 18 216 r \$0-help.file.get.z;
#X obj 455 393 list;
#X obj 455 434 route bang;
#X obj 512 512 gl/p.rectangle x 512 y 512 w 1024 h 1024 z 1;
#X text 14 13 *this subpatch is used to make objects in this help file
'only visible' in the display window. and to 'refresh' the display
window as soon as you close the help file.;
#X connect 0 0 1 0;
#X connect 1 0 2 0;
#X connect 1 0 15 0;
#X connect 3 0 9 0;
#X connect 4 0 5 0;
#X connect 5 0 6 0;
#X connect 6 0 3 0;
#X connect 6 1 7 0;
#X connect 7 0 3 1;
#X connect 9 0 11 1;
#X connect 9 0 7 0;
#X connect 10 0 11 0;
#X connect 10 1 4 0;
#X connect 11 0 8 0;
#X connect 12 0 17 0;
#X connect 13 0 15 1;
#X connect 14 0 10 0;
#X connect 15 0 16 0;
#X connect 16 1 12 0;
#X restore 492 36 pd helpmode;
#X obj 10 59 gl/p.display d iphone o 1;
#X text 170 60 display window;
#X text 198 400 change the corresponding property value.;
#X text 188 384 - the property name \, followed by its value permits
you to;
#X text 118 424 reset;
#X text 188 424 - reset all properties back to the creation settings.
;
#X text 118 496 you can set the creation arguments by using pairs of
messages that are 'property name' and 'property value'.;
#X text 310 563 p = name of preset to load (symbol);
#X text 310 583 c = name of color to load (symbol);
#X text 16 563 x \, y = x and y coordinates in pixels (float);
#X text 310 603 r \, g \, b \, a = rgba values (int: 0-255);
#X text 310 623 z = z-order(drawing order) (int: 1-100);
#X text 310 643 v = visible/invisible (int: 1/0);
#X text 148 538 - list of properties and value types.;
#X text 92 140 change location;
#X msg 208 140 p default;
#X msg 210 168 reset;
#X text 255 169 reset all to the creation settings;
#X obj 10 254 tgl 15 0 empty empty empty 17 7 0 10 -262144 -1 -1 0
1;
#X msg 10 276 v \$1;
#X text 44 277 visible/invisible;
#X text 75 197 recolor the image;
#X msg 10 196 c skyblue;
#X text 118 384 message;
#X text 21 37 draw a label to the display window;
#X text 52 168 change text size;
#X msg 10 168 s 40;
#X msg 210 196 t Gemma_Rocks!;
#X text 275 141 load a preset from 'gl/text/p.label.txt';
#X msg 10 224 d -90;
#X text 55 225 rotate the text;
#X obj 9 81 gl/p.font 1 arial.ttf 2 arial_bold.ttf 3 arial_italic.ttf
;
#X floatatom 210 225 5 1 3 0 - - -, f 5;
#X msg 210 246 f \$1;
#X text 248 225 try loading different fonts;
#X text 248 247 (this will load one of the stored fonts in 'p.font')
;
#X text 356 82 store fonts to be used by [p.label];
#X floatatom 210 275 5 0 2 0 - - -, f 5;
#X msg 210 296 l \$1;
#X text 248 275 try setting different alignment of text;
#X text 248 297 (0: center \, 1: left \, 2: right);
#X text 248 315 *you can only set horizontal alignment of text;
#X text 248 330 it will always be aligned to the bottom of text;
#X text 118 461 (none);
#X text 301 196 change text (the underscore equals to space);
#X text 8 112 if you don't create [p.font] \, the default font 'arial.ttf'
;
#X text 8 98 the font files are located in 'gl/font/' directory.;
#X text 361 112 will be used by [p.label].;
#X msg 10 140 x 140 \, y 355;
#X obj 160 350 gl/p.label x 160 y 350 s 50 t Hello_World f 1 c lime
;
#X text 16 583 s = size of text (float);
#X text 16 663 t = text to draw (symbol);
#X text 16 623 f = the number of stored font to use (int: 1-10);
#X text 16 643 l = alignment of text (int: 0-2);
#X text 176 663 *use underscore('_') to make space between text;
#X text 16 603 d = degree of z-axis rotation (float);
#X text 17 722 tags: #gui \, #primitives \, #label;
#X connect 26 0 60 0;
#X connect 27 0 60 0;
#X connect 29 0 30 0;
#X connect 30 0 60 0;
#X connect 33 0 60 0;
#X connect 37 0 60 0;
#X connect 38 0 60 0;
#X connect 40 0 60 0;
#X connect 43 0 44 0;
#X connect 44 0 60 0;
#X connect 48 0 49 0;
#X connect 49 0 60 0;
#X connect 59 0 60 0;
