#N canvas 0 23 721 672 10;
#X obj 348 55 gl/ext/gem/load;
#X obj 292 539 rotate 0 0 0 1;
#X obj 463 320 route 0;
#X obj 502 342 list split 1;
#X msg 502 364 The property '\$1' does not exist;
#X obj 293 55 loadbang;
#X obj 210 320 t f;
#X obj 235 320 t f;
#X obj 260 320 t f;
#N canvas 222 120 473 517 translate 0;
#X obj 279 108 inlet dimension;
#X obj 163 108 inlet x;
#X obj 221 108 inlet y;
#X obj 68 108 inlet gemlist;
#X obj 190 427 outlet gemlist;
#X obj 215 370 /;
#X obj 259 272 t b f;
#X obj 279 157 unpack f f;
#X obj 280 204 / 2;
#X obj 259 228 swap;
#X obj 259 251 -;
#X obj 215 174 t f f;
#X msg 215 345 8 \$1;
#X obj 228 229 -;
#X obj 243 205 / 2;
#X obj 190 396 translate;
#X obj 163 145 * 1;
#X obj 221 145 * 1;
#X obj 374 128 r g.scaleratio;
#X obj 241 305 pack f f 0;
#X connect 0 0 7 0;
#X connect 1 0 16 0;
#X connect 2 0 17 0;
#X connect 3 0 15 0;
#X connect 5 0 15 1;
#X connect 6 0 19 0;
#X connect 6 1 19 1;
#X connect 7 0 14 0;
#X connect 7 1 11 0;
#X connect 8 0 9 1;
#X connect 9 0 10 0;
#X connect 9 1 10 1;
#X connect 10 0 6 0;
#X connect 11 0 12 0;
#X connect 11 1 8 0;
#X connect 12 0 5 0;
#X connect 13 0 19 0;
#X connect 14 0 13 1;
#X connect 15 0 4 0;
#X connect 16 0 13 0;
#X connect 17 0 9 0;
#X connect 18 0 16 1;
#X connect 18 0 17 1;
#X connect 19 0 15 2;
#X restore 292 477 pd translate;
#N canvas 182 190 531 431 colorRGBA 0;
#X obj 212 325 colorRGB;
#X obj 223 297 / 255;
#X obj 263 297 / 255;
#X obj 303 297 / 255;
#X obj 343 297 / 255;
#X obj 223 272 unpack f f f;
#X obj 223 87 route list;
#X obj 150 36 inlet color;
#X obj 223 36 inlet R;
#X obj 272 36 inlet G;
#X obj 321 36 inlet B;
#X obj 370 36 inlet A;
#X obj 212 363 alpha;
#X obj 370 64 t f f;
#X obj 397 87 != 255;
#X obj 65 36 inlet gemlist;
#X obj 212 398 outlet gemlist;
#X obj 280 173 textfile;
#X obj 349 189 symbol;
#X obj 280 211 route symbol;
#X obj 280 122 t b a;
#X msg 349 234 bang;
#X msg 280 149 read text/color.txt \, rewind \, bang;
#X connect 0 0 12 0;
#X connect 1 0 0 1;
#X connect 2 0 0 2;
#X connect 3 0 0 3;
#X connect 4 0 0 4;
#X connect 5 0 1 0;
#X connect 5 1 2 0;
#X connect 5 2 3 0;
#X connect 6 0 5 0;
#X connect 6 1 20 0;
#X connect 7 0 6 0;
#X connect 8 0 1 0;
#X connect 9 0 2 0;
#X connect 10 0 3 0;
#X connect 11 0 13 0;
#X connect 12 0 16 0;
#X connect 13 0 4 0;
#X connect 13 1 14 0;
#X connect 14 0 12 0;
#X connect 15 0 0 0;
#X connect 17 0 19 0;
#X connect 18 0 19 1;
#X connect 19 0 5 0;
#X connect 19 1 21 0;
#X connect 20 0 22 0;
#X connect 20 1 18 0;
#X connect 21 0 17 0;
#X connect 22 0 17 0;
#X restore 292 569 pd colorRGBA;
#X obj 285 320 t f;
#X obj 310 320 t f;
#X obj 185 320 t a;
#X obj 103 55 r g.dimension;
#X obj 293 80 s g.getdimension;
#X obj 103 80 spigot 1;
#X msg 158 80 0;
#X obj 120 167 list append \$1 \$2 \$3 \$4 \$5 \$6 \$7 \$8 \$9 \$10
\$11 \$12 \$13 \$14 \$15 \$16 \$17 \$18 \$19 \$20 \$21 \$22 \$23 \$24
\$25 \$26 \$27 \$28 \$29 \$30;
#X msg 120 216 \$1 \$2 \, \$3 \$4 \, \$5 \$6 \, \$7 \$8 \, \$9 \$10
\, \$11 \$12 \, \$13 \$14 \, \$15 \$16 \, \$17 \$18 \, \$19 \$20 \,
\$21 \$22 \, \$23 \$24 \, \$25 \$26 \, \$27 \$28 \, \$29 \$30;
#X obj 411 320 t f;
#X obj 135 320 t b;
#X obj 40 33 inlet property;
#X obj 292 444 gemhead;
#X obj 360 320 t a;
#X obj 335 320 t f;
#X obj 292 602 text3d;
#N canvas 24 241 755 356 loadfonts 0;
#X obj 144 17 inlet;
#X obj 206 321 outlet;
#X obj 145 131 sel 1 2 3 4 5 6 7 8 9 10;
#X obj 123 181 symbol;
#X obj 169 182 symbol;
#X obj 214 182 symbol;
#X obj 259 182 symbol;
#X obj 303 182 symbol;
#X obj 348 182 symbol;
#X obj 392 183 symbol;
#X obj 437 183 symbol;
#X obj 485 183 symbol;
#X obj 15 45 r g.font-P0;
#X obj 89 45 r g.font-P1;
#X obj 164 44 r g.font-P2;
#X obj 238 45 r g.font-P3;
#X obj 311 45 r g.font-P4;
#X obj 384 46 r g.font-P5;
#X obj 457 47 r g.font-P6;
#X obj 529 47 r g.font-P7;
#X obj 600 46 r g.font-P8;
#X obj 672 45 r g.font-P9;
#X obj 171 107 s g.getfonts;
#X obj 129 107 f;
#X obj 59 81 r g.setfonts;
#X obj 144 81 t b f;
#X obj 72 181 symbol;
#X connect 0 0 25 0;
#X connect 2 0 26 0;
#X connect 2 1 3 0;
#X connect 2 2 4 0;
#X connect 2 3 5 0;
#X connect 2 4 6 0;
#X connect 2 5 7 0;
#X connect 2 6 8 0;
#X connect 2 7 9 0;
#X connect 2 8 10 0;
#X connect 2 9 11 0;
#X connect 3 0 1 0;
#X connect 4 0 1 0;
#X connect 5 0 1 0;
#X connect 6 0 1 0;
#X connect 7 0 1 0;
#X connect 8 0 1 0;
#X connect 9 0 1 0;
#X connect 10 0 1 0;
#X connect 11 0 1 0;
#X connect 12 0 26 1;
#X connect 13 0 3 1;
#X connect 14 0 4 1;
#X connect 15 0 5 1;
#X connect 16 0 6 1;
#X connect 17 0 7 1;
#X connect 18 0 8 1;
#X connect 19 0 9 1;
#X connect 20 0 10 1;
#X connect 21 0 11 1;
#X connect 23 0 2 0;
#X connect 24 0 23 0;
#X connect 25 0 22 0;
#X connect 25 1 23 1;
#X connect 26 0 1 0;
#X restore 417 508 pd loadfonts;
#N canvas 246 262 450 300 align 0;
#X obj 117 45 inlet;
#X obj 117 197 outlet;
#X obj 117 76 sel 0 1 2;
#X msg 117 106 justify center bottom;
#X msg 134 129 justify left bottom;
#X msg 151 152 justify right bottom;
#X connect 0 0 2 0;
#X connect 2 0 3 0;
#X connect 2 1 4 0;
#X connect 2 2 5 0;
#X connect 3 0 1 0;
#X connect 4 0 1 0;
#X connect 5 0 1 0;
#X restore 386 477 pd align;
#X obj 79 281 route x y p reset s c r g b a d f t l z v;
#X obj 386 320 t f;
#N canvas 104 105 607 542 maketext 0;
#X obj 237 516 outlet;
#X obj 173 12 inlet;
#X obj 173 115 gl/ext/zexy/symbol2list;
#X msg 276 90 symbol;
#X obj 231 262 list length;
#X obj 174 311 list split;
#X obj 231 286 - 1;
#X obj 173 173 until;
#X obj 173 201 list append;
#X obj 174 227 t a a;
#X obj 142 342 route bang;
#X obj 237 388 list;
#X obj 210 342 sel _;
#X obj 237 366 t b b;
#X obj 142 388 spigot;
#X msg 175 365 0;
#X msg 236 175 1;
#X obj 173 144 t b a b;
#X obj 237 436 gl/ext/iemlib/mergefilename;
#X obj 237 475 gl/ext/zexy/symbol2list _;
#X obj 173 60 gl/ext/zexy/list2symbol;
#X obj 276 12 inlet;
#X connect 1 0 20 0;
#X connect 2 0 17 0;
#X connect 3 0 2 1;
#X connect 4 0 6 0;
#X connect 5 0 10 0;
#X connect 5 1 12 0;
#X connect 6 0 5 1;
#X connect 7 0 8 0;
#X connect 8 0 9 0;
#X connect 9 0 5 0;
#X connect 9 1 4 0;
#X connect 10 0 7 1;
#X connect 10 0 14 0;
#X connect 10 1 8 1;
#X connect 10 1 11 1;
#X connect 11 0 18 0;
#X connect 12 1 13 0;
#X connect 13 0 11 0;
#X connect 13 1 7 1;
#X connect 13 1 15 0;
#X connect 14 0 18 0;
#X connect 15 0 14 1;
#X connect 16 0 14 1;
#X connect 17 0 7 0;
#X connect 17 1 8 1;
#X connect 17 1 11 1;
#X connect 17 2 16 0;
#X connect 18 0 19 0;
#X connect 19 0 0 0;
#X connect 20 0 2 0;
#X connect 21 0 3 0;
#X restore 360 417 pd maketext;
#X obj 103 102 route 0;
#X obj 189 55 r g.newdimension;
#X obj 189 80 r g.zloadbang;
#X obj 189 102 sel 0;
#N canvas 284 221 460 444 p 0;
#X obj 55 193 textfile;
#X obj 124 193 symbol;
#X obj 55 103 t b a;
#X obj 192 280 textfile;
#X obj 55 365 list append 0 0 0 0 0 0 0 0 0 0 0 0 0 0 0 0 0 0 0 0 0
0 0 0 0 0 0 0 0 0;
#X obj 192 308 list split 1;
#X obj 55 406 outlet;
#X obj 11 10 inlet;
#X obj 55 10 inlet;
#X obj 55 225 route symbol;
#X msg 124 252 bang;
#X obj 11 43 t b b;
#X obj 55 132 symbol;
#X msg 55 162 read \$1 \, rewind \, bang;
#X msg 192 252 read \$1 \, rewind \, bang;
#X obj 192 225 symbol;
#X msg 225 115 symbol text/p.label.txt;
#X connect 0 0 9 0;
#X connect 1 0 9 1;
#X connect 2 0 12 0;
#X connect 2 1 1 0;
#X connect 3 0 5 0;
#X connect 4 0 6 0;
#X connect 5 1 4 0;
#X connect 7 0 11 0;
#X connect 8 0 2 0;
#X connect 9 0 4 0;
#X connect 9 1 10 0;
#X connect 10 0 0 0;
#X connect 11 0 15 0;
#X connect 11 1 16 0;
#X connect 12 0 13 0;
#X connect 13 0 0 0;
#X connect 14 0 3 0;
#X connect 15 0 14 0;
#X connect 16 0 12 1;
#X connect 16 0 15 1;
#X restore 104 320 pd p;
#X msg 417 539 font font/\$1;
#N canvas 152 175 558 443 scale 0;
#X obj 103 14 inlet gemlist;
#X obj 103 333 scaleXYZ;
#X obj 244 316 t f f;
#X obj 244 264 / 40;
#X obj 244 242 * 1;
#X obj 244 14 inlet s;
#X obj 103 417 outlet;
#X obj 259 204 r g.scaleratio;
#X obj 413 127 /;
#X msg 413 43 \$2;
#X obj 413 70 / 120;
#X obj 440 213 i;
#X obj 440 186 + 0.5;
#X msg 413 100 32 \$1;
#X obj 413 14 inlet dimen;
#X obj 413 155 t f f;
#X obj 413 245 /;
#X obj 440 417 outlet;
#X obj 244 290 * 1;
#X connect 0 0 1 0;
#X connect 1 0 6 0;
#X connect 2 0 1 1;
#X connect 2 1 1 2;
#X connect 3 0 18 0;
#X connect 4 0 3 0;
#X connect 5 0 4 0;
#X connect 7 0 4 1;
#X connect 8 0 15 0;
#X connect 9 0 10 0;
#X connect 10 0 13 0;
#X connect 11 0 16 1;
#X connect 11 0 17 0;
#X connect 12 0 11 0;
#X connect 13 0 8 0;
#X connect 14 0 9 0;
#X connect 15 0 16 0;
#X connect 15 1 12 0;
#X connect 16 0 18 1;
#X connect 18 0 2 0;
#X restore 292 508 pd scale;
#X obj 160 320 t f;
#X obj 120 145 t b b;
#X obj 103 123 t b b l l b;
#X obj 0 0 cnv 20 20 20 \$0-xypos \$0-getpos pos 2 10 0 10 -228856
-66577 0;
#X obj 1 320 p.pos p.label \$0;
#X obj 437 320 t f;
#X msg 417 569 font font/arial.ttf;
#X msg 502 444 justify center bottom;
#N canvas 323 286 295 287 zv 0;
#X obj 29 47 moses 1;
#X obj 68 74 moses 101;
#X obj 29 217 change 1;
#X msg 29 164 0;
#X msg 68 164 set \$1;
#X obj 68 257 outlet;
#X msg 126 164 1;
#X obj 29 16 inlet;
#X msg 117 217 Z-order value out of range;
#X obj 209 16 inlet;
#X obj 209 47 spigot 1;
#X obj 209 74 != 0;
#X obj 68 137 +;
#X obj 133 74 t b f;
#X obj 68 111 f 50;
#N canvas 230 205 416 359 help 0;
#X obj 25 116 gl/ext/tof/getdollarzero root;
#X obj 25 140 t b a;
#X obj 52 307 outlet;
#X msg 25 46 1;
#X obj 25 69 change;
#X msg 25 92 bang;
#X msg 52 235 set \$1-help.file.z;
#X obj 52 284 change;
#X obj 52 261 gl/ext/iemlib/iem_r \$0-help.file.z.i;
#X obj 25 24 r help.file.mode;
#X msg 244 177 set \$1-help.file.get.z;
#X obj 25 202 gl/ext/iemlib/iem_s help.file.get.z.i;
#X connect 0 0 1 0;
#X connect 1 0 11 0;
#X connect 1 1 10 0;
#X connect 1 1 6 0;
#X connect 3 0 4 0;
#X connect 4 0 5 0;
#X connect 5 0 0 0;
#X connect 6 0 8 0;
#X connect 7 0 2 0;
#X connect 8 0 7 0;
#X connect 9 0 3 0;
#X connect 10 0 11 1;
#X restore 133 47 pd help;
#X obj 117 257 gl/ext/iemguts/canvaserror 1;
#X connect 0 0 3 0;
#X connect 0 1 1 0;
#X connect 1 0 6 0;
#X connect 1 0 14 0;
#X connect 1 1 3 0;
#X connect 2 0 5 0;
#X connect 2 0 10 1;
#X connect 3 0 2 0;
#X connect 3 0 8 0;
#X connect 4 0 5 0;
#X connect 6 0 2 0;
#X connect 7 0 0 0;
#X connect 8 0 16 0;
#X connect 9 0 10 0;
#X connect 10 0 11 0;
#X connect 11 0 5 0;
#X connect 12 0 4 0;
#X connect 13 0 14 0;
#X connect 13 1 12 1;
#X connect 14 0 12 0;
#X connect 15 0 13 0;
#X restore 292 417 pd zv;
#X obj 502 387 gl/ext/iemguts/canvaserror;
#N canvas 172 83 586 377 LICENSE-GPL 0;
#X text 57 88 This program is free software: you can redistribute it
and/or modify it under the terms of the GNU General Public License
as published by the Free Software Foundation \, either version 3 of
the License \, or (at your option) any later version.;
#X text 58 168 This program is distributed in the hope that it will
be useful \, but WITHOUT ANY WARRANTY \; without even the implied warranty
of MERCHANTABILITY or FITNESS FOR A PARTICULAR PURPOSE. See the GNU
General Public License for more details.;
#X text 57 261 You should have received a copy of the GNU General Public
License along with this program. If not \, see <http://www.gnu.org/licenses/>.
;
#X text 60 325 See the file LICENSE.txt for the full license text.
;
#X text 61 54 Copyright (C) 2016 \, Iceblink Digital \, Inc.;
#X restore 594 19 pd LICENSE-GPL;
#X connect 1 0 10 0;
#X connect 2 1 3 0;
#X connect 3 0 4 0;
#X connect 4 0 48 0;
#X connect 5 0 15 0;
#X connect 6 0 10 2;
#X connect 7 0 10 3;
#X connect 8 0 10 4;
#X connect 9 0 38 0;
#X connect 10 0 26 0;
#X connect 11 0 10 5;
#X connect 12 0 1 1;
#X connect 13 0 10 1;
#X connect 14 0 16 0;
#X connect 16 0 32 0;
#X connect 17 0 16 1;
#X connect 18 0 19 0;
#X connect 19 0 29 0;
#X connect 20 0 47 0;
#X connect 21 0 40 0;
#X connect 22 0 29 0;
#X connect 23 0 9 0;
#X connect 24 0 31 0;
#X connect 25 0 27 0;
#X connect 27 0 37 0;
#X connect 28 0 26 0;
#X connect 29 0 43 1;
#X connect 29 1 43 2;
#X connect 29 2 36 1;
#X connect 29 3 21 0;
#X connect 29 4 39 0;
#X connect 29 5 13 0;
#X connect 29 6 6 0;
#X connect 29 7 7 0;
#X connect 29 8 8 0;
#X connect 29 9 11 0;
#X connect 29 10 12 0;
#X connect 29 11 25 0;
#X connect 29 12 24 0;
#X connect 29 13 30 0;
#X connect 29 14 20 0;
#X connect 29 15 44 0;
#X connect 29 16 2 0;
#X connect 30 0 28 0;
#X connect 31 0 26 0;
#X connect 32 0 41 0;
#X connect 33 0 16 1;
#X connect 34 0 35 0;
#X connect 35 0 18 0;
#X connect 36 0 19 0;
#X connect 37 0 26 0;
#X connect 38 0 1 0;
#X connect 38 1 26 1;
#X connect 39 0 38 1;
#X connect 40 0 18 0;
#X connect 40 1 36 0;
#X connect 41 0 17 0;
#X connect 41 0 43 0;
#X connect 41 1 40 0;
#X connect 41 2 9 3;
#X connect 41 3 38 2;
#X connect 41 4 46 0;
#X connect 41 4 31 1;
#X connect 41 4 45 0;
#X connect 43 0 9 1;
#X connect 43 1 9 2;
#X connect 44 0 47 1;
#X connect 45 0 26 0;
#X connect 46 0 26 0;
#X connect 47 0 23 0;
