#N canvas 0 22 322 277 10;
#X obj 40 220 outlet;
#X obj 244 14 gemhead;
#X obj 40 129 gl/ext/iemguts/canvasposition 1;
#X obj 97 220 outlet;
#X obj 40 158 unpack f f;
#X obj 40 103 spigot;
#X msg 67 69 1;
#X obj 40 41 t b b;
#X msg 244 41 bang;
#X obj 108 104 pack f f;
#X obj 108 14 inlet x;
#X obj 168 14 inlet y;
#X obj 40 14 inlet;
#X obj 108 80 f;
#X obj 108 41 t b f;
#X obj 168 41 t b f;
#X connect 1 0 8 0;
#X connect 2 0 4 0;
#X connect 4 0 13 1;
#X connect 4 0 0 0;
#X connect 4 1 9 1;
#X connect 4 1 3 0;
#X connect 5 0 2 0;
#X connect 6 0 5 1;
#X connect 7 0 5 0;
#X connect 7 1 6 0;
#X connect 8 0 5 0;
#X connect 9 0 2 0;
#X connect 10 0 14 0;
#X connect 11 0 15 0;
#X connect 12 0 7 0;
#X connect 13 0 9 0;
#X connect 14 0 13 0;
#X connect 14 1 13 1;
#X connect 15 0 13 0;
#X connect 15 1 9 1;
