#N canvas 2 23 743 656 10;
#X obj 380 46 gl/ext/gem/load;
#X obj 320 482 rotate 0 0 0 1;
#X obj 478 309 route 0;
#X obj 517 331 list split 1;
#X msg 517 353 The property '\$1' does not exist;
#X obj 325 46 loadbang;
#X obj 260 309 t f;
#X obj 284 309 t f;
#X obj 308 309 t f;
#N canvas 283 145 473 517 translate 0;
#X obj 215 370 /;
#X obj 259 272 t b f;
#X obj 279 157 unpack f f;
#X obj 280 204 / 2;
#X obj 259 228 swap;
#X obj 259 251 -;
#X obj 215 174 t f f;
#X msg 215 345 8 \$1;
#X obj 228 229 -;
#X obj 243 205 / 2;
#X obj 190 396 translate;
#X obj 279 108 inlet dimension;
#X obj 163 108 inlet x;
#X obj 221 108 inlet y;
#X obj 68 108 inlet gemlist;
#X obj 190 427 outlet gemlist;
#X obj 163 145 * 1;
#X obj 221 145 * 1;
#X obj 374 128 r g.scaleratio;
#X obj 241 305 pack f f 0;
#X connect 0 0 10 1;
#X connect 1 0 19 0;
#X connect 1 1 19 1;
#X connect 2 0 9 0;
#X connect 2 1 6 0;
#X connect 3 0 4 1;
#X connect 4 0 5 0;
#X connect 4 1 5 1;
#X connect 5 0 1 0;
#X connect 6 0 7 0;
#X connect 6 1 3 0;
#X connect 7 0 0 0;
#X connect 8 0 19 0;
#X connect 9 0 8 1;
#X connect 10 0 15 0;
#X connect 11 0 2 0;
#X connect 12 0 16 0;
#X connect 13 0 17 0;
#X connect 14 0 10 0;
#X connect 16 0 8 0;
#X connect 17 0 4 0;
#X connect 18 0 16 1;
#X connect 18 0 17 1;
#X connect 19 0 10 2;
#X restore 320 455 pd translate;
#N canvas 231 179 522 440 colorRGBA 0;
#X obj 212 325 colorRGB;
#X obj 223 297 / 255;
#X obj 263 297 / 255;
#X obj 303 297 / 255;
#X obj 343 297 / 255;
#X obj 223 272 unpack f f f;
#X obj 223 87 route list;
#X obj 150 36 inlet color;
#X obj 223 36 inlet R;
#X obj 272 36 inlet G;
#X obj 321 36 inlet B;
#X obj 370 36 inlet A;
#X obj 212 363 alpha;
#X obj 370 64 t f f;
#X obj 397 87 != 255;
#X obj 65 36 inlet gemlist;
#X obj 212 398 outlet gemlist;
#X obj 280 172 textfile;
#X obj 349 188 symbol;
#X obj 280 210 route symbol;
#X obj 280 121 t b a;
#X msg 349 233 bang;
#X msg 280 148 read text/color.txt \, rewind \, bang;
#X connect 0 0 12 0;
#X connect 1 0 0 1;
#X connect 2 0 0 2;
#X connect 3 0 0 3;
#X connect 4 0 0 4;
#X connect 5 0 1 0;
#X connect 5 1 2 0;
#X connect 5 2 3 0;
#X connect 6 0 5 0;
#X connect 6 1 20 0;
#X connect 7 0 6 0;
#X connect 8 0 1 0;
#X connect 9 0 2 0;
#X connect 10 0 3 0;
#X connect 11 0 13 0;
#X connect 12 0 16 0;
#X connect 13 0 4 0;
#X connect 13 1 14 0;
#X connect 14 0 12 0;
#X connect 15 0 0 0;
#X connect 17 0 19 0;
#X connect 18 0 19 1;
#X connect 19 0 5 0;
#X connect 19 1 21 0;
#X connect 20 0 22 0;
#X connect 20 1 18 0;
#X connect 21 0 17 0;
#X connect 22 0 17 0;
#X restore 320 511 pd colorRGBA;
#X obj 332 309 t f;
#X obj 356 309 t f;
#X obj 236 309 t a;
#X obj 148 135 t b b;
#X obj 131 46 r g.dimension;
#X obj 325 71 s g.getdimension;
#X obj 131 71 spigot 1;
#X msg 186 71 0;
#X obj 131 114 t b b l l;
#X obj 148 158 list append \$1 \$2 \$3 \$4 \$5 \$6 \$7 \$8 \$9 \$10
\$11 \$12 \$13 \$14 \$15 \$16 \$17 \$18 \$19 \$20 \$21 \$22 \$23 \$24
\$25 \$26 \$27 \$28 \$29 \$30;
#X msg 148 207 \$1 \$2 \, \$3 \$4 \, \$5 \$6 \, \$7 \$8 \, \$9 \$10
\, \$11 \$12 \, \$13 \$14 \, \$15 \$16 \, \$17 \$18 \, \$19 \$20 \,
\$21 \$22 \, \$23 \$24 \, \$25 \$26 \, \$27 \$28 \, \$29 \$30;
#X obj 212 309 t f;
#X obj 428 309 t f;
#X obj 140 309 t b;
#X obj 47 24 inlet property;
#X obj 320 426 gemhead;
#X obj 131 92 route 0;
#X obj 220 46 r g.newdimension;
#X obj 220 71 r g.zloadbang;
#X obj 220 93 sel 0;
#N canvas 284 221 460 444 p 0;
#X obj 55 193 textfile;
#X obj 124 193 symbol;
#X obj 55 103 t b a;
#X obj 192 280 textfile;
#X obj 55 365 list append 0 0 0 0 0 0 0 0 0 0 0 0 0 0 0 0 0 0 0 0 0
0 0 0 0 0 0 0 0 0;
#X obj 192 308 list split 1;
#X obj 55 406 outlet;
#X obj 11 10 inlet;
#X obj 55 10 inlet;
#X obj 55 225 route symbol;
#X msg 124 252 bang;
#X obj 11 43 t b b;
#X obj 55 132 symbol;
#X msg 55 162 read \$1 \, rewind \, bang;
#X msg 192 252 read \$1 \, rewind \, bang;
#X obj 192 225 symbol;
#X msg 225 115 symbol text/p.scope.txt;
#X connect 0 0 9 0;
#X connect 1 0 9 1;
#X connect 2 0 12 0;
#X connect 2 1 1 0;
#X connect 3 0 5 0;
#X connect 4 0 6 0;
#X connect 5 1 4 0;
#X connect 7 0 11 0;
#X connect 8 0 2 0;
#X connect 9 0 4 0;
#X connect 9 1 10 0;
#X connect 10 0 0 0;
#X connect 11 0 15 0;
#X connect 11 1 16 0;
#X connect 12 0 13 0;
#X connect 13 0 0 0;
#X connect 14 0 3 0;
#X connect 15 0 14 0;
#X connect 16 0 12 1;
#X connect 16 0 15 1;
#X restore 110 309 pd p;
#X obj 164 309 t f;
#X obj 188 309 t f;
#X obj 0 0 cnv 20 20 20 \$0-xypos \$0-getpos pos 2 10 0 10 -228856
-66577 0;
#X obj 452 309 t f;
#X obj 8 309 p.pos p.scope \$0;
#N canvas 166 124 596 555 scope 0;
#X obj 163 467 *~ 1;
#X obj 329 109 expr size("$s1");
#X obj 163 409 *~ 1;
#X obj 149 329 *~ -1;
#X obj 149 351 +~ 1;
#X obj 128 374 min~;
#X obj 113 467 *~ 1;
#X obj 184 374 * 2;
#X obj 113 438 -~ 1;
#X obj 113 409 *~ 4;
#X obj 228 17 inlet w;
#X obj 278 17 inlet h;
#X obj 47 17 inlet gemlist;
#X obj 469 78 /;
#X msg 469 48 4 \$2;
#X obj 469 138 t f f;
#X obj 469 17 inlet dimension;
#X msg 96 267 width \$1;
#X obj 131 17 inlet linewidth;
#X obj 237 404 * 1;
#X obj 263 404 * 1;
#X obj 96 240 * 1;
#X obj 469 109 * 1;
#X obj 484 -18 r g.scaleratio;
#X obj 329 17 inlet arrayname;
#X obj 329 48 symbol;
#X obj 128 295 phasor~ 100;
#X obj 96 497 scopeXYZ~ 1024;
#X obj 329 438 table \$0-scope;
#X obj 329 167 until;
#X obj 329 281 tabwrite \$0-scope;
#X obj 329 195 f;
#X obj 355 195 + 1;
#X obj 163 438 tabread~ \$0-scope;
#X msg 372 167 0;
#X obj 329 253 tabread;
#X msg 406 167 set \$1;
#X obj 329 223 t f f;
#X obj 329 78 t a a;
#X obj 329 138 t f b f;
#X obj 384 223 s \$0-scope;
#X msg 384 195 resize \$1;
#X msg 191 268 0;
#X obj 191 242 del 640;
#X obj 162 243 t b;
#X connect 0 0 27 2;
#X connect 1 0 39 0;
#X connect 2 0 33 0;
#X connect 3 0 4 0;
#X connect 4 0 5 1;
#X connect 5 0 2 0;
#X connect 5 0 9 0;
#X connect 6 0 27 1;
#X connect 7 0 2 1;
#X connect 8 0 6 0;
#X connect 9 0 8 0;
#X connect 10 0 19 0;
#X connect 11 0 20 0;
#X connect 12 0 27 0;
#X connect 13 0 22 0;
#X connect 14 0 13 0;
#X connect 15 0 19 1;
#X connect 15 1 20 1;
#X connect 16 0 14 0;
#X connect 17 0 27 0;
#X connect 18 0 21 0;
#X connect 19 0 6 1;
#X connect 20 0 0 1;
#X connect 21 0 17 0;
#X connect 22 0 15 0;
#X connect 23 0 21 1;
#X connect 23 0 22 1;
#X connect 24 0 25 0;
#X connect 25 0 38 0;
#X connect 26 0 3 0;
#X connect 26 0 5 0;
#X connect 29 0 31 0;
#X connect 31 0 32 0;
#X connect 31 0 37 0;
#X connect 32 0 31 1;
#X connect 33 0 0 0;
#X connect 34 0 31 1;
#X connect 35 0 30 0;
#X connect 36 0 35 0;
#X connect 37 0 35 0;
#X connect 37 1 30 1;
#X connect 38 0 1 0;
#X connect 38 1 36 0;
#X connect 39 0 29 0;
#X connect 39 1 34 0;
#X connect 39 1 43 0;
#X connect 39 2 41 0;
#X connect 39 2 7 0;
#X connect 41 0 40 0;
#X connect 42 0 26 1;
#X connect 43 0 42 0;
#X connect 43 0 44 0;
#X connect 44 0 43 0;
#X restore 320 539 pd scope;
#X obj 86 271 route x y p reset w h s c r g b a d n l z v;
#X obj 404 309 t f;
#X obj 380 309 t a;
#N canvas 323 286 295 287 zv 0;
#X obj 29 47 moses 1;
#X obj 68 74 moses 101;
#X obj 29 217 change 1;
#X msg 29 164 0;
#X msg 68 164 set \$1;
#X obj 68 257 outlet;
#X msg 126 164 1;
#X obj 29 16 inlet;
#X msg 117 217 Z-order value out of range;
#X obj 209 16 inlet;
#X obj 209 47 spigot 1;
#X obj 209 74 != 0;
#X obj 68 137 +;
#X obj 133 74 t b f;
#X obj 68 111 f 50;
#N canvas 230 205 416 359 help 0;
#X obj 25 116 gl/ext/tof/getdollarzero root;
#X obj 25 140 t b a;
#X obj 52 307 outlet;
#X msg 25 46 1;
#X obj 25 69 change;
#X msg 25 92 bang;
#X msg 52 235 set \$1-help.file.z;
#X obj 52 284 change;
#X obj 52 261 gl/ext/iemlib/iem_r \$0-help.file.z.i;
#X obj 25 24 r help.file.mode;
#X msg 244 177 set \$1-help.file.get.z;
#X obj 25 202 gl/ext/iemlib/iem_s help.file.get.z.i;
#X connect 0 0 1 0;
#X connect 1 0 11 0;
#X connect 1 1 10 0;
#X connect 1 1 6 0;
#X connect 3 0 4 0;
#X connect 4 0 5 0;
#X connect 5 0 0 0;
#X connect 6 0 8 0;
#X connect 7 0 2 0;
#X connect 8 0 7 0;
#X connect 9 0 3 0;
#X connect 10 0 11 1;
#X restore 133 47 pd help;
#X obj 117 257 gl/ext/iemguts/canvaserror 1;
#X connect 0 0 3 0;
#X connect 0 1 1 0;
#X connect 1 0 6 0;
#X connect 1 0 14 0;
#X connect 1 1 3 0;
#X connect 2 0 5 0;
#X connect 2 0 10 1;
#X connect 3 0 2 0;
#X connect 3 0 8 0;
#X connect 4 0 5 0;
#X connect 6 0 2 0;
#X connect 7 0 0 0;
#X connect 8 0 16 0;
#X connect 9 0 10 0;
#X connect 10 0 11 0;
#X connect 11 0 5 0;
#X connect 12 0 4 0;
#X connect 13 0 14 0;
#X connect 13 1 12 1;
#X connect 14 0 12 0;
#X connect 15 0 13 0;
#X restore 320 399 pd zv;
#X obj 517 375 gl/ext/iemguts/canvaserror;
#N canvas 172 83 586 377 LICENSE-GPL 0;
#X text 57 88 This program is free software: you can redistribute it
and/or modify it under the terms of the GNU General Public License
as published by the Free Software Foundation \, either version 3 of
the License \, or (at your option) any later version.;
#X text 58 168 This program is distributed in the hope that it will
be useful \, but WITHOUT ANY WARRANTY \; without even the implied warranty
of MERCHANTABILITY or FITNESS FOR A PARTICULAR PURPOSE. See the GNU
General Public License for more details.;
#X text 57 261 You should have received a copy of the GNU General Public
License along with this program. If not \, see <http://www.gnu.org/licenses/>.
;
#X text 60 325 See the file LICENSE.txt for the full license text.
;
#X text 61 54 Copyright (C) 2016 \, Iceblink Digital \, Inc.;
#X restore 614 19 pd LICENSE-GPL;
#X connect 1 0 10 0;
#X connect 2 1 3 0;
#X connect 3 0 4 0;
#X connect 4 0 42 0;
#X connect 5 0 16 0;
#X connect 6 0 10 2;
#X connect 7 0 10 3;
#X connect 8 0 10 4;
#X connect 9 0 1 0;
#X connect 10 0 37 0;
#X connect 11 0 10 5;
#X connect 12 0 1 1;
#X connect 13 0 10 1;
#X connect 14 0 20 0;
#X connect 14 1 31 0;
#X connect 15 0 17 0;
#X connect 17 0 27 0;
#X connect 18 0 17 1;
#X connect 19 0 18 0;
#X connect 19 0 36 0;
#X connect 19 1 14 0;
#X connect 19 2 9 3;
#X connect 19 3 37 5;
#X connect 20 0 21 0;
#X connect 21 0 38 0;
#X connect 22 0 32 0;
#X connect 22 0 33 0;
#X connect 23 0 41 0;
#X connect 24 0 14 0;
#X connect 25 0 38 0;
#X connect 26 0 9 0;
#X connect 27 0 19 0;
#X connect 28 0 17 1;
#X connect 29 0 30 0;
#X connect 30 0 20 0;
#X connect 31 0 21 0;
#X connect 32 0 37 2;
#X connect 33 0 37 3;
#X connect 35 0 41 1;
#X connect 36 0 9 1;
#X connect 36 1 9 2;
#X connect 38 0 36 1;
#X connect 38 1 36 2;
#X connect 38 2 31 1;
#X connect 38 3 24 0;
#X connect 38 4 32 0;
#X connect 38 5 33 0;
#X connect 38 6 22 0;
#X connect 38 7 13 0;
#X connect 38 8 6 0;
#X connect 38 9 7 0;
#X connect 38 10 8 0;
#X connect 38 11 11 0;
#X connect 38 12 12 0;
#X connect 38 13 40 0;
#X connect 38 14 39 0;
#X connect 38 15 23 0;
#X connect 38 16 35 0;
#X connect 38 17 2 0;
#X connect 39 0 37 1;
#X connect 40 0 37 4;
#X connect 41 0 26 0;
