#N canvas 2 23 756 671 10;
#X obj 402 46 gl/ext/gem/load;
#X obj 340 450 rotate 0 0 0 1;
#X obj 498 309 route 0;
#X obj 537 331 list split 1;
#X msg 537 353 The property '\$1' does not exist;
#X obj 347 46 loadbang;
#X obj 280 309 t f;
#X obj 304 309 t f;
#X obj 328 309 t f;
#X obj 400 309 t f;
#N canvas 283 145 473 517 translate 0;
#X obj 215 370 /;
#X obj 259 272 t b f;
#X obj 279 157 unpack f f;
#X obj 280 204 / 2;
#X obj 259 228 swap;
#X obj 259 251 -;
#X obj 215 174 t f f;
#X msg 215 345 8 \$1;
#X obj 228 229 -;
#X obj 243 205 / 2;
#X obj 190 396 translate;
#X obj 279 108 inlet dimension;
#X obj 163 108 inlet x;
#X obj 221 108 inlet y;
#X obj 68 108 inlet gemlist;
#X obj 190 427 outlet gemlist;
#X obj 163 145 * 1;
#X obj 221 145 * 1;
#X obj 374 128 r g.scaleratio;
#X obj 241 305 pack f f 0;
#X connect 0 0 10 1;
#X connect 1 0 19 0;
#X connect 1 1 19 1;
#X connect 2 0 9 0;
#X connect 2 1 6 0;
#X connect 3 0 4 1;
#X connect 4 0 5 0;
#X connect 4 1 5 1;
#X connect 5 0 1 0;
#X connect 6 0 7 0;
#X connect 6 1 3 0;
#X connect 7 0 0 0;
#X connect 8 0 19 0;
#X connect 9 0 8 1;
#X connect 10 0 15 0;
#X connect 11 0 2 0;
#X connect 12 0 16 0;
#X connect 13 0 17 0;
#X connect 14 0 10 0;
#X connect 16 0 8 0;
#X connect 17 0 4 0;
#X connect 18 0 16 1;
#X connect 18 0 17 1;
#X connect 19 0 10 2;
#X restore 340 423 pd translate;
#N canvas 231 179 522 440 colorRGBA 0;
#X obj 212 325 colorRGB;
#X obj 223 297 / 255;
#X obj 263 297 / 255;
#X obj 303 297 / 255;
#X obj 343 297 / 255;
#X obj 223 272 unpack f f f;
#X obj 223 87 route list;
#X obj 150 36 inlet color;
#X obj 223 36 inlet R;
#X obj 272 36 inlet G;
#X obj 321 36 inlet B;
#X obj 370 36 inlet A;
#X obj 212 363 alpha;
#X obj 370 64 t f f;
#X obj 397 87 != 255;
#X obj 65 36 inlet gemlist;
#X obj 212 398 outlet gemlist;
#X obj 280 172 textfile;
#X obj 349 188 symbol;
#X obj 280 210 route symbol;
#X obj 280 121 t b a;
#X msg 349 233 bang;
#X msg 280 148 read text/color.txt \, rewind \, bang;
#X connect 0 0 12 0;
#X connect 1 0 0 1;
#X connect 2 0 0 2;
#X connect 3 0 0 3;
#X connect 4 0 0 4;
#X connect 5 0 1 0;
#X connect 5 1 2 0;
#X connect 5 2 3 0;
#X connect 6 0 5 0;
#X connect 6 1 20 0;
#X connect 7 0 6 0;
#X connect 8 0 1 0;
#X connect 9 0 2 0;
#X connect 10 0 3 0;
#X connect 11 0 13 0;
#X connect 12 0 16 0;
#X connect 13 0 4 0;
#X connect 13 1 14 0;
#X connect 14 0 12 0;
#X connect 15 0 0 0;
#X connect 17 0 19 0;
#X connect 18 0 19 1;
#X connect 19 0 5 0;
#X connect 19 1 21 0;
#X connect 20 0 22 0;
#X connect 20 1 18 0;
#X connect 21 0 17 0;
#X connect 22 0 17 0;
#X restore 340 533 pd colorRGBA;
#X obj 352 309 t f;
#X obj 376 309 t f;
#X obj 256 309 t a;
#X obj 82 627 outlet touchdown;
#X obj 196 627 outlet touchmoved;
#X obj 315 627 outlet touchup;
#X obj 168 135 t b b;
#X obj 153 46 r g.dimension;
#X obj 347 71 s g.getdimension;
#X obj 153 71 spigot 1;
#X msg 208 71 0;
#X obj 168 158 list append \$1 \$2 \$3 \$4 \$5 \$6 \$7 \$8 \$9 \$10
\$11 \$12 \$13 \$14 \$15 \$16 \$17 \$18 \$19 \$20 \$21 \$22 \$23 \$24
\$25 \$26 \$27 \$28 \$29 \$30;
#X msg 168 207 \$1 \$2 \, \$3 \$4 \, \$5 \$6 \, \$7 \$8 \, \$9 \$10
\, \$11 \$12 \, \$13 \$14 \, \$15 \$16 \, \$17 \$18 \, \$19 \$20 \,
\$21 \$22 \, \$23 \$24 \, \$25 \$26 \, \$27 \$28 \, \$29 \$30;
#X obj 232 309 t f;
#X obj 448 309 t f;
#X obj 160 309 t b;
#X obj 61 24 inlet property;
#N canvas 596 265 516 516 touchdown 0;
#X obj 78 176 -;
#X obj 115 177 -;
#X obj 78 197 abs;
#X obj 115 198 abs;
#X obj 78 268 &&;
#X obj 93 220 * 0.5;
#X obj 130 220 * 0.5;
#X obj 115 244 <=;
#X obj 78 244 <=;
#X obj 196 57 inlet w;
#X obj 248 57 inlet h;
#X obj 93 58 inlet x;
#X obj 143 57 inlet y;
#X obj 78 120 t f f;
#X obj 174 134 t f f;
#X obj 78 293 pack f f f;
#X obj 42 19 r g.touchdown.x;
#X obj 174 19 r g.touchdown.y;
#X obj 256 391 outlet;
#X obj 271 19 r g.touch.id;
#X obj 256 152 f;
#X obj 78 390 outlet;
#X obj 78 320 route 1;
#X obj 78 350 t a b;
#X connect 0 0 2 0;
#X connect 1 0 3 0;
#X connect 2 0 8 0;
#X connect 3 0 7 0;
#X connect 4 0 15 0;
#X connect 5 0 8 1;
#X connect 6 0 7 1;
#X connect 7 0 4 1;
#X connect 8 0 4 0;
#X connect 9 0 5 0;
#X connect 10 0 6 0;
#X connect 11 0 0 1;
#X connect 12 0 1 1;
#X connect 13 0 0 0;
#X connect 13 1 15 1;
#X connect 14 0 1 0;
#X connect 14 1 15 2;
#X connect 15 0 22 0;
#X connect 16 0 13 0;
#X connect 17 0 14 0;
#X connect 19 0 20 1;
#X connect 20 0 18 0;
#X connect 22 0 23 0;
#X connect 23 0 21 0;
#X connect 23 1 20 0;
#X restore 82 599 pd touchdown;
#N canvas 593 267 409 474 touchmoved 0;
#X obj 78 176 -;
#X obj 115 177 -;
#X obj 78 197 abs;
#X obj 115 198 abs;
#X obj 78 268 &&;
#X obj 93 220 * 0.5;
#X obj 130 220 * 0.5;
#X obj 115 244 <=;
#X obj 78 244 <=;
#X obj 196 57 inlet w;
#X obj 248 57 inlet h;
#X obj 93 58 inlet x;
#X obj 143 57 inlet y;
#X obj 78 135 t f f;
#X obj 181 135 t f f;
#X obj 78 293 pack f f f;
#X obj 112 416 outlet;
#X obj 5 39 r g.touchmoved.x;
#X obj 181 110 r g.touchmoved.y;
#X obj 285 110 r g.touch.id;
#X obj 78 317 list prepend;
#X obj 300 57 inlet id;
#X obj 78 365 list split 1;
#X obj 78 341 route -1;
#X connect 0 0 2 0;
#X connect 1 0 3 0;
#X connect 2 0 8 0;
#X connect 3 0 7 0;
#X connect 4 0 15 0;
#X connect 5 0 8 1;
#X connect 6 0 7 1;
#X connect 7 0 4 1;
#X connect 8 0 4 0;
#X connect 9 0 5 0;
#X connect 10 0 6 0;
#X connect 11 0 0 1;
#X connect 12 0 1 1;
#X connect 13 0 0 0;
#X connect 13 1 15 1;
#X connect 14 0 1 0;
#X connect 14 1 15 2;
#X connect 15 0 20 0;
#X connect 17 0 13 0;
#X connect 18 0 14 0;
#X connect 19 0 20 1;
#X connect 20 0 23 0;
#X connect 21 0 23 1;
#X connect 22 1 16 0;
#X connect 23 0 22 0;
#X restore 196 598 pd touchmoved;
#N canvas 732 253 424 462 touchup 0;
#X obj 78 176 -;
#X obj 115 177 -;
#X obj 78 197 abs;
#X obj 115 198 abs;
#X obj 78 268 &&;
#X obj 93 220 * 0.5;
#X obj 130 220 * 0.5;
#X obj 115 244 <=;
#X obj 78 244 <=;
#X obj 196 57 inlet w;
#X obj 248 57 inlet h;
#X obj 93 58 inlet x;
#X obj 143 57 inlet y;
#X obj 67 113 t f f;
#X obj 164 135 t f f;
#X obj 78 293 pack f f f;
#X obj 139 424 outlet;
#X obj 8 42 r g.touchup.x;
#X obj 164 110 r g.touchup.y;
#X obj 249 110 r g.touch.id;
#X obj 78 319 list prepend;
#X obj 300 57 inlet id;
#X obj 78 367 list split 1;
#X obj 112 387 t b a;
#X obj 230 424 outlet reset-id;
#X msg 112 407 -1;
#X obj 78 343 route -1;
#X connect 0 0 2 0;
#X connect 1 0 3 0;
#X connect 2 0 8 0;
#X connect 3 0 7 0;
#X connect 4 0 15 0;
#X connect 5 0 8 1;
#X connect 6 0 7 1;
#X connect 7 0 4 1;
#X connect 8 0 4 0;
#X connect 9 0 5 0;
#X connect 10 0 6 0;
#X connect 11 0 0 1;
#X connect 12 0 1 1;
#X connect 13 0 0 0;
#X connect 13 1 15 1;
#X connect 14 0 1 0;
#X connect 14 1 15 2;
#X connect 15 0 20 0;
#X connect 17 0 13 0;
#X connect 18 0 14 0;
#X connect 19 0 20 1;
#X connect 20 0 26 0;
#X connect 21 0 26 1;
#X connect 22 1 23 0;
#X connect 23 0 25 0;
#X connect 23 1 16 0;
#X connect 25 0 24 0;
#X connect 25 0 26 1;
#X connect 26 0 22 0;
#X restore 315 597 pd touchup;
#X obj 100 272 route x y p reset w h s c r g b a d f l z v;
#X obj 340 395 gemhead;
#X obj 153 92 route 0;
#X obj 242 46 r g.newdimension;
#X obj 242 71 r g.zloadbang;
#X obj 242 93 sel 0;
#N canvas 284 221 460 444 p 0;
#X obj 55 193 textfile;
#X obj 124 193 symbol;
#X obj 55 103 t b a;
#X obj 192 280 textfile;
#X obj 55 365 list append 0 0 0 0 0 0 0 0 0 0 0 0 0 0 0 0 0 0 0 0 0
0 0 0 0 0 0 0 0 0;
#X obj 192 308 list split 1;
#X obj 55 406 outlet;
#X obj 11 10 inlet;
#X obj 55 10 inlet;
#X obj 55 225 route symbol;
#X msg 124 252 bang;
#X obj 11 43 t b b;
#X obj 55 132 symbol;
#X msg 55 162 read \$1 \, rewind \, bang;
#X msg 192 252 read \$1 \, rewind \, bang;
#X obj 192 225 symbol;
#X msg 225 115 symbol text/p.triangle.txt;
#X connect 0 0 9 0;
#X connect 1 0 9 1;
#X connect 2 0 12 0;
#X connect 2 1 1 0;
#X connect 3 0 5 0;
#X connect 4 0 6 0;
#X connect 5 1 4 0;
#X connect 7 0 11 0;
#X connect 8 0 2 0;
#X connect 9 0 4 0;
#X connect 9 1 10 0;
#X connect 10 0 0 0;
#X connect 11 0 15 0;
#X connect 11 1 16 0;
#X connect 12 0 13 0;
#X connect 13 0 0 0;
#X connect 14 0 3 0;
#X connect 15 0 14 0;
#X connect 16 0 12 1;
#X connect 16 0 15 1;
#X restore 130 309 pd p;
#X obj 184 309 t f;
#X obj 208 309 t f;
#X obj 424 309 t f;
#X obj 0 0 cnv 20 20 20 \$0-xypos \$0-getpos pos 2 10 0 10 -228856
-66577 0;
#X obj 472 309 t f;
#N canvas 182 248 565 376 triangle 0;
#X obj 409 151 /;
#X msg 409 126 4 \$2;
#X msg 139 150 draw line;
#X msg 166 173 draw fill;
#X obj 409 99 inlet dimension;
#X obj 139 98 inlet fill;
#X obj 305 98 inlet w;
#X msg 207 151 width \$1;
#X obj 48 98 inlet gemlist;
#X obj 207 98 inlet linewidth;
#X obj 305 214 * 1;
#X obj 207 127 * 1;
#X obj 409 175 * 1;
#X obj 424 52 r g.scaleratio;
#X obj 139 127 sel 0;
#X obj 207 311 triangle;
#X connect 0 0 12 0;
#X connect 1 0 0 0;
#X connect 2 0 15 0;
#X connect 3 0 15 0;
#X connect 4 0 1 0;
#X connect 5 0 14 0;
#X connect 6 0 10 0;
#X connect 7 0 15 0;
#X connect 8 0 15 0;
#X connect 9 0 11 0;
#X connect 10 0 15 1;
#X connect 11 0 7 0;
#X connect 12 0 10 1;
#X connect 13 0 11 1;
#X connect 13 0 12 1;
#X connect 14 0 2 0;
#X connect 14 1 3 0;
#X restore 340 560 pd triangle;
#X obj 4 309 p.pos p.triangle \$0;
#N canvas 277 230 478 400 scale 0;
#X obj 343 125 /;
#X msg 343 100 4 \$2;
#X obj 343 171 t f f;
#X obj 343 73 inlet dimension;
#X obj 239 72 inlet w;
#X obj 291 72 inlet h;
#X obj 239 188 * 1;
#X obj 265 188 * 1;
#X obj 343 149 * 1;
#X obj 358 26 r g.scaleratio;
#X obj 239 244 /;
#X obj 239 215 t b f;
#X obj 209 275 scaleXYZ;
#X obj 78 72 inlet gemlist;
#X obj 209 343 outlet;
#X connect 0 0 8 0;
#X connect 1 0 0 0;
#X connect 2 0 6 1;
#X connect 2 1 7 1;
#X connect 3 0 1 0;
#X connect 4 0 6 0;
#X connect 5 0 7 0;
#X connect 6 0 11 0;
#X connect 7 0 10 0;
#X connect 8 0 2 0;
#X connect 9 0 8 1;
#X connect 10 0 12 2;
#X connect 11 0 10 0;
#X connect 11 1 10 1;
#X connect 12 0 14 0;
#X connect 13 0 12 0;
#X restore 340 506 pd scale;
#N canvas 328 80 416 597 translate 0;
#X obj 155 490 /;
#X obj 130 516 translate;
#X obj 279 18 inlet dimension;
#X obj 18 18 inlet gemlist;
#X obj 130 547 outlet gemlist;
#X obj 191 437 * 1;
#X obj 206 406 r g.scaleratio;
#X obj 130 18 inlet w;
#X obj 204 18 inlet h;
#X msg 191 465 0 \$1 0;
#X msg 155 465 8 \$2;
#X obj 221 175 pow 2;
#X obj 130 123 t f f f;
#X obj 206 208 +;
#X obj 149 175 pow 2;
#X obj 149 150 / 2;
#X obj 206 234 sqrt;
#X obj 206 260 * 2;
#X obj 206 286 +;
#X obj 191 313 /;
#X obj 130 260 *;
#X obj 130 98 f;
#X obj 202 98 f;
#X obj 130 71 t f b;
#X obj 241 313 / 2;
#X obj 175 71 t b f;
#X obj 191 367 -;
#X obj 191 341 swap;
#X obj 202 123 t f f f;
#X obj 271 547 outlet (h/2)-r;
#X connect 0 0 1 1;
#X connect 1 0 4 0;
#X connect 2 0 10 0;
#X connect 3 0 1 0;
#X connect 5 0 9 0;
#X connect 6 0 5 1;
#X connect 7 0 23 0;
#X connect 8 0 25 0;
#X connect 9 0 1 2;
#X connect 10 0 0 0;
#X connect 11 0 13 1;
#X connect 12 0 20 0;
#X connect 12 1 15 0;
#X connect 12 2 18 1;
#X connect 13 0 16 0;
#X connect 14 0 13 0;
#X connect 15 0 14 0;
#X connect 16 0 17 0;
#X connect 17 0 18 0;
#X connect 18 0 19 1;
#X connect 19 0 27 0;
#X connect 20 0 19 0;
#X connect 21 0 12 0;
#X connect 22 0 28 0;
#X connect 23 0 21 0;
#X connect 23 1 22 0;
#X connect 24 0 27 1;
#X connect 25 0 21 0;
#X connect 25 1 22 0;
#X connect 26 0 5 0;
#X connect 26 0 29 0;
#X connect 27 0 26 0;
#X connect 27 1 26 1;
#X connect 28 0 20 1;
#X connect 28 1 11 0;
#X connect 28 2 24 0;
#X restore 340 477 pd translate;
#X obj 153 114 t b b l l l l;
#X obj 128 494 t b f;
#X obj 115 531 -;
#N canvas 323 286 295 287 zv 0;
#X obj 29 47 moses 1;
#X obj 68 74 moses 101;
#X obj 29 217 change 1;
#X msg 29 164 0;
#X msg 68 164 set \$1;
#X obj 68 257 outlet;
#X msg 126 164 1;
#X obj 29 16 inlet;
#X msg 117 217 Z-order value out of range;
#X obj 209 16 inlet;
#X obj 209 47 spigot 1;
#X obj 209 74 != 0;
#X obj 68 137 +;
#X obj 133 74 t b f;
#X obj 68 111 f 50;
#N canvas 230 205 416 359 help 0;
#X obj 25 116 gl/ext/tof/getdollarzero root;
#X obj 25 140 t b a;
#X obj 52 307 outlet;
#X msg 25 46 1;
#X obj 25 69 change;
#X msg 25 92 bang;
#X msg 52 235 set \$1-help.file.z;
#X obj 52 284 change;
#X obj 52 261 gl/ext/iemlib/iem_r \$0-help.file.z.i;
#X obj 25 24 r help.file.mode;
#X msg 244 177 set \$1-help.file.get.z;
#X obj 25 202 gl/ext/iemlib/iem_s help.file.get.z.i;
#X connect 0 0 1 0;
#X connect 1 0 11 0;
#X connect 1 1 10 0;
#X connect 1 1 6 0;
#X connect 3 0 4 0;
#X connect 4 0 5 0;
#X connect 5 0 0 0;
#X connect 6 0 8 0;
#X connect 7 0 2 0;
#X connect 8 0 7 0;
#X connect 9 0 3 0;
#X connect 10 0 11 1;
#X restore 133 47 pd help;
#X obj 117 257 gl/ext/iemguts/canvaserror 1;
#X connect 0 0 3 0;
#X connect 0 1 1 0;
#X connect 1 0 6 0;
#X connect 1 0 14 0;
#X connect 1 1 3 0;
#X connect 2 0 5 0;
#X connect 2 0 10 1;
#X connect 3 0 2 0;
#X connect 3 0 8 0;
#X connect 4 0 5 0;
#X connect 6 0 2 0;
#X connect 7 0 0 0;
#X connect 8 0 16 0;
#X connect 9 0 10 0;
#X connect 10 0 11 0;
#X connect 11 0 5 0;
#X connect 12 0 4 0;
#X connect 13 0 14 0;
#X connect 13 1 12 1;
#X connect 14 0 12 0;
#X connect 15 0 13 0;
#X restore 340 368 pd zv;
#X obj 537 375 gl/ext/iemguts/canvaserror;
#N canvas 172 83 586 377 LICENSE-GPL 0;
#X text 57 88 This program is free software: you can redistribute it
and/or modify it under the terms of the GNU General Public License
as published by the Free Software Foundation \, either version 3 of
the License \, or (at your option) any later version.;
#X text 58 168 This program is distributed in the hope that it will
be useful \, but WITHOUT ANY WARRANTY \; without even the implied warranty
of MERCHANTABILITY or FITNESS FOR A PARTICULAR PURPOSE. See the GNU
General Public License for more details.;
#X text 57 261 You should have received a copy of the GNU General Public
License along with this program. If not \, see <http://www.gnu.org/licenses/>.
;
#X text 60 325 See the file LICENSE.txt for the full license text.
;
#X text 61 54 Copyright (C) 2016 \, Iceblink Digital \, Inc.;
#X restore 633 17 pd LICENSE-GPL;
#X connect 1 0 47 0;
#X connect 2 1 3 0;
#X connect 3 0 4 0;
#X connect 4 0 52 0;
#X connect 5 0 20 0;
#X connect 6 0 11 2;
#X connect 7 0 11 3;
#X connect 8 0 11 4;
#X connect 9 0 44 1;
#X connect 10 0 1 0;
#X connect 11 0 44 0;
#X connect 12 0 11 5;
#X connect 13 0 1 1;
#X connect 14 0 11 1;
#X connect 18 0 23 0;
#X connect 18 1 38 0;
#X connect 19 0 21 0;
#X connect 21 0 34 0;
#X connect 22 0 21 1;
#X connect 23 0 24 0;
#X connect 24 0 32 0;
#X connect 25 0 39 0;
#X connect 25 0 40 0;
#X connect 26 0 51 0;
#X connect 27 0 18 0;
#X connect 28 0 32 0;
#X connect 29 0 15 0;
#X connect 29 1 30 4;
#X connect 29 1 31 4;
#X connect 30 0 16 0;
#X connect 31 0 17 0;
#X connect 31 1 30 4;
#X connect 32 0 45 1;
#X connect 32 1 45 2;
#X connect 32 2 38 1;
#X connect 32 3 27 0;
#X connect 32 4 39 0;
#X connect 32 5 40 0;
#X connect 32 6 25 0;
#X connect 32 7 14 0;
#X connect 32 8 6 0;
#X connect 32 9 7 0;
#X connect 32 10 8 0;
#X connect 32 11 12 0;
#X connect 32 12 13 0;
#X connect 32 13 9 0;
#X connect 32 14 41 0;
#X connect 32 15 26 0;
#X connect 32 16 43 0;
#X connect 32 17 2 0;
#X connect 33 0 10 0;
#X connect 34 0 48 0;
#X connect 35 0 21 1;
#X connect 36 0 37 0;
#X connect 37 0 23 0;
#X connect 38 0 24 0;
#X connect 39 0 29 2;
#X connect 39 0 30 2;
#X connect 39 0 31 2;
#X connect 39 0 44 3;
#X connect 39 0 46 1;
#X connect 39 0 47 1;
#X connect 40 0 29 3;
#X connect 40 0 30 3;
#X connect 40 0 31 3;
#X connect 40 0 46 2;
#X connect 40 0 47 2;
#X connect 41 0 44 2;
#X connect 43 0 51 1;
#X connect 45 0 29 0;
#X connect 45 0 30 0;
#X connect 45 0 31 0;
#X connect 45 0 10 1;
#X connect 45 1 10 2;
#X connect 45 1 50 0;
#X connect 46 0 11 0;
#X connect 47 0 46 0;
#X connect 47 1 49 0;
#X connect 48 0 22 0;
#X connect 48 0 45 0;
#X connect 48 1 18 0;
#X connect 48 2 10 3;
#X connect 48 3 47 3;
#X connect 48 4 46 3;
#X connect 48 5 44 4;
#X connect 49 0 50 0;
#X connect 49 1 50 1;
#X connect 50 0 29 1;
#X connect 50 0 30 1;
#X connect 50 0 31 1;
#X connect 51 0 33 0;
