#N canvas 0 23 562 709 10;
#X obj 94 154 text define \$0-buffer;
#X obj 407 264 text search \$0-buffer 0;
#X obj 267 232 makefilename %c;
#X msg 267 203 44;
#X obj 267 605 text set \$0-buffer;
#X obj 407 296 sel -1;
#X msg 407 327 1e+09;
#X obj 267 174 t b b a;
#X obj 17 46 route load save read write;
#X obj 17 232 text search \$0-buffer 0;
#X obj 17 264 sel -1;
#X obj 17 203 t a a;
#X obj 17 296 list;
#X obj 17 174 list split 1;
#X obj 407 232 list split 1;
#X obj 17 357 print ERROR;
#X msg 17 327 The preset '\$1' does not exist;
#X obj 89 548 text get \$0-buffer;
#X obj 123 605 text fromlist \$0-temp;
#X obj 123 628 text define \$0-temp;
#X obj 89 576 list split 1;
#X obj 50 499 text get \$0-temp;
#X obj 143 523 sel 1;
#X obj 50 474 f;
#X msg 69 449 0;
#X obj 81 474 + 1;
#X obj 50 424 until;
#X msg 77 404 bang;
#X obj 267 576 list prepend;
#X msg 325 474 set;
#X obj 335 499 list prepend add2;
#X obj 335 523 list trim;
#X obj 50 651 s \$1-save.me.mmb;
#X obj 267 449 r \$1-my.hero.mmb;
#N canvas 660 26 531 435 order.force 0;
#X obj 255 56 inlet;
#X obj 239 309 f 1;
#X obj 273 309 + 1;
#X obj 239 226 f;
#X obj 239 253 until;
#X msg 321 119 0;
#X msg 292 254 1;
#X obj 255 93 t b b b;
#X obj 146 179 s \$1-save.me.mmb;
#X obj 313 166 r \$1-my.hero.mmb.getmax;
#X msg 146 159 getmax;
#X obj 239 346 outlet;
#X obj 313 207 max 0;
#X obj 351 207 t f;
#X connect 0 0 7 0;
#X connect 1 0 2 0;
#X connect 1 0 11 0;
#X connect 2 0 1 1;
#X connect 3 0 4 0;
#X connect 4 0 1 0;
#X connect 5 0 3 1;
#X connect 5 0 12 1;
#X connect 6 0 1 1;
#X connect 7 0 3 0;
#X connect 7 1 10 0;
#X connect 7 2 5 0;
#X connect 7 2 6 0;
#X connect 9 0 12 0;
#X connect 10 0 8 0;
#X connect 12 0 3 1;
#X connect 12 0 13 0;
#X connect 13 0 12 1;
#X restore 317 327 pd order.force;
#X obj 286 296 t b b b;
#X msg 286 357 save \$1;
#X msg 286 327 0;
#X obj 267 474 t b a;
#X msg 267 499 adddollar 1;
#X obj 50 523 list trim;
#X msg 267 548;
#X obj 17 6 inlet;
#X obj 185 75 list append \$2;
#X obj 55 101 route 0;
#X obj 185 101 route 0;
#X obj 55 6 loadbang;
#X obj 55 75 list append \$2;
#X obj 267 154 list;
#X obj 50 382 t b b f;
#X msg 94 126 clear \, read text/\$1.txt;
#X msg 244 126 write text/\$1.txt;
#X text 314 670 published under the GNU Public License;
#X text 314 628 copyright by Mmb;
#X text 314 649 modified by Iceblink Digital \, Inc.;
#X connect 1 0 5 0;
#X connect 2 0 41 0;
#X connect 3 0 2 0;
#X connect 5 0 6 0;
#X connect 5 1 4 1;
#X connect 6 0 4 1;
#X connect 7 0 3 0;
#X connect 7 1 35 0;
#X connect 7 2 14 0;
#X connect 8 0 48 1;
#X connect 8 0 13 0;
#X connect 8 1 48 0;
#X connect 8 2 47 0;
#X connect 8 3 43 0;
#X connect 8 4 48 1;
#X connect 8 4 13 0;
#X connect 9 0 10 0;
#X connect 10 0 12 0;
#X connect 10 1 49 0;
#X connect 11 0 9 0;
#X connect 11 1 12 1;
#X connect 12 0 16 0;
#X connect 13 0 11 0;
#X connect 14 0 1 0;
#X connect 14 0 28 1;
#X connect 16 0 15 0;
#X connect 17 0 20 0;
#X connect 20 1 18 0;
#X connect 21 0 40 0;
#X connect 21 1 22 0;
#X connect 22 1 27 0;
#X connect 23 0 25 0;
#X connect 23 0 21 0;
#X connect 24 0 23 1;
#X connect 25 0 23 1;
#X connect 26 0 23 0;
#X connect 27 0 26 1;
#X connect 28 0 4 0;
#X connect 29 0 41 0;
#X connect 30 0 31 0;
#X connect 31 0 41 0;
#X connect 33 0 38 0;
#X connect 34 0 36 0;
#X connect 35 0 37 0;
#X connect 35 1 34 0;
#X connect 35 2 29 0;
#X connect 36 0 32 0;
#X connect 37 0 36 0;
#X connect 38 0 39 0;
#X connect 38 1 30 0;
#X connect 39 0 41 0;
#X connect 40 0 32 0;
#X connect 41 0 28 0;
#X connect 42 0 8 0;
#X connect 43 0 45 0;
#X connect 44 1 50 0;
#X connect 45 1 51 0;
#X connect 46 0 47 0;
#X connect 46 0 29 0;
#X connect 47 0 44 0;
#X connect 48 0 7 0;
#X connect 49 0 26 0;
#X connect 49 1 24 0;
#X connect 49 2 17 0;
#X connect 50 0 0 0;
#X connect 51 0 0 0;
