#N canvas 400 279 438 444 10;
#X obj 70 271 textfile;
#X obj 70 294 t b a;
#X obj 97 317 route symbol;
#X obj 254 401 textfile;
#X obj 254 343 list prepend add;
#X obj 254 367 list trim;
#X msg 184 317 clear;
#X obj 43 69 route load save del print;
#X obj 97 363 spigot 1;
#X msg 152 339 0;
#X msg 124 339 1;
#X obj -18 0 loadbang;
#X obj 254 318 list append;
#X obj 43 0 inlet;
#X obj 124 38 symbol \$1;
#X obj 43 132 symbol;
#X obj 153 132 symbol;
#X obj 43 202 symbol;
#X obj 166 294 symbol;
#X obj 227 271 symbol;
#X obj 227 294 sel s;
#X msg 9 44 symbol;
#X obj 43 225 sel s;
#X obj 43 155 sel s;
#X obj 153 155 sel s;
#X obj 43 98 t b b a;
#X obj 91 98 t b b b b b a;
#X obj 175 98 t b b b b a;
#X obj 247 98 t b;
#X obj 124 0 inlet file;
#X obj 97 401 outlet loaded;
#X obj -18 21 t b b;
#X msg 180 202 read text/\$1.txt \, print;
#X msg 70 248 read text/\$1.txt \, rewind \, bang;
#X obj 238 132 symbol;
#X msg 70 177 write text/\$1.txt;
#N canvas 172 83 586 377 LICENSE-GPL 0;
#X text 57 88 This program is free software: you can redistribute it
and/or modify it under the terms of the GNU General Public License
as published by the Free Software Foundation \, either version 3 of
the License \, or (at your option) any later version.;
#X text 58 168 This program is distributed in the hope that it will
be useful \, but WITHOUT ANY WARRANTY \; without even the implied warranty
of MERCHANTABILITY or FITNESS FOR A PARTICULAR PURPOSE. See the GNU
General Public License for more details.;
#X text 57 261 You should have received a copy of the GNU General Public
License along with this program. If not \, see <http://www.gnu.org/licenses/>.
;
#X text 60 325 See the file LICENSE.txt for the full license text.
;
#X text 61 54 Copyright (C) 2016 \, Iceblink Digital \, Inc.;
#X restore 304 19 pd LICENSE-GPL;
#X connect 0 0 1 0;
#X connect 1 0 0 0;
#X connect 1 1 2 0;
#X connect 2 0 8 0;
#X connect 2 1 4 0;
#X connect 4 0 5 0;
#X connect 5 0 3 0;
#X connect 6 0 3 0;
#X connect 7 0 25 0;
#X connect 7 1 26 0;
#X connect 7 2 27 0;
#X connect 7 3 28 0;
#X connect 7 4 12 1;
#X connect 8 0 30 0;
#X connect 9 0 8 1;
#X connect 10 0 8 1;
#X connect 11 0 31 0;
#X connect 12 0 4 0;
#X connect 13 0 7 0;
#X connect 14 0 15 1;
#X connect 14 0 16 1;
#X connect 14 0 17 1;
#X connect 15 0 23 0;
#X connect 16 0 24 0;
#X connect 17 0 22 0;
#X connect 18 0 2 1;
#X connect 19 0 20 0;
#X connect 20 1 12 0;
#X connect 21 0 20 1;
#X connect 21 0 22 1;
#X connect 21 0 23 1;
#X connect 21 0 24 1;
#X connect 22 1 33 0;
#X connect 23 1 35 0;
#X connect 24 1 32 0;
#X connect 25 0 17 0;
#X connect 25 1 18 0;
#X connect 25 2 34 0;
#X connect 26 0 10 0;
#X connect 26 0 15 0;
#X connect 26 1 19 0;
#X connect 26 2 17 0;
#X connect 26 3 18 0;
#X connect 26 4 6 0;
#X connect 26 4 9 0;
#X connect 26 5 34 0;
#X connect 27 0 10 0;
#X connect 27 0 15 0;
#X connect 27 1 17 0;
#X connect 27 2 18 0;
#X connect 27 3 9 0;
#X connect 27 3 6 0;
#X connect 27 4 34 0;
#X connect 28 0 16 0;
#X connect 29 0 14 0;
#X connect 31 0 14 0;
#X connect 31 1 21 0;
#X connect 32 0 3 0;
#X connect 33 0 0 0;
#X connect 34 0 18 1;
#X connect 34 0 19 1;
#X connect 35 0 3 0;
