#N canvas 0 22 553 416 10;
#X obj 23 27 inlet;
#X obj 74 113 list trim;
#X obj 218 375 outlet;
#X obj 257 186 route \$3;
#X obj 319 186 f \$3;
#X msg 198 273;
#X obj 74 91 list prepend set \$1;
#X obj 218 152 route \$1 save getmax;
#X obj 23 58 route add;
#X obj 23 113 t b a;
#X msg 23 152 addcomma;
#X obj 50 213 list trim;
#X obj 50 186 list prepend add2 \$1;
#X obj 218 58 r \$2-save.me.mmb;
#X obj 198 328 s \$2-my.hero.mmb;
#X obj 319 213 s \$2-my.hero.mmb.getmax;
#X text 306 376 published under the GNU Public License;
#X text 306 334 copyright by Mmb;
#X text 306 355 modified by Iceblink Digital \, Inc.;
#X connect 0 0 8 0;
#X connect 1 0 5 0;
#X connect 3 0 5 0;
#X connect 4 0 15 0;
#X connect 5 0 14 0;
#X connect 6 0 1 0;
#X connect 7 0 2 0;
#X connect 7 1 3 0;
#X connect 7 2 4 0;
#X connect 8 0 9 0;
#X connect 8 1 6 0;
#X connect 9 0 10 0;
#X connect 9 1 12 0;
#X connect 10 0 5 0;
#X connect 11 0 5 0;
#X connect 12 0 11 0;
#X connect 13 0 7 0;
